<?xml version="1.0" encoding="UTF-8"?>
<svg width="50px" height="50px" viewBox="0 0 50 50" version="1.1" xmlns="http://www.w3.org/2000/svg" xmlns:xlink="http://www.w3.org/1999/xlink">
    <title>编组 9</title>
    <g id="页面-1" stroke="none" stroke-width="1" fill="none" fill-rule="evenodd">
        <g id="画图红包_首页" transform="translate(-297.000000, -104.000000)">
            <rect id="矩形" fill="#FFFFFF" x="0" y="0" width="375" height="812"></rect>
            <g id="编组-9" transform="translate(297.000000, 104.000000)">
                <circle id="椭圆形" fill="#D6F5FF" cx="25" cy="25" r="25"></circle>
                <g id="编组" transform="translate(7.000000, 12.000000)" fill-rule="nonzero">
                    <path d="M19.0590212,5.62022406 L21.2426887,2.13431604 C21.3029293,2.03816154 21.4056356,1.97673682 21.5188483,1.96915545 C21.6320611,1.96157408 21.7420404,2.00875618 21.8145637,2.09602005 C22.5627064,2.9959316 22.8111439,4.21866156 22.5599646,5.76420991 L19.0590212,5.62022406 L19.0590212,5.62022406 Z" id="路径" fill="#21ADD9"></path>
                    <path d="M11.3644458,23.0150059 L32.7704009,17.2792748 C34.4839917,16.3216097 35.3480837,14.8340802 35.3626769,12.8167748 L29.4825177,0.536409198 C29.2986457,0.152374581 28.867238,-0.0461391237 28.4559552,0.0640330189 L27.3202535,0.368278302 C26.9860443,0.457829834 26.7347454,0.734044409 26.6770932,1.07520637 C26.3910672,2.76695165 25.6865271,3.96394458 24.563296,4.66627358 C23.3567512,5.42069575 21.6254717,5.43997642 19.3696344,4.7243809 C19.2511594,4.68685154 19.1225087,4.73658423 19.0600825,4.84404481 L17.1076061,8.20480542 L0.982252358,18.8238502 C0.822294473,18.9291789 0.700849072,19.0835849 0.636173349,19.2638561 L0.0139740566,20.9982311 C1.37617925,24.0053066 5.15961085,24.6775649 11.3644458,23.0150059 Z" id="路径" fill="#A2B6BD"></path>
                    <path d="M17.4214033,7.66450472 L33.8653302,9.68941627 L34.4287146,10.8659788 L26.6998231,12.8057193 C26.6440759,12.8197077 26.5864264,12.8245467 26.5291274,12.8200472 L26.5006486,12.8170401 L18.2127948,11.7132665 C18.1015153,11.6984328 17.9883983,11.7192726 17.8897111,11.7727889 L11.5339917,15.2207547 C11.3365279,15.327857 11.0930196,15.2990214 10.9260318,15.1487618 L9.08207547,13.489829 L17.1076061,8.20480542 L17.4214033,7.66441627 L17.4214033,7.66450472 Z" id="路径" fill="#E5EEEC"></path>
                    <path d="M28.4559552,0.0640330189 C28.8672157,-0.0461525087 29.2986158,0.152320537 29.4825177,0.536320755 L33.9498821,9.86621462 L17.1076061,8.20480542 L19.0599941,4.84395637 C19.1224563,4.73648866 19.2511537,4.68678888 19.3696344,4.7243809 C21.6254717,5.43997642 23.3566627,5.42060731 24.563296,4.66627358 C25.6865271,3.96403302 26.3910672,2.76695165 26.6770932,1.07520637 C26.734777,0.734078286 26.9860699,0.457904868 27.3202535,0.368366745 L28.4559552,0.0640330189 Z" id="路径" fill="#16C8FF"></path>
                    <path d="M17.5892689,13.2071639 C18.2326061,13.0346993 21.2106722,13.2818986 26.5235554,13.9486733 L34.8112323,11.7064564 L35.335171,12.8005012 C35.3206663,14.7976415 34.4735554,16.2754422 32.7939269,17.2341686 L32.7428066,17.2630012 L11.3368514,22.9987323 C5.22275943,24.6369693 1.45966981,24.0081368 0.0476709906,21.1122347 L14.1270637,17.3026238 C15.7445165,14.7573998 16.8986144,13.3921875 17.5892689,13.2071639 Z" id="路径" fill="#6A7D88"></path>
                    <path d="M18.4798939,19.8615566 C19.1066038,18.8376474 19.5465212,18.2916863 19.7994693,18.2239387 C20.0525943,18.156191 21.3933078,18.28523 23.821875,18.6112323 L18.4798939,19.8615566 L18.4798939,19.8615566 Z" id="路径" fill="#FFFFFF"></path>
                </g>
            </g>
        </g>
    </g>
</svg>