<?xml version="1.0" encoding="UTF-8"?>
<svg width="16px" height="16px" viewBox="0 0 16 16" version="1.1" xmlns="http://www.w3.org/2000/svg" xmlns:xlink="http://www.w3.org/1999/xlink">
    <title>自定义@2x</title>
    <g id="页面-1" stroke="none" stroke-width="1" fill="none" fill-rule="evenodd">
        <g id="识物红包_设置" transform="translate(-142.000000, -576.000000)" fill-rule="nonzero">
            <g id="自定义" transform="translate(142.000000, 576.000000)">
                <rect id="矩形" fill="#000000" opacity="0" x="0" y="0" width="16" height="16"></rect>
                <path d="M10.875,7.5 L8.5,7.5 L8.5,5.125 C8.5,5.05625 8.44375,5 8.375,5 L7.625,5 C7.55625,5 7.5,5.05625 7.5,5.125 L7.5,7.5 L5.125,7.5 C5.05625,7.5 5,7.55625 5,7.625 L5,8.375 C5,8.44375 5.05625,8.5 5.125,8.5 L7.5,8.5 L7.5,10.875 C7.5,10.94375 7.55625,11 7.625,11 L8.375,11 C8.44375,11 8.5,10.94375 8.5,10.875 L8.5,8.5 L10.875,8.5 C10.94375,8.5 11,8.44375 11,8.375 L11,7.625 C11,7.55625 10.94375,7.5 10.875,7.5 Z" id="路径" fill="#8294FF"></path>
                <path d="M8,1 C4.134375,1 1,4.134375 1,8 C1,11.865625 4.134375,15 8,15 C11.865625,15 15,11.865625 15,8 C15,4.134375 11.865625,1 8,1 Z M8,13.8125 C4.790625,13.8125 2.1875,11.209375 2.1875,8 C2.1875,4.790625 4.790625,2.1875 8,2.1875 C11.209375,2.1875 13.8125,4.790625 13.8125,8 C13.8125,11.209375 11.209375,13.8125 8,13.8125 Z" id="形状" fill="#8294FF"></path>
            </g>
        </g>
    </g>
</svg>