<?xml version="1.0" encoding="UTF-8"?>
<svg width="50px" height="50px" viewBox="0 0 50 50" version="1.1" xmlns="http://www.w3.org/2000/svg" xmlns:xlink="http://www.w3.org/1999/xlink">
    <title>编组 6</title>
    <g id="页面-1" stroke="none" stroke-width="1" fill="none" fill-rule="evenodd">
        <g id="画图红包_首页" transform="translate(-28.000000, -104.000000)">
            <rect id="矩形" fill="#FFFFFF" x="0" y="0" width="375" height="812"></rect>
            <g id="编组-6" transform="translate(28.000000, 104.000000)">
                <circle id="椭圆形" fill="#F1E9FF" cx="25" cy="25" r="25"></circle>
                <g id="Icon" transform="translate(10.000000, 9.000000)">
                    <path d="M25.3964396,27.4747099 L7.83910631,31.8411243 C7.11752072,32.0204396 6.38728649,31.5810883 6.20797117,30.859791 L0.102601802,6.31089009 C-0.0767135135,5.5893045 0.362637838,4.85907027 1.08393514,4.67975495 L18.6415568,0.313340541 C19.3628541,0.134025225 20.0930883,0.573376577 20.2724036,1.29467387 L26.377773,25.8435748 C26.5570883,26.5651604 26.1177369,27.2953946 25.3964396,27.4747099" id="Fill-3" fill="#A2B6BD"></path>
                    <path d="M23.1436396,25.5614847 L9.17837838,29.0344937 C8.62976577,29.1708541 8.07394595,28.8393225 7.93383784,28.2915748 L2.01931532,5.47038559 L17.980973,1.50094414 L23.8917477,24.3080072 C24.0335856,24.8609441 23.6977297,25.4236829 23.1436396,25.5614847" id="Fill-5" fill="#FFFFFF"></path>
                    <path d="M17.1980685,5.65281441 L10.0139243,7.40618378 C9.79684324,7.46009369 9.57659099,7.33094054 9.51806847,7.11501261 C9.45781622,6.89274234 9.59215856,6.66441802 9.81558198,6.60877838 L16.9997261,4.85540901 C17.2168072,4.8014991 17.4367712,4.93094054 17.4952937,5.14658018 C17.5558342,5.36885045 17.4214919,5.59717477 17.1980685,5.65281441" id="Fill-7" fill="#E5EEEC"></path>
                    <path d="M17.9622919,7.89134414 L10.7781477,9.64471351 C10.5610667,9.69862342 10.3408144,9.56947027 10.2822919,9.35354234 C10.2220396,9.13127207 10.356382,8.90294775 10.5798054,8.84730811 L17.7639495,7.09393874 C17.9810306,7.04002883 18.2009946,7.16947027 18.2595171,7.38510991 C18.3200577,7.60738018 18.1857153,7.8357045 17.9622919,7.89134414" id="Fill-9" fill="#E5EEEC"></path>
                    <path d="M16.2085477,10.8099748 L11.5328,11.9066234 C11.3157189,11.9605333 11.095755,11.8313802 11.0372324,11.6154523 C10.9766919,11.393182 11.1110342,11.1648577 11.3344577,11.109218 L16.0102054,10.0125694 C16.2272865,9.95865946 16.4472505,10.0881009 16.505773,10.3037405 C16.5663135,10.5260108 16.4319712,10.7543351 16.2085477,10.8099748" id="Fill-11" fill="#E5EEEC"></path>
                    <path d="M18.3710559,18.3786955 L8.78921802,20.7660108 C8.57213694,20.8199207 8.35188468,20.6904793 8.29336216,20.4748396 C8.23310991,20.2525694 8.36745225,20.024245 8.59087568,19.9686054 L18.1727135,17.5812901 C18.3897946,17.5273802 18.6097586,17.6568216 18.6682811,17.8724613 C18.7288216,18.0947315 18.5944793,18.3230559 18.3710559,18.3786955" id="Fill-13" fill="#E5EEEC"></path>
                    <path d="M19.6629622,15.9839423 L8.23463784,18.7846631 C8.01755676,18.838573 7.7973045,18.7094198 7.73907027,18.4934919 C7.67852973,18.2715099 7.81287207,18.0428973 8.0362955,17.9875459 L19.4646198,15.1865369 C19.6817009,15.132627 19.9016649,15.2620685 19.9601874,15.4777081 C20.0207279,15.6999784 19.8863856,15.9283027 19.6629622,15.9839423" id="Fill-15" fill="#E5EEEC"></path>
                    <path d="M19.5395459,23.0902198 L9.95770811,25.4775351 C9.74062703,25.531445 9.52037477,25.4020036 9.46185225,25.186364 C9.4016,24.9640937 9.53594234,24.7357694 9.75936577,24.6801297 L19.3412036,22.2928144 C19.5582847,22.2389045 19.7782486,22.3683459 19.8367712,22.5839856 C19.8973117,22.8062559 19.7629694,23.0345802 19.5395459,23.0902198" id="Fill-17" fill="#E5EEEC"></path>
                    <path d="M20.8314523,20.6954667 L9.40312793,23.4961874 C9.18604685,23.5500973 8.96608288,23.4209441 8.90756036,23.2050162 C8.84701982,22.9830342 8.98136216,22.7544216 9.20478559,22.6990703 L20.6331099,19.8980613 C20.850191,19.8441514 21.070155,19.9735928 21.1286775,20.1892324 C21.189218,20.4115027 21.0548757,20.639827 20.8314523,20.6954667" id="Fill-19" fill="#E5EEEC"></path>
                    <path d="M6.10799279,4.94979459 L5.8124973,3.76147027 L13.7779027,1.78064144 L14.0733982,2.96867748 C14.1108757,3.11887568 14.0194883,3.2708036 13.8692901,3.30799279 L6.44730811,5.1539027 C6.29710991,5.19138018 6.14518198,5.09999279 6.10799279,4.94979459 M14.5865514,3.04305586 L14.0053622,0.728389189 L5.11397477,2.93956036 L5.67152432,5.16947027 C5.76550631,5.54597477 6.14777658,5.77401081 6.5237045,5.67801081 L14.1786234,3.72283964 C14.4793081,3.64817297 14.6620829,3.34345225 14.5865514,3.04305586" id="Fill-21" fill="#A2B6BD"></path>
                    <path d="M21.8173982,20.0793369 L20.9663712,23.5546523 C20.9038126,23.8106523 21.1517405,24.0329225 21.3993802,23.9426883 L24.7936865,22.7050667 L21.8173982,20.0793369 Z" id="Fill-23" fill="#CAD8D5"></path>
                    <path d="M22.5071856,22.3514811 C21.5837982,21.5621477 21.4751135,20.1734631 22.2647351,19.2500757 L28.0074378,12.5326703 C28.7967712,11.6092829 30.1854559,11.5008865 31.1088432,12.2902198 C32.0322306,13.0798414 32.1409153,14.4682378 31.3512937,15.3916252 L25.608591,22.1090306 C24.8192577,23.032418 23.430573,23.1408144 22.5071856,22.3514811" id="Fill-25" fill="#975BFF"></path>
                    <polygon id="Fill-27" fill="#E5EEEC" points="4.78619099 16.390573 4.71296577 16.1014198 16.6253261 13.1556901 16.6985514 13.4448432"></polygon>
                    <path d="M8.24812973,7.40903784 L9.47883243,12.1464793 C9.53966126,12.3799928 9.39984144,12.6181189 9.16661622,12.679236 L6.85281441,13.2984793 C6.61728288,13.360173 6.37656216,13.2174703 6.31803964,12.9810739 L5.12712072,8.19087568 C5.06830991,7.95476757 5.21360721,7.71606486 5.45058018,7.66013694 L7.7245982,7.09365045 C7.95580541,7.03887568 8.18845405,7.17898378 8.24812973,7.40903784" id="Fill-29" fill="#BB9BF2"></path>
                </g>
            </g>
        </g>
    </g>
</svg>