<?xml version="1.0" encoding="UTF-8"?>
<svg width="50px" height="50px" viewBox="0 0 50 50" version="1.1" xmlns="http://www.w3.org/2000/svg" xmlns:xlink="http://www.w3.org/1999/xlink">
    <title>编组 7</title>
    <g id="页面-1" stroke="none" stroke-width="1" fill="none" fill-rule="evenodd">
        <g id="画图红包_首页" transform="translate(-118.000000, -104.000000)">
            <rect id="矩形" fill="#FFFFFF" x="0" y="0" width="375" height="812"></rect>
            <g id="编组-7" transform="translate(118.000000, 104.000000)">
                <circle id="椭圆形" fill="#FEF4E6" cx="25" cy="25" r="25"></circle>
                <g id="编组-4" transform="translate(9.000000, 14.000000)">
                    <path d="M30,2.37392008 L29.9992569,1.31685096 C29.9992569,0.589461812 29.4121871,0 28.6894967,0 L6.41317061,0 C5.69048027,0 5.10638298,0.589461812 5.10638298,1.31685096 L5.10638298,20.7044256 C5.10638298,21.4318148 5.69456746,22.0212766 6.41762937,22.0212766 L28.6939555,22.0212766 C29.4166458,22.0212766 30,21.4318148 30,20.7044256 L30,2.37392008 Z" id="Fill-9" fill="#F9C200"></path>
                    <path d="M18.1914894,8.29787234 C18.1914894,9.88417626 16.9768993,11.1702128 15.4787234,11.1702128 C13.9805475,11.1702128 12.7659574,9.88417626 12.7659574,8.29787234 C12.7659574,6.71156842 13.9805475,5.42553191 15.4787234,5.42553191 C16.9768993,5.42553191 18.1914894,6.71156842 18.1914894,8.29787234" id="Fill-11" fill="#FFFFFF"></path>
                    <path d="M24.2553191,8.13829787 C24.2553191,9.2840339 23.3265871,10.212766 22.1808511,10.212766 C21.035115,10.212766 20.106383,9.2840339 20.106383,8.13829787 C20.106383,6.99256184 21.035115,6.06382979 22.1808511,6.06382979 C23.3265871,6.06382979 24.2553191,6.99256184 24.2553191,8.13829787" id="Fill-13" fill="#F89900"></path>
                    <path d="M25.1944253,15.6382979 C25.7379445,15.6382979 26.1768831,15.2169276 26.1702128,14.7029836 C26.1697612,14.6699976 26.1693863,14.6433959 26.1693863,14.6253068 C26.1693863,12.540801 24.3836445,10.8510638 22.1810796,10.8510638 C19.9781398,10.8510638 18.192398,12.540801 18.192398,14.6253068 C18.192398,14.6423319 18.1920231,14.6671601 18.1916483,14.6976633 C18.1819024,15.2137354 18.6215908,15.6382979 19.1673591,15.6382979 L25.1944253,15.6382979 Z" id="Fill-15" fill="#F89900"></path>
                    <path d="M19.4565384,18.8297872 C20.1738695,18.8297872 20.7533791,18.2120197 20.7446809,17.4578269 C20.7438489,17.4092688 20.7434824,17.3703452 20.7434824,17.3441392 C20.7434824,14.286903 18.3865898,11.8085106 15.4787783,11.8085106 C12.5713333,11.8085106 10.2140742,14.286903 10.2140742,17.3441392 C10.2140742,17.3691891 10.2137076,17.4050296 10.2129745,17.4501193 C10.2001454,18.2070098 10.7807547,18.8297872 11.5006516,18.8297872 L19.4565384,18.8297872 Z" id="Fill-17" fill="#FFFFFF"></path>
                    <path d="M11.3104253,3.19148936 L7.83888734,3.19148936 C7.56367919,3.19148936 7.34042553,2.97735694 7.34042553,2.71294681 C7.34042553,2.44853668 7.56367919,2.23404255 7.83888734,2.23404255 L11.3104253,2.23404255 C11.5856335,2.23404255 11.8085106,2.44853668 11.8085106,2.71294681 C11.8085106,2.97735694 11.5856335,3.19148936 11.3104253,3.19148936" id="Fill-19" fill="#F89900"></path>
                    <path d="M9.79943605,5.10638298 L7.75375544,5.10638298 C7.52551668,5.10638298 7.34042553,4.94035801 7.34042553,4.73563006 L7.34042553,4.5200508 C7.34042553,4.31496114 7.52551668,4.14893617 7.75375544,4.14893617 L9.79943605,4.14893617 C10.0276748,4.14893617 10.212766,4.31496114 10.212766,4.5200508 L10.212766,4.73563006 C10.212766,4.94035801 10.0276748,5.10638298 9.79943605,5.10638298" id="Fill-21" fill="#F89900"></path>
                    <g id="Icon" transform="translate(0.000000, 10.851064)">
                        <path d="M10.4085157,0.80937395 L10.4085157,0.8194005 C10.4085157,0.361264302 10.0295855,0 9.57887555,0 L5.10197551,0 C4.6512656,0 4.27233541,0.364657903 4.27233541,0.822794101 L4.27233541,0.812767551 C4.27233541,1.27090375 3.92041747,1.63216805 3.46970756,1.63216805 L1.47899623,1.63216805 C0.662103484,1.63216805 0,2.31875533 0,3.14910791 L0,11.2758579 C0,12.1062105 0.662103484,12.7659574 1.47899623,12.7659574 L13.2018548,12.7659574 C14.0187476,12.7659574 14.6808511,12.1062105 14.6808511,11.2758579 L14.6808511,3.14910791 C14.6808511,2.31875533 14.0187476,1.63216805 13.2018548,1.63216805 L11.2111435,1.63216805 C10.7604336,1.63216805 10.4085157,1.26751015 10.4085157,0.80937395" id="Fill-3" fill="#A2B6BD"></path>
                        <path d="M12.606383,2.87234043 C12.8708236,2.87234043 13.0851064,3.08662322 13.0851064,3.35106383 C13.0851064,3.61535105 12.8708236,3.82978723 12.606383,3.82978723 C12.3419424,3.82978723 12.1276596,3.61535105 12.1276596,3.35106383 C12.1276596,3.08662322 12.3419424,2.87234043 12.606383,2.87234043" id="Fill-5" fill="#FFFFFF"></path>
                        <path d="M7.34042553,3.19148936 C9.631892,3.19148936 11.4893617,5.04895907 11.4893617,7.34042553 C11.4893617,9.63174015 9.631892,11.4893617 7.34042553,11.4893617 C5.04895907,11.4893617 3.19148936,9.63174015 3.19148936,7.34042553 C3.19148936,5.04895907 5.04895907,3.19148936 7.34042553,3.19148936" id="Fill-7" fill="#768D9B"></path>
                        <path d="M7.5,4.14893617 C9.17446968,4.14893617 10.5319149,5.50638139 10.5319149,7.18085106 C10.5319149,8.85532074 9.17446968,10.212766 7.5,10.212766 C5.82553032,10.212766 4.46808511,8.85532074 4.46808511,7.18085106 C4.46808511,5.50638139 5.82553032,4.14893617 7.5,4.14893617" id="Fill-9" fill="#E5EEEC"></path>
                        <path d="M6.22340426,5.42553191 C6.8402846,5.42553191 7.34042553,5.92563939 7.34042553,6.54247846 C7.34042553,7.159467 6.8402846,7.65957447 6.22340426,7.65957447 C5.60652391,7.65957447 5.10638298,7.159467 5.10638298,6.54247846 C5.10638298,5.92563939 5.60652391,5.42553191 6.22340426,5.42553191" id="Fill-11" fill="#FFFFFF"></path>
                    </g>
                </g>
            </g>
        </g>
    </g>
</svg>