<?xml version="1.0" encoding="UTF-8"?>
<svg width="16px" height="16px" viewBox="0 0 16 16" version="1.1" xmlns="http://www.w3.org/2000/svg" xmlns:xlink="http://www.w3.org/1999/xlink">
    <title>刷新@1x</title>
    <g id="页面-1" stroke="none" stroke-width="1" fill="none" fill-rule="evenodd">
        <g id="识物红包_设置" transform="translate(-156.000000, -616.000000)" fill-rule="nonzero">
            <g id="刷新" transform="translate(156.000000, 616.000000)">
                <rect id="矩形" fill="#000000" opacity="0" x="0" y="0" width="16" height="16"></rect>
                <path d="M2.625,7.878125 C2.640625,7.1953125 2.78125,6.5328125 3.0453125,5.909375 C3.315625,5.26875 3.703125,4.6953125 4.196875,4.2 C4.690625,3.7046875 5.265625,3.3171875 5.90625,3.046875 C6.56875,2.7671875 7.271875,2.625 7.9984375,2.625 C8.725,2.625 9.428125,2.7671875 10.0890625,3.046875 C10.728125,3.3171875 11.303125,3.7046875 11.796875,4.2 C11.9515625,4.3546875 12.096875,4.51875 12.23125,4.690625 L11.290625,5.425 C11.2078125,5.4890625 11.2359375,5.6203125 11.3375,5.6453125 L14.0828125,6.3171875 C14.1609375,6.3359375 14.2375,6.2765625 14.2375,6.196875 L14.25,3.3703125 C14.25,3.265625 14.1296875,3.20625 14.0484375,3.271875 L13.1671875,3.9609375 C11.965625,2.4234375 10.096875,1.4375 7.996875,1.4375 C4.4171875,1.4375 1.5046875,4.30625 1.43746822,7.871875 C1.4359375,7.9421875 1.4921875,8 1.5625,8 L2.5,8 C2.56875,8 2.6234375,7.9453125 2.625,7.878125 Z M14.4375,8 L13.5,8 C13.43125,8 13.3765625,8.0546875 13.375,8.121875 C13.359375,8.8046875 13.21875,9.4671875 12.9546875,10.090625 C12.684375,10.73125 12.296875,11.30625 11.803125,11.8 C11.309375,12.29375 10.734375,12.6828125 10.09375,12.953125 C9.43125,13.2328125 8.728125,13.375 8.0015625,13.375 C7.275,13.375 6.571875,13.2328125 5.909375,12.953125 C5.2703125,12.6828125 4.6953125,12.2953125 4.2015625,11.8 C4.046875,11.6453125 3.9015625,11.48125 3.7671875,11.309375 L4.7078125,10.575 C4.790625,10.5109375 4.7625,10.3796875 4.6609375,10.3546875 L1.915625,9.6828125 C1.8375,9.6640625 1.7609375,9.7234375 1.7609375,9.803125 L1.75,12.63125 C1.75,12.7359375 1.8703125,12.7953125 1.9515625,12.7296875 L2.8328125,12.040625 C4.034375,13.5765625 5.903125,14.5625 8.003125,14.5625 C11.584375,14.5625 14.4953125,11.6921875 14.5625318,8.128125 C14.5640625,8.0578125 14.5078125,8 14.4375,8 Z" id="形状" fill="#8294FF"></path>
            </g>
        </g>
    </g>
</svg>