<?xml version="1.0" encoding="UTF-8"?>
<svg width="15px" height="16px" viewBox="0 0 15 16" version="1.1" xmlns="http://www.w3.org/2000/svg" xmlns:xlink="http://www.w3.org/1999/xlink">
    <title>形状</title>
    <g id="页面-1" stroke="none" stroke-width="1" fill="none" fill-rule="evenodd">
        <g id="画图红包_首页" transform="translate(-151.000000, -761.000000)">
            <rect id="矩形" fill="#FFFFFF" x="0" y="0" width="375" height="812"></rect>
            <path d="M165.111406,773.914062 C164.742265,773.039062 164.211015,772.253906 163.537187,771.580078 C162.863359,770.90625 162.078203,770.376953 161.203203,770.005859 C161.19539,770.001953 161.187578,770 161.179765,769.996094 C162.396562,769.117188 163.187578,767.685547 163.187578,766.070312 C163.187578,763.394531 161.019609,761.226562 158.343828,761.226562 C155.668047,761.226562 153.500078,763.394531 153.500078,766.070312 C153.500078,767.685547 154.291093,769.117188 155.50789,769.998047 C155.500078,770.001953 155.492265,770.003906 155.484453,770.007812 C154.609453,770.376953 153.824297,770.90625 153.150468,771.582031 C152.47664,772.255859 151.947343,773.041016 151.57625,773.916016 C151.212968,774.771484 151.019609,775.679688 151.000038,776.613281 C150.998125,776.701172 151.068437,776.773438 151.156328,776.773438 L152.328203,776.773438 C152.41414,776.773438 152.4825,776.705078 152.484453,776.621094 C152.523515,775.113281 153.128984,773.701172 154.199297,772.630859 C155.306718,771.523438 156.777422,770.914062 158.343828,770.914062 C159.910234,770.914062 161.380937,771.523438 162.488359,772.630859 C163.558672,773.701172 164.16414,775.113281 164.203203,776.621094 C164.205156,776.707031 164.273515,776.773438 164.359453,776.773438 L165.531328,776.773438 C165.619218,776.773438 165.689531,776.701172 165.687618,776.613281 C165.668047,775.679688 165.474687,774.771484 165.111406,773.914062 Z M158.343828,769.429688 C157.447343,769.429688 156.603593,769.080078 155.968828,768.445312 C155.334062,767.810547 154.984453,766.966797 154.984453,766.070312 C154.984453,765.173828 155.334062,764.330078 155.968828,763.695312 C156.603593,763.060547 157.447343,762.710938 158.343828,762.710938 C159.240312,762.710938 160.084062,763.060547 160.718828,763.695312 C161.353593,764.330078 161.703203,765.173828 161.703203,766.070312 C161.703203,766.966797 161.353593,767.810547 160.718828,768.445312 C160.084062,769.080078 159.240312,769.429688 158.343828,769.429688 Z" id="形状" fill="#8294FF" fill-rule="nonzero"></path>
        </g>
    </g>
</svg>