<?xml version="1.0" encoding="UTF-8"?>
<svg width="40px" height="50px" viewBox="0 0 40 50" version="1.1" xmlns="http://www.w3.org/2000/svg" xmlns:xlink="http://www.w3.org/1999/xlink">
    <title>形状</title>
    <defs>
        <rect id="path-1" x="0" y="0" width="325" height="70" rx="16"></rect>
        <filter x="-4.9%" y="-20.0%" width="109.8%" height="145.7%" filterUnits="objectBoundingBox" id="filter-2">
            <feOffset dx="0" dy="2" in="SourceAlpha" result="shadowOffsetOuter1"></feOffset>
            <feGaussianBlur stdDeviation="5" in="shadowOffsetOuter1" result="shadowBlurOuter1"></feGaussianBlur>
            <feColorMatrix values="0 0 0 0 0.897068799   0 0 0 0 0.921990693   0 0 0 0 0.999003112  0 0 0 1 0" type="matrix" in="shadowBlurOuter1"></feColorMatrix>
        </filter>
        <rect id="path-3" x="0" y="0" width="325" height="70" rx="16"></rect>
    </defs>
    <g id="页面-1" stroke="none" stroke-width="1" fill="none" fill-rule="evenodd">
        <g id="画图红包_首页" transform="translate(-25.000000, -438.000000)">
            <rect id="矩形" fill="#FFFFFF" x="0" y="0" width="375" height="812"></rect>
            <g id="编组-3" transform="translate(25.000000, 428.000000)">
                <g id="矩形">
                    <use fill="black" fill-opacity="1" filter="url(#filter-2)" xlink:href="#path-1"></use>
                    <use fill="#FFFFFF" fill-rule="evenodd" xlink:href="#path-1"></use>
                </g>
                <mask id="mask-4" fill="white">
                    <use xlink:href="#path-3"></use>
                </mask>
                <use id="矩形" fill="#FFFFFF" xlink:href="#path-3"></use>
                <path d="M15,10 C1.19294856,10 -10,21.1929486 -10,35 C-10,48.8070514 1.19294856,60 15,60 C28.8070514,60 40,48.8070514 40,35 C40,21.1929486 28.8070514,10 15,10 Z M18.1091524,49.0545762 C18.1091524,50.8959189 16.6179667,52.3871046 14.776624,52.3871046 L14.3419464,52.3871046 C12.5006037,52.3871046 11.009418,50.8959189 11.009418,49.0545762 C11.009418,47.2132335 12.5006037,45.7220478 14.3419464,45.7220478 L14.776624,45.7220478 C16.6179667,45.7220478 18.1091524,47.2132335 18.1091524,49.0545762 Z M21.0070031,36.5998551 C18.3989375,38.4351606 17.1914996,40.2221686 17.3846897,41.960879 L17.3846897,43.1200193 L11.5889882,43.1200193 L11.5889882,41.5262014 C11.4923931,38.5317556 12.7481285,36.1651775 15.3561942,34.426467 C17.7710698,32.5911616 18.9302101,30.8524511 18.8336151,29.2103357 C18.640425,27.1818401 17.4812847,26.0709973 15.3561942,25.8778073 C13.4544796,25.8778073 12.0598889,26.8075344 11.1905337,28.6609515 C10.5324801,30.0555421 9.01110843,30.816228 7.50181116,30.5204057 C5.28616276,30.0857281 4.10891089,27.6406665 5.1533446,25.6423569 C7.17580295,21.7906303 10.912823,19.9372132 16.3764791,20.0821058 C22.3653707,20.4684859 25.6435644,23.1731466 26.2231345,28.1960879 C26.4102874,31.4803188 24.6715769,34.2815745 21.0070031,36.5998551 Z" id="形状" fill="#E5EBFF" fill-rule="nonzero" mask="url(#mask-4)"></path>
            </g>
        </g>
    </g>
</svg>