<?xml version="1.0" encoding="UTF-8"?>
<svg width="50px" height="50px" viewBox="0 0 50 50" version="1.1" xmlns="http://www.w3.org/2000/svg" xmlns:xlink="http://www.w3.org/1999/xlink">
    <title>编组 8</title>
    <g id="页面-1" stroke="none" stroke-width="1" fill="none" fill-rule="evenodd">
        <g id="画图红包_首页" transform="translate(-207.000000, -104.000000)">
            <rect id="矩形" fill="#FFFFFF" x="0" y="0" width="375" height="812"></rect>
            <g id="编组-8" transform="translate(207.000000, 104.000000)">
                <circle id="椭圆形" fill="#E1F5EA" cx="25" cy="25" r="25"></circle>
                <g id="编组-5" transform="translate(12.000000, 10.000000)">
                    <g id="Icon" transform="translate(0.000000, 11.268293)">
                        <path d="M23.4584341,16.4073854 L17.5050195,16.4073854 L17.5050195,9.83626341 L23.4584341,9.83626341 C24.938678,9.83626341 26.1385805,11.0361659 26.1385805,12.5160683 L26.1385805,13.727239 C26.1385805,15.2074829 24.938678,16.4073854 23.4584341,16.4073854" id="Fill-3" fill="#56A856"></path>
                        <path d="M17.644439,16.4456293 L0.258487805,16.4456293 L0.258487805,15.4249951 L1.22278049,15.4249951 L1.22278049,10.8568976 L0.258487805,10.8568976 L0.258487805,9.83592195 L17.644439,9.83592195 C18.732,9.83592195 19.6136585,10.717922 19.6136585,11.8054829 L19.6136585,14.4764098 C19.6136585,15.5639707 18.732,16.4456293 17.644439,16.4456293" id="Fill-5" fill="#66BE66"></path>
                        <path d="M17.4129268,15.4248585 L1.22278049,15.4248585 L1.22278049,10.856761 L17.4129268,10.856761 C18.0193659,10.856761 18.5110732,11.3484683 18.5110732,11.9552488 L18.5110732,14.3267122 C18.5110732,14.9331512 18.0193659,15.4248585 17.4129268,15.4248585" id="Fill-7" fill="#E5EEEC"></path>
                        <path d="M6.39106829,9.83609268 L13.3453122,9.83609268 L13.3453122,5.1198 L6.39106829,5.1198 C5.08872683,5.1198 4.03292195,6.17560488 4.03292195,7.47794634 C4.03292195,8.7802878 5.08872683,9.83609268 6.39106829,9.83609268" id="Fill-9" fill="#8ED1C2"></path>
                        <path d="M21.6243659,5.11652195 L17.6210488,5.11652195 L17.6210488,0.0553512195 L21.6243659,0.0553512195 C22.7033902,0.0553512195 23.5782195,0.930180488 23.5782195,2.00920488 L23.5782195,3.16266829 C23.5782195,4.24169268 22.7033902,5.11652195 21.6243659,5.11652195" id="Fill-11" fill="#56A856"></path>
                        <path d="M12.3177805,9.85541951 L27.049878,9.85541951 L27.049878,9.12400488 L26.2327561,9.12400488 L26.2327561,5.85107805 L27.049878,5.85107805 L27.049878,5.11966341 L12.3177805,5.11966341 C11.3961707,5.11966341 10.6490488,5.75137073 10.6490488,6.53093171 L10.6490488,8.44449268 C10.6490488,9.2237122 11.3961707,9.85541951 12.3177805,9.85541951" id="Fill-13" fill="#6DAF9E"></path>
                        <path d="M12.4390683,9.12403902 L26.2324829,9.12403902 L26.2324829,5.8511122 L12.4390683,5.8511122 C11.9664829,5.8511122 11.583361,6.23423415 11.583361,6.70681951 L11.583361,8.26833171 C11.583361,8.74091707 11.9664829,9.12403902 12.4390683,9.12403902" id="Fill-15" fill="#E5EEEC"></path>
                        <path d="M17.5351024,5.12058537 L1.56280976,5.12058537 L1.56280976,4.18292683 L2.44890732,4.18292683 L2.44890732,0.915804878 L1.56280976,0.915804878 L1.56280976,0.0112682927 L17.5351024,0.0112682927 C18.5342244,0.0112682927 19.3441756,0.821219512 19.3441756,1.82068293 L19.3441756,3.3115122 C19.3441756,4.31063415 18.5342244,5.12058537 17.5351024,5.12058537" id="Fill-17" fill="#66BE66"></path>
                        <path d="M17.4411659,4.18279024 L2.44887317,4.18279024 L2.44887317,0.916009756 L17.4411659,0.916009756 C17.9328732,0.916009756 18.331361,1.31449756 18.331361,1.80620488 L18.331361,3.29259512 C18.331361,3.78430244 17.9328732,4.18279024 17.4411659,4.18279024" id="Fill-19" fill="#E5EEEC"></path>
                    </g>
                    <g id="Group-25" transform="translate(8.195122, 0.000000)">
                        <path d="M4.95121951,1.36585366 C4.85696138,1.36585366 4.7804878,1.2934447 4.7804878,1.20419646 L4.7804878,0.503120615 C4.7804878,0.413872369 4.85696138,0.341463415 4.95121951,0.341463415 C5.04547764,0.341463415 5.12195122,0.413872369 5.12195122,0.503120615 L5.12195122,1.20419646 C5.12195122,1.2934447 5.04547764,1.36585366 4.95121951,1.36585366" id="Fill-3" fill="#93CF70"></path>
                        <path d="M2.31101157,2.35168365 C2.22558956,2.41770014 2.1066491,2.3968599 2.04511523,2.30516287 L0.718885347,0.324399362 C0.657351482,0.232567875 0.676737151,0.104702949 0.762159163,0.0385520088 C0.847456106,-0.0274644779 0.966521633,-0.00662424282 1.02793043,0.0852072448 L2.35428538,2.0658363 C2.41581925,2.15766779 2.39643358,2.28566717 2.31101157,2.35168365" id="Fill-5" fill="#56A856"></path>
                        <path d="M1.52144474,11.2547078 C1.39678798,11.2141212 1.33424688,11.0950269 1.38175542,10.9885326 L2.280447,9.56097561 L2.73170732,9.70781419 L1.83301574,11.1353712 C1.78550719,11.2418655 1.6461015,11.2952944 1.52144474,11.2547078" id="Fill-7" fill="#768D9B"></path>
                        <path d="M8.38575514,11.2547078 C8.50659759,11.2141212 8.56722503,11.0950269 8.52117017,10.9885326 L7.60804666,9.56097561 L7.17073171,9.70781419 L8.08371774,11.1353712 C8.1297726,11.2418655 8.26491268,11.2952944 8.38575514,11.2547078" id="Fill-9" fill="#768D9B"></path>
                        <path d="M0.408670935,3.07317073 L0.492317145,2.96789551 C1.30234388,1.94817319 2.45037496,1.21124661 3.75504541,0.873277262 L3.75609756,0.870803108 C3.12125439,-0.0407987014 1.81632091,-0.27275058 0.873591299,0.34702484 C-0.0691383114,0.966676551 -0.286144988,2.19917605 0.405777512,3.07317073 L0.408670935,3.07317073 Z" id="Fill-11" fill="#93CF70"></path>
                        <path d="M7.59142746,2.35168365 C7.67684947,2.41770014 7.79578993,2.3968599 7.85732379,2.30516287 L9.18355368,0.324399362 C9.24508754,0.232567875 9.22570187,0.104702949 9.14027986,0.0385520088 C9.05498292,-0.0274644779 8.93591739,-0.00662424282 8.8745086,0.0852072448 L7.54815364,2.0658363 C7.48661977,2.15766779 7.50600544,2.28566717 7.59142746,2.35168365" id="Fill-13" fill="#56A856"></path>
                        <path d="M9.49376809,3.07317073 L9.41012188,2.96789551 C8.60009514,1.94817319 7.45206406,1.21124661 6.14739362,0.873277262 L6.14634146,0.870803108 C6.78118463,-0.0407987014 8.08611811,-0.27275058 9.02884772,0.34702484 C9.97157734,0.966676551 10.188584,2.19917605 9.49666151,3.07317073 L9.49376809,3.07317073 Z" id="Fill-15" fill="#93CF70"></path>
                        <path d="M9.90243902,6.14634146 C9.90243902,8.7865712 7.76208412,10.9268293 5.12201361,10.9268293 C2.48181832,10.9268293 0.341463415,8.7865712 0.341463415,6.14634146 C0.341463415,3.50611173 2.48181832,1.36585366 5.12201361,1.36585366 C7.76208412,1.36585366 9.90243902,3.50611173 9.90243902,6.14634146" id="Fill-17" fill="#6A7D88"></path>
                        <path d="M9.2195122,5.97560976 C9.2195122,8.33287803 7.30848778,10.2439024 4.95121951,10.2439024 C2.59395124,10.2439024 0.682926829,8.33287803 0.682926829,5.97560976 C0.682926829,3.61834149 2.59395124,1.70731707 4.95121951,1.70731707 C7.30848778,1.70731707 9.2195122,3.61834149 9.2195122,5.97560976" id="Fill-19" fill="#E5EEEC"></path>
                        <path d="M4.61286592,2.89596123 L4.43954436,6.43009251 C4.43435374,6.53407803 4.46820561,6.63593629 4.53297551,6.71139149 C4.66736742,6.86780774 4.89349788,6.86893393 5.02788979,6.71251768 C5.09322389,6.63631169 5.12707576,6.53345236 5.12132094,6.42859091 L4.92554432,2.8947099 C4.91347049,2.67660309 4.62358567,2.67772928 4.61286592,2.89596123" id="Fill-21" fill="#93CF70"></path>
                        <path d="M2.21003363,6.65280083 L4.7325947,6.82883253 C4.83445206,6.83357184 4.93386092,6.79949391 5.00743817,6.73438475 C5.16010178,6.59953996 5.16034663,6.37351978 5.00682605,6.23957772 C4.93202455,6.17446856 4.83126902,6.14095483 4.72867711,6.14704824 L2.20770757,6.3401189 C1.9943213,6.35286991 1.99652495,6.642758 2.21003363,6.65280083" id="Fill-23" fill="#93CF70"></path>
                    </g>
                </g>
            </g>
        </g>
    </g>
</svg>