<?xml version="1.0" encoding="UTF-8"?>
<svg width="100px" height="100px" viewBox="0 0 100 100" version="1.1" xmlns="http://www.w3.org/2000/svg" xmlns:xlink="http://www.w3.org/1999/xlink">
    <title>编组</title>
    <defs>
        <path d="M0,0 L375,0 L375,443 C375,451.836556 367.836556,459 359,459 L16,459 C7.163444,459 -6.94190838e-16,451.836556 0,443 L0,0 L0,0 Z" id="path-1"></path>
        <filter x="-4.3%" y="-3.1%" width="108.5%" height="107.0%" filterUnits="objectBoundingBox" id="filter-2">
            <feOffset dx="0" dy="2" in="SourceAlpha" result="shadowOffsetOuter1"></feOffset>
            <feGaussianBlur stdDeviation="5" in="shadowOffsetOuter1" result="shadowBlurOuter1"></feGaussianBlur>
            <feColorMatrix values="0 0 0 0 0.898039216   0 0 0 0 0.921568627   0 0 0 0 1  0 0 0 1 0" type="matrix" in="shadowBlurOuter1"></feColorMatrix>
        </filter>
        <circle id="path-3" cx="50" cy="50" r="50"></circle>
    </defs>
    <g id="页面-1" stroke="none" stroke-width="1" fill="none" fill-rule="evenodd">
        <g id="动作红包_领取" transform="translate(-138.000000, -151.000000)">
            <rect fill="#F9F9F9" x="0" y="0" width="375" height="812"></rect>
            <rect id="矩形" fill="#FFFFFF" x="0" y="0" width="375" height="812"></rect>
            <g id="矩形">
                <use fill="black" fill-opacity="1" filter="url(#filter-2)" xlink:href="#path-1"></use>
                <use fill="#FFFFFF" fill-rule="evenodd" xlink:href="#path-1"></use>
            </g>
            <g id="编组" transform="translate(138.000000, 151.000000)">
                <circle id="椭圆形" fill="#D6F5FF" cx="50" cy="50" r="50"></circle>
                <mask id="mask-4" fill="white">
                    <use xlink:href="#path-3"></use>
                </mask>
                <use id="椭圆形" fill="#D6F5FF" xlink:href="#path-3"></use>
                <path d="M62.4006432,80.3551281 C62.4006432,80.3551281 80.5596802,87.3982387 81.0873035,90.5574827 C81.6149269,93.7167268 73.1976856,130 73.1976856,130 L66.118739,129.681605 C66.118739,129.681605 69.3889045,100.652791 68.7705959,97.7213637 C68.1522873,94.7899366 48.9242634,96.2364367 46.9868964,90.2857493 C45.0495294,84.335062 45.6403576,77.7777778 45.6403576,77.7777778 L62.4006432,80.3551281 Z" id="Path" fill="#19192B" mask="url(#mask-4)"></path>
                <path d="M53.6588103,94.4444444 L48.8888889,78.8888889 L62.2699214,80.8470055 C62.2699214,80.8470055 64.8569024,81.8127251 68.8888889,83.46672 L53.6588103,94.4444444 Z" id="Path" fill="#303D72" mask="url(#mask-4)"></path>
                <path d="M54.191371,80.995499 C54.191371,80.995499 54.4526739,113.626837 54.4442448,116.866946 C54.4358157,120.107056 46.7034972,154.444444 46.7034972,154.444444 L39.1510001,153.798087 C39.1510001,153.798087 43.5987691,119.258191 43.4976196,116.234459 C43.39647,113.210727 37.8585341,94.5107485 36.9369496,88.2524556 C36.0153652,81.9941627 37.7461458,75.5555556 37.7461458,75.5555556 L44.0736098,77.6472013 L54.191371,80.995499 Z" id="Path" fill="#303D72" mask="url(#mask-4)"></path>
                <path d="M43.9128414,80.5814049 L37.1169262,78.8888889 C36.7405962,81.2854915 36.4219518,84.7869687 36.9301347,88.2397013 C37.8311291,94.3490071 43.2480833,112.611932 43.3469729,115.555556 L47.7777778,105.45462 L43.9128414,80.5814049 Z" id="Path" fill="#27345E" mask="url(#mask-4)"></path>
                <path d="M61.6000001,44.4444444 L64.2465018,59.9948575 L87.7777778,62.6687833 L87.7777778,67.1371983 C87.7777778,67.1371983 68.6610562,68.5316945 64.1433189,67.2056903 C59.6255816,65.8796861 56.6751087,64.0495811 55.6572235,55.9976671 C54.6393382,47.9457531 61.6000001,44.4444444 61.6000001,44.4444444 Z" id="Path" fill="#0CBFD1" mask="url(#mask-4)"></path>
                <path d="M46.5247008,40 L38.0721076,42.0736713 C35.9444286,42.5960514 34.4485853,44.4877977 34.4444444,46.6614638 L34.4444444,80.6910112 C38.1052118,82.1382039 45.8019268,84.5511037 54.9717766,82.606011 C57.8806523,81.9824921 60.6926434,80.9769097 63.3333333,79.6158755 C62.4781428,67.852305 61.7332994,57.0544416 60.8946609,45.4413353 C60.7611402,43.5789371 59.5104835,41.9792472 57.7249385,41.387007 L53.8627875,40.1094286 L46.5247008,40 Z" id="Path" fill="#60D6E6" mask="url(#mask-4)"></path>
                <path d="M46.6666667,30 L46.6666667,39.8609288 C46.6666667,39.8609288 48.3395264,41.2671579 51.2801457,41.0967934 C53.9992714,40.9408665 54.4306011,39.96488 54.4306011,39.96488 L55.5555556,34.8510572 L46.6666667,30" id="Path" fill="#FBAD83" mask="url(#mask-4)"></path>
                <path d="M54.6519836,38.8888889 C53.5966415,38.4726559 52.6123307,37.9047882 51.7323168,37.2044772 C50.4092041,36.2145407 49.4196361,34.8673077 48.8888889,33.3333333 L54.6689256,34.3980344 L55.5555556,34.8703249 L54.6519836,38.8888889" id="Path" fill="#E68D5C" mask="url(#mask-4)"></path>
                <path d="M59.9269868,33.7597312 C57.2552952,39.1092023 50.6290419,35.9420754 47.7884009,33.2496083 C44.9477599,30.5571412 45.3429297,20.2373813 46.1304058,18.2869112 C46.9178819,16.3364412 53.47541,14.740602 56.9345777,16.0090895 C60.3937454,17.2775771 62.5929513,28.4075322 59.9269868,33.7597312" id="Path" fill="#FBAD83" mask="url(#mask-4)"></path>
                <path d="M46.9706453,26.5554364 C47.8907328,26.4679168 48.736806,26.0022172 49.3154297,25.2648091 C49.8940534,24.527401 50.1557524,23.5813363 50.0406953,22.6429111 C49.8967018,21.4610893 49.5570945,21.0829063 49.8586658,19.9622612 C50.4563746,17.7376554 53.0699924,17.9406507 54.8359504,18.7720971 C56.6019084,19.6035435 58.5254441,19.6063242 60.0414511,18.4272832 C61.1620348,17.5349119 61.4423956,15.9200412 60.6907803,14.6871648 C59.7018438,13.0576411 56.2106808,11.1111111 56.2106808,11.1111111 C56.2106808,11.1111111 56.6345107,12.0871569 56.4823666,12.5932547 C56.3302225,13.0993525 47.0575848,10.2435149 45.153067,14.4702658 C43.2485492,18.6970166 45.786095,26.6666667 45.786095,26.6666667 L46.9706453,26.5554364 Z" id="Path" fill="#1A2249" mask="url(#mask-4)"></path>
                <path d="M44.4444444,26.6203456 C44.4444444,27.8223172 46.4435519,28.8888889 47.6691951,28.8888889 C48.8948383,28.8888889 48.8888889,27.8223172 48.8888889,26.6203456 C48.8888889,25.418374 47.8923098,24.4444444 46.6666665,24.4444444 C45.4410233,24.4444444 44.4444444,25.418374 44.4444444,26.6203456 Z" id="Path" fill="#FBAD83" mask="url(#mask-4)"></path>
                <path d="M45.569,26.435005 C45.4585867,27.0039794 46.0520581,27.6711396 46.4776093,27.7693255 C46.9031604,27.8675113 45.9899506,27.0895773 46.1003639,26.5105326 C46.2107772,25.9314879 46.9629676,25.6721766 46.5374165,25.5714731 C46.1118653,25.4707697 45.6794133,25.8584779 45.569,26.435005 Z" id="Path" fill="#E68D5C" mask="url(#mask-4)"></path>
                <path d="M60,31.1111111 L55.5555556,31.1111111 C55.5555556,31.1111111 56.4548444,33.2724925 57.9536591,33.3321819 C59.4524738,33.3918712 60,31.1111111 60,31.1111111 Z" id="Path" fill="#FFFFFF" mask="url(#mask-4)"></path>
                <path d="M40.46512,50 L33.5555556,50.8048345 L33.5555556,80.7457767 C37.1022064,82.2147437 40.8532311,83.0882827 44.6666667,83.3333333 L40.46512,50 Z" id="Path" fill="#50CAD3" mask="url(#mask-4)"></path>
                <path d="M23.1379454,91.0464012 C23.1379454,91.0464012 22.7829195,96.6315093 22.2947589,98.6480448 C21.8065983,100.66458 23.8775826,101.707616 25.652712,101.777152 C27.4278413,101.846687 28.7858153,96.1058193 28.8834474,93.4495552 C28.9810795,90.7932912 27.7325719,89.5555556 27.7325719,89.5555556 L23.1379454,91.0464012 Z" id="Path" fill="#FBAD83" mask="url(#mask-4)"></path>
                <path d="M30.0202176,41.8596851 L22.1188996,61.0624038 C21.0315294,64.1379914 21.0164253,67.4764517 22.0759304,70.5598838 L30.0146042,93.786562 C30.0146042,93.786562 33.7439584,94.8778966 34.7322628,93.7850179 L35.7205662,92.6949122 L29.4972154,65.3026525 C29.4972154,65.3026525 37.6189682,51.1078685 36.9574441,45.4512002 C36.29592,39.7945319 30.0202176,41.8596851 30.0202176,41.8596851 Z" id="Path" fill="#60D6E6" mask="url(#mask-4)" transform="translate(29.143979, 67.881510) rotate(15.000000) translate(-29.143979, -67.881510) "></path>
                <path d="M89.9713014,62.5451086 C89.9456105,62.1040408 89.7151205,61.6953556 89.3400944,61.4259058 C88.9650682,61.156456 88.4827931,61.0530319 88.0193623,61.1426742 C86.7574478,61.3710158 85.5924201,61.9330004 84.6629791,62.7617223 C82.6009459,64.6862511 83.3358986,66.2497573 84.2136761,67.235627 C85.0914536,68.2214968 86.7696451,67.7271733 88.7364618,66.8329478 C89.9742769,66.2691969 90.0694934,64.0808438 89.9713014,62.5451086 Z" id="Path" fill="#FBAD82" mask="url(#mask-4)"></path>
            </g>
        </g>
    </g>
</svg>