<?xml version="1.0" encoding="UTF-8"?>
<svg width="100px" height="100px" viewBox="0 0 100 100" version="1.1" xmlns="http://www.w3.org/2000/svg" xmlns:xlink="http://www.w3.org/1999/xlink">
    <title>编组 2</title>
    <defs>
        <circle id="path-1" cx="50" cy="50" r="50"></circle>
    </defs>
    <g id="页面-1" stroke="none" stroke-width="1" fill="none" fill-rule="evenodd">
        <g id="画图红包_领取" transform="translate(-138.000000, -151.000000)">
            <g id="编组-2" transform="translate(138.000000, 151.000000)">
                <circle id="椭圆形" fill="#F1E9FF" cx="50" cy="50" r="50"></circle>
                <mask id="mask-2" fill="white">
                    <use xlink:href="#path-1"></use>
                </mask>
                <use id="椭圆形" fill="#F1E9FF" xlink:href="#path-1"></use>
                <path d="M41.3953965,89.6666667 C32.0681535,87.4683574 23.751364,82.2886289 17.7549829,74.9433261 C11.6212556,67.4743975 8.29453914,58.1621812 8.33333333,48.5709972 C8.33333333,25.2794725 27.6498229,6.33333333 51.3888889,6.33333333 L51.3888889,7.30112522 C28.1662612,7.32779022 9.34738027,25.7893304 9.32019914,48.5709972 C9.28438233,57.9426791 12.5354125,67.0412914 18.5277604,74.3400692 C24.3882737,81.5146971 32.5134854,86.5748284 41.6255855,88.7246826 L41.3953965,89.6666667 Z" id="Path" fill="#8294FF" mask="url(#mask-2)"></path>
                <path d="M50,91.0555556 L50,90.0855482 C71.1419776,90.0235463 88.9561756,74.5487272 91.6262871,53.9256681 C94.2963986,33.3026089 80.9936793,13.9322571 60.5419344,8.66312937 L60.7885486,7.72222222 C79.7935645,12.552186 93.0666066,29.4158004 93.0555556,48.7179671 C93.0555556,72.0628112 73.7407256,91.0555556 50,91.0555556 Z" id="Path" fill="#FE6B88" mask="url(#mask-2)"></path>
                <polygon id="Path" fill="#782EF8" mask="url(#mask-2)" points="57.2699653 53.5555556 60.4166667 74.3901953 68.0555556 94.5363698 63.8175843 96.6111111 57.2823661 82.6206256 55.5555556 55.8047496"></polygon>
                <path d="M43.0555556,42.4444444 L43.0555556,51.0669147 C43.0555556,51.0669147 44.3632368,52.3005913 46.6621286,52.1546725 C48.7878571,52.0153865 49.1252269,51.1597721 49.1252269,51.1597721 L50,46.6959856 L43.0555556,42.4444444 Z" id="Path" fill="#FBAD83" mask="url(#mask-2)"></path>
                <path d="M50.6381381,49.3370501 C49.4597056,49.5884289 48.0966622,48.8845682 47.0813026,48.1097301 C45.2044257,46.6753923 44.4444444,43.8333333 44.4444444,43.8333333 L50.6504455,45.6373458 L51.3888889,46.0277223 L50.6381381,49.3370501 Z" id="Path" fill="#E68D5C" mask="url(#mask-2)"></path>
                <path d="M54.7105846,33.3804348 C54.7105846,33.3804348 55.6153584,33.7669082 55.5524176,36.2548309 C55.4745094,37.4007298 55.3361338,38.5401122 55.1380574,39.6666667 L52.7777778,32.7222222 L54.7105846,33.3804348 Z" id="Path" fill="#1A2249" mask="url(#mask-2)"></path>
                <path d="M54.5991008,45.5051563 C52.4513846,50.0958021 47.1273407,47.3781398 44.8469004,45.0705751 C42.5664601,42.7630105 42.8801714,33.9336683 43.5287093,32.2779754 C44.1772473,30.6222824 49.4288962,29.2481491 52.2100681,30.3284811 C54.99124,31.4088131 56.7438007,40.9236917 54.5991008,45.5051563 Z" id="Path" fill="#FBAD83" mask="url(#mask-2)"></path>
                <path d="M46.4999321,38.2777778 C46.4999321,38.2777778 47.111179,43.1356732 48.4864847,43.5226631 C49.6723037,43.8568816 51.3196142,42.2326969 53.4559223,42.1447446 C54.6417414,42.0978368 55.0726705,42.2063112 55.5555556,42.5200075 C55.4452456,43.5867787 55.1584388,44.6298745 54.7059223,45.6100629 C52.5298832,50.0076749 47.1356289,47.4042886 44.8251155,45.1937556 C43.7034773,44.1207383 43.2022548,41.5877138 43.0555556,39.0781432 L46.4999321,38.2777778 Z" id="Path" fill="#1A2249" mask="url(#mask-2)"></path>
                <path d="M45.0392794,39.6039712 C45.0392794,39.6039712 45.6927153,39.6705635 45.959485,39.2770634 C46.2262547,38.8835633 45.4589171,36.6678552 46.2322495,34.3159355 C46.7867708,32.6390198 49.2986023,31.6673773 51.3518298,32.0729851 C53.4050572,32.4785928 53.9236096,32.6632352 54.1334284,32.0729851 C54.3432473,31.4827349 53.5189589,30.054027 52.8055748,29.4910192 C52.0921906,28.9280114 48.7530733,27.9382073 45.9654798,29.0854114 C43.1778863,30.2326155 42.623365,30.9984272 41.9999033,32.8206352 C41.3764415,34.6428433 41.7780948,39.2104711 41.9999033,39.5040827 C42.2217118,39.7976943 45.0392794,39.6039712 45.0392794,39.6039712 Z" id="Path" fill="#1A2249" mask="url(#mask-2)"></path>
                <path d="M41.6666667,40.3188321 C41.6666667,41.4443278 43.5416658,42.4444444 44.692981,42.4444444 C45.8442963,42.4444444 45.8333333,41.4443278 45.8333333,40.3188321 C45.8333333,39.1933364 44.9013143,38.2777778 43.749999,38.2777778 C42.5986838,38.2777778 41.6666667,39.1933364 41.6666667,40.3188321 Z" id="Path" fill="#FBAD83" mask="url(#mask-2)"></path>
                <path d="M55.5555556,42.4444444 C55.5555556,42.4444444 55.5555556,48.5654937 54.9425463,49.6695109 C54.329537,50.7735281 52.3091965,51.0199906 51.3939995,50.5540751 C50.4788025,50.0881596 48.9995219,48.433822 48.6282627,47.0259469 C48.2570036,45.6180718 54.0359832,43.6159856 54.0359832,43.6159856 L55.5555556,42.4444444 Z" id="Path" fill="#1A2249" mask="url(#mask-2)"></path>
                <path d="M54.1666667,45.376498 C54.1666667,45.376498 52.0840257,45.4279232 51.7350726,45.3250727 L51.3888889,45.2222222 C51.405148,45.7939853 51.7894646,46.3008199 52.3637421,46.5078534 C52.6651028,46.6373851 53.0107574,46.6453845 53.3186949,46.5299534 C53.6266323,46.4145224 53.8694081,46.1859486 53.9894206,45.8984642 C54.1168162,45.5513438 54.1666667,45.376498 54.1666667,45.376498 Z" id="Path" fill="#FFFFFF" mask="url(#mask-2)"></path>
                <path d="M56.6044894,38.2596115 C56.5728178,38.2671864 56.5406736,38.2671864 56.5090019,38.2596115 C55.8826984,37.9566476 55.2187351,37.9566476 54.5924315,38.2596115 C54.421074,38.3339056 54.2445812,38.1742316 54.1859851,37.8918975 C54.127389,37.6095633 54.2061455,37.2983129 54.3673539,37.1751171 C55.1273676,36.7934795 55.9365529,36.7934795 56.6965667,37.1751171 C56.877031,37.2618786 56.9821733,37.5789191 56.9318751,37.8846533 C56.8810816,38.1148103 56.7496861,38.2652988 56.6044894,38.2596115 L56.6044894,38.2596115 Z" id="Path" fill="#1A2249" mask="url(#mask-2)"></path>
                <path d="M50.265853,38.2776666 C50.2014684,38.2767515 50.1394908,38.247325 50.0912034,38.1947444 C49.9809754,38.0750166 49.9690104,37.8682328 50.0643342,37.7303804 C50.1019511,37.6773102 50.9966945,36.4367948 52.5739149,37.0670032 C52.6712428,37.0968783 52.7469911,37.1911805 52.7703683,37.3115759 C52.7937455,37.4319714 52.7608599,37.5584176 52.6850795,37.6395143 C52.609299,37.720611 52.5032391,37.7428579 52.410013,37.6972115 C51.176718,37.2129461 50.4969279,38.1350405 50.4673718,38.1748431 C50.4149905,38.2427368 50.3417793,38.2800923 50.265853,38.2776666 L50.265853,38.2776666 Z" id="Path" fill="#1A2249" mask="url(#mask-2)"></path>
                <polygon id="Path" fill="#FE6B88" mask="url(#mask-2)" points="84.7469581 62.5375489 86.1111111 68.8333333 81.456077 64.2835378 70.8333333 41.416588 74.1242145 39.6666667"></polygon>
                <path d="M78.8171444,65.9111675 C78.8171444,65.9111675 82.2149516,64.5354469 84.2905064,65.4525939 C86.3660612,66.369741 87.0557938,66.1135723 87.4022493,65.5253332 C87.7487049,64.9370941 87.1702194,63.2166527 85.7303629,61.8409322 C84.2905064,60.4652117 80.5367082,61.8409322 80.5367082,61.8409322 L79.8660465,60.5 C79.3898669,60.8081119 79.0229689,61.2572474 78.8171444,61.7840058 C78.5844651,62.3520849 78.2297194,62.8626492 77.7777778,63.2799043 L78.8171444,65.9111675 Z" id="Path" fill="#FBAD83" mask="url(#mask-2)"></path>
                <path d="M35.2623846,54.706938 C34.453273,56.9772583 34.5563493,59.4720264 35.5500018,61.6681665 C37.2377771,65.2418284 53.7457365,74.3888889 53.7457365,74.3888889 L79.1666667,67.1153987 C79.1666667,67.1153987 78.3196184,64.0369397 77.8455242,62.6995764 L55.0890034,66.9797699 C55.0890034,66.9797699 42.2821392,55.4040071 38.1227529,53.732303 C36.3496406,53.0163089 35.2623846,54.706938 35.2623846,54.706938 Z" id="Path" fill="#975BFF" mask="url(#mask-2)"></path>
                <path d="M57.3769656,86.9204749 C57.3769656,86.9204749 73.6343893,86.378356 75.4320852,89.7859603 C77.2297811,93.1935646 76.0573708,96.6786144 75.4320852,99.001981 C74.8067997,101.325348 71.7585327,112.864735 71.7585327,112.864735 C71.7585327,112.864735 68.3194623,113.794081 66.2091237,112.864735 L68.463278,96.2635063 C68.463278,96.2635063 57.3863449,100.008773 49.5265058,99.001981 L41.6666667,97.9951888 L48.3447161,87.3077026 L57.3769656,86.9204749 Z" id="Path" fill="#19192B" mask="url(#mask-2)"></path>
                <path d="M51.0300542,99.3888889 C51.0300542,99.3888889 52.3863217,96.6522399 56.2700338,93.6466717 C60.1537458,90.6411035 61.1111111,86.8888889 61.1111111,86.8888889 L52.2267608,86.8888889 L48.6111111,86.8888889 L51.0300542,99.3888889 Z" id="Path" fill="#303D72" mask="url(#mask-2)"></path>
                <path d="M48.5393297,86.5095935 C48.5393297,86.5095935 54.1843464,115.705007 43.2795536,118.259408 C32.3747608,120.81381 15.2967989,114.013665 15.2967989,114.013665 C15.2967989,114.013665 15.0637905,110.378069 16.2288324,108.955445 L39.0636551,110.397038 C39.0636551,110.397038 35.0869785,92.158993 35.0994056,86.4115905 C35.1118327,80.664188 35.9568765,83.348206 35.9568765,83.348206 L48.5393297,86.5095935 Z" id="Path" fill="#303D72" mask="url(#mask-2)"></path>
                <path d="M36.3203542,84.1111111 C36.2020864,84.5666718 36.1141436,85.5083678 36.1111111,87.3030935 C36.1111111,92.8615456 39.9805919,110.5 39.9805919,110.5 L40.6780689,96.7414552 L45.8333333,87.6883328 L36.3203542,84.1111111 Z" id="Path" fill="#27345E" mask="url(#mask-2)"></path>
                <path d="M50.3589849,50.8487488 L57.6859394,53.934446 L59.7222222,88.9077382 C59.7222222,88.9077382 47.7121225,97.1342069 36.1111111,88.4942547 L36.3675545,56.2147763 C36.3833335,54.3279391 37.6257569,52.6765994 39.4204523,52.1570844 L44.173814,50.7777778 L50.3589849,50.8487488 Z" id="Path" fill="#975BFF" mask="url(#mask-2)"></path>
                <path d="M41.0243056,62.9073303 L36.333912,59.1111111 L36.1111111,88.981281 C38.1772686,90.6333677 40.5415506,91.8124245 43.0555556,92.4444444 L41.0243056,62.9073303 Z" id="Path" fill="#782EF8" mask="url(#mask-2)"></path>
            </g>
        </g>
    </g>
</svg>