<?xml version="1.0" encoding="UTF-8"?>
<svg width="100px" height="100px" viewBox="0 0 100 100" version="1.1" xmlns="http://www.w3.org/2000/svg" xmlns:xlink="http://www.w3.org/1999/xlink">
    <title>编组 6</title>
    <defs>
        <path d="M0,0 L375,0 L375,443 C375,451.836556 367.836556,459 359,459 L16,459 C7.163444,459 -6.94190838e-16,451.836556 0,443 L0,0 L0,0 Z" id="path-1"></path>
        <filter x="-4.3%" y="-3.1%" width="108.5%" height="107.0%" filterUnits="objectBoundingBox" id="filter-2">
            <feOffset dx="0" dy="2" in="SourceAlpha" result="shadowOffsetOuter1"></feOffset>
            <feGaussianBlur stdDeviation="5" in="shadowOffsetOuter1" result="shadowBlurOuter1"></feGaussianBlur>
            <feColorMatrix values="0 0 0 0 0.898039216   0 0 0 0 0.921568627   0 0 0 0 1  0 0 0 1 0" type="matrix" in="shadowBlurOuter1"></feColorMatrix>
        </filter>
        <circle id="path-3" cx="50" cy="50" r="50"></circle>
    </defs>
    <g id="页面-1" stroke="none" stroke-width="1" fill="none" fill-rule="evenodd">
        <g id="表情红包_开始" transform="translate(-138.000000, -151.000000)">
            <rect fill="#F9F9F9" x="0" y="0" width="375" height="812"></rect>
            <rect id="矩形" fill="#FFFFFF" x="0" y="0" width="375" height="812"></rect>
            <g id="矩形">
                <use fill="black" fill-opacity="1" filter="url(#filter-2)" xlink:href="#path-1"></use>
                <use fill="#FFFFFF" fill-rule="evenodd" xlink:href="#path-1"></use>
            </g>
            <g id="编组-6" transform="translate(138.000000, 151.000000)">
                <circle id="椭圆形" fill="#FEF4E6" cx="50" cy="50" r="50"></circle>
                <mask id="mask-4" fill="white">
                    <use xlink:href="#path-3"></use>
                </mask>
                <use id="椭圆形" fill="#FEF4E6" xlink:href="#path-3"></use>
                <path d="M78,74.043747 C78,74.043747 79.0313333,73.846202 80.8303333,74.2906782 C82.6293333,74.7351544 85,79.6392088 85,79.6392088 C84.8916768,79.9218842 84.5943826,80.0667605 84.321,79.9700966 C83.8333333,79.8046527 82.046,77.5822716 82.046,77.5822716 C82.046,77.5822716 82.207,78.6934622 80.765,78.9823717 C79.323,79.2712812 78.623,78.6934622 78.3896667,78.4045526 C78.1563333,78.1156431 78,76.9970446 78,76.9970446 L78,74.043747 Z" id="Path" fill="#FBAD83" mask="url(#mask-4)"></path>
                <path d="M57.2762381,53 L62.3269556,71.920397 L78.720448,73.9507956 C79.093184,74.7595907 79.093184,75.6903332 78.720448,76.4991283 L78.0766096,77.7927475 C78.0766096,77.7927475 62.5537623,78.5878856 59.23458,77.063263 C55.9153977,75.5386403 57.2762381,53 57.2762381,53 Z" id="Path" fill="#F89900" mask="url(#mask-4)"></path>
                <path d="M44.9782523,50.4019263 C44.9782523,50.4019263 39.4757857,51.7626645 37.7944105,53.2057251 C36.2768981,54.5083535 37.3336947,85.815019 37.7017923,92.8390435 C37.7576001,93.8600157 37.7576001,94.8833643 37.7017923,95.9043365 L37.4049394,101.093059 C37.4049394,101.093059 51.126671,102.858145 56.1660471,101.463509 C61.2054231,100.068874 60.9988134,100.979261 60.9988134,100.979261 C60.9988134,100.979261 58.2748905,55.4405319 56.759753,52.6149419 C55.5034712,50.2808641 48.8468402,50 48.8468402,50 L44.9782523,50.4019263 Z" id="Path" fill="#F9C200" mask="url(#mask-4)"></path>
                <path d="M45,50.2117678 C45,50.2117678 48.7474747,56.6534474 50.4005573,61.910705 C51.9658656,66.8970969 52,69 52,69 L52,50 L45,50.2117678 Z" id="Path" fill="#FFFFFF" mask="url(#mask-4)"></path>
                <path d="M46,42 L46,50.8732436 C46,50.8732436 47.315854,52.1380753 49.6298681,51.9875579 C51.7764489,51.8467513 52.1134621,50.9679239 52.1134621,50.9679239 L53,46.3722877 L46,42 Z" id="Path" fill="#FBAD83" mask="url(#mask-4)"></path>
                <path d="M52.2409105,49.9348944 C51.0524818,50.2512043 49.6803667,49.3634102 48.6557066,48.3852419 C46.7657287,46.580415 46,43 46,43 L52.2541891,45.2566981 L53,45.7510984 L52.2409105,49.9348944 Z" id="Path" fill="#E68D5C" mask="url(#mask-4)"></path>
                <path d="M56.0860438,31.6523765 C56.0860438,31.6523765 57.0653311,32.045977 56.9965382,34.555452 C56.9661884,35.7471264 56.5514076,38 56.5514076,38 L54,31 L56.0860438,31.6523765 Z" id="Path" fill="#1A2249" mask="url(#mask-4)"></path>
                <path d="M56.9291333,45.241046 C54.5189498,50.3164798 48.5609761,47.3147233 46.0085918,44.7576714 C43.4562074,42.2006195 43.8080942,32.4316179 44.514278,30.5827098 C45.2204617,28.7338018 51.1230012,27.2329235 54.2369583,28.4268589 C57.3509154,29.6207943 59.3393168,40.1825303 56.9291333,45.241046 Z" id="Path" fill="#FBAD83" mask="url(#mask-4)"></path>
                <path d="M46.4151404,36 C46.4151404,36 47.1826269,41.9954297 48.954823,42.4758907 C50.4730508,42.8866074 52.5829409,40.8821035 55.3124019,40.7736123 C56.8334205,40.7142005 57.38322,40.8485229 58,41.2359914 C57.8594632,42.5539426 57.4900413,43.8422638 56.9059829,45.0512649 C54.115123,50.4758243 47.2189081,47.2675849 44.2633874,44.5346402 C42.8316763,43.2120809 42.1897785,40.0839183 42,36.9841701 L46.4151404,36 Z" id="Path" fill="#1A2249" mask="url(#mask-4)"></path>
                <path d="M45.7784245,38.9402893 C45.7784245,38.9402893 46.5088721,39.0101162 46.8082359,38.5864995 C47.1075996,38.1628829 46.2502218,35.7748022 47.1171793,33.2331023 C47.7350661,31.424585 50.5466906,30.3771812 52.8481993,30.8147633 C55.149708,31.2523453 55.7220915,31.4525158 55.9615826,30.8031254 C56.2010736,30.1537351 55.2742433,28.6245255 54.4743433,28.0100486 C53.6744433,27.3955717 49.924014,26.3365301 46.8106308,27.5724666 C43.6972475,28.8084031 43.0841505,29.6533088 42.377652,31.6177728 C41.6711535,33.5822369 42.1261865,38.5027072 42.377652,38.8192559 C42.6291176,39.1358047 45.7784245,38.9402893 45.7784245,38.9402893 Z" id="Path" fill="#1A2249" mask="url(#mask-4)"></path>
                <path d="M44,39.4475 C44,40.8 45.7983705,42 46.9054455,42 C48.0125204,42 48,40.8 48,39.4475 C48,38.095 47.105821,37 45.9962414,37 C44.8866618,37 44,38.0975 44,39.4475 Z" id="Path" fill="#FBAD83" mask="url(#mask-4)"></path>
                <path d="M58,41 C58,41 58,46.8781614 57.2902283,47.9399781 C56.5804565,49.0017947 54.2571371,49.2285007 53.2066749,48.7866554 C52.1562128,48.3448101 50.4480288,46.7463019 50.0197999,45.3999461 C49.5915709,44.0535904 56.2515956,42.1196498 56.2515956,42.1196498 L58,41 Z" id="Path" fill="#1A2249" mask="url(#mask-4)"></path>
                <path d="M60.6527209,62 C60.6527209,62 65.6376062,60.4116694 66.3878942,59.356564 C67.1381822,58.3014587 67.1637338,56.3546191 66.6550246,55.8350081 C66.1463154,55.3153971 62.4204272,56.6632091 61.7189196,56.7426256 C61.017412,56.8220421 61.7421483,56.4680713 61.7421483,56.4680713 L61.9512069,55 C61.2557592,55.2630556 60.6231971,55.663148 60.0929085,56.1753647 C59.0754902,57.0965964 59.1242705,58.160778 58.9802524,58.5397083 C58.8362343,58.9186386 58,59.7922204 58,59.7922204 L60.6527209,62 Z" id="Path" fill="#FBAD83" mask="url(#mask-4)"></path>
                <path d="M39.5304445,52.0243339 C39.5304445,52.0243339 41.2616735,51.7475154 42.3737393,53.0611894 C43.485805,54.3748635 45.6031005,71.4671957 45.6031005,71.4671957 L58.9576018,57.9516507 C58.9576018,57.9516507 60.9899141,59.2167601 61.494957,60.3920249 L62,61.5624332 C62,61.5624332 50.6535301,78.4362244 45.6006724,79.9150183 C40.5478147,81.3938122 36,63.1480694 36,58.2576081 C36,53.3671468 39.5304445,52.0243339 39.5304445,52.0243339 Z" id="Path" fill="#F9C200" mask="url(#mask-4)"></path>
                <path d="M45.0119987,38.7879198 C44.9128691,39.3019505 45.4493354,39.9030691 45.8341916,39.992281 C46.2190479,40.081493 45.3929676,39.3784179 45.4920972,38.8643872 C45.5912268,38.3503564 46.2695846,38.1060856 45.8808409,38.0147496 C45.4920972,37.9234136 45.1227907,38.2653927 45.0119987,38.7879198 Z" id="Path" fill="#E68D5C" mask="url(#mask-4)"></path>
                <path d="M42.2208884,91 L42,101.776595 L44.362545,101.976584 C46.2374122,102.135197 48.0928446,101.483096 49.502482,100.170129 C50.9121195,98.8571614 51.7547461,96.9962302 51.8367347,95.0149589 L52,91.0886025 C52,91.0886025 43.7406963,91.582245 42.2208884,91 Z" id="Path" fill="#E88F00" mask="url(#mask-4)"></path>
                <path d="M60.9137537,89.0032558 L57,89.5774502 C57,89.5774502 58.7636862,95.5836679 59.8045501,97.3014462 C60.1733781,97.9593972 60.7153062,98.5232599 61.3816168,98.9423449 C61.5090126,99.0166015 61.6711954,99.0193222 61.8014864,98.9493882 C61.9317774,98.8794543 62.0081872,98.7486687 61.9993012,98.6108017 L61.3658461,89.344409 C61.3595167,89.242861 61.3071389,89.148327 61.2213259,89.0835717 C61.1355129,89.0188164 61.0240409,88.9897079 60.9137537,89.0032558 L60.9137537,89.0032558 Z" id="Path" fill="#E88F00" mask="url(#mask-4)"></path>
                <path d="M57,43.2253274 C57,43.2253274 54.7489331,43.3004366 54.3733997,43.1502183 L54,43 C54,43 54,44.3814718 55.0519203,44.8616339 C56.1038407,45.3417959 56.6671408,44.456581 56.8058321,43.9683715 C56.9445235,43.4801621 57,43.2253274 57,43.2253274 Z" id="Path" fill="#FFFFFF" mask="url(#mask-4)"></path>
                <path d="M51.221486,36 C51.1678818,35.9999314 51.1161408,35.9825142 51.0759377,35.951005 C50.9840391,35.880085 50.9741692,35.7564095 51.0538849,35.6746731 C51.0957852,35.6315575 52.08816,34.6418582 53.8479712,35.1396476 C53.9636157,35.1732632 54.0267732,35.2837638 53.989109,35.3865824 C53.9521944,35.4891259 53.8291106,35.546005 53.7134493,35.5139695 C52.2248872,35.0926124 51.3957029,35.9235678 51.3868818,35.931407 C51.3454835,35.9744251 51.2851774,35.9994353 51.221486,36 Z" id="Path" fill="#1A2249" mask="url(#mask-4)"></path>
                <path d="M56.1476573,36 C56.1119212,35.9999314 56.0774272,35.9825142 56.0506251,35.951005 C55.9893594,35.880085 55.9827794,35.7564095 56.0359233,35.6746731 C56.0638568,35.6315575 56.72544,34.6418582 57.8986475,35.1396476 C57.9757438,35.1732632 58.0178488,35.2837638 57.9927393,35.3865824 C57.9681296,35.4891259 57.8860737,35.546005 57.8089662,35.5139695 C56.8165914,35.0926124 56.2638019,35.9235678 56.2579212,35.931407 C56.2303223,35.9744251 56.1901183,35.9994353 56.1476573,36 Z" id="Path" fill="#1A2249" mask="url(#mask-4)" transform="translate(57.000000, 35.500000) scale(-1, 1) translate(-57.000000, -35.500000) "></path>
                <path d="M34.3995816,59 L37.6150628,74.4384266 L58,79.5845688 L57.2719665,83 C57.2719665,83 39.0711297,81.8599092 34.3389121,79.5845688 C29.6066946,77.3092284 29,60.0747352 29,60.0747352 L34.3995816,59 Z" id="Path" fill="#F89900" mask="url(#mask-4)"></path>
                <path d="M42.9686133,96 C42.9686133,96 48.5859005,97.3535782 51.4647601,98.1186441 C54.3436198,98.88371 56.1327257,100.088983 55.9922935,100.500942 C55.8518614,100.9129 55.6412131,101 55.6412131,101 L43.9151262,101 L39,98.6318267 L42.9686133,96 Z" id="Path" fill="#A55B3A" mask="url(#mask-4)" transform="translate(47.500000, 98.500000) scale(-1, 1) translate(-47.500000, -98.500000) "></path>
                <path d="M24.51809,56.3949314 L18.5999635,58.3671507 L10,93.1942519 C10,93.1942519 21.9909286,98.2893549 27.3046304,97.9870617 C32.6183323,97.6847685 33.8938111,95.3054285 33.8938111,95.3054285 L34.9979569,60.6879823 C35.0499357,59.0641012 34.1060022,57.5799596 32.6349897,56.9727015 L30.2410873,56 L24.51809,56.3949314 Z" id="Path" fill="#F9C200" mask="url(#mask-4)"></path>
                <path d="M35.1512498,42 C35.1512498,42 36.3672852,51.6365704 35.8882409,53.5235521 C35.4091967,55.4105338 30.5327718,55.0240146 28.0982444,54.8319554 C25.6637169,54.6398962 24.3788956,54.9591946 23.3176284,54.383017 C22.2563611,53.8068394 24.1946479,47.7785812 24.1946479,47.7785812 L35.1512498,42 Z" id="Path" fill="#E56107" mask="url(#mask-4)"></path>
                <path d="M32.0032089,55 C30.4988596,55.0030998 29.2253431,53.8896998 29.0265222,52.3975596 C28.8277014,50.9054193 29.7652002,49.4970228 31.2178092,49.1056077 C31.2834348,49.0882302 31.3509421,49.1263643 31.3699804,49.1915675 C31.387212,49.2566243 31.3489012,49.3234386 31.2840773,49.3413832 C29.8855159,49.7205064 29.0204839,51.1200562 29.3061347,52.5415296 C29.5917855,53.963003 30.9302093,54.9191749 32.3665132,54.7278683 C33.8028171,54.5365618 34.8446925,53.2633492 34.7488179,51.8165988 C34.6529433,50.3698484 33.4521806,49.2454493 32.0032089,49.2455994 C31.9354333,49.2455994 31.8804902,49.1906201 31.8804902,49.1227997 C31.881796,49.055528 31.9359816,49.0013066 32.0032089,49 C33.6582909,49 35,50.3425945 35,51.9987688 C35,53.654943 33.6582909,54.9975375 32.0032089,54.9975375 L32.0032089,55 Z" id="Path" fill="#FFFFFF" mask="url(#mask-4)"></path>
                <path d="M72.871845,72 L64.7367398,94.0446863 L48,96.7153929 L48,101 C48,101 64.2799298,101 65.4341039,101 C66.588278,101 69.8078164,99.9479759 71.6909426,93.9107923 C73.5740688,87.8736087 72.871845,72 72.871845,72 Z" id="Path" fill="#F89900" mask="url(#mask-4)"></path>
                <path d="M85.9766072,67 L95.7098299,70.5817781 L98,108.363378 C89.6043136,108.976923 80.8742431,109.564411 71.0423891,107.996199 C69.7505599,107.790104 70.2485276,107.996199 69,107.759308 C71.0616342,95.580789 70.2028204,84.3924702 72.1922854,72.4342586 C72.39392,71.2258686 73.1636742,70.1824135 74.2683534,69.6200044 L79.2119453,67.094756 L85.9766072,67 Z" id="Path" fill="#F9C200" mask="url(#mask-4)"></path>
                <path d="M78.1053505,95.9075507 L70.9172957,97.7274763 L70.1402737,99.7072601 C69.8997097,102.992964 69.5532974,106.315557 69,109.711932 C70.2485276,109.957868 69.7505599,109.748822 71.0423891,109.957868 C80.8742431,111.585963 89.6043136,110.976042 98,110.339068 L96.419494,83.2590682 L89.0101203,77 L88.3630029,83.7681555 C87.8051334,89.6278384 83.6951429,94.4917972 78.1053505,95.9075507 L78.1053505,95.9075507 Z" id="Path" fill="#F89900" mask="url(#mask-4)"></path>
                <path d="M86,59 L86,67.8745242 C86,67.8745242 84.6851909,69.1398516 82.3706923,68.9872246 C80.2300528,68.8469062 79.8888544,67.9680698 79.8888544,67.9680698 L79,63.3671029 L85.9956535,59" id="Path" fill="#A55B3A" mask="url(#mask-4)"></path>
                <path d="M79.8179631,67 C80.7666382,66.6251447 81.6514577,66.1144627 82.4426624,65.4851301 C83.6345545,64.5944618 84.5248296,63.3811982 85,62 L79.8035285,62.9549257 L79,63.3894052 L79.8131516,67" id="Path" fill="#8E4A2F" mask="url(#mask-4)"></path>
                <rect id="Rectangle" fill="#1A2249" mask="url(#mask-4)" x="73" y="52.8790382" width="5" height="1"></rect>
                <path d="M73.6377307,47.3854626 C73.6377307,47.3854626 73,49.0770925 73,50.5572687 C73,51.7488987 73.4470267,54 73.4470267,54 L76,47 L73.6377307,47.3854626 Z" id="Path" fill="#1A2249" mask="url(#mask-4)"></path>
                <path d="M74.0649774,63.2444233 C76.4706211,68.3133342 82.4371058,65.3175124 84.9917284,62.7549099 C87.5463511,60.1923074 87.1897785,50.4338585 86.4864025,48.583498 C85.7830265,46.7331374 79.8727141,45.232779 76.7588099,46.4271916 C73.6449056,47.6216042 71.661776,58.1755124 74.0723042,63.2370806" id="Path" fill="#A55B3A" mask="url(#mask-4)"></path>
                <path d="M73.0024131,59.0046422 L73.0024131,59.0046422 C73.1218244,60.1739871 73.4354945,61.3173343 73.9314672,62.3911025 C74.875,64.303675 76.3759653,65 78,65 L78,65 C76.3759653,65 74.8629344,64.303675 73.9290541,62.3864603 C73.433357,61.3125989 73.1196988,60.1692951 73,59" id="Path" fill="#DCDDE3" mask="url(#mask-4)"></path>
                <path d="M87,56.0047517 L84.277709,56.0047517 C84.277709,56.0047517 82.4710978,60.554526 80.9169171,60.9940603 C80.7929036,61.0275873 80.6646326,61.0443794 80.5357964,61.0439534 C79.2439456,61.0439534 77.5214778,59.5352815 75.3510695,59.4473747 C75.1506099,59.4473747 74.9699487,59.4473747 74.8041365,59.4473747 C73.8760827,59.4473747 73.4603147,59.5804229 73,59.8774056 C73.1227585,61.0742963 73.4444342,62.2445823 73.9528018,63.3437871 C74.9179777,65.2872416 76.4573095,66 78.1228566,66 C80.644688,66 83.4585469,64.3511523 85.0176772,62.8567356 C86.2699311,61.6688049 86.8317129,58.8177714 86.9975252,56" id="Path" fill="#90523C" mask="url(#mask-4)"></path>
                <path d="M86.5919861,55.9004065 C85.7086984,55.821017 84.8966967,55.4019017 84.3414106,54.7387704 C83.7861246,54.075639 83.5349723,53.2251191 83.6453074,52.3814363 C83.7838582,51.3167344 84.1104422,50.975271 83.82097,49.9674797 C83.2469738,47.9590108 80.7332663,48.1463415 79.036019,48.895664 C77.3387716,49.6449864 75.4807063,49.6426152 74.0259229,48.5850271 C72.9514053,47.7809574 72.6824967,46.3296909 73.4024442,45.2201897 C74.3500328,43.7571138 77.7074157,42 77.7074157,42 C77.7074157,42 77.2991856,42.8773713 77.4352623,43.3326558 C77.571339,43.7879404 86.4954954,41.2198509 88.3213971,45.0257453 C90.1472987,48.8316396 87.710289,56 87.710289,56 L86.5919861,55.9004065 Z" id="Path" fill="#1A2249" mask="url(#mask-4)"></path>
                <path d="M87,55.4493927 C87,56.8006073 85.6501907,58 84.8212937,58 C83.9923967,58 84,56.8006073 84,55.4493927 C84,54.0981781 84.6711036,53 85.5,53 C86.3288976,53 87,54.0981781 87,55.4493927 Z" id="Path" fill="#A55B3A" mask="url(#mask-4)"></path>
                <path d="M86.9877891,55.7853011 C87.0877058,56.300347 86.5528575,56.9015931 86.170823,56.9921033 C85.7887884,57.0826134 86.6096729,56.3757722 86.5117153,55.8607263 C86.4137577,55.3456803 85.7280548,55.1021649 86.119885,55.0138098 C86.5117153,54.9254546 86.8878724,55.2702552 86.9877891,55.7853011 Z" id="Path" fill="#8E4A2F" mask="url(#mask-4)"></path>
                <path d="M74.4989705,56 C73.6753603,56 73,54.8767924 73,53.4986723 C73,52.1205523 73.6733013,51 74.4989705,51 C75.3246397,51 76,52.1205523 76,53.4986723 C76,54.8767924 75.3349348,56 74.4989705,56 Z M74.4989705,51.2655337 C73.7865477,51.2655337 73.2059025,52.2665959 73.2059025,53.4986723 C73.2059025,54.7307488 73.7947838,55.7344663 74.4989705,55.7344663 C75.2031572,55.7344663 75.7940975,54.7307488 75.7940975,53.4986723 C75.7940975,52.2665959 75.2216884,51.2708444 74.4989705,51.2708444 L74.4989705,51.2655337 Z" id="Shape" fill="#1A2249" fill-rule="nonzero" mask="url(#mask-4)"></path>
                <path d="M78.5,56 C77.6769547,56 77,54.8767924 77,53.4986723 C77,52.1205523 77.6728395,51 78.5,51 C79.3271605,51 80,52.1205523 80,53.4986723 C80,54.8767924 79.3230453,56 78.5,56 Z M78.5,51.2655337 C77.7860082,51.2655337 77.2057613,52.2665959 77.2057613,53.4986723 C77.2057613,54.7307488 77.7901235,55.7344663 78.5,55.7344663 C79.2098765,55.7344663 79.7942387,54.7307488 79.7942387,53.4986723 C79.7942387,52.2665959 79.2160494,51.2708444 78.5,51.2708444 L78.5,51.2655337 Z" id="Shape" fill="#1A2249" fill-rule="nonzero" mask="url(#mask-4)"></path>
                <rect id="Rectangle" fill="#1A2249" mask="url(#mask-4)" x="80" y="52.8790382" width="4" height="1"></rect>
                <rect id="Rectangle" fill="#1A2249" mask="url(#mask-4)" x="76" y="52.8790382" width="1" height="1"></rect>
                <path d="M74,60 L78,60 C78,60 77.189028,61.942597 75.8389982,61.9988653 C74.4889684,62.0551336 74,60 74,60 Z" id="Path" fill="#FFFFFF" mask="url(#mask-4)"></path>
                <path d="M73.0011256,60 L79,60 C79,60 78.9067412,58.7967332 77.8738996,58.3244229 C76.841058,57.8521125 75.7196206,58.443625 75.365237,58.4256322 C75.0108534,58.4076394 74.047956,57.8003833 73.5000604,58.0680258 C72.9521647,58.3356683 73.0011256,60 73.0011256,60 Z" id="Path" fill="#1A2249" mask="url(#mask-4)"></path>
                <path d="M54,74.5 C54,75.8801572 53.3280943,77 52.4990177,77 C51.6699411,77 51,75.8801572 51,74.5 C51,73.1198428 51.6719057,72 52.4990177,72 C53.3261297,72 54,73.117387 54,74.5 Z" id="Path" fill="#FFFFFF" mask="url(#mask-4)"></path>
                <path d="M30,52.454396 L29.5591647,56.1450302 C29.5591647,56.1450302 29.0394432,56.9993227 26.2946636,56.9993227 C25.5012689,57.0120614 24.7156991,56.8449392 24,56.5111556 L24,50 L30,52.454396 Z" id="Path" fill="#FBAD83" mask="url(#mask-4)"></path>
                <path d="M30,52.3362966 L29.6685083,54.9864594 C29.1171096,55.0234719 28.5628285,54.9845019 28.0237994,54.8708245 C27.3149171,54.7197912 25.2851679,52.7775971 24,50 L30,52.3362966 Z" id="Path" fill="#E68D5C" mask="url(#mask-4)"></path>
                <path d="M33.7860127,39.9389632 C33.7860127,39.9389632 34.4025921,46.6208471 33.5425085,49.8555917 C32.6824249,53.0903364 30.0016447,54.4599151 27.6336223,53.8642338 C26.7556668,53.6445153 23.5744744,49.7384085 23.1656554,44.9119254 C22.7568364,40.0854422 23.1477835,38.6279761 23.8671262,37.6099471 C24.5864689,36.591918 31.1141685,35.3175506 32.2981797,36.4332324 C33.4821909,37.5489141 33.7860127,39.9389632 33.7860127,39.9389632 Z" id="Path" fill="#FBAD83" mask="url(#mask-4)"></path>
                <path d="M32,40.829635 C32,40.829635 34.6878874,43.9121215 35.3449265,43.9974077 C36.0019656,44.0826938 36.0945484,42.0480091 35.9273021,40.1960804 C35.6614999,37.2890398 33.1826704,36 33.1826704,36 L32,40.829635 Z" id="Path" fill="#F76A00" mask="url(#mask-4)"></path>
                <path d="M35,37.8675078 C35,37.8675078 34.2863097,41.3700498 32.8113497,43.4644512 C31.3363897,45.5588527 25.7458157,44.7918553 24.7704389,44.8607189 C23.7950621,44.9295824 24.913177,51.9655363 25.6189374,54.3140205 C26.3246978,56.6625046 21.2389935,55.9762438 19.6160089,55.6461737 C17.9930243,55.3161037 17.1418825,42.9586604 19.261807,38.166708 C21.3817316,33.3747556 30.138976,33.5623493 32.5417334,34.6048008 C33.9463891,35.2246681 34.8813997,36.4656505 35,37.8675078 Z" id="Path" fill="#F76A00" mask="url(#mask-4)"></path>
                <path d="M20.4694003,55.6449573 C21.9499992,55.9687767 26.5819866,56.679246 25.93919,54.2892658 C25.39612,51.9852734 25.0338879,49.64208 24.855825,47.2812349 L19.0297286,45 C18.8491677,50.0723644 19.5112241,55.4371329 20.4694003,55.6449573 Z" id="Path" fill="#E56107" mask="url(#mask-4)"></path>
                <path d="M22,46.9512195 C22,48.0355401 23.3498693,49 24.1775454,49 C25.0052215,49 25,48.0355401 25,46.9512195 C25,45.866899 24.3263704,45 23.4986943,45 C22.6710182,45 22,45.866899 22,46.9512195 Z" id="Path" fill="#FBAD83" mask="url(#mask-4)"></path>
                <path d="M23.0121664,46.8280176 C23.0832671,46.2756836 23.6347777,45.923934 23.9326319,46.0140516 C24.2304861,46.1041693 23.4483786,46.4181276 23.377278,46.9733687 C23.3061773,47.5286098 23.7231731,48.0780369 23.425319,47.9908262 C23.1274648,47.9036156 22.9506739,47.3948868 23.0121664,46.8280176 Z" id="Path" fill="#E68D5C" mask="url(#mask-4)"></path>
                <path d="M28.2218524,45 C28.1469369,45.0002583 28.0769107,44.9732703 28.0357076,44.9282581 C27.9693797,44.854689 27.9980922,44.7563945 28.0999718,44.7082552 L29.5603223,44.0259274 C29.6127015,44.0013285 29.6770921,43.993801 29.737603,44.0052025 L30.8167998,44.2092632 C30.898909,44.2196584 30.9659598,44.2623278 30.9903216,44.319688 C31.0146835,44.3770482 30.9922331,44.4393912 30.9322221,44.4810264 C30.8722111,44.5226615 30.784796,44.5365422 30.7059993,44.5169483 L29.719875,44.3320184 L28.3415169,44.9697079 C28.3065839,44.9879779 28.2649912,44.9985061 28.2218524,45 Z" id="Path" fill="#F76A00" mask="url(#mask-4)"></path>
                <path d="M33.8128218,45 C33.776997,44.9998902 33.741953,44.9876055 33.7118602,44.9646079 L33.0556093,44.4602709 L32.2236103,44.7168634 C32.1267104,44.7397529 32.0314863,44.6694823 32.0062418,44.5564565 C31.9809972,44.4434307 32.0344496,44.3266788 32.1282576,44.2899465 L33.040652,44.00681 C33.0911228,43.9916416 33.1446539,44.0020635 33.1883552,44.035566 L33.9156532,44.5929912 C34.0016096,44.659785 34.0258345,44.7961699 33.9698733,44.8982478 C33.9355472,44.9615465 33.8763888,44.9998747 33.8128218,45 L33.8128218,45 Z" id="Path" fill="#F76A00" mask="url(#mask-4)"></path>
                <path d="M24.0032089,54.992629 C22.4988596,54.9957365 21.2253431,53.8818794 21.0265222,52.3891265 C20.8277014,50.8963736 21.7652002,49.4873989 23.2178092,49.0958231 C23.2616523,49.0844117 23.3082465,49.0972822 23.3400401,49.1295864 C23.3718337,49.1618907 23.3839966,49.2087209 23.371947,49.2524365 C23.3598974,49.2961522 23.3254661,49.3301119 23.2816229,49.3415233 C21.8832902,49.720742 21.018274,51.1204953 21.3035631,52.5423837 C21.5888522,53.9642722 22.9266941,54.9210949 24.3628485,54.7303806 C25.7990029,54.5396664 26.8413811,53.266762 26.7464876,51.81959 C26.6515941,50.372418 25.4519437,49.2468422 24.0032089,49.2457002 C23.9354333,49.2457002 23.8804902,49.1906984 23.8804902,49.1228501 C23.8804902,49.0550019 23.9354333,49 24.0032089,49 C25.6582909,49 27,50.3431458 27,52 C27,53.6568542 25.6582909,55 24.0032089,55 L24.0032089,54.992629 Z" id="Path" fill="#FFFFFF" mask="url(#mask-4)"></path>
                <path d="M9,92.4470379 C9,92.4470379 17.9568345,96.0985665 24,97 L17.6159254,59 L9,92.4470379 Z" id="Path" fill="#EDB607" mask="url(#mask-4)"></path>
                <path d="M71,100.689172 C71,100.689172 68.7040455,101.175903 67.2484104,100.931208 C65.7927753,100.686512 64.3600997,99.9391266 64.0639216,98.0187984 C63.7677434,96.0984703 64.5713275,95.7447256 65.0305184,95.6117389 C65.4897093,95.4787522 68.933641,96.7208481 68.933641,96.7208481 L69.0645104,95 C69.3523644,95.2041936 69.5760835,95.5099721 69.7027857,95.8723929 C69.9760043,96.5426459 70.19412,97.0905512 70.19412,97.0905512 L71,100.689172 Z" id="Path" fill="#A55B3A" mask="url(#mask-4)"></path>
                <path d="M89.4898761,76.9321646 L94.7814791,95.4804107 L71.2747357,96.8948812 C71.2747357,96.8948812 70.6565803,99.2410099 71.2747357,101 L96.9630626,101 C98.1077405,101 99.1986836,100.510202 99.9643061,99.6518544 C100.729928,98.7935071 101.098209,97.6476036 100.977465,96.4994117 C100.138024,88.4298936 98.3316636,72.2544643 97.3455012,71.4125753 C95.8140884,70.1765128 93.8046521,69.7185343 91.8951502,70.1703645 C91.2361051,70.328067 90.6925132,70.8666819 90.2547533,71.5290326 C89.227108,73.1299752 88.9475078,75.1050853 89.4898761,76.9321646 L89.4898761,76.9321646 Z" id="Path" fill="#F9C200" mask="url(#mask-4)"></path>
                <path d="M18.1442101,97.0067492 C18.4286491,97.3082087 18.6838137,97.6334929 18.9065863,97.9786277 C19.2996126,98.5815523 24.8256565,99.6681665 25.3773138,99.9313836 C25.9289712,100.194601 26,101 26,101 L18.2152389,101 C16.7080832,101.000075 15.4317892,99.9438541 15.2249247,98.5253093 L15,97 L18.1442101,97.0067492 Z" id="Path" fill="#FBAD83" mask="url(#mask-4)"></path>
                <path d="M18.8580755,58.0033556 C17.5285226,58.0297978 16.4526045,59.0910293 16.4101796,60.417837 C16.2448798,65.1327488 15.8899714,75.9481694 16.0333933,78.2000675 C16.2157093,81.1120049 22.0473896,97.8095388 22.0473896,97.8095388 C22.9098094,98.0634871 23.8273361,98.0634871 24.6897558,97.8095388 L26,97.3703215 C26,97.3703215 22.1665027,79.5347055 22.0473896,78.2000675 C21.9282765,76.8654296 23.2360898,61.9417509 22.8544417,59.5758018 C22.6380934,58.2096179 20.5767074,57.9669564 18.8580755,58.0033556 Z" id="Path" fill="#F9C200" mask="url(#mask-4)"></path>
                <path d="M55,78.0510382 C55,78.0510382 56.1786667,77.820569 58.2346667,78.3391246 C60.2906667,78.8576802 63,84.5790769 63,84.5790769 C62.8762021,84.9088649 62.5364373,85.0778873 62.224,84.9651127 C61.6666667,84.7720948 59.624,82.1793169 59.624,82.1793169 C59.624,82.1793169 59.808,83.4757058 58.16,83.812767 C56.512,84.1498281 55.712,83.4757058 55.4453333,83.1386447 C55.1786667,82.8015836 55,81.496552 55,81.496552 L55,78.0510382 Z" id="Path" fill="#FBAD83" mask="url(#mask-4)"></path>
            </g>
        </g>
    </g>
</svg>