<?xml version="1.0" encoding="UTF-8"?>
<svg width="13px" height="15px" viewBox="0 0 13 15" version="1.1" xmlns="http://www.w3.org/2000/svg" xmlns:xlink="http://www.w3.org/1999/xlink">
    <title>SKU1</title>
    <defs>
        <path d="M0,0 L375,0 L375,443 C375,451.836556 367.836556,459 359,459 L16,459 C7.163444,459 -6.94190838e-16,451.836556 0,443 L0,0 L0,0 Z" id="path-1"></path>
        <filter x="-4.3%" y="-3.1%" width="108.5%" height="107.0%" filterUnits="objectBoundingBox" id="filter-2">
            <feOffset dx="0" dy="2" in="SourceAlpha" result="shadowOffsetOuter1"></feOffset>
            <feGaussianBlur stdDeviation="5" in="shadowOffsetOuter1" result="shadowBlurOuter1"></feGaussianBlur>
            <feColorMatrix values="0 0 0 0 0.898039216   0 0 0 0 0.921568627   0 0 0 0 1  0 0 0 1 0" type="matrix" in="shadowBlurOuter1"></feColorMatrix>
        </filter>
    </defs>
    <g id="页面-1" stroke="none" stroke-width="1" fill="none" fill-rule="evenodd">
        <g id="画图红包_开始" transform="translate(-79.000000, -412.000000)">
            <rect fill="#F9F9F9" x="0" y="0" width="375" height="812"></rect>
            <rect id="矩形" fill="#FFFFFF" x="-1" y="0" width="375" height="812"></rect>
            <g id="矩形">
                <use fill="black" fill-opacity="1" filter="url(#filter-2)" xlink:href="#path-1"></use>
                <use fill="#FFFFFF" fill-rule="evenodd" xlink:href="#path-1"></use>
            </g>
            <path d="M90.8055556,416.879167 C89.9882385,417.495812 89.0702656,417.966194 88.0923611,418.269444 C88.0077121,419.662117 86.8535759,420.748233 85.4583333,420.748233 C84.0630908,420.748233 82.9089545,419.662117 82.8243056,418.269444 C81.8464011,417.966194 80.9284282,417.495812 80.1111111,416.879167 L80.1111111,424.361111 C80.1111111,424.766303 80.2720729,425.154899 80.5585869,425.441413 C80.8451008,425.727927 81.233697,425.888889 81.6388889,425.888889 L89.2777778,425.888889 C90.1215461,425.888889 90.8055556,425.204879 90.8055556,424.361111 L90.8055556,416.879167 L90.8055556,416.879167 Z M90.8055556,415.426389 L90.8055556,414.638889 C90.8055556,414.233697 90.6445937,413.845101 90.3580798,413.558587 C90.0715659,413.272073 89.6829696,413.111111 89.2777778,413.111111 L81.6388889,413.111111 C81.233697,413.111111 80.8451008,413.272073 80.5585869,413.558587 C80.2720729,413.845101 80.1111111,414.233697 80.1111111,414.638889 L80.1111111,415.425694 C80.9348489,416.207021 81.9197354,416.798427 82.9965278,417.158333 C83.3898977,416.141448 84.3680144,415.47107 85.4583333,415.47107 C86.5486523,415.47107 87.526769,416.141448 87.9201389,417.158333 C88.9968788,416.798651 89.9817644,416.207483 90.8055556,415.426389 Z M81.6388889,412 L89.2777778,412 C89.9776546,412 90.6488663,412.278025 91.143754,412.772913 C91.6386417,413.2678 91.9166667,413.939012 91.9166667,414.638889 L91.9166667,424.361111 C91.9166667,425.060988 91.6386417,425.7322 91.143754,426.227087 C90.6488663,426.721975 89.9776546,427 89.2777778,427 L81.6388889,427 C80.939012,427 80.2678003,426.721975 79.7729127,426.227087 C79.278025,425.7322 79,425.060988 79,424.361111 L79,414.638889 C79,413.939012 79.278025,413.2678 79.7729127,412.772913 C80.2678003,412.278025 80.939012,412 81.6388889,412 Z M85.4583333,419.638889 C86.3021017,419.638889 86.9861111,418.954879 86.9861111,418.111111 C86.9861111,417.267343 86.3021017,416.583333 85.4583333,416.583333 C84.614565,416.583333 83.9305556,417.267343 83.9305556,418.111111 C83.9305556,418.954879 84.614565,419.638889 85.4583333,419.638889 Z" id="SKU1" fill="#8294FF" fill-rule="nonzero"></path>
        </g>
    </g>
</svg>