<?xml version="1.0" encoding="UTF-8"?>
<svg width="100px" height="100px" viewBox="0 0 100 100" version="1.1" xmlns="http://www.w3.org/2000/svg" xmlns:xlink="http://www.w3.org/1999/xlink">
    <title>编组 3</title>
    <defs>
        <path d="M0,0 L375,0 L375,443 C375,451.836556 367.836556,459 359,459 L16,459 C7.163444,459 -6.94190838e-16,451.836556 0,443 L0,0 L0,0 Z" id="path-1"></path>
        <filter x="-4.3%" y="-3.1%" width="108.5%" height="107.0%" filterUnits="objectBoundingBox" id="filter-2">
            <feOffset dx="0" dy="2" in="SourceAlpha" result="shadowOffsetOuter1"></feOffset>
            <feGaussianBlur stdDeviation="5" in="shadowOffsetOuter1" result="shadowBlurOuter1"></feGaussianBlur>
            <feColorMatrix values="0 0 0 0 0.898039216   0 0 0 0 0.921568627   0 0 0 0 1  0 0 0 1 0" type="matrix" in="shadowBlurOuter1"></feColorMatrix>
        </filter>
        <circle id="path-3" cx="50" cy="50" r="50"></circle>
    </defs>
    <g id="页面-1" stroke="none" stroke-width="1" fill="none" fill-rule="evenodd">
        <g id="识物红包_开始" transform="translate(-138.000000, -151.000000)">
            <rect fill="#F9F9F9" x="0" y="0" width="375" height="812"></rect>
            <rect id="矩形" fill="#FFFFFF" x="0" y="0" width="375" height="812"></rect>
            <g id="矩形">
                <use fill="black" fill-opacity="1" filter="url(#filter-2)" xlink:href="#path-1"></use>
                <use fill="#FFFFFF" fill-rule="evenodd" xlink:href="#path-1"></use>
            </g>
            <g id="编组-3" transform="translate(138.000000, 151.000000)">
                <circle id="椭圆形" fill="#FEF4E6" cx="50" cy="50" r="50"></circle>
                <mask id="mask-4" fill="white">
                    <use xlink:href="#path-3"></use>
                </mask>
                <use id="椭圆形" fill="#E1F5EA" xlink:href="#path-3"></use>
                <path d="M42.3220182,78.5045139 C42.3220182,78.5045139 36.6470064,109.295464 36.1183136,112.363562 C35.5896207,115.43166 37.0041553,150 37.0041553,150 L44.1668189,150 C44.1668189,150 46.0678634,116.358138 46.6696734,113.515473 C47.2714834,110.672809 55.668701,93.8917413 57.5838066,88.1239365 C59.4989121,82.3561318 58.9167875,76 58.9167875,76 L42.3220182,78.5045139 Z" id="Path" fill="#19192B" mask="url(#mask-4)"></path>
                <path d="M55,92 L55,77 L42.0857486,78.9504389 C42.0857486,78.9504389 41.9206476,79.8419898 41,84.8566203 L55,92 Z" id="Path" fill="#303D72" mask="url(#mask-4)"></path>
                <path d="M50.241892,80.2265193 C50.241892,80.2265193 49.9892505,111.668508 50.0003557,114.790055 C50.0114608,117.911602 57.4130223,151 57.4130223,151 L64.6313494,150.378453 C64.6313494,150.378453 60.378089,117.093923 60.4669299,114.190608 C60.5557709,111.287293 65.858465,93.2596685 66.7413219,87.2265193 C67.6241789,81.1933702 65.9639636,75 65.9639636,75 L50.241892,80.2265193 Z" id="Path" fill="#303D72" mask="url(#mask-4)"></path>
                <path d="M50,83.7251812 L65.1323135,95 C65.8806302,91.9054523 66.4910991,89.168295 66.7442889,87.4153798 C67.3069331,83.4443744 66.8258723,79.3826032 66.4038892,77 L50.0028132,83.4755752 C50.0028132,83.5578317 50,83.6400882 50,83.7251812 Z" id="Path" fill="#27345E" mask="url(#mask-4)"></path>
                <path d="M41.2762148,77 L41,79.8377133 C41,79.8377133 51.9104859,87.2888693 65.9283887,82.2523599 L68,81.5328585 L67.552532,77.7195013 L41.2762148,77 Z" id="Path" fill="#F0F1F4" mask="url(#mask-4)"></path>
                <path d="M43.2000052,44 L40.6378568,59.3137969 L18,61.9483387 L18.8318664,66.4312416 C18.8318664,66.4312416 36.3925654,67.7220277 40.7376807,66.4145143 C45.0827961,65.107001 47.9166875,63.3088217 48.9010627,55.3801054 C49.8854379,47.4513891 43.2000052,44 43.2000052,44 Z" id="Path" fill="#40A569" mask="url(#mask-4)"></path>
                <path d="M56.2921149,40 L68,42.8756237 L68,79.4418242 C64.4519886,80.8453698 56.9939801,83.18644 48.1046087,81.2867191 C45.2853121,80.6823515 42.5597822,79.707922 40,78.389165 C40.8289746,66.9743919 41.5529458,56.5135911 42.365341,45.2523308 C42.5032309,43.4533277 43.7137323,41.9111823 45.4380736,41.3377544 L49.1684595,40.1014281 L56.2921149,40 Z" id="Path" fill="#42D57E" mask="url(#mask-4)"></path>
                <path d="M57,40 C57,40 54.7610236,43.4586248 51.8656612,42.9486842 C48.9702989,42.4387436 50.3090148,40.0826293 50.3090148,40.0826293 L57,40 Z" id="Path" fill="#FFFFFF" mask="url(#mask-4)"></path>
                <path d="M59,81 C62.0868527,80.5986753 65.1102123,79.8238034 68,78.6933452 L68,50.4485931 L64.1753555,50 L59,81 Z" id="Path" fill="#40A569" mask="url(#mask-4)"></path>
                <path d="M67.7625631,42 C67.7625631,42 83.7479029,53.560903 84.9243132,58.8967044 C86.1007235,64.2325057 73.1740504,75.9986318 73.1740504,75.9986318 C73.1740504,75.9986318 70.7464932,76.1354473 70.1292238,73.6727697 L78.9869013,60.0952074 C78.9869013,60.0952074 64.5931753,52.9452336 63.2091632,48.7039556 C61.8251511,44.4626776 67.7625631,42 67.7625631,42 Z" id="Path" fill="#42D57E" mask="url(#mask-4)"></path>
                <rect id="Rectangle" fill="#FE6B88" mask="url(#mask-4)" x="15" y="47" width="21" height="21"></rect>
                <polygon id="Path" fill="#A8B4FE" mask="url(#mask-4)" points="79 77 73.3033531 77 58 77 58 56 79 56"></polygon>
                <polygon id="Path" fill="#8294FF" mask="url(#mask-4)" points="58 68.9892786 79 61 79 76 58 76"></polygon>
                <path d="M73.4637979,77.9540096 C73.4637979,77.9540096 72.2457535,79 70.8775392,79 C69.5093249,79 66.6700021,77.0701478 67.0315222,75.5325419 C67.3930422,73.9949361 70.1100043,73.8511124 70.8163589,74.0943052 C71.5227134,74.337498 72.2346298,76.3484144 72.8241855,76.5759173 C73.4137413,76.8034202 74.0338872,74.8500332 74.8125457,74.6094555 C75.2092197,74.4486989 75.6683276,74.511383 76,74.771584 C76,74.771584 74.3648171,77.0047734 74.0728201,77.37087 C73.8970326,77.5888302 73.6923706,77.7847944 73.4637979,77.9540096 L73.4637979,77.9540096 Z" id="Path" fill="#FBAD83" mask="url(#mask-4)"></path>
                <path d="M14.1249547,64.1394507 C14.1249547,64.1394507 14.4698842,65.7205826 15.5881233,66.4961808 C16.7063624,67.2717791 20.2085093,67.2472865 20.8733331,65.7450752 C21.5381568,64.2428638 19.4046011,62.5719258 18.6785802,62.3787066 C17.9525593,62.1854874 16.1333344,63.483594 15.510236,63.3393599 C14.8871376,63.1951258 15.5881233,61.189456 15.1013277,60.5472062 C14.880187,60.1830595 14.4677632,59.9723625 14.0359407,60.0029267 C14.0359407,60.0029267 13.988652,62.8250158 14.0025604,63.2985389 C14.0069929,63.5827674 14.0481167,63.865309 14.1249547,64.1394507 Z" id="Path" fill="#FBAD83" mask="url(#mask-4)"></path>
                <path d="M57,30 L57,38.8753767 C57,38.8753767 55.495935,40.1402186 52.8509485,39.9871486 C50.4119241,39.8475057 50.0135501,38.9693671 50.0135501,38.9693671 L49,34.3665242 L57,30" id="Path" fill="#FBAD83" mask="url(#mask-4)"></path>
                <path d="M49.8166302,39 C50.7652619,38.5456668 51.650242,37.930087 52.4424508,37.173516 C53.6326457,36.1066441 54.5227805,34.6540849 55,33 L49.8008753,34.1445967 L49,34.6560122 L49.8166302,38.9939117" id="Path" fill="#E68D5C" mask="url(#mask-4)"></path>
                <path d="M43.8501119,18.4394095 C43.8501119,18.4394095 43,20.3618263 43,22.0645383 C43,23.4376931 43.5965697,26 43.5965697,26 L47,18 L43.8501119,18.4394095 Z" id="Path" fill="#7A4029" mask="url(#mask-4)"></path>
                <path d="M44.1449002,34.2416348 C46.7136269,39.314689 53.1126105,36.316247 55.8468774,33.7610296 C58.5811442,31.2058123 58.2072518,21.4388479 57.4480503,19.5885181 C56.6888489,17.7381883 50.3669271,16.2269522 47.0304365,17.431135 C43.6939459,18.6353179 41.567611,29.1792607 44.1449002,34.2523149" id="Path" fill="#FBAD83" mask="url(#mask-4)"></path>
                <path d="M56.9919028,26 L54.265857,26 C54.265857,26 52.4547908,30.9989648 50.9082321,31.4772257 C50.7834688,31.5138922 50.6544802,31.5320959 50.5249663,31.5313147 C49.2348178,31.5313147 47.5128205,29.8773292 45.34278,29.7805383 C45.1403509,29.7805383 44.9595142,29.7805383 44.802969,29.7805383 C43.8744939,29.7805383 43.4534413,29.9257246 43,30.2531056 C43.1215754,31.5675896 43.4432925,32.8528012 43.9527665,34.059265 C44.9217274,36.2085921 46.4601889,36.9971532 48.1255061,37 C50.6491228,37 53.4615385,35.1865942 55.0188934,33.5468427 C56.2712551,32.2287785 56.8353576,29.1086957 57,26.014234" id="Path" fill="#D48C68" mask="url(#mask-4)"></path>
                <path d="M56.5718277,26.8919069 C55.6885845,26.8081422 54.8761745,26.3594179 54.3204669,25.6483966 C53.7647593,24.9373752 53.513307,24.0249001 53.623639,23.1197339 C53.7637722,21.9805987 54.0898516,21.614745 53.8015004,20.5338137 C53.2274929,18.3830377 50.7185681,18.5936807 49.0234943,19.3863636 C47.3284205,20.1790466 45.482434,20.1873614 44.0272037,19.0537694 C42.9521097,18.1947992 42.6821621,16.6390832 43.4019936,15.4506652 C44.3478933,13.881929 47.7137871,12 47.7137871,12 C47.7137871,12 47.3068616,12.9423503 47.4443,13.4301552 C47.5817384,13.9179601 56.4909816,11.1629712 58.3207989,15.2400222 C60.1506163,19.3170732 57.7036735,27 57.7036735,27 L56.5718277,26.8919069 Z" id="Path" fill="#7A4029" mask="url(#mask-4)"></path>
                <path d="M58,27.4489232 C58,28.7990061 56.2041379,30 55.1034483,30 C54.0027586,30 54,28.7990061 54,27.4489232 C54,26.0988404 54.8937931,25 55.9944828,25 C57.0951724,25 58,26.0960795 58,27.4489232 Z" id="Path" fill="#FBAD83" mask="url(#mask-4)"></path>
                <path d="M56.9879875,26.7855871 C57.0862716,27.3007144 56.5606653,27.9028724 56.1696655,27.9922552 C55.7786656,28.0816381 56.6098073,27.3783364 56.5093866,26.863209 C56.4089659,26.3480817 55.7337968,26.103455 56.1162502,26.0140722 C56.4987036,25.9246894 56.8875668,26.2704598 56.9879875,26.7855871 Z" id="Path" fill="#E68D5C" mask="url(#mask-4)"></path>
                <path d="M44,31 L48,31 C48,31 47.1891892,32.9433696 45.8406828,32.9988944 C44.4921764,33.0544193 44,31 44,31 Z" id="Path" fill="#FFFFFF" mask="url(#mask-4)"></path>
                <polygon id="Path" fill="#FFFFFF" mask="url(#mask-4)" points="32 62 20 62 26 52"></polygon>
            </g>
        </g>
    </g>
</svg>