<?xml version="1.0" encoding="UTF-8"?>
<svg width="13px" height="15px" viewBox="0 0 13 15" version="1.1" xmlns="http://www.w3.org/2000/svg" xmlns:xlink="http://www.w3.org/1999/xlink">
    <title>编组</title>
    <defs>
        <path d="M0,0 L375,0 L375,443 C375,451.836556 367.836556,459 359,459 L16,459 C7.163444,459 -6.94190838e-16,451.836556 0,443 L0,0 L0,0 Z" id="path-1"></path>
        <filter x="-4.3%" y="-3.1%" width="108.5%" height="107.0%" filterUnits="objectBoundingBox" id="filter-2">
            <feOffset dx="0" dy="2" in="SourceAlpha" result="shadowOffsetOuter1"></feOffset>
            <feGaussianBlur stdDeviation="5" in="shadowOffsetOuter1" result="shadowBlurOuter1"></feGaussianBlur>
            <feColorMatrix values="0 0 0 0 0.898039216   0 0 0 0 0.921568627   0 0 0 0 1  0 0 0 1 0" type="matrix" in="shadowBlurOuter1"></feColorMatrix>
        </filter>
        <filter id="filter-3">
            <feColorMatrix in="SourceGraphic" type="matrix" values="0 0 0 0 0.509804 0 0 0 0 0.580392 0 0 0 0 1.000000 0 0 0 1.000000 0"></feColorMatrix>
        </filter>
    </defs>
    <g id="页面-1" stroke="none" stroke-width="1" fill="none" fill-rule="evenodd">
        <g id="画图红包_开始" transform="translate(-208.000000, -412.000000)">
            <rect fill="#F9F9F9" x="0" y="0" width="375" height="812"></rect>
            <rect id="矩形" fill="#FFFFFF" x="-1" y="0" width="375" height="812"></rect>
            <g id="矩形">
                <use fill="black" fill-opacity="1" filter="url(#filter-2)" xlink:href="#path-1"></use>
                <use fill="#FFFFFF" fill-rule="evenodd" xlink:href="#path-1"></use>
            </g>
            <g filter="url(#filter-3)" id="编组">
                <g transform="translate(208.000000, 412.000000)">
                    <path d="M10.5146327,10.1250493 C9.83026976,10.1250493 9.21056654,10.3963599 8.76110441,10.8352455 L6.8564607,9.32946698 C7.11705892,8.83810139 7.26451566,8.27974995 7.26451566,7.68753997 C7.26451566,7.15316671 7.14438628,6.64639387 6.92949548,6.19148872 L8.28369068,4.96237751 C8.78291773,5.37570348 9.42790222,5.62500851 10.1322752,5.62500851 C11.7162213,5.62500851 13,4.36560997 13,2.81250425 C13,1.25902442 11.7162213,0 10.1322752,0 C8.54867585,0 7.26451566,1.2590244 7.26451566,2.81250425 C7.26451566,3.2679536 7.37507352,3.69806429 7.57111607,4.0786541 L6.2808523,5.24974152 C5.61826803,4.55752042 4.67687885,4.12501192 3.63207576,4.12501192 C1.62615092,4.12501192 0,5.71986686 0,7.68752297 C0,9.65517907 1.62615092,11.25 3.63207576,11.25 C4.63604388,11.25 5.5446437,10.8507718 6.20202607,10.2053847 L8.16754943,11.7593067 C8.07807662,12.0108225 8.02926539,12.2810616 8.02926539,12.5624906 C8.02926539,13.9087038 9.14202273,15 10.5146327,15 C11.8872427,15 13,13.9087038 13,12.5624906 C13,11.2163455 11.8872427,10.1250493 10.5146327,10.1250493 Z M10.1322752,1.12503573 C11.0829411,1.12503573 11.8528927,1.8805354 11.8528927,2.81252127 C11.8528927,3.74450714 11.0829411,4.50000681 10.1322752,4.50000681 C9.18232018,4.50000681 8.41162292,3.74450714 8.41162292,2.81252127 C8.41162292,1.8805354 9.18232018,1.12503573 10.1322752,1.12503573 Z M3.63207576,10.1250493 C2.25944846,10.1250493 1.14707259,9.03371911 1.14707259,7.68753997 C1.14707259,6.34132683 2.25943113,5.25003061 3.63207576,5.25003061 C5.00508453,5.25003061 6.11744306,6.34132681 6.11744306,7.68753997 C6.11744306,9.03373611 5.00508453,10.1250493 3.63207576,10.1250493 Z M10.5146327,13.8750323 C9.77566708,13.8750323 9.17635533,13.2872608 9.17635533,12.5625247 C9.17635533,11.8378225 9.77566708,11.250017 10.5146327,11.250017 C11.2539798,11.250017 11.8529101,11.8378055 11.8529101,12.5625247 C11.8529101,13.2872778 11.2539798,13.8750323 10.5146327,13.8750323 Z" id="形状" fill="#000000" fill-rule="nonzero"></path>
                </g>
            </g>
        </g>
    </g>
</svg>