<?xml version="1.0" encoding="UTF-8"?>
<svg width="20px" height="20px" viewBox="0 0 20 20" version="1.1" xmlns="http://www.w3.org/2000/svg" xmlns:xlink="http://www.w3.org/1999/xlink">
    <title>形状</title>
    <defs>
        <rect id="path-1" x="45" y="587" width="285" height="45" rx="22.5"></rect>
        <filter x="-9.1%" y="-48.9%" width="118.2%" height="215.6%" filterUnits="objectBoundingBox" id="filter-2">
            <feOffset dx="0" dy="4" in="SourceAlpha" result="shadowOffsetOuter1"></feOffset>
            <feGaussianBlur stdDeviation="8" in="shadowOffsetOuter1" result="shadowBlurOuter1"></feGaussianBlur>
            <feColorMatrix values="0 0 0 0 1   0 0 0 0 0.890167683   0 0 0 0 0.890167683  0 0 0 1 0" type="matrix" in="shadowBlurOuter1"></feColorMatrix>
        </filter>
    </defs>
    <g id="页面-1" stroke="none" stroke-width="1" fill="none" fill-rule="evenodd">
        <g id="分享红包" transform="translate(-133.000000, -600.000000)">
            <g id="矩形">
                <use fill="black" fill-opacity="1" filter="url(#filter-2)" xlink:href="#path-1"></use>
                <use fill="#FE6B88" fill-rule="evenodd" xlink:href="#path-1"></use>
            </g>
            <path d="M135.16575,613.3035 C135.89037,615.015346 137.154175,616.443743 138.765,617.3715 L138.765,610.0865 L135.5115,613.12075 C135.41075,613.21475 135.29125,613.27575 135.16575,613.30375 L135.16575,613.3035 Z M134.69725,611.82875 L139.61225,607.24525 L134.999995,607.24525 C134.9855,607.24525 134.971,607.245 134.95675,607.244 C134.653344,608.131139 134.499004,609.062413 134.499995,610 C134.499995,610.62775 134.568,611.24 134.69725,611.82875 Z M141.77725,607.24525 C141.743252,607.298465 141.702682,607.347182 141.6565,607.39025 L140.20075,608.7475 C140.242,608.84025 140.26475,608.943 140.26475,609.051 L140.26475,610.91525 C140.34875,610.95375 140.42675,611.0085 140.4945,611.0795 L142.07825,612.74 L144.201,612.74 L145.80175,611.0305 L145.80175,608.7835 L144.20375,607.21725 C144.13875,607.2355 144.0705,607.24525 144,607.24525 L141.77725,607.24525 Z M140.26325,618.05 C141.144664,618.349008 142.06925,618.501037 143,618.500005 C143.768,618.500005 144.51225,618.39825 145.22,618.20725 L140.265,613.01225 L140.265,618 C140.265,618.01675 140.26425,618.03325 140.26325,618.05 L140.26325,618.05 Z M146.7195,617.64525 C148.24784,616.89905 149.518478,615.713376 150.3685,614.24025 L143.50875,614.24025 L146.60125,617.48275 C146.64875,617.53275 146.68825,617.5875 146.7195,617.64525 Z M151.04825,612.74175 C151.348399,611.858848 151.501026,610.932525 151.500005,610 C151.500005,609.14075 151.3725,608.31125 151.1355,607.5295 L146.25575,612.74 L151,612.74 C151.01625,612.74 151.03225,612.7405 151.04825,612.7415 L151.04825,612.74175 Z M135.63975,605.74525 L142.70175,605.74525 L139.42675,602.53575 C139.371385,602.481596 139.324749,602.419189 139.2885,602.35075 C137.761781,603.094297 136.491484,604.276246 135.64,605.7455 L135.63975,605.74525 Z M140.80475,601.78625 L145.80175,606.68325 L145.80175,602.10825 C145.80175,602.06325 145.80575,602.0195 145.81325,601.9765 C144.909111,601.66004 143.957921,601.49893 143,601.499995 C142.241,601.499995 141.505,601.5995 140.805,601.78625 L140.80475,601.78625 Z M147.302,608.4675 L147.302,609.429 L150.45275,606.064 C150.47025,606.04525 150.489,606.0275 150.50775,606.011 C149.76763,604.62236 148.658232,603.465205 147.302,602.66725 L147.302,608.46775 L147.302,608.4675 Z M143,620 C137.47725,620 133,615.52275 133,610 C133,604.47725 137.47725,600 143,600 C148.52275,600 153,604.47725 153,610 C153,615.52275 148.52275,620 143,620 Z" id="形状" fill="#FFFFFF" fill-rule="nonzero"></path>
        </g>
    </g>
</svg>