<?xml version="1.0" encoding="UTF-8"?>
<svg width="151px" height="151px" viewBox="0 0 151 151" version="1.1" xmlns="http://www.w3.org/2000/svg" xmlns:xlink="http://www.w3.org/1999/xlink">
    <title>厌恶</title>
    <defs>
        <radialGradient cx="73.3828955%" cy="37.5572983%" fx="73.3828955%" fy="37.5572983%" r="34.0587423%" id="radialGradient-1">
            <stop stop-color="#FFE300" offset="0%"></stop>
            <stop stop-color="#F89900" offset="100%"></stop>
        </radialGradient>
        <radialGradient cx="-62.7989566%" cy="-84.9672414%" fx="-62.7989566%" fy="-84.9672414%" r="175.664228%" gradientTransform="translate(-0.627990,-0.849672),scale(1.000000,0.917434),translate(0.627990,0.849672)" id="radialGradient-2">
            <stop stop-color="#FFE300" offset="38.04%"></stop>
            <stop stop-color="#F7941E" offset="100%"></stop>
        </radialGradient>
        <radialGradient cx="50.0016764%" cy="49.9993085%" fx="50.0016764%" fy="49.9993085%" r="103.916809%" gradientTransform="translate(0.500017,0.499993),scale(0.361817,1.000000),translate(-0.500017,-0.499993)" id="radialGradient-3">
            <stop stop-color="#FFE300" offset="38.04%"></stop>
            <stop stop-color="#F7941E" offset="100%"></stop>
        </radialGradient>
        <radialGradient cx="50.0535419%" cy="49.6808271%" fx="50.0535419%" fy="49.6808271%" r="106.078062%" gradientTransform="translate(0.500535,0.496808),scale(0.354266,1.000000),rotate(-0.311478),translate(-0.500535,-0.496808)" id="radialGradient-4">
            <stop stop-color="#830000" offset="0%"></stop>
            <stop stop-color="#531C00" offset="100%"></stop>
        </radialGradient>
    </defs>
    <g id="页面-1" stroke="none" stroke-width="1" fill="none" fill-rule="evenodd">
        <g id="画板" transform="translate(-1421.000000, -739.000000)" fill-rule="nonzero">
            <g id="厌恶" transform="translate(1421.204000, 739.728000)">
                <circle id="椭圆形" fill="url(#radialGradient-1)" cx="75" cy="75" r="75"></circle>
                <path d="M133.297727,110.045455 C136.1875,109.545455 139.039773,112.255682 139.039773,112.255682 C139.039773,112.255682 141.1375,119.476136 135.690909,124.520455 C131.185227,128.688636 119.819318,131.367045 119.819318,131.367045 C119.819318,131.367045 135.193182,125.709091 127.434091,116.756818 C125.704545,114.763636 129.555682,110.694318 133.297727,110.045455 Z" id="路径" fill="url(#radialGradient-2)"></path>
                <path d="M90.5659091,127.452273 C71.2477273,129.118182 56.8068182,131.569318 45.2534091,133.934091 C42.3863636,134.522727 40.4011364,131.569318 42.2590909,127.944318 C55.3897727,110.065909 77.6636364,96.7852273 102.869318,100.152273 C119.390909,102.357955 129.984091,110.877273 135.779545,119.636364 C137.889773,122.830682 135.322727,125.109091 132.75,125.109091 C125.326136,125.109091 114.580682,125.381818 90.5659091,127.452273 Z" id="路径" fill="url(#radialGradient-3)"></path>
                <path d="M90.7147727,125.596591 C71.3965909,127.261364 56.9590909,129.713636 45.4068182,132.078409 C42.5397727,132.667045 40.5545455,129.713636 42.4125,126.088636 C55.5420455,108.210227 77.8159091,94.9295455 103.026136,98.2965909 C119.547727,100.502273 130.140909,109.021591 135.935227,117.780682 C138.046591,120.975 135.475,123.253409 132.906818,123.253409 C125.473864,123.253409 114.729545,123.529545 90.7147727,125.596591 Z" id="路径" fill="#603913"></path>
                <path d="M90.475,124.694318 C72.2420455,126.319318 58.6079545,128.640909 47.6954545,130.867045 C44.9875,131.420455 43.1318182,128.723864 44.9034091,125.396591 C57.3795455,108.936364 78.4613636,96.6454545 102.226136,99.6090909 C117.801136,101.547727 127.753409,109.301136 133.170455,117.304545 C135.143182,120.215909 132.711364,122.323864 130.285227,122.3375 C123.278409,122.369318 113.140909,122.677273 90.475,124.694318 Z" id="路径" fill="url(#radialGradient-4)"></path>
                <path d="M28.3375,123.253409 C28.3375,123.253409 32.8897727,133.971591 41.3613636,137.648864 C50.1681818,141.472727 54.0863636,140.296591 52.3852273,140.676136 C50.6852273,141.055682 30.0420455,142.948864 28.3375,123.253409 Z" id="路径" fill="#603913"></path>
                <path d="M125.473864,129.713636 C125.473864,129.713636 118.948864,131.347727 118.434091,131.372727 C117.919318,131.397727 122.784091,132.078409 122.784091,132.078409 L125.473864,129.713636 Z" id="路径" fill="#603913"></path>
                <path d="M112.076136,61.0829545 C108.544318,61.4806818 106.539773,61.6840909 106.0625,61.6977273 C104.721591,61.9443182 103.526136,61.7 102.472727,60.9636364 C101.968182,60.6102273 101.688636,60.2420455 101.632955,59.8556818 C101.577273,59.4727273 101.770455,58.9056818 102.207955,58.1545455 C102.561364,57.5590909 103.320455,57.1840909 104.5,57.0375 C106.729545,56.7420455 108.171591,56.6545455 108.831818,56.7715909 C111.919318,56.5590909 122.239773,54.8181818 126.789773,53.9022727 C129.185227,53.4215909 130.634091,53.1806818 131.120455,53.1761364 C132.280682,53.0579545 133.438636,52.9409091 134.598864,52.8238636 C136.098864,52.6875 137.188636,52.8579545 137.870455,53.3306818 C138.964773,54.0988636 138.951136,55.4465909 137.821591,57.3772727 C137.607955,57.7454545 136.747727,58.1590909 135.239773,58.6113636 C132.604545,59.3431818 115.144318,60.7272727 112.076136,61.0829545 Z" id="路径" fill="#603913"></path>
                <path d="M52.9431818,66.6215909 C49.1897727,67.0443182 47.0602273,67.2602273 46.5545455,67.275 C45.1295455,67.5363636 43.8579545,67.2772727 42.7397727,66.4931818 C42.2022727,66.1193182 41.9056818,65.7272727 41.8454545,65.3170455 C41.7875,64.9113636 41.9920455,64.3068182 42.4556818,63.5090909 C42.8284091,62.875 43.6363636,62.4784091 44.8886364,62.3215909 C47.2568182,62.0079545 48.7943182,61.9147727 49.4954545,62.0386364 C52.7772727,61.8136364 63.7420455,59.9636364 68.575,58.9886364 C71.1227273,58.4784091 72.6568182,58.2227273 73.1738636,58.2181818 C74.4056818,58.0931818 75.6375,57.9670455 76.8659091,57.8431818 C78.4625,57.6988636 79.6227273,57.8806818 80.3420455,58.3829545 C81.5034091,59.2 81.4931818,60.6318182 80.2909091,62.6818182 C80.0670455,63.0738636 79.1477273,63.5102273 77.5454545,63.9931818 C74.7545455,64.7738636 56.2034091,66.2431818 52.9431818,66.6215909 Z" id="路径" fill="#603913"></path>
                <path d="M54.9079545,13.3693182 C58.7363636,11.9363636 62.6977273,12.1079545 65.7988636,13.5352273 C62.9352273,10.1284091 58.1590909,8.70113636 53.7761364,10.3420455 C49.3909091,11.9818182 46.725,16.1931818 46.8,20.6431818 C48.2045455,17.5306818 51.0795455,14.8022727 54.9079545,13.3693182 Z" id="路径" fill="#603913"></path>
                <path d="M122.029545,29.1238636 C125.727273,29.8284091 128.630682,31.9534091 130.181818,34.7113636 C129.915909,30.4 127.094318,26.8079545 122.865909,26 C118.628409,25.1931818 114.265909,27.4170455 111.840909,31.2136364 C114.634091,29.2875 118.334091,28.4204545 122.029545,29.1238636 Z" id="路径" fill="#603913"></path>
                <ellipse id="椭圆形" fill="#603913" cx="66.6272727" cy="68.2795455" rx="6.08522727" ry="6.48863636"></ellipse>
                <ellipse id="椭圆形" fill="#603913" cx="124.096591" cy="62.5863636" rx="6.08409091" ry="6.48863636"></ellipse>
            </g>
        </g>
    </g>
</svg>