<?xml version="1.0" encoding="UTF-8"?>
<svg width="151px" height="151px" viewBox="0 0 151 151" version="1.1" xmlns="http://www.w3.org/2000/svg" xmlns:xlink="http://www.w3.org/1999/xlink">
    <title>开心</title>
    <defs>
        <radialGradient cx="75.2817737%" cy="38.6968813%" fx="75.2817737%" fy="38.6968813%" r="34.0584598%" id="radialGradient-1">
            <stop stop-color="#FFE300" offset="0%"></stop>
            <stop stop-color="#F89900" offset="100%"></stop>
        </radialGradient>
        <radialGradient cx="53.5785832%" cy="23.5594887%" fx="53.5785832%" fy="23.5594887%" r="124.575829%" gradientTransform="translate(0.535786,0.235595),scale(0.576956,1.000000),translate(-0.535786,-0.235595)" id="radialGradient-2">
            <stop stop-color="#FFE300" offset="38.04%"></stop>
            <stop stop-color="#F7941E" offset="100%"></stop>
        </radialGradient>
        <radialGradient cx="49.1270541%" cy="37.710177%" fx="49.1270541%" fy="37.710177%" r="77.7249263%" gradientTransform="translate(0.491271,0.377102),scale(0.569162,1.000000),translate(-0.491271,-0.377102)" id="radialGradient-3">
            <stop stop-color="#FFFFFF" offset="0%"></stop>
            <stop stop-color="#FDFDFE" offset="38.06%"></stop>
            <stop stop-color="#F5F8F9" offset="57.05%"></stop>
            <stop stop-color="#E8EEF1" offset="71.81%"></stop>
            <stop stop-color="#D5E0E5" offset="84.4%"></stop>
            <stop stop-color="#BDCED6" offset="95.5%"></stop>
            <stop stop-color="#B1C5CF" offset="100%"></stop>
        </radialGradient>
    </defs>
    <g id="页面-1" stroke="none" stroke-width="1" fill="none" fill-rule="evenodd">
        <g id="画板" transform="translate(-1289.000000, -300.000000)" fill-rule="nonzero">
            <g id="开心" transform="translate(1289.330000, 300.204000)">
                <circle id="椭圆形" fill="url(#radialGradient-1)" cx="75" cy="75" r="75"></circle>
                <path d="M90.2340909,99.9568182 C68.1420455,101.204545 40.5829545,93.8965909 28.6806818,80.3579545 C29.4375,119.836364 54.8375,146.353409 85.1306818,146.359092 C120.725,146.365909 143.990909,113.626136 144.626136,79.4636364 C136.1125,90.5386364 117.107955,98.4409091 90.2340909,99.9568182 Z" id="路径" fill="url(#radialGradient-2)"></path>
                <path d="M93.075,95.7909091 C70.9829545,97.0386364 45.1579545,92.5715909 29.4386364,77.7988636 C30.0761364,111.963636 55.6102273,141.994318 85.1318182,141.994318 C114.653409,141.994318 144.968182,112.457955 144.968182,72.1170455 C136.452273,83.1920455 119.948864,94.275 93.075,95.7909091 Z" id="路径" fill="#603913"></path>
                <path d="M90.2340909,99.9568182 C68.1420455,101.204545 42.8852273,93.8965909 30.9840909,80.3579545 C31.6227273,114.522727 55.6102273,141.994318 85.1306818,141.994318 C114.651136,141.994318 138.639773,114.522727 139.277273,80.3590909 C130.761364,91.4340909 117.107955,98.4409091 90.2340909,99.9568182 Z" id="路径" fill="url(#radialGradient-3)"></path>
                <path d="M81.8897727,67.1534091 C81.3261364,57.6125 75.0715909,50.3829545 67.9215909,51.0045455 C60.7727273,51.6272727 55.4329545,59.8659091 55.9977273,69.4068182 C56.5613636,78.9488636 62.8159091,86.1784091 69.9647727,85.5568182 C77.1125,84.9329545 82.4534091,76.6943182 81.8897727,67.1534091 Z M65.3034091,68.2704545 C63.1272727,68.4602273 61.2238636,66.2590909 61.0522727,63.3556818 C60.8818182,60.4534091 62.5056818,57.9465909 64.6795455,57.7568182 C66.8556818,57.5670455 68.7590909,59.7681818 68.9306818,62.6693182 C69.1022727,65.5738636 67.4784091,68.0806818 65.3034091,68.2704545 Z" id="形状" fill="#603913"></path>
                <path d="M129.701198,64.5909091 C129.721591,56.2636364 124.676136,49.4954545 118.435227,49.4760846 C112.194318,49.4545455 107.120455,56.1920455 107.101081,64.5170455 C107.081818,72.8465909 112.126136,79.6159091 118.368182,79.6352687 C124.609091,79.6545455 129.682955,72.9204545 129.701198,64.5909091 Z M115.240909,64.2602442 C113.340909,64.2545455 111.807955,62.1977273 111.811358,59.6602273 C111.818182,57.1272727 113.356818,55.0784091 115.254545,55.0840791 C117.157955,55.0909091 118.6875,57.15 118.6875,59.6840909 C118.682955,62.2181818 117.1375,64.2670455 115.240909,64.2602442 Z" id="形状" fill="#603913"></path>
                <path d="M32.0806818,91.6943182 C32.0806818,91.6943182 33.8522727,105.495455 56.5238636,114.161364 C73.1806818,120.530682 88.3420455,119.654545 88.3420455,119.654545 C88.3420455,119.654545 76.9784091,120.603409 60.6909091,118.167045 C46.1227273,115.9875 38.3170455,110.668182 38.3170455,110.668182 C38.3170455,110.668182 33.1170455,101.226136 32.0806818,91.6943182 Z" id="路径" fill="#607782"></path>
                <path d="M111.114773,116.785227 C111.114773,116.785227 124.442045,114.161364 131.143182,106.276136 C137.330682,98.9943182 137.765909,95.7670455 137.765909,95.7670455 C137.765909,95.7670455 136.229545,101.805682 134.778409,104.953409 C133.320455,108.101136 132.720455,109.480682 132.720455,109.480682 C132.720455,109.480682 120.272727,115.790909 111.114773,116.785227 Z" id="路径" fill="#607782"></path>
                <path d="M38.15,76.6625 C38.15,76.6625 27.9238636,76.0988636 23,80.3579545 C18.075,84.6170455 23.7568182,80.4931818 26.2181818,80.5681818 C28.6818182,80.6397727 33.0363636,77.9090909 38.15,79.4636364 C43.2636364,81.0181818 42.5068182,81.2068182 43.2636364,81.0181818 C44.0227273,80.8295455 43.6431818,77.4204545 38.15,76.6625 Z" id="路径" fill="#603913"></path>
                <path d="M146.547727,74.7227273 C146.547727,74.7227273 145.767045,70.4204545 141.2,71.6670455 C136.631818,72.9125 138.640909,74.5238636 140.734091,73.5613636 C142.827273,72.5965909 146.547727,74.7227273 146.547727,74.7227273 Z" id="路径" fill="#603913"></path>
                <path d="M68.8170455,31.1568182 C72.9045455,31.1568182 76.5545455,32.7045455 78.9590909,35.1284091 C77.4681818,30.9340909 73.4931818,27.9238636 68.8170455,27.9238636 C64.1352273,27.9238636 60.1625,30.9329545 58.6738636,35.1284091 C61.0784091,32.7045455 64.7284091,31.1568182 68.8170455,31.1568182 Z" id="路径" fill="#603913"></path>
                <path d="M116.246591,34.7829545 C120.335227,34.5136364 123.986364,35.8204545 126.389773,38.0863636 C124.901136,33.9909091 120.928409,31.2443182 116.246591,31.55 C111.565909,31.8579545 107.593182,35.1295455 106.104545,39.4227273 C108.509091,36.8420455 112.157955,35.0534091 116.246591,34.7829545 Z" id="路径" fill="#603913"></path>
            </g>
        </g>
    </g>
</svg>