<?xml version="1.0" encoding="UTF-8"?>
<svg width="150px" height="150px" viewBox="0 0 150 150" version="1.1" xmlns="http://www.w3.org/2000/svg" xmlns:xlink="http://www.w3.org/1999/xlink">
    <title>伤心</title>
    <defs>
        <radialGradient cx="74.1418868%" cy="42.4965043%" fx="74.1418868%" fy="42.4965043%" r="34.0584598%" id="radialGradient-1">
            <stop stop-color="#FFE300" offset="0%"></stop>
            <stop stop-color="#F89900" offset="100%"></stop>
        </radialGradient>
        <radialGradient cx="-62.7989566%" cy="-84.9895991%" fx="-62.7989566%" fy="-84.9895991%" r="175.676393%" gradientTransform="translate(-0.627990,-0.849896),scale(1.000000,0.917326),translate(0.627990,0.849896)" id="radialGradient-2">
            <stop stop-color="#FFE300" offset="38.04%"></stop>
            <stop stop-color="#F7941E" offset="100%"></stop>
        </radialGradient>
        <radialGradient cx="50.0001135%" cy="49.998949%" fx="50.0001135%" fy="49.998949%" r="151.664235%" gradientTransform="translate(0.500001,0.499989),scale(0.239720,1.000000),translate(-0.500001,-0.499989)" id="radialGradient-3">
            <stop stop-color="#FFE300" offset="38.04%"></stop>
            <stop stop-color="#F7941E" offset="100%"></stop>
        </radialGradient>
    </defs>
    <g id="页面-1" stroke="none" stroke-width="1" fill="none" fill-rule="evenodd">
        <g id="画板" transform="translate(-1763.000000, -180.000000)" fill-rule="nonzero">
            <g id="伤心" transform="translate(1763.000000, 180.000000)">
                <circle id="椭圆形" fill="url(#radialGradient-1)" cx="75" cy="75" r="74.7681818"></circle>
                <path d="M82.1227273,67.3852273 C81.5568182,57.8443182 75.3045455,50.6147727 68.1545455,51.2363636 C61.0056818,51.8590909 55.6659091,60.0977273 56.2306818,69.6386364 C56.7943182,79.1806818 63.0488636,86.4102273 70.1977273,85.7886364 C77.3454545,85.1647727 82.6863636,76.9261364 82.1227273,67.3852273 Z M65.5352273,68.5022727 C63.3590909,68.6920455 61.4556818,66.4909091 61.2840909,63.5875 C61.1136364,60.6852273 62.7375,58.1784091 64.9113636,57.9886364 C67.0875,57.7988636 68.9909091,60 69.1625,62.9011364 C69.3340909,65.8056818 67.7102273,68.3125 65.5352273,68.5022727 Z" id="形状" fill="#603913"></path>
                <path d="M129.67392,65.9772727 C129.693182,57.7761364 124.726136,51.1113636 118.578409,51.0919983 C112.432955,51.0715909 107.430682,57.7045455 107.416975,65.9034091 C107.395455,74.1068182 112.364773,80.7715909 118.513636,80.7932065 C124.659091,80.8079545 129.656818,74.1795455 129.67392,65.9772727 Z M115.435227,65.6511483 C113.564773,65.6443182 112.051136,63.6181818 112.057932,61.1215909 C112.063636,58.6261364 113.584091,56.6079545 115.453409,56.6136244 C117.323864,56.6204545 118.835227,58.6477273 118.829561,61.1443182 C118.822727,63.6397727 117.303409,65.6568182 115.435227,65.6511483 Z" id="形状" fill="#603913"></path>
                <path d="M133.528409,110.278409 C136.419318,109.777273 139.271591,112.488636 139.271591,112.488636 C139.271591,112.488636 141.369318,119.7125 135.922727,124.753409 C131.417045,128.921591 120.051136,131.602273 120.051136,131.602273 C120.051136,131.602273 135.423864,125.944318 127.665909,116.988636 C125.936364,114.994318 129.786364,110.923864 133.528409,110.278409 Z" id="路径" fill="url(#radialGradient-2)"></path>
                <path d="M97.4147727,106.582955 C79.6829545,106.294318 58.7772727,113.992045 47.6988636,126.539773 C45.7625,128.736364 43.6465909,127.1125 42.6443182,126.319318 C55.775,108.436364 78.05,95.1590909 103.257955,98.5272727 C119.780682,100.731818 130.372727,109.251136 136.168182,118.011364 C138.278409,121.206818 135.795455,122.703409 134.163636,120.719318 C127.497727,112.601136 115.621591,106.878409 97.4147727,106.582955 Z" id="路径" fill="#603913"></path>
                <path d="M97.4147727,106.582955 C79.6829545,106.294318 58.7772727,113.992045 47.6988636,126.539773 C45.7625,128.736364 53.2443182,126.739773 52.2420455,125.946591 C67.7625,115.909091 77.9045455,111.931818 102.5875,112.823864 C119.246591,113.425 126.672727,118.370455 130.994318,120.909091 C134.294318,122.848864 135.795455,122.702273 134.163636,120.718182 C127.497727,112.601136 115.621591,106.878409 97.4147727,106.582955 Z" id="路径" fill="url(#radialGradient-3)"></path>
                <path d="M28.5681818,123.485227 C28.5681818,123.485227 33.1204545,134.204545 41.5931818,137.881818 C50.4,141.705682 54.3181818,140.529545 52.6170455,140.909091 C50.9159091,141.288636 30.2727273,143.181818 28.5681818,123.485227 Z" id="路径" fill="#603913"></path>
                <path d="M125.705682,129.945455 C125.705682,129.945455 119.180682,131.579545 118.665909,131.605682 C118.151136,131.629545 123.015909,132.311364 123.015909,132.311364 L125.705682,129.945455 Z" id="路径" fill="#603913"></path>
                <path d="M61.9261364,40.9920455 C55.1897727,43.4068182 48.65,44.1090909 43.8670455,43.25 C47.7363636,46.3159091 55.3022727,46.8022727 63.0193182,44.0329545 C70.7363636,41.2636364 76.2693182,36.0818182 77.3056818,31.2534091 C74.1602273,34.9579545 68.6670455,38.5727273 61.9261364,40.9920455 Z" id="路径" fill="#603913"></path>
                <path d="M120.659091,38.6693182 C115.2125,36.5909091 110.969318,33.3147727 108.734091,29.8704545 C109.042045,34.4738636 113.132955,39.2522727 119.367045,41.6329545 C125.601136,44.0136364 132.098864,43.2738636 135.756818,40.1852273 C131.585227,41.1840909 126.105682,40.7465909 120.659091,38.6693182 Z" id="路径" fill="#603913"></path>
            </g>
        </g>
    </g>
</svg>