<?xml version="1.0" encoding="UTF-8"?>
<svg width="150px" height="150px" viewBox="0 0 150 150" version="1.1" xmlns="http://www.w3.org/2000/svg" xmlns:xlink="http://www.w3.org/1999/xlink">
    <title>惊讶</title>
    <defs>
        <radialGradient cx="74.1423749%" cy="42.4971123%" fx="74.1423749%" fy="42.4971123%" r="34.0588835%" id="radialGradient-1">
            <stop stop-color="#FFE300" offset="0%"></stop>
            <stop stop-color="#F89900" offset="100%"></stop>
        </radialGradient>
        <radialGradient cx="6.99195302%" cy="-54.7950826%" fx="6.99195302%" fy="-54.7950826%" r="136.684165%" gradientTransform="translate(0.069920,-0.547951),scale(0.915926,1.000000),translate(-0.069920,0.547951)" id="radialGradient-2">
            <stop stop-color="#FFE300" offset="38.04%"></stop>
            <stop stop-color="#F7941E" offset="100%"></stop>
        </radialGradient>
        <radialGradient cx="50.0060105%" cy="50.0017566%" fx="50.0060105%" fy="50.0017566%" r="56.1818399%" gradientTransform="translate(0.500060,0.500018),scale(1.000000,0.493435),rotate(5.408121),translate(-0.500060,-0.500018)" id="radialGradient-3">
            <stop stop-color="#FFE300" offset="38.04%"></stop>
            <stop stop-color="#F7941E" offset="100%"></stop>
        </radialGradient>
    </defs>
    <g id="页面-1" stroke="none" stroke-width="1" fill="none" fill-rule="evenodd">
        <g id="画板" transform="translate(-1697.000000, -491.000000)" fill-rule="nonzero">
            <g id="惊讶" transform="translate(1697.000000, 491.000000)">
                <circle id="椭圆形" fill="url(#radialGradient-1)" cx="75" cy="75" r="75"></circle>
                <path d="M144.212426,102.193604 C139.813586,110.303832 137.12641,117.159513 136.467036,122.19815 C134.968766,133.676559 128.380668,143.859513 118.630057,147.995877 C113.195864,150.301559 107.575376,150.387923 102.449418,148.661786 C94.3348236,145.919741 88.3767444,144.174286 82.1668836,145.111786 C64.9542785,147.709513 88.6432039,95.0129226 102.677489,89.0606498 C116.712904,83.1038316 152.548317,86.8140589 144.212426,102.193604 Z" id="路径" fill="url(#radialGradient-2)"></path>
                <path d="M135.0125,114.811364 C130.165909,134.802273 119.176136,148.620455 110.4625,145.673864 C101.746591,142.728409 98.6079545,124.131818 103.451136,104.147727 C108.296591,84.1545455 119.2875,70.3386364 128.001136,73.2795455 C136.714773,76.2306818 139.852273,94.8215909 135.0125,114.811364 Z" id="路径" fill="url(#radialGradient-3)"></path>
                <path d="M132.796591,111.784091 C128.723864,128.7125 119.786364,140.446591 112.826136,137.990909 C105.867045,135.538636 103.528409,119.825 107.598864,102.894318 C111.669318,85.9670455 120.604545,74.2306818 127.563636,76.6829545 C134.530682,79.1431818 136.867045,94.8534091 132.796591,111.784091 Z" id="路径" fill="#603913"></path>
                <path d="M101.186364,42.2102273 C100.510227,32.4125 93.0238636,24.9886364 84.4647727,25.6261364 C75.9056818,26.2647727 69.5136364,34.7272727 70.1897727,44.525 C70.8659091,54.325 78.3534091,61.7488636 86.9113636,61.1113636 C95.4704545,60.4715909 101.8625,52.0102273 101.186364,42.2102273 Z M81.3295455,43.3579545 C78.7238636,43.5522727 76.4465909,41.2931818 76.2397727,38.3113636 C76.0352273,35.3306818 77.9806818,32.7556818 80.5840909,32.5602273 C83.1875,32.3659091 85.4670455,34.6261364 85.6738636,37.6056818 C85.8772727,40.5886364 83.9329545,43.1625 81.3295455,43.3579545 Z" id="形状" fill="#603913"></path>
                <path d="M138.018182,39.8363636 C137.964773,32.8261364 133.076136,27.0852273 127.104545,27.0147727 C121.129545,26.9443182 116.332955,32.5715909 116.385227,39.5806818 C116.438636,46.5943182 121.327273,52.3363636 127.298864,52.4068182 C133.271591,52.475 138.072727,46.85 138.018182,39.8363636 Z M124.173864,39.4340909 C122.351136,39.4113636 120.869318,37.6647727 120.851136,35.5306818 C120.829545,33.3977273 122.295455,31.6863636 124.106818,31.7068182 C125.929545,31.7306818 127.411364,33.4772727 127.434091,35.6102273 C127.451136,37.7454545 125.989773,39.4545455 124.173864,39.4340909 Z" id="形状" fill="#603913"></path>
                <path d="M64.9784091,11.3579545 C71.2704545,8.87613636 77.8284091,9.04318182 83.0022727,11.3113636 C78.1636364,5.76022727 70.2204545,3.53977273 63.0147727,6.38181818 C55.8079545,9.225 51.5215909,16.2704545 51.7761364,23.6306818 C54.0068182,18.4397727 58.6863636,13.8409091 64.9784091,11.3579545 Z" id="路径" fill="#603913"></path>
                <path d="M129.1375,8.20454545 C132.773864,9.61477273 135.489773,12.2522727 136.793182,15.2375 C136.913636,10.9931818 134.417045,6.94318182 130.25,5.32727273 C126.084091,3.7125 121.511364,5.01931818 118.739773,8.23977273 C121.714773,6.91363636 125.497727,6.79431818 129.1375,8.20454545 Z" id="路径" fill="#603913"></path>
            </g>
        </g>
    </g>
</svg>