<?xml version="1.0" encoding="UTF-8"?>
<svg width="151px" height="151px" viewBox="0 0 151 151" version="1.1" xmlns="http://www.w3.org/2000/svg" xmlns:xlink="http://www.w3.org/1999/xlink">
    <title>普通（微笑）</title>
    <defs>
        <radialGradient cx="75.661736%" cy="38.5069001%" fx="75.661736%" fy="38.5069001%" r="34.0584598%" id="radialGradient-1">
            <stop stop-color="#FFE300" offset="0%"></stop>
            <stop stop-color="#F89900" offset="100%"></stop>
        </radialGradient>
        <radialGradient cx="51.0729261%" cy="53.9685556%" fx="51.0729261%" fy="53.9685556%" r="90.2381762%" gradientTransform="translate(0.510729,0.539686),scale(0.418100,1.000000),rotate(-3.955351),translate(-0.510729,-0.539686)" id="radialGradient-2">
            <stop stop-color="#FFE300" offset="38.04%"></stop>
            <stop stop-color="#F7941E" offset="100%"></stop>
        </radialGradient>
        <radialGradient cx="-120.200218%" cy="-17.7389388%" fx="-120.200218%" fy="-17.7389388%" r="287.737849%" gradientTransform="translate(-1.202002,-0.177389),scale(1.000000,0.549148),translate(1.202002,0.177389)" id="radialGradient-3">
            <stop stop-color="#FFE300" offset="38.04%"></stop>
            <stop stop-color="#F7941E" offset="100%"></stop>
        </radialGradient>
        <radialGradient cx="61.410581%" cy="-83.8260996%" fx="61.410581%" fy="-83.8260996%" r="215.360218%" gradientTransform="translate(0.614106,-0.838261),scale(0.688479,1.000000),translate(-0.614106,0.838261)" id="radialGradient-4">
            <stop stop-color="#FFE300" offset="38.04%"></stop>
            <stop stop-color="#F7941E" offset="100%"></stop>
        </radialGradient>
    </defs>
    <g id="页面-1" stroke="none" stroke-width="1" fill="none" fill-rule="evenodd">
        <g id="画板" transform="translate(-1477.000000, -561.000000)" fill-rule="nonzero">
            <g id="普通（微笑）" transform="translate(1477.204000, 561.204000)">
                <circle id="椭圆形" fill="url(#radialGradient-1)" cx="75" cy="75" r="75"></circle>
                <path d="M97.8988636,110.148864 C80.3090909,112.442045 58.6681818,107.160227 46.2420455,95.9420455 C44.0693182,93.9795455 42.1511364,95.8318182 41.2465909,96.7340909 C56.3147727,113.017045 79.9511364,123.689773 104.618182,117.493182 C126.671591,111.95 136.438636,95.9886364 138.495455,84.5784091 C137.809091,85.6886364 136.456818,83.9375 136.043182,85.1954545 C132.153409,97.0454545 120.373864,107.221591 97.8988636,110.148864 Z" id="路径" fill="#603913"></path>
                <path d="M104.089773,126.022727 C78.8125,130.994318 59.3931818,122.875 39.1011364,97.9886364 C37.2306818,95.6954545 42.1556818,95.8340909 41.2511364,96.7340909 C56.3193182,113.017045 79.9534091,123.689773 104.620455,117.493182 C126.677273,111.95 136.440909,95.9886364 138.498864,84.5784091 C137.815909,85.6886364 141.170455,85.2295455 141.127686,86.5681818 C140.772727,98.6318182 127.154545,121.480682 104.089773,126.022727 Z" id="路径" fill="url(#radialGradient-2)"></path>
                <path d="M81.8909091,67.1534091 C81.325,57.6125 75.0727273,50.3829545 67.9227273,51.0045455 C60.7738636,51.6272727 55.4340909,59.8659091 55.9988636,69.4068182 C56.5636364,78.9488636 62.8170455,86.1784091 69.9670455,85.5568182 C77.1136364,84.9329545 82.4545455,76.6943182 81.8909091,67.1534091 Z M65.3022727,68.2704545 C63.1272727,68.4602273 61.225,66.2590909 61.0522727,63.3556818 C60.8818182,60.4534091 62.5056818,57.9465909 64.6806818,57.7568182 C66.8556818,57.5670455 68.7590909,59.7681818 68.9306818,62.6693182 C69.1022727,65.5738636 67.4772727,68.0806818 65.3022727,68.2704545 Z" id="形状" fill="#603913"></path>
                <path d="M129.973917,65.1034091 C129.993182,56.5477273 124.809091,49.5943182 118.396591,49.5738133 C111.984091,49.5522727 106.772727,56.4727273 106.753342,65.0284091 C106.731818,73.5875 111.915909,80.5420455 118.330682,80.5625358 C124.742045,80.5806818 129.952273,73.6625 129.973917,65.1034091 Z M115.115909,64.7647842 C113.164773,64.7568182 111.588636,62.6431818 111.593172,60.0386364 C111.598864,57.4352273 113.184091,55.3295455 115.135227,55.3352158 C117.0875,55.3420455 118.6625,57.4568182 118.657964,60.0613636 C118.653409,62.6670455 117.067045,64.7704545 115.115909,64.7647842 Z" id="形状" fill="#603913"></path>
                <path d="M49.9102273,93.3272727 C49.9102273,93.3272727 40.375,93.4227273 36.0977273,97.9886364 C31.8181818,102.557955 36.8090909,98.0738636 39.1011364,97.9886364 C41.3931818,97.9045455 45.2488636,94.9 50.1045455,96.1215909 C54.9602273,97.3443182 54.2704545,97.5818182 54.9602273,97.3443182 C55.65,97.1079545 55.0625,93.7318182 49.9102273,93.3272727 Z" id="路径" fill="#603913"></path>
                <path d="M141.939773,86.9386364 C141.939773,86.9386364 140.919318,82.6965909 136.763636,84.2329545 C132.606818,85.7681818 134.584091,87.2454545 136.456818,86.1511364 C138.3375,85.0556818 141.939773,86.9386364 141.939773,86.9386364 Z" id="路径" fill="#603913"></path>
                <path d="M133.726136,74.5454545 C134.778409,71.8068182 138.567045,70.7477273 138.567045,70.7477273 C138.567045,70.7477273 145.844318,72.6488636 147.382955,79.9090909 C148.652273,85.9147727 145.134091,97.0477273 145.134091,97.0477273 C145.134091,97.0477273 148.152273,80.9454545 136.4875,83.0193182 C133.885227,83.4818182 132.363636,78.0897727 133.726136,74.5454545 Z" id="路径" fill="url(#radialGradient-3)"></path>
                <path d="M56.6659091,95.6772727 C56.6659091,95.6772727 51.7409091,77.3443182 44.1659091,77.1556818 C36.5886364,76.9647727 25.3181818,82.1852273 22.1954545,93.6329545 C17.65,110.298864 23.7113636,97.2329545 35.2636364,94.0125 C46.8159091,90.7920455 50.3,92.0954545 52.7625,93.1363636 C55.225,94.1772727 56.6659091,95.6772727 56.6659091,95.6772727 Z" id="路径" fill="url(#radialGradient-4)"></path>
                <path d="M67.5306818,38.7056818 C71.6193182,38.7056818 75.2681818,40.2534091 77.6738636,42.6772727 C76.1840909,38.4829545 72.2113636,35.4727273 67.5306818,35.4727273 C62.85,35.4727273 58.8772727,38.4818182 57.3875,42.6772727 C59.7931818,40.2534091 63.4420455,38.7056818 67.5306818,38.7056818 Z" id="路径" fill="#603913"></path>
                <path d="M117.234091,38.3829545 C121.321591,38.1136364 124.972727,39.4204545 127.376136,41.6863636 C125.888636,37.5897727 121.915909,34.8420455 117.234091,35.15 C112.552273,35.4579545 108.579545,38.7295455 107.092045,43.0227273 C109.496591,40.4420455 113.146591,38.6534091 117.234091,38.3829545 Z" id="路径" fill="#603913"></path>
            </g>
        </g>
    </g>
</svg>