<?xml version="1.0" encoding="UTF-8"?>
<svg width="150px" height="150px" viewBox="0 0 150 150" version="1.1" xmlns="http://www.w3.org/2000/svg" xmlns:xlink="http://www.w3.org/1999/xlink">
    <title>愤怒</title>
    <defs>
        <radialGradient cx="74.14256%" cy="42.4966563%" fx="74.14256%" fy="42.4966563%" r="34.0583185%" id="radialGradient-1">
            <stop stop-color="#F9C200" offset="0%"></stop>
            <stop stop-color="#F75D1E" offset="100%"></stop>
        </radialGradient>
        <radialGradient cx="-103.0524%" cy="-28.4509328%" fx="-103.0524%" fy="-28.4509328%" r="245.204607%" gradientTransform="translate(-1.030524,-0.284509),scale(1.000000,0.578947),translate(1.030524,0.284509)" id="radialGradient-2">
            <stop stop-color="#FFB100" offset="38.04%"></stop>
            <stop stop-color="#F75D1E" offset="100%"></stop>
        </radialGradient>
        <radialGradient cx="53.002252%" cy="59.7980966%" fx="53.002252%" fy="59.7980966%" r="63.5824839%" gradientTransform="translate(0.530023,0.597981),scale(1.000000,0.673767),rotate(-168.263827),translate(-0.530023,-0.597981)" id="radialGradient-3">
            <stop stop-color="#FFC000" offset="0%"></stop>
            <stop stop-color="#FF8600" offset="66.26%"></stop>
        </radialGradient>
        <radialGradient cx="49.9939995%" cy="49.998986%" fx="49.9939995%" fy="49.998986%" r="127.557632%" gradientTransform="translate(0.499940,0.499990),scale(1.000000,0.287842),rotate(180.000000),translate(-0.499940,-0.499990)" id="radialGradient-4">
            <stop stop-color="#FFE600" offset="0%"></stop>
            <stop stop-color="#FFAE00" offset="100%"></stop>
        </radialGradient>
        <radialGradient cx="50.0159112%" cy="50.0029106%" fx="50.0159112%" fy="50.0029106%" r="88.3169313%" gradientTransform="translate(0.500159,0.500029),scale(1.000000,0.435947),rotate(180.000000),translate(-0.500159,-0.500029)" id="radialGradient-5">
            <stop stop-color="#FFE600" offset="0%"></stop>
            <stop stop-color="#FFAE00" offset="100%"></stop>
        </radialGradient>
        <radialGradient cx="49.9999768%" cy="50.0010224%" fx="49.9999768%" fy="50.0010224%" r="54.2875898%" gradientTransform="translate(0.500000,0.500010),scale(1.000000,0.856355),rotate(180.000000),translate(-0.500000,-0.500010)" id="radialGradient-6">
            <stop stop-color="#FFE600" offset="0%"></stop>
            <stop stop-color="#FFAE00" offset="100%"></stop>
        </radialGradient>
        <radialGradient cx="49.9985888%" cy="50.0013041%" fx="49.9985888%" fy="50.0013041%" r="93.5768125%" gradientTransform="translate(0.499986,0.500013),scale(1.000000,0.407200),rotate(180.000000),translate(-0.499986,-0.500013)" id="radialGradient-7">
            <stop stop-color="#FFE600" offset="0%"></stop>
            <stop stop-color="#FFAE00" offset="100%"></stop>
        </radialGradient>
        <radialGradient cx="49.9959195%" cy="50.0005424%" fx="49.9959195%" fy="50.0005424%" r="54.7486815%" gradientTransform="translate(0.499959,0.500005),scale(0.844482,1.000000),rotate(180.000000),translate(-0.499959,-0.500005)" id="radialGradient-8">
            <stop stop-color="#FFFF9D" offset="0%"></stop>
            <stop stop-color="#FFE300" offset="100%"></stop>
        </radialGradient>
        <radialGradient cx="49.9968744%" cy="49.9993881%" fx="49.9968744%" fy="49.9993881%" r="72.1249655%" gradientTransform="translate(0.499969,0.499994),scale(0.561996,1.000000),rotate(180.000000),translate(-0.499969,-0.499994)" id="radialGradient-9">
            <stop stop-color="#FFFFD7" offset="0%"></stop>
            <stop stop-color="#FFFFD4" offset="20.89%"></stop>
            <stop stop-color="#FFFDCB" offset="35.15%"></stop>
            <stop stop-color="#FFFBBC" offset="47.43%"></stop>
            <stop stop-color="#FFF9A6" offset="58.58%"></stop>
            <stop stop-color="#FFF58A" offset="68.99%"></stop>
            <stop stop-color="#FFF168" offset="78.84%"></stop>
            <stop stop-color="#FFEB3F" offset="88.24%"></stop>
            <stop stop-color="#FFE511" offset="97.08%"></stop>
            <stop stop-color="#FFE300" offset="100%"></stop>
        </radialGradient>
        <radialGradient cx="50.024111%" cy="49.9970838%" fx="50.024111%" fy="49.9970838%" r="94.7371453%" gradientTransform="translate(0.500241,0.499971),scale(1.000000,0.401529),rotate(180.000000),translate(-0.500241,-0.499971)" id="radialGradient-10">
            <stop stop-color="#FFFFD7" offset="0%"></stop>
            <stop stop-color="#FFFFD4" offset="20.89%"></stop>
            <stop stop-color="#FFFDCB" offset="35.15%"></stop>
            <stop stop-color="#FFFBBC" offset="47.43%"></stop>
            <stop stop-color="#FFF9A6" offset="58.58%"></stop>
            <stop stop-color="#FFF58A" offset="68.99%"></stop>
            <stop stop-color="#FFF168" offset="78.84%"></stop>
            <stop stop-color="#FFEB3F" offset="88.24%"></stop>
            <stop stop-color="#FFE511" offset="97.08%"></stop>
            <stop stop-color="#FFE300" offset="100%"></stop>
        </radialGradient>
        <radialGradient cx="50.0217423%" cy="50.0135425%" fx="50.0217423%" fy="50.0135425%" r="80.0105921%" gradientTransform="translate(0.500217,0.500135),scale(1.000000,0.491447),rotate(180.000000),translate(-0.500217,-0.500135)" id="radialGradient-11">
            <stop stop-color="#FFFFD7" offset="0%"></stop>
            <stop stop-color="#FFFFD4" offset="20.89%"></stop>
            <stop stop-color="#FFFDCB" offset="35.15%"></stop>
            <stop stop-color="#FFFBBC" offset="47.43%"></stop>
            <stop stop-color="#FFF9A6" offset="58.58%"></stop>
            <stop stop-color="#FFF58A" offset="68.99%"></stop>
            <stop stop-color="#FFF168" offset="78.84%"></stop>
            <stop stop-color="#FFEB3F" offset="88.24%"></stop>
            <stop stop-color="#FFE511" offset="97.08%"></stop>
            <stop stop-color="#FFE300" offset="100%"></stop>
        </radialGradient>
        <radialGradient cx="49.9783529%" cy="50%" fx="49.9783529%" fy="50%" r="73.6854283%" gradientTransform="translate(0.499784,0.500000),scale(1.000000,0.545632),rotate(180.000000),translate(-0.499784,-0.500000)" id="radialGradient-12">
            <stop stop-color="#FFFFD7" offset="0%"></stop>
            <stop stop-color="#FFFFD4" offset="20.89%"></stop>
            <stop stop-color="#FFFDCB" offset="35.15%"></stop>
            <stop stop-color="#FFFBBC" offset="47.43%"></stop>
            <stop stop-color="#FFF9A6" offset="58.58%"></stop>
            <stop stop-color="#FFF58A" offset="68.99%"></stop>
            <stop stop-color="#FFF168" offset="78.84%"></stop>
            <stop stop-color="#FFEB3F" offset="88.24%"></stop>
            <stop stop-color="#FFE511" offset="97.08%"></stop>
            <stop stop-color="#FFE300" offset="100%"></stop>
        </radialGradient>
        <radialGradient cx="49.9605773%" cy="50.0208478%" fx="49.9605773%" fy="50.0208478%" r="57.7099294%" gradientTransform="translate(0.499606,0.500208),scale(1.000000,0.773017),rotate(180.000000),translate(-0.499606,-0.500208)" id="radialGradient-13">
            <stop stop-color="#FFFFD7" offset="0%"></stop>
            <stop stop-color="#FFFFD4" offset="20.89%"></stop>
            <stop stop-color="#FFFDCB" offset="35.15%"></stop>
            <stop stop-color="#FFFBBC" offset="47.43%"></stop>
            <stop stop-color="#FFF9A6" offset="58.58%"></stop>
            <stop stop-color="#FFF58A" offset="68.99%"></stop>
            <stop stop-color="#FFF168" offset="78.84%"></stop>
            <stop stop-color="#FFEB3F" offset="88.24%"></stop>
            <stop stop-color="#FFE511" offset="97.08%"></stop>
            <stop stop-color="#FFE300" offset="100%"></stop>
        </radialGradient>
        <radialGradient cx="49.9546957%" cy="49.9824047%" fx="49.9546957%" fy="49.9824047%" r="99.6066334%" gradientTransform="translate(0.499547,0.499824),scale(1.000000,0.378819),rotate(180.000000),translate(-0.499547,-0.499824)" id="radialGradient-14">
            <stop stop-color="#FFFFD7" offset="0%"></stop>
            <stop stop-color="#FFFFD4" offset="20.89%"></stop>
            <stop stop-color="#FFFDCB" offset="35.15%"></stop>
            <stop stop-color="#FFFBBC" offset="47.43%"></stop>
            <stop stop-color="#FFF9A6" offset="58.58%"></stop>
            <stop stop-color="#FFF58A" offset="68.99%"></stop>
            <stop stop-color="#FFF168" offset="78.84%"></stop>
            <stop stop-color="#FFEB3F" offset="88.24%"></stop>
            <stop stop-color="#FFE511" offset="97.08%"></stop>
            <stop stop-color="#FFE300" offset="100%"></stop>
        </radialGradient>
        <radialGradient cx="47.098286%" cy="59.7742216%" fx="47.098286%" fy="59.7742216%" r="63.5482839%" gradientTransform="translate(0.470983,0.597742),scale(1.000000,0.679554),rotate(-11.639947),translate(-0.470983,-0.597742)" id="radialGradient-15">
            <stop stop-color="#FFC000" offset="0%"></stop>
            <stop stop-color="#FF8600" offset="66.26%"></stop>
        </radialGradient>
        <radialGradient cx="50.0060126%" cy="49.9895312%" fx="50.0060126%" fy="49.9895312%" r="127.594814%" gradientTransform="translate(0.500060,0.499895),scale(1.000000,0.290254),translate(-0.500060,-0.499895)" id="radialGradient-16">
            <stop stop-color="#FFE600" offset="0%"></stop>
            <stop stop-color="#FFAE00" offset="100%"></stop>
        </radialGradient>
        <radialGradient cx="50.0064921%" cy="49.9977738%" fx="50.0064921%" fy="49.9977738%" r="88.3163305%" gradientTransform="translate(0.500065,0.499978),scale(1.000000,0.439687),translate(-0.500065,-0.499978)" id="radialGradient-17">
            <stop stop-color="#FFE600" offset="0%"></stop>
            <stop stop-color="#FFAE00" offset="100%"></stop>
        </radialGradient>
        <radialGradient cx="49.9988498%" cy="49.9995529%" fx="49.9988498%" fy="49.9995529%" r="54.2916565%" gradientTransform="translate(0.499988,0.499996),scale(1.000000,0.863602),translate(-0.499988,-0.499996)" id="radialGradient-18">
            <stop stop-color="#FFE600" offset="0%"></stop>
            <stop stop-color="#FFAE00" offset="100%"></stop>
        </radialGradient>
        <radialGradient cx="50.0192011%" cy="50.0044877%" fx="50.0192011%" fy="50.0044877%" r="93.5783897%" gradientTransform="translate(0.500192,0.500045),scale(1.000000,0.410567),translate(-0.500192,-0.500045)" id="radialGradient-19">
            <stop stop-color="#FFE600" offset="0%"></stop>
            <stop stop-color="#FFAE00" offset="100%"></stop>
        </radialGradient>
        <radialGradient cx="50.001694%" cy="50.0038557%" fx="50.001694%" fy="50.0038557%" r="55.2187919%" gradientTransform="translate(0.500017,0.500039),scale(0.837253,1.000000),translate(-0.500017,-0.500039)" id="radialGradient-20">
            <stop stop-color="#FFFF9D" offset="0%"></stop>
            <stop stop-color="#FFE300" offset="100%"></stop>
        </radialGradient>
        <radialGradient cx="50.0033718%" cy="50.0033192%" fx="50.0033718%" fy="50.0033192%" r="72.7288181%" gradientTransform="translate(0.500034,0.500033),scale(0.557324,1.000000),translate(-0.500034,-0.500033)" id="radialGradient-21">
            <stop stop-color="#FFFFD7" offset="0%"></stop>
            <stop stop-color="#FFFFD4" offset="20.89%"></stop>
            <stop stop-color="#FFFDCB" offset="35.15%"></stop>
            <stop stop-color="#FFFBBC" offset="47.43%"></stop>
            <stop stop-color="#FFF9A6" offset="58.58%"></stop>
            <stop stop-color="#FFF58A" offset="68.99%"></stop>
            <stop stop-color="#FFF168" offset="78.84%"></stop>
            <stop stop-color="#FFEB3F" offset="88.24%"></stop>
            <stop stop-color="#FFE511" offset="97.08%"></stop>
            <stop stop-color="#FFE300" offset="100%"></stop>
        </radialGradient>
        <radialGradient cx="49.9994071%" cy="49.9984633%" fx="49.9994071%" fy="49.9984633%" r="94.7240156%" gradientTransform="translate(0.499994,0.499985),scale(1.000000,0.404746),translate(-0.499994,-0.499985)" id="radialGradient-22">
            <stop stop-color="#FFFFD7" offset="0%"></stop>
            <stop stop-color="#FFFFD4" offset="20.89%"></stop>
            <stop stop-color="#FFFDCB" offset="35.15%"></stop>
            <stop stop-color="#FFFBBC" offset="47.43%"></stop>
            <stop stop-color="#FFF9A6" offset="58.58%"></stop>
            <stop stop-color="#FFF58A" offset="68.99%"></stop>
            <stop stop-color="#FFF168" offset="78.84%"></stop>
            <stop stop-color="#FFEB3F" offset="88.24%"></stop>
            <stop stop-color="#FFE511" offset="97.08%"></stop>
            <stop stop-color="#FFE300" offset="100%"></stop>
        </radialGradient>
        <radialGradient cx="50.0202682%" cy="50.0029241%" fx="50.0202682%" fy="50.0029241%" r="79.9804073%" gradientTransform="translate(0.500203,0.500029),scale(1.000000,0.496012),translate(-0.500203,-0.500029)" id="radialGradient-23">
            <stop stop-color="#FFFFD7" offset="0%"></stop>
            <stop stop-color="#FFFFD4" offset="20.89%"></stop>
            <stop stop-color="#FFFDCB" offset="35.15%"></stop>
            <stop stop-color="#FFFBBC" offset="47.43%"></stop>
            <stop stop-color="#FFF9A6" offset="58.58%"></stop>
            <stop stop-color="#FFF58A" offset="68.99%"></stop>
            <stop stop-color="#FFF168" offset="78.84%"></stop>
            <stop stop-color="#FFEB3F" offset="88.24%"></stop>
            <stop stop-color="#FFE511" offset="97.08%"></stop>
            <stop stop-color="#FFE300" offset="100%"></stop>
        </radialGradient>
        <radialGradient cx="49.9918681%" cy="49.9916898%" fx="49.9918681%" fy="49.9916898%" r="73.7279928%" gradientTransform="translate(0.499919,0.499917),scale(1.000000,0.549892),translate(-0.499919,-0.499917)" id="radialGradient-24">
            <stop stop-color="#FFFFD7" offset="0%"></stop>
            <stop stop-color="#FFFFD4" offset="20.89%"></stop>
            <stop stop-color="#FFFDCB" offset="35.15%"></stop>
            <stop stop-color="#FFFBBC" offset="47.43%"></stop>
            <stop stop-color="#FFF9A6" offset="58.58%"></stop>
            <stop stop-color="#FFF58A" offset="68.99%"></stop>
            <stop stop-color="#FFF168" offset="78.84%"></stop>
            <stop stop-color="#FFEB3F" offset="88.24%"></stop>
            <stop stop-color="#FFE511" offset="97.08%"></stop>
            <stop stop-color="#FFE300" offset="100%"></stop>
        </radialGradient>
        <radialGradient cx="50.0418169%" cy="50.0039857%" fx="50.0418169%" fy="50.0039857%" r="57.7049111%" gradientTransform="translate(0.500418,0.500040),scale(1.000000,0.779420),translate(-0.500418,-0.500040)" id="radialGradient-25">
            <stop stop-color="#FFFFD7" offset="0%"></stop>
            <stop stop-color="#FFFFD4" offset="20.89%"></stop>
            <stop stop-color="#FFFDCB" offset="35.15%"></stop>
            <stop stop-color="#FFFBBC" offset="47.43%"></stop>
            <stop stop-color="#FFF9A6" offset="58.58%"></stop>
            <stop stop-color="#FFF58A" offset="68.99%"></stop>
            <stop stop-color="#FFF168" offset="78.84%"></stop>
            <stop stop-color="#FFEB3F" offset="88.24%"></stop>
            <stop stop-color="#FFE511" offset="97.08%"></stop>
            <stop stop-color="#FFE300" offset="100%"></stop>
        </radialGradient>
        <radialGradient cx="50.2843254%" cy="49.9966364%" fx="50.2843254%" fy="49.9966364%" r="99.5051525%" gradientTransform="translate(0.502843,0.499966),scale(1.000000,0.382273),translate(-0.502843,-0.499966)" id="radialGradient-26">
            <stop stop-color="#FFFFD7" offset="0%"></stop>
            <stop stop-color="#FFFFD4" offset="20.89%"></stop>
            <stop stop-color="#FFFDCB" offset="35.15%"></stop>
            <stop stop-color="#FFFBBC" offset="47.43%"></stop>
            <stop stop-color="#FFF9A6" offset="58.58%"></stop>
            <stop stop-color="#FFF58A" offset="68.99%"></stop>
            <stop stop-color="#FFF168" offset="78.84%"></stop>
            <stop stop-color="#FFEB3F" offset="88.24%"></stop>
            <stop stop-color="#FFE511" offset="97.08%"></stop>
            <stop stop-color="#FFE300" offset="100%"></stop>
        </radialGradient>
        <radialGradient cx="133.856304%" cy="-84.9231067%" fx="133.856304%" fy="-84.9231067%" r="167.507939%" gradientTransform="translate(1.338563,-0.849231),scale(0.883721,1.000000),translate(-1.338563,0.849231)" id="radialGradient-27">
            <stop stop-color="#FFB100" offset="38.04%"></stop>
            <stop stop-color="#F75D1E" offset="100%"></stop>
        </radialGradient>
        <radialGradient cx="49.999256%" cy="49.9985559%" fx="49.999256%" fy="49.9985559%" r="80.6373933%" gradientTransform="translate(0.499993,0.499986),scale(0.488984,1.000000),translate(-0.499993,-0.499986)" id="radialGradient-28">
            <stop stop-color="#FFB100" offset="38.04%"></stop>
            <stop stop-color="#F75D1E" offset="100%"></stop>
        </radialGradient>
        <radialGradient cx="50.6672096%" cy="37.7861534%" fx="50.6672096%" fy="37.7861534%" r="102.256688%" gradientTransform="translate(0.506672,0.377862),scale(0.479321,1.000000),translate(-0.506672,-0.377862)" id="radialGradient-29">
            <stop stop-color="#FFFFFF" offset="0%"></stop>
            <stop stop-color="#FDFDFE" offset="38.06%"></stop>
            <stop stop-color="#F5F8F9" offset="57.05%"></stop>
            <stop stop-color="#E8EEF1" offset="71.81%"></stop>
            <stop stop-color="#D5E0E5" offset="84.4%"></stop>
            <stop stop-color="#BDCED6" offset="95.5%"></stop>
            <stop stop-color="#B1C5CF" offset="100%"></stop>
        </radialGradient>
        <radialGradient cx="49.9990132%" cy="50.0061597%" fx="49.9990132%" fy="50.0061597%" r="125.418169%" gradientTransform="translate(0.499990,0.500062),scale(0.294062,1.000000),translate(-0.499990,-0.500062)" id="radialGradient-30">
            <stop stop-color="#830000" offset="0%"></stop>
            <stop stop-color="#531C00" offset="100%"></stop>
        </radialGradient>
    </defs>
    <g id="页面-1" stroke="none" stroke-width="1" fill="none" fill-rule="evenodd">
        <g id="画板" transform="translate(-1639.000000, -710.000000)" fill-rule="nonzero">
            <g id="愤怒" transform="translate(1639.000000, 710.000000)">
                <circle id="椭圆形" fill="url(#radialGradient-1)" cx="75" cy="75" r="75"></circle>
                <path d="M116.09589,136.643836 C116.09589,136.643836 123.151827,131.110083 131.305079,130.311525 C139.457204,129.512966 148.871128,118.474664 148.432878,105.084488 C147.994629,91.6943127 150.005621,83.02473 150,78.3322159 C149.990975,73.6363324 116.09589,136.643836 116.09589,136.643836 Z" id="路径" fill="url(#radialGradient-2)"></path>
                <path d="M87.2755408,58.1843315 C86.5380178,46.293434 78.3760223,37.285631 69.0422718,38.0601251 C59.7107596,38.8357683 52.7406639,49.101837 53.4781869,60.9915854 C54.2145907,72.883632 62.3777054,81.891435 71.7103367,81.11809 C81.0418489,80.3412977 88.0108255,70.0740799 87.2755408,58.1843315 Z" id="路径" fill="#603913"></path>
                <path d="M137.670345,56.1902684 C137.580714,46.2625184 130.373506,38.123785 121.580529,38.0148493 C112.790999,37.9036675 105.730877,45.8638362 105.822805,55.7904631 C105.914734,65.7215821 113.123091,73.8614386 121.912621,73.9714974 C130.707897,74.0804331 137.762273,66.1236335 137.670345,56.1902684 Z" id="路径" fill="#603913"></path>
                <polygon id="路径" fill="#603913" points="37.5438719 25.6849315 85.2739726 46.371323 82.1094448 51.369863 36.9863014 36.7162728"></polygon>
                <polygon id="路径" fill="#603913" points="142.321795 24.6575342 105.821918 46.1197395 108.627604 50.3424658 142.808219 33.9827213"></polygon>
                <g id="编组" transform="translate(49.315068, 23.630137)">
                    <path d="M35.8075745,46.1173151 C34.5295528,48.2690959 33.1619662,50.5601096 31.4866438,51.9961644 C29.9066277,53.3505205 26.8315673,52.6739178 24.2617446,53.4287671 C22.0800363,54.0708493 19.9603344,56.0626849 17.8314464,55.8935342 C15.6221797,55.7186301 14.3682716,52.5243288 12.4322925,51.4668493 C10.5766922,50.4530959 6.9975423,51.2988493 5.58861805,49.4681096 C4.46331587,48.0032877 4.5471394,44.5661918 3.34605157,42.038137 C2.19548751,39.6159452 0.490310234,37.250137 0.583319903,35.1409315 C0.698146656,32.5703014 3.49647462,25.6926575 4.16017325,23.0529863 C5.18442788,23.116274 5.54153908,24.2934247 6.47967365,24.4234521 C6.57383159,22.0300274 9.18499194,20.4351781 8.74405721,17.9750137 C8.42024577,16.1741918 4.19462127,13.4850411 8.11480661,12.0236712 C8.29393634,13.0293699 9.31704271,14.4930411 10.6765915,14.6023562 C10.2126914,12.5794521 10.0680097,11.5875616 10.9383965,9.68547945 C11.7662973,7.88005479 13.0408743,7.67753425 15.4086019,7.05156164 C16.6154311,7.0170411 15.8931708,9.33221918 16.070004,9.99271233 C17.7315471,8.23561644 20.4873892,2.79057534 20.6791499,0.0692054795 C22.6323529,0.733150685 22.4084408,3.36361644 22.8413376,5.17939726 C23.2558622,6.92958904 23.1536664,8.26438356 23.8920024,9.76832877 C24.8932917,9.65326027 25.0758662,8.85468493 25.4651289,8.33917808 C26.7569299,9.55660274 28.0843272,10.5174247 29.1258058,12.2319452 C30.1041297,13.8394521 32.8060032,15.1477808 31.5543916,17.3340822 C32.8932716,17.3168219 31.6738114,16.5124932 32.792224,16.3548493 C31.8322724,18.2339178 31.3121072,19.9714521 31.9941781,21.3212055 C32.6705077,22.6606027 35.9143634,23.4649315 36.0337832,25.2530959 C36.1819098,25.9377534 34.8878122,25.6224658 35.4309428,26.0919452 C36.7158541,28.0515616 36.9489525,29.8788493 37.3600322,31.8258082 C37.8193392,34.0558356 38.2200846,33.5311233 38.1982675,35.5402192 C38.178747,37.841589 37.0350725,37.2650959 36.5516519,39.3708493 C36.1130137,41.2752329 37.0741136,43.9885479 35.8075745,46.1173151 Z" id="路径" fill="url(#radialGradient-3)"></path>
                    <g transform="translate(4.593070, 5.876712)" id="路径">
                        <path d="M14.1788074,12.1995616 C18.4515109,10.6818082 17.9451249,3.67989041 15.9149879,0.851506849 C12.7469178,3.024 15.2868856,7.02493151 15.0801974,9.87172603 C15.0044118,10.9119452 14.0502015,11.6437808 14.1788074,12.1995616 Z" fill="url(#radialGradient-4)"></path>
                        <path d="M10.8844279,6.3149589 C10.8304593,6.19068493 10.8740935,5.99276712 10.6501813,5.99852055 C10.3390008,5.52328767 10.4021555,4.76153425 10.3987107,4.05041096 C4.94558824,7.50821918 10.5709508,12.1765479 11.6755842,15.9105205 C14.6174456,13.2673973 12.8100725,8.55994521 10.8844279,6.3149589 Z" fill="url(#radialGradient-5)"></path>
                        <path d="M28.9868654,25.470411 C28.6389404,27.1906849 26.1713135,26.0791233 25.2515512,27.4369315 C25.0287873,26.2494247 26.0231869,26.0975342 26.6042103,24.7224658 C27.1817889,23.3566027 27.1071515,22.0218082 25.9393634,20.8216438 C25.8876914,20.642137 25.993332,20.3567671 25.7866438,20.2946301 C25.3744158,19.2923836 23.6922039,19.6272329 23.8529613,18.1888767 C21.3933723,19.0645479 22.8574134,20.3774795 22.5841257,21.8284932 C22.4164786,22.7156712 21.263618,22.5614795 20.6378122,23.4636164 C19.9936342,24.3922192 19.2426672,25.3185205 19.5216962,26.2678356 C19.199033,25.6084932 18.525,24.9733151 18.5364827,23.9929315 C18.7982877,23.921589 19.0072724,23.7167671 18.9578969,23.4889315 C19.8443594,22.0103014 20.8077558,21.4533699 20.2382151,20.430411 C19.5607373,19.214137 18.1851128,18.4512329 18.0806205,17.4616438 C17.9703868,16.4214247 18.7718775,15.3455342 19.3781628,14.1545753 C19.9626309,13.0107945 20.0453062,11.76 18.5996374,10.7370411 C18.7374295,11.2617534 18.8625907,11.8451507 18.7936946,12.2317808 C18.5353344,12.2778082 17.8096293,11.8647123 17.7074335,12.0131507 C16.7807816,12.6863014 15.7289686,13.2731507 14.889585,13.9324932 C13.9089645,14.7046027 13.1304392,15.8633425 13.2762691,17.0761644 C13.395689,18.0749589 15.4958703,18.8286575 15.5429492,19.889589 C15.6129936,21.4763836 13.6391217,22.6167123 13.2785657,24.2253699 C12.6837631,23.4751233 10.3447421,22.9032329 10.004855,21.7709589 C9.62363014,20.5075068 11.1956084,18.797589 10.9269138,17.5088219 C10.6800363,16.339726 10.2965149,15.2868493 9.30556003,14.7529315 C8.50521757,14.3214247 7.47407333,15.0210411 6.30054392,14.6574247 C6.35680902,15.2718904 6.57727639,14.8104658 6.78166801,15.3110137 C7.35006044,17.4294247 6.09270749,18.3591781 5.57139404,19.6214795 C4.96166398,21.0909041 4.14524577,23.2967671 5.11093876,24.2023562 C5.95836019,24.9940274 7.67042707,25.0377534 8.81295326,25.8167671 C8.83821515,25.9145753 8.73257454,26.2103014 8.92318695,26.1481644 C9.42957293,26.8155616 8.68894037,29.2285479 8.46043513,30.2054795 C7.73587832,29.4195616 6.27068896,29.9995068 4.83076148,30.0581918 C3.24730056,30.1214795 1.34347301,30.2411507 1.17697421,28.9063562 C0.694701853,29.2998904 1.57427478,27.6843288 1.52834408,28.2101918 C1.16893634,29.3229041 0.182574537,30.4022466 0.282473811,31.5828493 C0.380076551,32.7335342 0.798045931,33.9394521 1.17008461,35.0533151 C1.55130943,36.1913425 1.97272361,37.358137 2.47566479,38.3557808 C3.07391217,39.542137 4.56206688,40.1059726 5.06615633,40.929863 C5.45427075,41.5961096 5.23265512,43.3152329 6.28561644,44.1828493 C7.05725222,44.8168767 8.39383562,44.9653151 9.42497985,45.5268493 C10.3539283,46.0296986 11.4757857,46.156274 12.5563054,46.4842192 C13.5851531,46.7972055 14.5669218,47.6326027 15.6830379,47.6889863 C16.7509267,47.7430685 17.7108783,46.6878904 18.8143634,46.4232329 C19.8282836,46.1804384 21.1396052,46.6545205 22.1489323,46.075726 C23.0342466,45.5694247 24.014867,44.9353973 24.8737712,44.1241644 C25.6086624,43.428 26.1701652,42.4142466 26.8694601,41.4637808 C27.6043513,40.4201096 27.7685536,39.1555068 28.2462329,38.1210411 C28.7824738,36.9680548 29.9445205,36.0866301 30.1982877,34.9773699 C30.4910959,33.7392329 30.3119662,32.4412603 30.3142627,31.3032329 C30.3142627,30.0248219 32.0125504,30.765863 31.9172442,29.6427945 C31.8035657,28.3356164 31.4544923,27.0203836 31.0261886,26.018137 C30.4715753,24.7328219 29.7768735,26.1193973 28.9868654,25.470411 Z" fill="url(#radialGradient-6)"></path>
                        <path d="M21.392224,16.9185205 C21.1154915,14.2167123 25.9278807,10.1582466 21.5346092,8.09506849 C22.3338034,10.4171507 17.3698429,14.9094247 21.392224,16.9185205 Z" fill="url(#radialGradient-7)"></path>
                    </g>
                    <path d="M29.5770749,46.7248767 C29.5770749,46.7248767 27.8454875,51.6969863 21.5231265,51.5197808 C15.2007655,51.3425753 14.0570911,50.0342466 11.6353948,47.1886027 C9.21255036,44.3406575 7.41321515,43.0829589 7.33628122,41.4650959 C7.26164384,39.8495342 6.15930701,36.559726 6.15930701,36.559726 C6.15930701,36.559726 6.99294923,37.6747397 9.16087832,37.4676164 C11.3311039,37.2593425 13.2303384,36.3514521 13.8630338,37.5401096 C14.4991741,38.7276164 15.1192385,39.5699178 16.7176269,38.7517808 C18.3194601,37.9347945 17.5041902,34.624274 15.7484891,32.5910137 C13.9916398,30.5543014 13.4393231,29.0825753 13.4393231,29.0825753 C13.4393231,29.0825753 14.8356164,32.2906849 17.4226632,32.0087671 C20.0097099,31.728 19.0727236,35.8336438 19.0727236,35.8336438 C19.0727236,35.8336438 18.5054795,31.8442192 20.409307,29.2563288 C22.5600121,26.3358904 21.5093473,31.4242192 21.7344077,31.9052055 C22.6484287,33.8475616 25.0379734,35.7277808 26.4882353,33.7301918 C27.9407937,31.7326027 24.8014303,36.6253151 27.1588235,35.3307945 C29.5196616,34.0351233 32.839303,32.1951781 32.839303,32.1951781 C32.839303,32.1951781 34.5375907,34.0270685 32.8347099,39.2718904 C31.1283844,44.5201644 29.5770749,46.7248767 29.5770749,46.7248767 Z" id="路径" fill="url(#radialGradient-8)"></path>
                    <path d="M10.8063457,43.3476164 C10.8063457,43.3476164 13.6437147,46.512 16.1802377,47.6063014 C18.7179089,48.6994521 23.782917,50.5267397 26.7270749,46.4084384 C29.6712329,42.290137 30.7701249,38.2535342 30.3739726,37.9278904 C30.3739726,37.9278904 27.5836825,39.8345753 27.5239726,41.2556712 C27.4562248,42.6744658 24.8691781,44.2232877 24.2031829,43.7089315 C23.6795729,43.3027397 24.3180097,42.8309589 24.1790693,42.5432877 C23.963195,42.0922192 23.3017929,41.6365479 23.3017929,41.6365479 C23.3017929,41.6365479 23.5819702,42.333863 22.8287067,43.1462466 C22.2407937,43.7779726 21.2360596,44.4890959 20.4024174,43.9459726 C19.2449637,43.1945753 17.0609589,43.2682192 17.0609589,43.2682192 L18.1954472,44.6893151 C16.2778405,44.3118904 15.3511886,45.0978082 13.7045729,44.0783014 C11.9488719,42.9920548 10.8063457,43.3476164 10.8063457,43.3476164 Z" id="路径" fill="url(#radialGradient-9)"></path>
                    <path d="M22.5703465,41.2326575 C22.5703465,41.2326575 21.1017123,41.0140274 20.816942,40.0762192 C20.5298751,39.1407123 22.2878727,35.9475616 21.7344077,35.4470137 C21.1832393,34.9476164 23.654311,36.9256438 23.0411362,38.6217534 C22.6059428,39.8173151 21.9743956,41.0243836 22.5703465,41.2326575 Z" id="路径" fill="url(#radialGradient-10)"></path>
                    <path d="M20.6929291,23.9044932 C20.6929291,23.9044932 19.8076148,23.4971507 19.801859,22.8539178 C19.7961322,22.2106849 21.5001612,20.5226301 21.2440975,20.1049315 C20.9868856,19.6872329 22.1787873,21.3890959 21.4760475,22.3453151 C20.9788477,23.0196164 20.3553384,23.664 20.6929291,23.9044932 Z" id="路径" fill="url(#radialGradient-11)"></path>
                    <path d="M16.0688558,42.2268493 C16.0688558,42.2268493 14.7839444,41.1440548 15.5911765,40.0117808 C16.6648066,38.5032329 14.0766116,37.461863 14.0766116,37.461863 C14.0766116,37.461863 14.6771555,37.9900274 13.8182514,40.1038356 C13.3600927,41.2280548 12.807776,42.038137 16.0688558,42.2268493 Z" id="路径" fill="url(#radialGradient-12)"></path>
                    <path d="M30.9159549,36.220274 C30.9159549,36.220274 33.4708501,35.6736986 33.1860798,34.4666301 C32.9013094,33.2572603 32.4052579,32.9086027 32.4052579,32.9086027 C32.4052579,32.9086027 29.8285455,35.2847671 30.9159549,36.220274 Z" id="路径" fill="url(#radialGradient-13)"></path>
                    <path d="M9.78668413,41.7665753 C9.78668413,41.7665753 7.70257857,40.6216438 8.65449234,37.8427397 C8.65449234,37.8427397 9.67070911,38.7701918 9.83146656,39.5077808 C9.98992748,40.2476712 9.78668413,41.7665753 9.78668413,41.7665753 Z" id="路径" fill="url(#radialGradient-14)"></path>
                </g>
                <g id="编组" transform="translate(104.794521, 25.684932)">
                    <path d="M2.07832192,33.5374721 C1.66469178,31.7452134 0.68260274,32.2359509 0.665650685,30.2786158 C0.650958904,28.5705798 0.991130137,29.0163985 1.39119863,27.1197037 C1.74267123,25.4633243 1.93705479,23.9091351 3.04006849,22.241526 C3.50568493,21.8428719 2.40041096,22.1101386 2.52359589,21.5273176 C2.62982877,20.0068175 5.41222603,19.3218063 5.98746575,18.1819927 C6.57400685,17.0343183 6.12534247,15.555368 5.30260274,13.95626 C6.26773973,14.0898933 5.22010274,14.7749044 6.36380137,14.789503 C5.29130137,12.9298662 7.6114726,11.8181268 8.44777397,10.4492275 C9.34171233,8.9904906 10.4808904,8.17409207 11.5884247,7.13871456 C11.9218151,7.57779548 12.0811644,8.25606881 12.9378082,8.35489009 C13.5706849,7.07358235 13.4814041,5.93938356 13.8396575,4.45032654 C14.2103425,2.90512106 14.0159589,0.667043644 15.6942123,0.102190188 C15.8592123,2.41775247 18.2223288,7.05 19.6474315,8.54467187 C19.8022603,7.98318732 19.1795548,6.01349952 20.2170205,6.04269672 C22.2478767,6.57498407 23.3407192,6.74679834 24.0549658,8.28302007 C24.7974658,9.90121854 24.6788014,10.7445683 24.2742123,12.4672029 C25.4416438,12.3739965 26.3220205,11.1286238 26.4734589,10.2729213 C29.8367466,11.5149251 26.2123973,13.8035362 25.9321233,15.335266 C25.5546575,17.4284804 27.7934589,18.7850271 27.8804795,20.822093 C28.6840068,20.7109191 28.9868836,19.7092306 29.8706507,19.6553281 C30.4425,21.9012663 32.8440411,27.7508124 32.9412329,29.9383562 C33.0180822,31.7328608 31.5545548,33.7452214 30.5668151,35.8058697 C29.5372603,37.9563555 29.6050685,40.8805671 28.6455822,42.1270628 C27.4408562,43.6857439 24.3680137,42.9647977 22.7767808,43.8283609 C21.112089,44.7278592 20.039589,47.4443214 18.1398288,47.5936763 C16.3180479,47.7385393 14.4940068,46.042856 12.6236301,45.498216 C10.4187329,44.8558777 7.78099315,45.4297149 6.42934932,44.2786716 C4.99294521,43.0568812 3.8164726,41.1085298 2.72363014,39.2780902 C1.62626712,37.4644951 2.45239726,35.1579165 2.07832192,33.5374721 Z" id="路径" fill="url(#radialGradient-15)"></path>
                    <g transform="translate(1.130137, 5.614845)" id="路径">
                        <path d="M16.1993836,9.80688914 C12.5343493,8.51547467 12.9683219,2.55924658 14.709863,0.152723797 C17.4278425,2.00113093 15.2511986,5.40485027 15.4275,7.82597165 C15.4907877,8.71311723 16.310137,9.33411915 16.1993836,9.80688914 Z" fill="url(#radialGradient-16)"></path>
                        <path d="M19.024726,4.80181586 C19.0710616,4.6951338 19.0348973,4.5278114 19.2281507,4.53230328 C19.494863,4.12803441 19.4406164,3.47895827 19.4417466,2.87367792 C24.1205137,5.81473399 19.2936986,9.78667569 18.3466438,12.9624323 C15.8219178,10.7164941 17.3735959,6.7119863 19.024726,4.80181586 Z" fill="url(#radialGradient-17)"></path>
                        <path d="M1.74832192,21.5632526 C1.37989726,22.4155862 1.07589041,23.5351864 0.979828767,24.6469258 C0.898458904,25.6025725 2.35746575,24.9714638 2.35746575,26.0596209 C2.35859589,27.0276203 2.20489726,28.1326219 2.45239726,29.1848439 C2.67503425,30.1303839 3.67068493,30.8794043 4.12952055,31.8597563 C4.53976027,32.7401641 4.6810274,33.8159685 5.31164384,34.703114 C5.91287671,35.5116518 6.39431507,36.3729691 7.02606164,36.9670198 C7.76291096,37.6565228 8.60373288,38.1966709 9.36318493,38.627891 C10.2288699,39.1197515 11.3544863,38.7166056 12.2235616,38.9232319 C13.1706164,39.1478257 13.9888356,40.0450781 14.9098973,40.0001593 C15.8671233,39.9518716 16.7090753,39.2421551 17.5917123,38.9748885 C18.5184247,38.6963922 19.4813014,38.5874642 20.2780479,38.1607359 C21.1629452,37.6823511 22.3100342,37.5565785 22.9711644,37.0164304 C23.8764041,36.2786397 23.685411,34.815411 24.0176712,34.2494345 C24.4505137,33.5487018 25.7286986,33.068071 26.2406507,32.0585218 C26.6734932,31.2095572 27.0328767,30.2179755 27.3594863,29.2499761 C27.6804452,28.3021902 28.0398288,27.2769194 28.1234589,26.2976903 C28.2082192,25.293756 27.3628767,24.3751673 27.0554795,23.4285043 C27.0159247,22.9815626 27.7708562,24.3560768 27.3606164,24.021432 C27.2182192,25.1567537 25.5840411,25.0545636 24.2290068,25.000661 C22.9892466,24.9512504 21.7370548,24.458267 21.112089,25.1253106 C20.9143151,24.2943135 20.2825685,22.241526 20.7142808,21.6744266 C20.8792808,21.7272061 20.7843493,21.4745381 20.8080822,21.3914384 C21.7845205,20.7288866 23.2559589,20.6918286 23.9837671,20.0180471 C24.8121575,19.2465674 24.1114726,17.371209 23.5882192,16.1202214 C23.1406849,15.0466629 22.0580137,14.2560927 22.5496233,12.4526043 C22.7225342,12.026999 22.910137,12.4200382 22.9587329,11.8967346 C21.9506507,12.2066741 21.0668836,11.6103775 20.3842808,11.9775884 C19.5310274,12.4312679 19.2055479,13.3273973 18.9953425,14.3212249 C18.7636644,15.4183657 20.1096575,16.8726107 19.7830479,17.9472921 C19.4914726,18.9085537 17.4854795,19.3959223 16.9780479,20.0337687 C16.6717808,18.6659924 14.9765753,17.6957471 15.0330822,16.3470612 C15.072637,15.444194 16.8763356,14.8029787 16.9803082,13.952891 C17.102363,12.9208824 16.4389726,11.9349156 15.5925,11.2779787 C14.8714726,10.7164941 13.9684932,10.2178958 13.1740068,9.64518159 C13.0869863,9.51940905 12.4631507,9.87089838 12.242774,9.83159446 C12.1806164,9.50256451 12.2913699,9.00733514 12.407774,8.56039344 C11.1634932,9.42957152 11.2380822,10.4941462 11.7364726,11.4666375 C12.259726,12.4795556 12.9434589,13.3958984 12.8496575,14.280798 C12.7603767,15.1230248 11.5793836,15.772101 10.9962329,16.8063555 C10.5034932,17.6766566 11.3364041,18.1494266 12.0958562,19.4082749 C12.0551712,19.6014256 12.234863,19.7754858 12.4552397,19.8361262 C12.4665411,20.6693692 11.887911,21.2095174 11.6098973,21.7710019 C11.8506164,20.9635871 11.2086986,20.1763858 10.6538014,19.3869385 C10.114726,18.6188277 9.12359589,18.750215 8.98232877,17.9955798 C8.74726027,16.7614368 9.99719178,15.6440825 7.8894863,14.899554 C8.02849315,16.1235903 6.58869863,15.8383562 6.23383562,16.6906897 C6.05527397,16.7434693 6.14568493,16.9871536 6.10160959,17.1387544 C5.09917808,18.1595333 5.03815068,19.295978 5.53202055,20.4571281 C6.02702055,21.6272619 6.88027397,21.7552803 6.68815068,22.7670755 C5.90270548,21.6126633 3.78369863,22.5570803 3.48308219,21.0938515 C2.81630137,21.6485983 2.22071918,20.4694807 1.74832192,21.5632526 Z" fill="url(#radialGradient-18)"></path>
                        <path d="M10.0096233,13.8226266 C10.2458219,11.5239089 6.11969178,8.07190188 9.88869863,6.31557821 C9.20270548,8.29088085 13.4610616,12.1123447 10.0096233,13.8226266 Z" fill="url(#radialGradient-19)"></path>
                    </g>
                    <path d="M8.05900685,39.793533 C8.05900685,39.793533 9.54400685,44.0237576 14.9675342,43.8721567 C20.3921918,43.7216789 21.3731507,42.6088165 23.4526027,40.1888181 C25.5309247,37.7665737 27.0735616,36.6963842 27.1413699,35.3207471 C27.2103082,33.9451099 28.1539726,31.1477939 28.1539726,31.1477939 C28.1539726,31.1477939 27.4363356,32.0967028 25.5795205,31.9203966 C23.7193151,31.7440905 22.0885274,30.9714877 21.5505822,31.9832829 C21.0058562,32.9928321 20.4735616,33.7092864 19.1004452,33.0141685 C17.7273288,32.3190507 18.422363,29.5026442 19.9277055,27.7721488 C21.4353082,26.0394075 21.9077055,24.7884199 21.9077055,24.7884199 C21.9077055,24.7884199 20.7097603,27.5172348 18.4935616,27.2769194 C16.2751027,27.037727 17.0786301,30.5312838 17.0786301,30.5312838 C17.0786301,30.5312838 17.5679795,27.1376712 15.9281507,24.9366518 C14.0837671,22.4515212 14.9844863,26.7805671 14.7901027,27.1893278 C14.0103082,28.8412154 11.9568493,30.4414463 10.7148288,28.7423941 C9.46715753,27.0422189 12.160274,31.2039423 10.1384589,30.1034326 C8.11438356,29.0017999 5.26530822,27.436381 5.26530822,27.436381 C5.26530822,27.436381 3.80856164,28.9950621 5.26982877,33.4566183 C6.72657534,37.9181746 8.05900685,39.793533 8.05900685,39.793533 Z" id="路径" fill="url(#radialGradient-20)"></path>
                    <path d="M24.1634589,36.920978 C24.1634589,36.920978 21.7291438,39.611612 19.5525,40.5436763 C17.374726,41.4746177 13.0304795,43.0288069 10.5057534,39.5251434 C7.97989726,36.0226027 7.03736301,32.5874403 7.37866438,32.3111899 C7.37866438,32.3111899 9.76890411,33.9327572 9.82428082,35.142195 C9.88417808,36.3493867 12.102637,37.6666295 12.6733562,37.2286716 C13.1220205,36.8827971 12.5750342,36.4818971 12.6948288,36.2370898 C12.8801712,35.8530344 13.4475,35.4644871 13.4475,35.4644871 C13.4475,35.4644871 13.2067808,36.0585378 13.852089,36.7491637 C14.3561301,37.2870659 15.2184247,37.8912233 15.9349315,37.429683 C16.9283219,36.7895906 18.8009589,36.8524769 18.8009589,36.8524769 L17.8290411,38.0607917 C19.4733904,37.7407455 20.2678767,38.410035 21.6805479,37.540857 C23.1836301,36.6166534 24.1634589,36.920978 24.1634589,36.920978 Z" id="路径" fill="url(#radialGradient-21)"></path>
                    <path d="M14.0702055,35.1197356 C14.0702055,35.1197356 15.3291781,34.9333227 15.5744178,34.1371376 C15.8219178,33.3398296 14.3120548,30.6244903 14.7878425,30.197762 C15.2613699,29.7732797 13.1401027,31.4554874 13.6678767,32.8973797 C14.0408219,33.9170357 14.5810274,34.9434294 14.0702055,35.1197356 Z" id="路径" fill="url(#radialGradient-22)"></path>
                    <path d="M15.6817808,20.3796432 C15.6817808,20.3796432 16.4412329,20.0326457 16.446894,19.4857598 C16.4514041,18.9399968 14.990137,17.5025964 15.2093836,17.1477381 C15.4286301,16.7928799 14.4069863,18.2403871 15.0093493,19.0534167 C15.4365411,19.6283769 15.9710959,20.1752628 15.6817808,20.3796432 Z" id="路径" fill="url(#radialGradient-23)"></path>
                    <path d="M19.6474315,35.9664543 C19.6474315,35.9664543 20.7515753,35.0456196 20.0576712,34.0821121 C19.1377397,32.7985585 21.3573288,31.9125358 21.3573288,31.9125358 C21.3573288,31.9125358 20.8408562,32.3617235 21.5731849,34.159597 C21.9709932,35.1163667 22.4456507,35.8058697 19.6474315,35.9664543 Z" id="路径" fill="url(#radialGradient-24)"></path>
                    <path d="M6.91078767,30.8580679 C6.91078767,30.8580679 4.71945205,30.3931586 4.96356164,29.3656419 C5.20880137,28.3370022 5.63260274,28.0405384 5.63260274,28.0405384 C5.63260274,28.0405384 7.84428082,30.0607598 6.91078767,30.8580679 Z" id="路径" fill="url(#radialGradient-25)"></path>
                    <path d="M25.0347945,35.575661 C25.0347945,35.575661 26.8249315,34.6020468 26.0078425,32.2370739 C26.0078425,32.2370739 25.1365068,33.0253982 24.9952397,33.6542609 C24.8630137,34.2831236 25.0347945,35.575661 25.0347945,35.575661 Z" id="路径" fill="url(#radialGradient-26)"></path>
                </g>
                <path d="M14.3835616,109.488861 L15.3542084,118.165053 C15.3542084,118.165053 19.927405,125.210925 24.8431173,130.502112 C29.2712747,135.266443 34.0821125,139.839702 43.5308567,142.700109 C54.3340436,145.974314 54.936514,146.209478 58.3203894,146.910447 C61.7042648,147.608025 28.6085573,98.4655536 14.3835616,109.488861 Z" id="路径" fill="url(#radialGradient-27)"></path>
                <g id="编组" transform="translate(31.849315, 81.164384)">
                    <path d="M5.6389746,15.0548472 C5.6389746,15.0548472 10.8231015,4.88201396 21.6643969,6.0566254 C32.5068294,7.22785827 40.3199761,15.3983338 49.803551,9.77528978 C59.2859888,4.14661486 67.627896,4.41126844 74.938436,7.54656876 C80.7616239,10.0410695 85.2862216,9.81808483 91.876965,4.10044125 C98.4859024,-1.62733799 109.062249,-0.159918335 113.310527,10.7528188 C123.5844,37.1652463 106.256976,55.6864924 95.5259808,48.3178609 C87.4296914,42.7556309 80.7115906,45.4269428 74.786062,50.1997168 C68.8582591,54.9691122 60.9200293,52.9836473 56.6501463,49.969975 C49.803551,45.136387 40.9795053,47.1241043 31.5345924,53.4104715 C21.2027264,60.2847076 7.82110653,58.5841675 3.24874983,49.004834 C-1.88989227,38.2430058 0.304747972,24.4472339 5.6389746,15.0548472 Z" id="路径" fill="url(#radialGradient-28)"></path>
                    <path d="M8.57729086,14.4590951 C8.57729086,14.4590951 13.4748637,4.8482284 23.7157601,5.95639489 C33.9589307,7.06456138 41.3399721,14.7845627 50.2970608,9.47009352 C59.2564237,4.15224579 67.1366605,4.40225896 74.0435231,7.35962197 C79.5449062,9.71672813 83.8182006,9.50387908 90.0473401,4.10607218 C96.2946735,-1.3086275 106.277444,0.0822115385 110.291475,10.3924394 C119.996788,35.3396997 103.629093,52.8372432 93.4950858,45.8819218 C85.84341,40.624888 79.4960101,43.1486697 73.8979718,47.6556639 C68.3010706,52.1649104 60.7994946,50.2886855 56.7695438,47.4416886 C50.3016093,42.8738804 42.1223101,44.3514357 33.2004721,50.2864331 C23.4405772,56.7811446 10.5740724,55.7236565 6.25643038,46.6747563 C1.39865674,36.5109326 3.53757814,23.3323103 8.57729086,14.4590951 Z" id="路径" fill="#603913"></path>
                    <path d="M9.08444607,15.1584563 C9.08444607,15.1584563 13.6852307,6.11969178 23.3086714,7.15916096 C32.932112,8.20313488 41.7163586,15.472662 50.1333156,10.46902 C58.5479984,5.47100896 64.1016891,5.69849842 70.5900918,8.47454557 C75.758299,10.6920047 82.8630203,11.4262777 88.7169105,6.34943361 C94.5844461,1.25907534 100.872716,1.63296891 104.643403,11.3271733 C113.7631,34.7946259 101.018267,49.781902 91.5039899,43.2342597 C84.3151217,38.2846747 75.7082657,42.1339766 70.449089,46.3774434 C65.1887751,50.6186578 59.2234473,48.0588383 55.4334286,45.379643 C49.3566631,41.0854979 40.3427184,43.0979913 31.9610121,48.6804926 C22.7924192,54.7866702 10.8788203,54.1199684 6.82157867,45.6082587 C2.26741588,36.0559536 4.35061843,23.5034905 9.08444607,15.1584563 Z" id="路径" fill="url(#radialGradient-29)"></path>
                    <path d="M5.08633462,23.2985248 C6.00853837,19.0989792 8.75922995,15.7665964 8.75922995,15.7665964 C8.75922995,15.7665964 10.8799574,19.6316649 16.20395,18.60571 C21.5256683,17.5876383 20.0087512,14.11223 23.429206,15.7665964 C26.8473866,17.4187105 28.9078468,22.3502766 34.0589972,19.6316649 C39.2101476,16.9108008 39.7241255,13.3385406 42.9876579,16.2294586 C46.247779,19.115872 49.5101742,24.0474381 53.6310946,21.6700606 C57.7520149,19.2893045 59.1245179,13.7428411 62.2152081,15.1562039 C65.3047613,16.5695666 66.7216119,21.6103728 70.9698896,20.9932231 C74.0605799,20.5404966 74.5927517,19.2893045 76.8237798,16.5695666 C79.0536707,13.8498288 83.0620162,16.4062698 86.0321718,18.6102147 C88.9943676,20.816412 93.2995013,18.9491965 95.0972869,14.1843058 C96.8939354,9.42279373 99.9846256,15.5458641 102.559064,16.0548999 C105.139187,16.5639357 105.042532,12.3835353 105.042532,12.3835353 C105.042532,12.3835353 107.577171,16.9378293 108.145731,23.1960419 C108.920109,31.783206 105.880589,36.878069 105.880589,36.878069 C105.880589,36.878069 104.163539,34.4173538 101.416259,33.3959036 C98.6689786,32.3767057 96.4527331,41.4684009 93.1937492,40.3658654 C89.9313539,39.2633298 87.9004588,31.740411 83.040411,35.9422089 C78.2315334,40.0978332 75.853817,40.9638699 72.5925589,39.2622036 C69.3301636,37.5594112 68.256723,33.6943427 65.3366006,34.7124144 C62.4176154,35.7293599 60.0580928,43.4043138 53.8789866,40.4829887 C47.6964689,37.5594112 46.247779,33.3868941 41.0977657,37.467064 C35.9477524,41.5494863 31.2901117,45.5542018 27.3056457,40.4480769 C23.3200426,35.3487092 21.7758346,34.6662408 17.1409363,38.2373749 C12.506038,41.8073828 8.42377976,39.6687566 5.04767256,32.7055519 C5.03743849,32.7179399 4.14593696,27.5735248 5.08633462,23.2985248 Z" id="路径" fill="url(#radialGradient-30)"></path>
                </g>
            </g>
        </g>
    </g>
</svg>