<?xml version="1.0" encoding="UTF-8"?>
<svg width="50px" height="50px" viewBox="0 0 50 50" version="1.1" xmlns="http://www.w3.org/2000/svg" xmlns:xlink="http://www.w3.org/1999/xlink">
    <title>编组 5</title>
    <defs>
        <rect id="path-1" x="0" y="0" width="325" height="180" rx="16"></rect>
        <filter x="-4.9%" y="-7.8%" width="109.8%" height="117.8%" filterUnits="objectBoundingBox" id="filter-2">
            <feOffset dx="0" dy="2" in="SourceAlpha" result="shadowOffsetOuter1"></feOffset>
            <feGaussianBlur stdDeviation="5" in="shadowOffsetOuter1" result="shadowBlurOuter1"></feGaussianBlur>
            <feColorMatrix values="0 0 0 0 0.897068799   0 0 0 0 0.921990693   0 0 0 0 0.999003112  0 0 0 1 0" type="matrix" in="shadowBlurOuter1"></feColorMatrix>
        </filter>
        <rect id="path-3" x="0" y="0" width="325" height="180" rx="16"></rect>
        <linearGradient x1="0%" y1="0%" x2="100%" y2="100%" id="linearGradient-5">
            <stop stop-color="#E5EBFF" offset="0%"></stop>
            <stop stop-color="#8294FF" offset="100%"></stop>
        </linearGradient>
    </defs>
    <g id="页面-1" stroke="none" stroke-width="1" fill="none" fill-rule="evenodd">
        <g id="动作红包_设置" transform="translate(-230.000000, -493.000000)">
            <rect fill="#F9F9F9" x="0" y="0" width="375" height="812"></rect>
            <rect id="矩形" fill="#FFFFFF" x="0" y="0" width="375" height="812"></rect>
            <g id="编组-3" transform="translate(25.000000, 429.000000)">
                <g id="矩形">
                    <use fill="black" fill-opacity="1" filter="url(#filter-2)" xlink:href="#path-1"></use>
                    <use fill="#FFFFFF" fill-rule="evenodd" xlink:href="#path-1"></use>
                </g>
                <mask id="mask-4" fill="white">
                    <use xlink:href="#path-3"></use>
                </mask>
                <use id="矩形" fill="#FFFFFF" xlink:href="#path-3"></use>
                <g id="编组-5" mask="url(#mask-4)">
                    <g transform="translate(205.000000, 64.000000)">
                        <circle id="椭圆形" fill="url(#linearGradient-5)" fill-rule="evenodd" cx="25" cy="25" r="25"></circle>
                        <path d="M30.1225086,37.2543275 C30.1225086,37.2543275 29.9366588,35.4504916 30.0678469,34.562239 C30.1744372,33.8407047 30.5352044,33.1765651 30.7429189,32.4768954 C31.0599567,31.3945938 31.4207239,30.3204915 31.6147729,29.208126 C31.8306866,27.9946364 31.5792428,26.7073535 31.9427431,25.532127 C32.2023861,24.69307 32.8173302,24.0125319 33.230026,23.2336028 C33.5006013,22.7197828 33.7848422,22.2114291 34.0007559,21.6730114 C34.4079855,20.6617701 35.1404522,19.628664 34.9764671,18.5490955 C34.9218054,18.1855953 34.6949594,17.759234 34.3478576,17.6444445 C34.0554176,17.5487865 33.7001165,17.7346363 33.4814698,17.9478169 C32.9375859,18.4753023 32.9813153,19.3799533 32.6752098,20.0741568 C32.3691043,20.7628942 31.6530361,22.0884403 31.6530361,22.0884403 C31.3633291,22.8127077 30.5898661,22.9247642 30.1143094,22.6541888 C29.649685,22.3918127 29.8218693,21.6156166 29.8191362,21.0826651 C29.81367,20.2436081 30.1471064,19.434615 30.2564298,18.6010242 C30.4067494,17.4367301 30.9069039,16.209575 30.5598022,15.0890102 C30.4340803,14.6817806 30.1635049,14.2171562 29.7562753,14.1050997 C29.4091735,14.0094418 28.974613,14.2062239 28.7423008,14.4849985 C28.1710861,15.1628035 28.3979321,16.2205073 28.2530787,17.0923614 C28.1273568,17.854892 28.0344319,18.6174227 27.9278416,19.3826864 C27.8185182,20.1479501 27.6026045,21.6730114 27.6026045,21.6730114 L27.0177243,21.5855527 C27.0177243,21.5855527 26.8810701,19.7161227 26.7690136,18.7868739 C26.6596902,17.9177529 26.5093706,17.048632 26.3535848,16.1877103 C26.1895997,15.2803262 26.3699833,14.2062239 25.8042347,13.4764903 C25.585588,13.1949825 25.1947568,12.9490049 24.844922,13.0091328 C24.4458916,13.080193 24.1452523,13.5038211 24.0031319,13.8809868 C23.6669625,14.7774386 24.0495943,15.7996123 24.137053,16.7507258 C24.2545757,18.0079448 24.68367,19.243299 24.6563391,20.5087173 C24.6481399,20.8886161 24.4486247,21.6320151 24.4486247,21.6320151 L23.6068346,21.8315303 C23.6068346,21.8315303 22.5190669,18.7978063 22.0954387,17.2454141 C21.9259875,16.6332032 22.0544425,15.8980034 21.685476,15.3814503 C21.4640962,15.0726117 21.0923967,14.7665062 20.7152309,14.7938371 C20.3189337,14.823901 19.9390349,15.1792021 19.8023806,15.5509016 C19.3158916,16.8737146 20.2779374,18.3304488 20.5430466,19.7161227 C20.748028,20.7820258 21.1552576,21.8233311 21.1962539,22.9083657 C21.2399832,24.0535282 20.7644265,26.3192554 20.7644265,26.3192554 C20.7644265,26.3192554 19.8652416,25.7371084 19.4552789,25.3927397 C18.8485341,24.8816529 18.4932331,24.0398628 17.7716987,23.7036933 C17.1540215,23.4139864 16.36416,23.2582005 15.7328175,23.5178436 C15.3747834,23.6626971 14.9866853,24.0097988 15.0003508,24.3814984 C15.0194824,24.9035176 15.719152,25.1385628 16.0826523,25.5129955 C16.5964723,26.0432139 17.1868185,26.5051052 17.6350444,27.0927184 C18.0422741,27.628403 18.3155825,28.2542795 18.6490189,28.8446257 C18.9223274,29.3311148 19.1191095,29.8640664 19.4525458,30.3068261 C20.0784222,31.1376838 20.9284116,31.7744926 21.6718106,32.5014931 C21.9615176,32.7830008 22.3441495,32.9934484 22.5436646,33.3432832 C22.7568452,33.7204489 22.7896423,34.1768741 22.8415709,34.6059684 C22.9208304,35.2947058 22.844304,36.691312 22.844304,36.691312 C26.102141,37.6150947 27.1133823,37.6314932 30.1225086,37.2543275 Z" id="路径" fill="#FFFFFF" fill-rule="nonzero"></path>
                    </g>
                </g>
            </g>
        </g>
    </g>
</svg>