<?xml version="1.0" encoding="UTF-8"?>
<svg width="50px" height="50px" viewBox="0 0 50 50" version="1.1" xmlns="http://www.w3.org/2000/svg" xmlns:xlink="http://www.w3.org/1999/xlink">
    <title>形状</title>
    <defs>
        <linearGradient x1="100%" y1="100%" x2="0%" y2="0%" id="linearGradient-1">
            <stop stop-color="#8294FF" offset="0%"></stop>
            <stop stop-color="#E5EBFF" offset="100%"></stop>
        </linearGradient>
    </defs>
    <g id="页面-1" stroke="none" stroke-width="1" fill="none" fill-rule="evenodd">
        <g id="画板" transform="translate(-300.000000, -83.000000)" fill="url(#linearGradient-1)" fill-rule="nonzero">
            <path d="M325,83 C328.452116,83 331.700074,83.6588716 334.743875,84.9766147 C337.787676,86.2943578 340.432442,88.076095 342.678174,90.3218263 C344.923905,92.5675575 346.705642,95.2123237 348.023385,98.2561247 C349.341128,101.299926 350,104.547884 350,108 C350,111.452116 349.341128,114.700074 348.023385,117.743875 C346.705642,120.787676 344.923905,123.432442 342.678174,125.678174 C340.432442,127.923905 337.787676,129.705642 334.743875,131.023385 C331.700074,132.341128 328.452116,133 325,133 C321.547884,133 318.299926,132.341128 315.256125,131.023385 C312.212324,129.705642 309.567558,127.923905 307.321826,125.678174 C305.076095,123.432442 303.294358,120.787676 301.976615,117.743875 C300.658872,114.700074 300,111.452116 300,108 C300,104.547884 300.658872,101.299926 301.976615,98.2561247 C303.294358,95.2123237 305.076095,92.5675575 307.321826,90.3218263 C309.567558,88.076095 312.212324,86.2943578 315.256125,84.9766147 C318.299926,83.6588716 321.547884,83 325,83 Z M332.962138,94.3028953 C332.405345,94.3028953 331.894952,94.4235338 331.430958,94.6648107 C330.966964,94.9060876 330.549369,95.2401633 330.178174,95.6670379 C329.806978,96.0939124 329.519302,96.595026 329.315145,97.1703786 C329.110987,97.7457313 329.008909,98.3489235 329.008909,98.9799555 C329.008909,100.279139 329.398664,101.392725 330.178174,102.320713 C330.957684,103.248701 331.885672,103.712695 332.962138,103.712695 C334.038604,103.712695 334.966592,103.248701 335.746102,102.320713 C336.525612,101.392725 336.915367,100.279139 336.915367,98.9799555 C336.915367,98.3489235 336.813289,97.7457313 336.609131,97.1703786 C336.404974,96.595026 336.117298,96.0939124 335.746102,95.6670379 C335.374907,95.2401633 334.957313,94.9060876 334.493318,94.6648107 C334.029324,94.4235338 333.518931,94.3028953 332.962138,94.3028953 L332.962138,94.3028953 Z M317.2049,94.3028953 C316.128434,94.3028953 315.209725,94.7576095 314.448775,95.6670379 C313.687825,96.5764662 313.30735,97.6807721 313.30735,98.9799555 C313.30735,100.279139 313.687825,101.392725 314.448775,102.320713 C315.209725,103.248701 316.128434,103.712695 317.2049,103.712695 C318.281366,103.712695 319.190794,103.248701 319.933185,102.320713 C320.675575,101.392725 321.046771,100.279139 321.046771,98.9799555 C321.046771,97.6807721 320.675575,96.5764662 319.933185,95.6670379 C319.190794,94.7576095 318.281366,94.3028953 317.2049,94.3028953 Z M325.167038,112.844098 C323.311062,112.844098 321.547884,113.020416 319.877506,113.373051 C318.207127,113.725687 316.703786,114.2268 315.367483,114.876392 C314.03118,115.525984 312.899035,116.277654 311.971047,117.131403 C311.043059,117.985152 310.393467,118.91314 310.022272,119.915367 C309.985152,119.952487 309.966592,119.989607 309.966592,120.026726 C309.929473,120.138085 309.910913,120.295843 309.910913,120.5 C309.910913,120.704157 309.957313,120.917595 310.050111,121.140312 C310.14291,121.363029 310.272829,121.567186 310.439866,121.752784 C310.606904,121.938382 310.838901,122.04974 311.135857,122.08686 C312.063846,121.084633 313.195991,120.175204 314.532294,119.358575 C315.682999,118.653304 317.121381,118.012992 318.847439,117.437639 C320.573497,116.862287 322.64291,116.57461 325.055679,116.57461 C327.505568,116.57461 329.621381,116.862287 331.403118,117.437639 C333.184855,118.012992 334.669636,118.653304 335.857461,119.358575 C337.230883,120.175204 338.381589,121.084633 339.309577,122.08686 C339.940609,121.901262 340.302524,121.557906 340.395323,121.056793 C340.488122,120.555679 340.497402,120.212324 340.423163,120.026726 C340.348924,119.841128 340.293244,119.71121 340.256125,119.636971 C340.219005,119.562732 340.200445,119.507053 340.200445,119.469933 C339.235338,117.465479 337.416481,115.860059 334.743875,114.653675 C332.071269,113.44729 328.87899,112.844098 325.167038,112.844098 Z" id="形状"></path>
        </g>
    </g>
</svg>