<?xml version="1.0" encoding="UTF-8"?>
<svg width="50px" height="50px" viewBox="0 0 50 50" version="1.1" xmlns="http://www.w3.org/2000/svg" xmlns:xlink="http://www.w3.org/1999/xlink">
    <title>形状</title>
    <defs>
        <linearGradient x1="0%" y1="0%" x2="100%" y2="100%" id="linearGradient-1">
            <stop stop-color="#E5EBFF" offset="0%"></stop>
            <stop stop-color="#8294FF" offset="100%"></stop>
        </linearGradient>
    </defs>
    <g id="页面-1" stroke="none" stroke-width="1" fill="none" fill-rule="evenodd">
        <g id="画板" transform="translate(-440.000000, -83.000000)" fill="url(#linearGradient-1)" fill-rule="nonzero">
            <path d="M464.971429,83 C468.438095,83 471.685714,83.6571429 474.714286,84.9714286 C477.742857,86.2857143 480.390476,88.0666667 482.657143,90.3142857 C484.92381,92.5619048 486.714286,95.2095238 488.028571,98.2571429 C489.342857,101.304762 490,104.542857 490,107.971429 C490,111.438095 489.342857,114.685714 488.028571,117.714286 C486.714286,120.742857 484.92381,123.390476 482.657143,125.657143 C480.390476,127.92381 477.742857,129.714286 474.714286,131.028571 C471.685714,132.342857 468.438095,133 464.971429,133 C461.542857,133 458.304762,132.342857 455.257143,131.028571 C452.209524,129.714286 449.561905,127.92381 447.314286,125.657143 C445.066667,123.390476 443.285714,120.742857 441.971429,117.714286 C440.657143,114.685714 440,111.438095 440,107.971429 C440,104.542857 440.657143,101.304762 441.971429,98.2571429 C443.285714,95.2095238 445.066667,92.5619048 447.314286,90.3142857 C449.561905,88.0666667 452.209524,86.2857143 455.257143,84.9714286 C458.304762,83.6571429 461.542857,83 464.971429,83 Z M458.457143,99 L463.542857,93.9714286 L460.971429,91.4 L455.942857,96.4857143 L450.857143,91.4 L448.342857,93.9714286 L453.428571,99 L448.342857,104.085714 L450.857143,106.6 L455.942857,101.571429 L460.971429,106.6 L463.542857,104.085714 L458.457143,99 Z M476.342857,99 L481.428571,93.9714286 L478.857143,91.4 L473.828571,96.4857143 L468.742857,91.4 L466.228571,93.9714286 L471.314286,99 L466.228571,104.085714 L468.742857,106.6 L473.828571,101.571429 L478.857143,106.6 L481.428571,104.085714 L476.342857,99 Z" id="形状"></path>
        </g>
    </g>
</svg>