<?xml version="1.0" encoding="UTF-8"?>
<svg width="50px" height="50px" viewBox="0 0 50 50" version="1.1" xmlns="http://www.w3.org/2000/svg" xmlns:xlink="http://www.w3.org/1999/xlink">
    <title>形状</title>
    <defs>
        <linearGradient x1="0%" y1="0%" x2="100%" y2="100%" id="linearGradient-1">
            <stop stop-color="#E5EBFF" offset="0%"></stop>
            <stop stop-color="#8294FF" offset="100%"></stop>
        </linearGradient>
    </defs>
    <g id="页面-1" stroke="none" stroke-width="1" fill="none" fill-rule="evenodd">
        <g id="画板" transform="translate(-160.000000, -83.000000)" fill="url(#linearGradient-1)" fill-rule="nonzero">
            <path d="M185.028571,83 C188.457143,83 191.695238,83.6571429 194.742857,84.9714286 C197.790476,86.2857143 200.438095,88.0666667 202.685714,90.3142857 C204.933333,92.5619048 206.714286,95.2095238 208.028571,98.2571429 C209.342857,101.304762 210,104.542857 210,107.971429 C210,111.438095 209.342857,114.685714 208.028571,117.714286 C206.714286,120.742857 204.933333,123.390476 202.685714,125.657143 C200.438095,127.92381 197.790476,129.714286 194.742857,131.028571 C191.695238,132.342857 188.457143,133 185.028571,133 C181.561905,133 178.314286,132.342857 175.285714,131.028571 C172.257143,129.714286 169.609524,127.92381 167.342857,125.657143 C165.07619,123.390476 163.285714,120.742857 161.971429,117.714286 C160.657143,114.685714 160,111.438095 160,107.971429 C160,104.542857 160.657143,101.304762 161.971429,98.2571429 C163.285714,95.2095238 165.07619,92.5619048 167.342857,90.3142857 C169.609524,88.0666667 172.257143,86.2857143 175.285714,84.9714286 C178.314286,83.6571429 181.561905,83 185.028571,83 Z M171.714286,100.2 C171.714286,101.533333 172.085714,102.657143 172.828571,103.571429 C173.571429,104.485714 174.47619,104.942857 175.542857,104.942857 C176.609524,104.942857 177.52381,104.485714 178.285714,103.571429 C179.047619,102.657143 179.428571,101.533333 179.428571,100.2 C179.428571,98.9047619 179.047619,97.8 178.285714,96.8857143 C177.52381,95.9714286 176.609524,95.5142857 175.542857,95.5142857 C174.47619,95.5142857 173.571429,95.9714286 172.828571,96.8857143 C172.085714,97.8 171.714286,98.9047619 171.714286,100.2 Z M184.914286,126.371429 C185.942857,126.371429 186.904762,126.171429 187.8,125.771429 C188.695238,125.371429 189.47619,124.838095 190.142857,124.171429 C190.809524,123.504762 191.342857,122.714286 191.742857,121.8 C192.142857,120.885714 192.342857,119.914286 192.342857,118.885714 C192.342857,117.857143 192.142857,116.895238 191.742857,116 C191.342857,115.104762 190.809524,114.32381 190.142857,113.657143 C189.47619,112.990476 188.695238,112.457143 187.8,112.057143 C186.904762,111.657143 185.942857,111.457143 184.914286,111.457143 C183.885714,111.457143 182.92381,111.657143 182.028571,112.057143 C181.133333,112.457143 180.342857,112.990476 179.657143,113.657143 C178.971429,114.32381 178.438095,115.104762 178.057143,116 C177.67619,116.895238 177.485714,117.857143 177.485714,118.885714 C177.485714,119.914286 177.67619,120.885714 178.057143,121.8 C178.438095,122.714286 178.971429,123.504762 179.657143,124.171429 C180.342857,124.838095 181.133333,125.371429 182.028571,125.771429 C182.92381,126.171429 183.885714,126.371429 184.914286,126.371429 Z M194.057143,104.828571 C195.161905,104.828571 196.104762,104.371429 196.885714,103.457143 C197.666667,102.542857 198.057143,101.438095 198.057143,100.142857 C198.057143,98.8095238 197.666667,97.6857143 196.885714,96.7714286 C196.104762,95.8571429 195.161905,95.4 194.057143,95.4 C192.952381,95.4 192.019048,95.8571429 191.257143,96.7714286 C190.495238,97.6857143 190.114286,98.8095238 190.114286,100.142857 C190.114286,101.438095 190.495238,102.542857 191.257143,103.457143 C192.019048,104.371429 192.952381,104.828571 194.057143,104.828571 Z" id="形状"></path>
        </g>
    </g>
</svg>