<?xml version="1.0" encoding="UTF-8"?>
<svg width="50px" height="50px" viewBox="0 0 50 50" version="1.1" xmlns="http://www.w3.org/2000/svg" xmlns:xlink="http://www.w3.org/1999/xlink">
    <title>形状</title>
    <defs>
        <linearGradient x1="0%" y1="0%" x2="100%" y2="100%" id="linearGradient-1">
            <stop stop-color="#E5EBFF" offset="0%"></stop>
            <stop stop-color="#8294FF" offset="100%"></stop>
        </linearGradient>
    </defs>
    <g id="页面-1" stroke="none" stroke-width="1" fill="none" fill-rule="evenodd">
        <g id="画板" transform="translate(-230.000000, -83.000000)" fill="url(#linearGradient-1)" fill-rule="nonzero">
            <path d="M279.857883,105.341111 C278.399189,91.613643 266.087145,81.6757474 252.358451,83.1438153 C238.629756,84.6118833 228.682346,96.9303327 230.142181,110.658889 C231.600821,124.386357 243.912864,134.324253 257.642645,132.856185 C271.370199,131.388117 281.317609,119.068525 279.857829,105.341111 L279.857883,105.341111 Z M262.307692,97.6153846 C264.431877,97.6153846 266.153846,99.3373657 266.153846,101.461565 C266.153846,103.585711 264.431877,105.307692 262.307692,105.307692 C260.183508,105.307692 258.461538,103.585711 258.461538,101.461617 C258.461538,99.3374183 260.183508,97.6153846 262.307692,97.6153846 L262.307692,97.6153846 Z M247.692281,97.6153846 C249.81648,97.6153846 251.538462,99.3373657 251.538462,101.461565 C251.538462,103.585711 249.81648,105.307692 247.692281,105.307692 C245.568082,105.307692 243.846154,103.585711 243.846154,101.461617 C243.846154,99.3374183 245.568135,97.6153846 247.692281,97.6153846 L247.692281,97.6153846 Z M266.872438,114.505002 C265.659196,119.979947 260.175769,123.769231 254.615043,123.769231 C248.853297,123.769231 243.397104,119.877305 242.307692,114.284646 C242.307692,112.773074 243.44369,112.230769 244.143401,112.230769 L264.804941,112.230769 C265.313852,112.231929 267.259802,112.410764 266.872438,114.505002 L266.872438,114.505002 Z" id="形状"></path>
        </g>
    </g>
</svg>