<?xml version="1.0" encoding="UTF-8"?>
<svg width="50px" height="50px" viewBox="0 0 50 50" version="1.1" xmlns="http://www.w3.org/2000/svg" xmlns:xlink="http://www.w3.org/1999/xlink">
    <title>形状</title>
    <defs>
        <linearGradient x1="0%" y1="0%" x2="100%" y2="100%" id="linearGradient-1">
            <stop stop-color="#E5EBFF" offset="0%"></stop>
            <stop stop-color="#8294FF" offset="100%"></stop>
        </linearGradient>
    </defs>
    <g id="页面-1" stroke="none" stroke-width="1" fill="none" fill-rule="evenodd">
        <g id="画板" transform="translate(-20.000000, -83.000000)" fill="url(#linearGradient-1)" fill-rule="nonzero">
            <path d="M44.9714286,83 C48.4380952,83 51.6857143,83.6571429 54.7142857,84.9714286 C57.7428571,86.2857143 60.3904762,88.0666667 62.6571429,90.3142857 C64.9238095,92.5619048 66.7142857,95.2095238 68.0285714,98.2571429 C69.3428571,101.304762 70,104.542857 70,107.971429 C70,111.438095 69.3428571,114.685714 68.0285714,117.714286 C66.7142857,120.742857 64.9238095,123.390476 62.6571429,125.657143 C60.3904762,127.92381 57.7428571,129.714286 54.7142857,131.028571 C51.6857143,132.342857 48.4380952,133 44.9714286,133 C41.5428571,133 38.3047619,132.342857 35.2571429,131.028571 C32.2095238,129.714286 29.5619048,127.92381 27.3142857,125.657143 C25.0666667,123.390476 23.2857143,120.742857 21.9714286,117.714286 C20.6571429,114.685714 20,111.438095 20,107.971429 C20,104.542857 20.6571429,101.304762 21.9714286,98.2571429 C23.2857143,95.2095238 25.0666667,92.5619048 27.3142857,90.3142857 C29.5619048,88.0666667 32.2095238,86.2857143 35.2571429,84.9714286 C38.3047619,83.6571429 41.5428571,83 44.9714286,83 Z M35.3714286,104.6 C36.0190476,104.942857 36.7047619,104.971429 37.4285714,104.685714 C38.152381,104.4 38.8190476,104.009524 39.4285714,103.514286 C40.1142857,102.942857 40.8190476,102.219048 41.5428571,101.342857 L30.2285714,94.7714286 C30.7238095,96.3714286 31.2571429,97.8380952 31.8285714,99.1714286 C32.3238095,100.314286 32.8761905,101.428571 33.4857143,102.514286 C34.0952381,103.6 34.7238095,104.295238 35.3714286,104.6 L35.3714286,104.6 Z M44.8571429,126.371429 C45.8857143,126.371429 46.847619,126.171429 47.7428571,125.771429 C48.6380952,125.371429 49.4285714,124.838095 50.1142857,124.171429 C50.8,123.504762 51.3333333,122.714286 51.7142857,121.8 C52.0952381,120.885714 52.2857143,119.914286 52.2857143,118.885714 C52.2857143,117.857143 52.0952381,116.895238 51.7142857,116 C51.3333333,115.104762 50.8,114.32381 50.1142857,113.657143 C49.4285714,112.990476 48.6380952,112.457143 47.7428571,112.057143 C46.847619,111.657143 45.8857143,111.457143 44.8571429,111.457143 C43.8285714,111.457143 42.8666667,111.657143 41.9714286,112.057143 C41.0761905,112.457143 40.2952381,112.990476 39.6285714,113.657143 C38.9619048,114.32381 38.4285714,115.104762 38.0285714,116 C37.6285714,116.895238 37.4285714,117.857143 37.4285714,118.885714 C37.4285714,119.914286 37.6285714,120.885714 38.0285714,121.8 C38.4285714,122.714286 38.9619048,123.504762 39.6285714,124.171429 C40.2952381,124.838095 41.0761905,125.371429 41.9714286,125.771429 C42.8666667,126.171429 43.8285714,126.371429 44.8571429,126.371429 Z M54.4,104.6 C55.047619,104.295238 55.6761905,103.6 56.2857143,102.514286 C56.8952381,101.428571 57.447619,100.314286 57.9428571,99.1714286 C58.5142857,97.8380952 59.047619,96.3714286 59.5428571,94.7714286 L48.2285714,101.342857 C48.952381,102.219048 49.6571429,102.942857 50.3428571,103.514286 C50.952381,104.009524 51.6190476,104.4 52.3428571,104.685714 C53.0666667,104.971429 53.752381,104.942857 54.4,104.6 L54.4,104.6 Z" id="形状"></path>
        </g>
    </g>
</svg>