<?xml version="1.0" encoding="UTF-8"?>
<svg width="50px" height="50px" viewBox="0 0 50 50" version="1.1" xmlns="http://www.w3.org/2000/svg" xmlns:xlink="http://www.w3.org/1999/xlink">
    <title>形状</title>
    <defs>
        <linearGradient x1="0%" y1="0%" x2="100%" y2="100%" id="linearGradient-1">
            <stop stop-color="#E5EBFF" offset="0%"></stop>
            <stop stop-color="#8294FF" offset="100%"></stop>
        </linearGradient>
    </defs>
    <g id="页面-1" stroke="none" stroke-width="1" fill="none" fill-rule="evenodd">
        <g id="画板" transform="translate(-90.000000, -83.000000)" fill="url(#linearGradient-1)" fill-rule="nonzero">
            <path d="M114.971429,83 C118.438095,83 121.685714,83.6571429 124.714286,84.9714286 C127.742857,86.2857143 130.390476,88.0666667 132.657143,90.3142857 C134.92381,92.5619048 136.714286,95.2095238 138.028571,98.2571429 C139.342857,101.304762 140,104.542857 140,107.971429 C140,111.438095 139.342857,114.685714 138.028571,117.714286 C136.714286,120.742857 134.92381,123.390476 132.657143,125.657143 C130.390476,127.92381 127.742857,129.714286 124.714286,131.028571 C121.685714,132.342857 118.438095,133 114.971429,133 C111.542857,133 108.304762,132.342857 105.257143,131.028571 C102.209524,129.714286 99.5619048,127.92381 97.3142857,125.657143 C95.0666667,123.390476 93.2857143,120.742857 91.9714286,117.714286 C90.6571429,114.685714 90,111.438095 90,107.971429 C90,104.542857 90.6571429,101.304762 91.9714286,98.2571429 C93.2857143,95.2095238 95.0666667,92.5619048 97.3142857,90.3142857 C99.5619048,88.0666667 102.209524,86.2857143 105.257143,84.9714286 C108.304762,83.6571429 111.542857,83 114.971429,83 Z M100.571429,100.828571 L104.342857,100.828571 C104.457143,101.895238 104.657143,102.771429 104.942857,103.457143 C105.228571,104.142857 105.561905,104.485714 105.942857,104.485714 C106.32381,104.485714 106.657143,104.142857 106.942857,103.457143 C107.228571,102.771429 107.428571,101.895238 107.542857,100.828571 L111.314286,100.828571 L111.314286,97.2285714 L100.571429,97.2285714 L100.571429,100.828571 Z M125.6,118.714286 L104.171429,118.714286 L104.171429,122.257143 L125.6,122.257143 L125.6,118.714286 L125.6,118.714286 Z M129.2,97.2285714 L118.457143,97.2285714 L118.457143,100.828571 L122.228571,100.828571 C122.342857,101.895238 122.542857,102.771429 122.828571,103.457143 C123.114286,104.142857 123.447619,104.485714 123.828571,104.485714 C124.209524,104.485714 124.542857,104.142857 124.828571,103.457143 C125.114286,102.771429 125.314286,101.895238 125.428571,100.828571 L129.2,100.828571 L129.2,97.2285714 L129.2,97.2285714 Z" id="形状"></path>
        </g>
    </g>
</svg>