<?xml version="1.0" encoding="UTF-8"?>
<svg width="50px" height="50px" viewBox="0 0 50 50" version="1.1" xmlns="http://www.w3.org/2000/svg" xmlns:xlink="http://www.w3.org/1999/xlink">
    <title>形状</title>
    <defs>
        <linearGradient x1="0%" y1="0%" x2="100%" y2="100%" id="linearGradient-1">
            <stop stop-color="#E5EBFF" offset="0%"></stop>
            <stop stop-color="#8294FF" offset="100%"></stop>
        </linearGradient>
    </defs>
    <g id="页面-1" stroke="none" stroke-width="1" fill="none" fill-rule="evenodd">
        <g id="画板" transform="translate(-370.000000, -83.000000)" fill="url(#linearGradient-1)" fill-rule="nonzero">
            <path d="M394.971429,83 C398.438095,83 401.685714,83.6571429 404.714286,84.9714286 C407.742857,86.2857143 410.390476,88.0666667 412.657143,90.3142857 C414.92381,92.5619048 416.714286,95.2095238 418.028571,98.2571429 C419.342857,101.304762 420,104.542857 420,107.971429 C420,111.438095 419.342857,114.685714 418.028571,117.714286 C416.714286,120.742857 414.92381,123.390476 412.657143,125.657143 C410.390476,127.92381 407.742857,129.714286 404.714286,131.028571 C401.685714,132.342857 398.438095,133 394.971429,133 C391.542857,133 388.304762,132.342857 385.257143,131.028571 C382.209524,129.714286 379.561905,127.92381 377.314286,125.657143 C375.066667,123.390476 373.285714,120.742857 371.971429,117.714286 C370.657143,114.685714 370,111.438095 370,107.971429 C370,104.542857 370.657143,101.304762 371.971429,98.2571429 C373.285714,95.2095238 375.066667,92.5619048 377.314286,90.3142857 C379.561905,88.0666667 382.209524,86.2857143 385.257143,84.9714286 C388.304762,83.6571429 391.542857,83 394.971429,83 Z M404.057143,95.4 C402.952381,95.4 402.009524,95.8571429 401.228571,96.7714286 C400.447619,97.6857143 400.057143,98.8095238 400.057143,100.142857 C400.057143,101.438095 400.447619,102.542857 401.228571,103.457143 C402.009524,104.371429 402.952381,104.828571 404.057143,104.828571 C405.161905,104.828571 406.095238,104.371429 406.857143,103.457143 C407.619048,102.542857 408,101.438095 408,100.142857 C408,98.8095238 407.619048,97.6857143 406.857143,96.7714286 C406.095238,95.8571429 405.161905,95.4 404.057143,95.4 Z M385.542857,95.5142857 C384.47619,95.5142857 383.561905,95.9714286 382.8,96.8857143 C382.038095,97.8 381.657143,98.9047619 381.657143,100.2 C381.657143,101.533333 382.038095,102.657143 382.8,103.571429 C383.561905,104.485714 384.47619,104.942857 385.542857,104.942857 C386.609524,104.942857 387.514286,104.485714 388.257143,103.571429 C389,102.657143 389.371429,101.533333 389.371429,100.2 C389.371429,98.9047619 389,97.8 388.257143,96.8857143 C387.514286,95.9714286 386.609524,95.5142857 385.542857,95.5142857 Z M409.142857,115.114286 C409.180952,115.038095 409.2,114.904762 409.2,114.714286 C409.2,114.52381 409.171429,114.314286 409.114286,114.085714 C409.057143,113.857143 408.942857,113.647619 408.771429,113.457143 C408.6,113.266667 408.361905,113.114286 408.057143,113 C407.180952,114.066667 406.095238,115.019048 404.8,115.857143 C403.695238,116.580952 402.295238,117.238095 400.6,117.828571 C398.904762,118.419048 396.914286,118.714286 394.628571,118.714286 C392.342857,118.714286 390.4,118.419048 388.8,117.828571 C387.2,117.238095 385.847619,116.580952 384.742857,115.857143 C383.485714,115.019048 382.419048,114.066667 381.542857,113 C381.238095,113.07619 381.009524,113.209524 380.857143,113.4 C380.704762,113.590476 380.590476,113.8 380.514286,114.028571 C380.438095,114.257143 380.4,114.466667 380.4,114.657143 C380.4,114.847619 380.419048,115 380.457143,115.114286 C380.495238,115.152381 380.504762,115.180952 380.485714,115.2 C380.466667,115.219048 380.47619,115.247619 380.514286,115.285714 C380.857143,116.314286 381.466667,117.27619 382.342857,118.171429 C383.219048,119.066667 384.285714,119.847619 385.542857,120.514286 C386.8,121.180952 388.219048,121.695238 389.8,122.057143 C391.380952,122.419048 393.047619,122.6 394.8,122.6 C398.266667,122.6 401.257143,121.971429 403.771429,120.714286 C406.285714,119.457143 408,117.8 408.914286,115.742857 C408.914286,115.666667 408.933333,115.590476 408.971429,115.514286 C409.009524,115.438095 409.066667,115.304762 409.142857,115.114286 Z" id="形状"></path>
        </g>
    </g>
</svg>