<?xml version="1.0" encoding="UTF-8"?>
<svg width="40px" height="40px" viewBox="0 0 40 40" version="1.1" xmlns="http://www.w3.org/2000/svg" xmlns:xlink="http://www.w3.org/1999/xlink">
    <title>相册@1x</title>
    <g id="页面-1" stroke="none" stroke-width="1" fill="none" fill-rule="evenodd">
        <g id="识物红包_拍照" transform="translate(-280.000000, -595.000000)" fill="#FFFFFF">
            <path d="M300,595 C311.045695,595 320,603.954305 320,615 C320,626.045695 311.045695,635 300,635 C288.954305,635 280,626.045695 280,615 C280,603.954305 288.954305,595 300,595 Z M308.330483,605.00342 L291.669517,605.00342 C291.219166,604.973627 290.777856,605.139571 290.458713,605.458713 C290.139571,605.777856 289.973627,606.219166 290.00342,606.669517 L290.00342,623.330483 C289.973627,623.780834 290.139571,624.222144 290.458713,624.541287 C290.777856,624.860429 291.219166,625.026373 291.669517,624.99658 L308.330483,624.99658 C308.780834,625.026373 309.222144,624.860429 309.541287,624.541287 C309.860429,624.222144 310.026373,623.780834 309.99658,623.330483 L309.99658,606.669517 C310.026373,606.219166 309.860429,605.777856 309.541287,605.458713 C309.222144,605.139571 308.780834,604.973627 308.330483,605.00342 Z M308.330483,606.669517 L308.330483,612.850735 C307.783253,612.730339 307.224702,612.668898 306.664387,612.667465 C303.089379,612.681386 299.843909,614.758487 298.333903,617.998974 C298.167294,618.332193 297.667465,618.665413 297.334245,618.332193 C296.36118,617.804528 295.275414,617.5188 294.168662,617.499145 C293.307308,617.49836 292.455561,617.680067 291.669517,618.032296 L291.669517,606.669517 L308.330483,606.669517 Z M295.00171,608.335613 C294.551359,608.30582 294.110049,608.471764 293.790907,608.790907 C293.471764,609.110049 293.30582,609.551359 293.335613,610.00171 C293.30582,610.452061 293.471764,610.893371 293.790907,611.212513 C294.110049,611.531656 294.551359,611.6976 295.00171,611.667807 C295.452061,611.6976 295.893371,611.531656 296.212513,611.212513 C296.531656,610.893371 296.6976,610.452061 296.667807,610.00171 C296.6976,609.551359 296.531656,609.110049 296.212513,608.790907 C295.893371,608.471764 295.452061,608.30582 295.00171,608.335613 Z" id="相册"></path>
        </g>
    </g>
</svg>