<?xml version="1.0" encoding="UTF-8"?>
<svg width="100px" height="100px" viewBox="0 0 100 100" version="1.1" xmlns="http://www.w3.org/2000/svg" xmlns:xlink="http://www.w3.org/1999/xlink">
    <title>拍照键@1x</title>
    <defs>
        <circle id="path-1" cx="40" cy="40" r="40"></circle>
        <filter x="-20.0%" y="-17.5%" width="140.0%" height="140.0%" filterUnits="objectBoundingBox" id="filter-2">
            <feOffset dx="0" dy="2" in="SourceAlpha" result="shadowOffsetOuter1"></feOffset>
            <feGaussianBlur stdDeviation="5" in="shadowOffsetOuter1" result="shadowBlurOuter1"></feGaussianBlur>
            <feColorMatrix values="0 0 0 0 0.537254902   0 0 0 0 0.603921569   0 0 0 0 1  0 0 0 1 0" type="matrix" in="shadowBlurOuter1"></feColorMatrix>
        </filter>
    </defs>
    <g id="页面-1" stroke="none" stroke-width="1" fill="none" fill-rule="evenodd">
        <g id="识物红包_拍照" transform="translate(-137.000000, -647.000000)">
            <g id="拍照键" transform="translate(147.000000, 655.000000)">
                <g id="椭圆形备份-12">
                    <use fill="black" fill-opacity="1" filter="url(#filter-2)" xlink:href="#path-1"></use>
                    <use fill="#899AFF" fill-rule="evenodd" xlink:href="#path-1"></use>
                </g>
                <path d="M45.27125,20 C48.2306542,20 50.8580402,21.8936674 51.79375,24.70125 L52.02375,25.395 C52.193985,25.9061154 52.6725307,26.2506683 53.21125,26.25 L57.625,26.25 C61.3147039,26.2497035 64.346741,29.1620259 64.495,32.84875 L64.5,33.125 L64.5,53.125 C64.5,56.9219577 61.4219577,60 57.625,60 L23.875,60 C20.0780423,60 17,56.9219577 17,53.125 L17,33.125 C17,31.3016366 17.7243283,29.5529535 19.0136409,28.2636409 C20.3029535,26.9743283 22.0516366,26.25 23.875,26.25 L28.28875,26.25 C28.8270093,26.2501296 29.3049101,25.9056784 29.475,25.395 L29.70625,24.70125 C30.60771,21.9963302 33.085194,20.12852 35.93375,20.00625 L36.22875,20 L45.27125,20 Z M45.27125,23.75 L36.22875,23.75 C34.8833319,23.75 33.6889021,24.6110222 33.26375,25.8875 L32.4625,28.29125 C32.1220324,29.3116764 31.1669768,29.9999004 30.09125,30 L23.875,30 C23.0461985,30 22.2513425,30.3292401 21.6652913,30.9152913 C21.0792401,31.5013425 20.75,32.2961985 20.75,33.125 L20.75,53.125 C20.75,54.8508898 22.1491102,56.25 23.875,56.25 L57.625,56.25 C58.4538015,56.25 59.2486575,55.9207599 59.8347087,55.3347087 C60.4207599,54.7486575 60.75,53.9538015 60.75,53.125 L60.75,33.125 C60.75,32.2961985 60.4207599,31.5013425 59.8347087,30.9152913 C59.2486575,30.3292401 58.4538016,30 57.625,30 L51.4075,30 C50.3314416,29.999721 49.3762845,29.3109203 49.03625,28.29 L48.23625,25.88625 C47.8106646,24.6102661 46.6163365,23.75 45.27125,23.75 Z M40.75,33.75 C45.5824916,33.75 49.5,37.6675084 49.5,42.5 C49.5,47.3324916 45.5824916,51.25 40.75,51.25 C35.9175084,51.25 32,47.3324916 32,42.5 C32,37.6675084 35.9175084,33.75 40.75,33.75 Z M40.75,37.5 C37.9885762,37.5 35.75,39.7385762 35.75,42.5 C35.75,45.2614237 37.9885762,47.5 40.75,47.5 C43.5114238,47.5 45.75,45.2614237 45.75,42.5 C45.75,39.7385762 43.5114238,37.5 40.75,37.5 L40.75,37.5 Z" id="形状" fill="#FFFFFF" fill-rule="nonzero"></path>
            </g>
        </g>
    </g>
</svg>