<?xml version="1.0" encoding="UTF-8"?>
<svg width="50px" height="50px" viewBox="0 0 50 50" version="1.1" xmlns="http://www.w3.org/2000/svg" xmlns:xlink="http://www.w3.org/1999/xlink">
    <title>编组</title>
    <g id="页面-1" stroke="none" stroke-width="1" fill="none" fill-rule="evenodd">
        <g id="刷新" transform="translate(-162.000000, -338.000000)">
            <rect id="矩形" fill="#FFFFFF" x="0" y="0" width="375" height="812"></rect>
            <g id="编组" transform="translate(162.000000, 338.000000)">
                <path d="M25,0 C25.3726296,0 25.743355,0.0081524921 26.1120077,0.0242888438 C39.4031181,0.606056005 50,11.5655108 50,25 C50,38.8071187 38.8071187,50 25,50 L25,40 L25,40 C33.2842712,40 40,33.2842712 40,25 C40,16.9393065 33.6418709,10.3636336 25.6672046,10.0145733 C25.446013,10.0048915 25.2235777,10 25,10 L25,0 L25,0 Z" id="形状结合" fill="#FE6B88"></path>
                <path d="M0,0 C0.372629561,0 0.743355006,0.0081524921 1.1120077,0.0242888438 C14.4031181,0.606056005 25,11.5655108 25,25 C25,38.8071187 13.8071187,50 0,50 L0,40 L0,40 C8.28427125,40 15,33.2842712 15,25 C15,16.9393065 8.64187088,10.3636336 0.667204621,10.0145733 C0.446013004,10.0048915 0.223577737,10 0,10 L0,0 L0,0 Z" id="形状结合" fill="#8294FF" transform="translate(12.500000, 25.000000) scale(-1, 1) translate(-12.500000, -25.000000) "></path>
                <circle id="椭圆形" fill="#FE6B88" cx="25" cy="45" r="5"></circle>
                <circle id="椭圆形" fill="#8294FF" cx="25" cy="5" r="5"></circle>
            </g>
        </g>
    </g>
</svg>