<?xml version="1.0" encoding="UTF-8"?>
<svg width="300px" height="210px" viewBox="0 0 300 210" version="1.1" xmlns="http://www.w3.org/2000/svg" xmlns:xlink="http://www.w3.org/1999/xlink">
    <title>teamwork_white_9</title>
    <g id="页面-1" stroke="none" stroke-width="1" fill="none" fill-rule="evenodd">
        <g id="动作红包_开始" transform="translate(-38.000000, -322.000000)">
            <rect fill="#F9F9F9" x="0" y="0" width="375" height="812"></rect>
            <rect id="矩形" fill="#FFFFFF" x="-1" y="0" width="375" height="812"></rect>
            <g id="teamwork_white_9" transform="translate(38.000000, 322.000000)">
                <path d="M231.476323,166.141174 C231.474746,178.573268 239.006862,189.782089 250.560289,194.540732 C262.113715,199.299375 275.413068,196.67065 284.256583,187.880387 C293.100097,179.090123 295.74609,165.869516 290.960681,154.383609 C286.175272,142.897702 274.900921,135.408582 262.395091,135.408582 C245.321542,135.410722 231.48063,149.168292 231.476323,166.141174" id="Path" fill="#00B98F"></path>
                <path d="M270.149152,170.299137 L294.150418,163.363515 C293.097727,153.339082 287.256539,144.439113 278.467434,139.468023 C269.67833,134.496933 259.023649,134.06689 249.860724,138.313403 L270.149152,170.299137" id="Path" fill="#04A87D"></path>
                <polyline id="Path" fill="#303D72" points="256.936503 209.34333 256.545961 209.277293 266.183274 151.192405 266.573816 151.254557 256.936503 209.34333"></polyline>
                <path d="M258.941285,145.430344 C262.173801,153.373977 269.901651,158.598956 278.520427,158.668255 C287.139202,158.737554 294.95104,153.637521 298.31236,145.746905 C301.673679,137.856289 299.922313,128.729506 293.875132,122.623452 C287.82795,116.517399 278.676221,114.634942 270.688476,117.854093 C259.789879,122.248661 254.532461,134.590324 258.941285,145.430344 L258.941285,145.430344 Z" id="Path" fill="#00C99C"></path>
                <polyline id="Path" fill="#303D72" points="263.393325 174.452775 263.231198 174.101792 285.627885 163.653317 285.793872 164.0043 263.393325 174.452775"></polyline>
                <polygon id="Rectangle" fill="#303D72" transform="translate(254.972507, 159.457151) rotate(-53.540000) translate(-254.972507, -159.457151) " points="254.752078 148.072001 255.142031 148.072874 255.192936 170.842301 254.802983 170.841428"></polygon>
                <polygon id="Rectangle" fill="#303D72" transform="translate(275.403288, 141.879257) rotate(-70.260000) translate(-275.403288, -141.879257) " points="258.916729 141.659217 291.889266 141.708371 291.889847 142.099297 258.91731 142.050143"></polygon>
                <polygon id="Rectangle" fill="#303D72" transform="translate(283.657166, 138.217613) rotate(-20.100000) translate(-283.657166, -138.217613) " points="275.187621 138.01008 292.126122 138.035623 292.126712 138.425146 275.18821 138.399604"></polygon>
                <polygon id="Rectangle" fill="#303D72" transform="translate(275.360078, 132.021873) rotate(-45.000000) translate(-275.360078, -132.021873) " points="275.156196 128.273344 275.546417 128.274257 275.563961 135.770402 275.17374 135.769489"></polygon>
                <ellipse id="Oval" fill="#00B98F" transform="translate(89.810511, 119.656910) rotate(-67.500000) translate(-89.810511, -119.656910) " cx="89.810511" cy="119.65691" rx="39.1173023" ry="39.2469896"></ellipse>
                <path d="M56.9368261,98.8565724 C48.6458067,112.091112 49.0304697,128.996297 57.9148644,141.839431 C66.7992591,154.682566 82.4749304,160.993939 97.7715877,157.88663 L56.9368261,98.8565724 Z" id="Path" fill="#04A87D"></path>
                <polygon id="Rectangle" fill="#303D72" transform="translate(84.327080, 158.111229) rotate(-82.710000) translate(-84.327080, -158.111229) " points="32.2356034 157.884917 136.418326 157.946437 136.418556 158.337542 32.2358333 158.276022"></polygon>
                <polygon id="Rectangle" fill="#303D72" transform="translate(100.785920, 127.105328) rotate(-36.380000) translate(-100.785920, -127.105328) " points="83.7229497 126.87224 117.848018 126.948466 117.84889 127.338416 83.7238219 127.26219"></polygon>
                <polygon id="Rectangle" fill="#303D72" transform="translate(77.169741, 118.120654) rotate(-69.700000) translate(-77.169741, -118.120654) " points="76.9559556 105.60914 77.3454832 105.609734 77.383527 130.632167 76.9939994 130.631573"></polygon>
                <path d="M62.053963,175.499808 C47.8577227,189.611212 24.8420895,189.610599 10.6466098,175.498439 C-3.54886993,161.386279 -3.54886993,138.506348 10.6466098,124.394188 C24.8420895,110.282028 47.8577227,110.281415 62.053963,124.392819 C68.871725,131.169838 72.7019499,140.361776 72.7019499,149.946314 C72.7019499,159.530851 68.871725,168.722789 62.053963,175.499808" id="Path" fill="#00C99C"></path>
                <polyline id="Path" fill="#303D72" points="44.7477015 209.34333 32.5905292 125.494234 32.968176 125.439852 45.1253482 209.285063 44.7477015 209.34333"></polyline>
                <polyline id="Path" fill="#303D72" points="37.9054324 159.49968 37.6044568 159.256011 53.1770098 140.392947 53.4818942 140.640484 37.9054324 159.49968"></polyline>
                <polygon id="Rectangle" fill="#303D72" transform="translate(22.032659, 143.217970) rotate(-73.720000) translate(-22.032659, -143.217970) " points="21.8202903 129.183112 22.2097415 129.183603 22.2450273 157.252829 21.855576 157.252338"></polygon>
                <path d="M163.762806,162.82259 L158.774373,170.209947 L162.373775,178.605209 L170.023511,181.929322 C170.768037,180.610162 170.575458,178.972186 169.544396,177.854221 L167.201161,175.316669 L166.774386,170.209947 L169.057228,163.660535 L163.762806,162.82259 Z" id="Path" fill="#19192B"></path>
                <path d="M158.774373,103.840937 L184.830038,124.009542 L162.155643,162.949894 L168.235688,166.1455 C168.235688,166.1455 196.342735,131.594717 198.362916,126.050204 C200.383098,120.505691 201.783186,117.302281 198.986911,114.083264 C196.190636,110.864247 158.774373,103.840937 158.774373,103.840937 Z" id="Path" fill="#19192B"></path>
                <path d="M218.514957,99.6872999 L199.851322,99.6872999 L198.292447,93.1797698 L192.236216,93.1797698 C191.293484,93.1797698 190.529248,92.4049538 190.529248,91.4491698 C190.529248,90.4933859 191.293484,89.7185699 192.236216,89.7185699 L200.993198,89.7185699 L202.552074,96.2260999 L215.755748,96.2260999 L217.080792,89.7185699 L222.248463,89.7185699 C223.191196,89.7185699 223.955432,90.4933859 223.955432,91.4491698 C223.955432,92.4049538 223.191196,93.1797698 222.248463,93.1797698 L219.843898,93.1797698 L218.514957,99.6872999 Z" id="Path" fill="#A9C2DC"></path>
                <path d="M220.305104,86.3956599 C220.305104,86.3956599 221.043819,86.6783988 222.755947,88.6575714 C224.468075,90.636744 224.114107,92.4842299 223.140695,94.1225665 C222.017231,96.0397689 219.093148,95.4471791 219.093148,95.4471791 L219.508676,93.510611 C219.508676,93.510611 220.089645,91.9613566 218.78535,91.093774 C217.481054,90.2261915 216.43454,89.5445196 216.43454,89.5445196 L220.305104,86.3956599 Z" id="Path" fill="#FBAD83"></path>
                <path d="M189.920467,43.1978299 L198.059917,69.1426174 L220.612813,86.0189473 C220.324073,87.3485775 219.558349,88.5276849 218.459169,89.3352566 L216.68329,90.5492974 C216.68329,90.5492974 196.198359,78.5989475 192.148106,75.0964594 C188.097853,71.5939712 181.337047,51.824113 181.337047,51.824113 L189.920467,43.1978299 Z" id="Path" fill="#50CAD3"></path>
                <path d="M92.1585597,166.980172 L87.7437326,176.412931 L96.6215486,182.44895 L101.437724,184.421505 C102.278451,182.91254 102.069998,181.047934 100.915971,179.754439 L96.9466404,175.3083 L98.5520321,166.976227 L92.1585597,166.980172 Z" id="Path" fill="#303D72"></path>
                <path d="M171.495363,183.590777 L163.554147,180.702915 C163.067167,180.496096 162.830481,179.951935 163.015435,179.464374 C163.20039,178.976812 163.7423,178.716368 164.248854,178.871587 L170.792671,181.250748 L179.540385,169.859734 C179.754346,169.580131 180.10425,169.433643 180.458291,169.475449 C180.812332,169.517255 181.116724,169.741004 181.256804,170.062413 C181.396885,170.383821 181.351372,170.754059 181.137411,171.033662 L171.495363,183.590777 Z" id="Path" fill="#A9C2DC"></path>
                <path d="M155.016266,99.6872999 L136.330967,99.6872999 L134.791398,93.1797698 L128.726666,93.1797698 C127.783824,93.1797698 127.019499,92.4049538 127.019499,91.4491698 C127.019499,90.4933859 127.783824,89.7185699 128.726666,89.7185699 L137.476874,89.7185699 L139.035931,96.2260999 L152.241145,96.2260999 L153.570241,89.7185699 L158.738515,89.7185699 C159.681358,89.7185699 160.445682,90.4933859 160.445682,91.4491698 C160.445682,92.4049538 159.681358,93.1797698 158.738515,93.1797698 L156.341465,93.1797698 L155.016266,99.6872999 Z" id="Path" fill="#A9C2DC"></path>
                <path d="M150.417827,88.0406726 C150.417827,88.0406726 153.51952,88.799791 154.664879,89.6424124 C155.810237,90.4850338 154.338182,94.6905496 155.817924,95.2409104 C157.297666,95.7912713 159.430801,95.5407622 160.045758,94.6981408 C160.660716,93.8555194 160.483916,90.0333583 160.068819,88.1165844 C159.653723,86.1998105 151.582403,83.9034774 151.582403,83.9034774 L150.417827,88.0406726 Z" id="Path" fill="#FBAD83"></path>
                <path d="M101.25485,186.08296 C101.117699,186.081019 100.982373,186.051789 100.857055,185.997036 L93.5933148,182.786611 L103.502393,169.858988 C103.715571,169.579918 104.064194,169.433709 104.416939,169.475435 C104.769685,169.517161 105.072962,169.740484 105.21253,170.061279 C105.352097,170.382074 105.306752,170.751606 105.093574,171.030675 L96.6802055,182.009391 L101.680491,184.21607 C102.106414,184.404092 102.341716,184.857755 102.246089,185.306543 C102.150461,185.755331 101.749667,186.078339 101.282696,186.08296 L101.25485,186.08296 Z" id="Path" fill="#A9C2DC"></path>
                <path d="M98.5295316,93.0414799 C98.5295316,93.0414799 121.323466,107.243898 122.781149,114.860362 C124.238832,122.476825 98.6862717,171.960592 98.6862717,171.960592 L91.1157232,168.268583 L108.525634,123.611934 C108.525634,123.611934 91.0255976,111.462784 84.1094391,105.287482 C77.1932807,99.1121808 98.5295316,93.0414799 98.5295316,93.0414799 Z" id="Path" fill="#19192B"></path>
                <path d="M118.553527,44.0369722 C118.553527,44.0369722 112.687949,44.8708209 109.843675,48.8404104 C106.9994,52.8099999 121.358461,78.9842361 121.358461,78.9842361 L150.863381,89.7185699 C150.863381,89.7185699 152.216673,88.473669 152.562864,86.9195003 C152.777596,85.9082861 152.898745,84.8796159 152.924791,83.846396 L129.057278,72.9750449 C129.057278,72.9750449 121.433207,47.5289583 120.481182,45.8142835 C119.363929,43.8020853 118.553527,44.0369722 118.553527,44.0369722 Z" id="Path" fill="#50CAD3"></path>
                <path d="M38.4401114,170.210593 C38.4656029,171.091392 38.5957353,171.966106 38.8277988,172.816521 L38.4401114,170.210593 M49.7218155,158.668952 C44.1097394,158.679114 39.3553845,162.782791 38.5564176,168.306261 L38.8355526,170.183608 C38.8355526,170.087235 38.8355526,169.987007 38.8355526,169.890634 C38.8312577,164.186311 43.2752225,159.455409 48.9989863,159.070969 C54.7227502,158.68653 59.7661914,162.780206 60.5334343,168.433285 C61.3006772,174.086365 57.5289769,179.362933 51.9074825,180.500898 C46.2859882,181.638864 40.7397989,178.248527 39.22324,172.747132 L39.4984981,174.612915 C41.8600417,179.660559 47.5882175,182.221307 52.9526792,180.62753 C58.3171409,179.033753 61.6935275,173.768047 60.8830429,168.259586 C60.0725583,162.751124 55.3206175,158.66787 49.7218155,158.668952" id="Shape" fill="#07B496" fill-rule="nonzero"></path>
                <path d="M38.5298669,167.806955 C38.4700743,168.360019 38.4400813,168.91793 38.4401114,169.476534 C38.4401114,169.590277 38.4401114,169.708082 38.4401114,169.821824 L38.7496131,172.567897 C38.8845798,173.214374 39.0605798,173.844873 39.275766,174.452775 L39.0560198,172.486652 C38.8705422,171.605779 38.7666257,170.698776 38.7465181,169.785264 L38.5236769,167.806955" id="Path" fill="#303D72"></path>
                <path d="M32.5905292,186.051634 C35.2203965,188.806801 38.4805482,190.907671 42.1013536,192.180492 L42.0345696,191.748502 C38.6959707,190.538862 35.6747449,188.612281 33.1915851,186.10949 L32.5905292,186.051634 M71.9577208,159.49968 C71.9066507,159.688675 71.8555806,159.885385 71.800582,160.070524 C75.778924,168.561552 74.2152151,178.563892 67.8262476,185.492547 C61.4372801,192.421202 51.4548846,194.940286 42.4549158,191.89507 L42.5177713,192.323203 C51.737789,195.364807 61.9164574,192.681397 68.3446034,185.514456 C74.7727495,178.347514 76.196723,168.094775 71.9577208,159.49968" id="Shape" fill="#E0E2EA" fill-rule="nonzero"></path>
                <path d="M35.7295599,150.102951 C30.1711888,154.192684 26.6316426,160.46223 26.0050481,167.327836 C25.3784537,174.193442 27.7247333,180.998539 32.4511919,186.024085 L33.0526191,186.08296 C28.2800542,181.197139 25.8461931,174.495602 26.3730248,167.690969 C26.8998565,160.886336 30.3363354,154.63792 35.804247,150.542545 L35.7374217,150.102951 M48.1629869,145.455811 C43.8180573,145.79849 39.648113,147.313896 36.0990642,149.839979 L36.1619586,150.279574 C39.5821977,147.797105 43.6074802,146.277538 47.8170679,145.879706 L48.1629869,145.455811 M50.0891264,145.377312 C49.6213496,145.377312 49.1614347,145.377312 48.7015197,145.416562 L48.3595317,145.832606 C48.9334427,145.789432 49.5073536,145.769807 50.0891264,145.769807 C59.3769824,145.772868 67.8161299,151.16575 71.7090594,159.585628 C71.7640919,159.393306 71.8151936,159.193133 71.8662953,159.004736 C67.8217007,150.673188 59.3658106,145.38082 50.0930572,145.377312" id="Shape" fill="#07B496" fill-rule="nonzero"></path>
                <path d="M42.1326879,192.146911 L42.1998167,192.584289 L42.6183844,192.72878 L42.5552044,192.295307 L42.1326879,192.146911 M36.2964328,150.361677 L35.9331476,150.623323 L36.0002764,151.060701 L36.3596128,150.799055 L36.2964328,150.361677" id="Shape" fill="#303D72" fill-rule="nonzero"></path>
                <path d="M48.4679666,145.377312 L47.9591458,145.447713 L47.632312,146.20804 C47.7994429,146.172839 47.9740019,146.144679 48.1448468,146.123559 L48.4679666,145.377312" id="Path" fill="#303D72"></path>
                <path d="M239.56253,146.20804 C230.911406,147.547968 223.675254,153.412983 220.657418,161.530932 C217.639581,169.64888 219.314186,178.744371 225.032475,185.293737 C230.750765,191.843102 239.614354,194.817389 248.189415,193.064333 L247.671802,192.773901 C239.206597,194.576709 230.419143,191.68211 224.74499,185.22178 C219.070836,178.76145 217.411252,169.761529 220.415069,161.740636 C223.418885,153.719743 230.608985,147.951894 239.17432,146.692092 C239.299802,146.541068 239.425284,146.390044 239.566451,146.242892" id="Path" fill="#E0E2EA"></path>
                <path d="M260.786255,185.2155 C257.367322,189.365361 252.637529,192.207764 247.387425,193.267623 L247.897562,193.559507 C252.84455,192.457346 257.31274,189.793071 260.650992,185.954941 L260.770797,185.2155 M266.370712,173.232665 L265.957191,173.427255 C265.393838,177.501715 263.775761,181.355172 261.265475,184.600596 L261.137941,185.378955 C263.986488,181.907712 265.800728,177.695155 266.370712,173.228773 M264.875082,162.331749 L264.875082,162.37845 C265.745495,164.879768 266.188481,167.511592 266.185207,170.162039 C266.185877,171.097178 266.131677,172.031539 266.022891,172.960239 L266.432546,172.76565 C266.76767,169.674855 266.505193,166.547952 265.659611,163.557664 L264.886676,162.331749 M242.807785,146.223611 C241.661952,146.223547 240.51761,146.306788 239.383682,146.472686 C239.256148,146.620574 239.132478,146.772354 238.997214,146.924134 C246.447678,145.687118 254.032562,148.151491 259.36019,153.540185 L258.529285,152.216975 C254.191965,148.342448 248.594105,146.204461 242.796191,146.20804" id="Shape" fill="#07A78B" fill-rule="nonzero"></path>
                <path d="M265.047759,161.640939 L264.921117,162.39308 L265.738162,163.653317 C265.536624,162.970522 265.307852,162.30373 265.051844,161.652941 M258.21727,152.023132 L259.095593,153.383388 C261.503635,155.751753 263.387918,158.58034 264.631067,161.692949 L264.757709,160.936807 C263.287388,157.524058 261.053715,154.477981 258.221355,152.023132" id="Shape" fill="#0B987B" fill-rule="nonzero"></path>
                <path d="M261.316342,183.90406 C261.159936,184.109385 261.00353,184.31471 260.839676,184.516161 L260.724234,185.252232 C260.884364,185.066277 261.04077,184.864826 261.193452,184.682745 L261.316342,183.907934 M264.64183,160.330407 L264.526388,161.062605 C264.615763,161.30667 264.705138,161.550736 264.787064,161.798676 L264.787064,161.752187 L264.902507,161.023864 C264.816856,160.787546 264.727481,160.558977 264.634382,160.330407" id="Shape" fill="#303D72" fill-rule="nonzero"></path>
                <path d="M266.573816,171.960592 L265.841755,172.209313 L265.738162,172.79132 L266.477129,172.542599 C266.477129,172.348597 266.546191,172.154594 266.573816,171.960592" id="Path" fill="#303D72"></path>
                <polygon id="Rectangle" fill="#A9C2DC" transform="translate(221.662173, 123.700860) rotate(-24.420000) translate(-221.662173, -123.700860) " points="219.775521 95.4852506 223.449249 95.491714 223.548825 151.91647 219.875098 151.910007"></polygon>
                <polygon id="Rectangle" fill="#A9C2DC" transform="translate(161.268346, 125.747982) rotate(-21.030000) translate(-161.268346, -125.747982) " points="159.487917 97.1976105 162.959101 97.2030434 163.048775 154.298353 159.577591 154.29292"></polygon>
                <polygon id="Rectangle" fill="#A9C2DC" transform="translate(90.280970, 130.592677) rotate(-20.040000) translate(-90.280970, -130.592677) " points="88.510055 107.251843 91.9814228 107.257065 92.0518857 153.933511 88.5805179 153.928289"></polygon>
                <path d="M49.7337437,130.424217 C33.6783529,130.419508 19.2012445,140.030392 13.0538285,154.774829 C6.90641254,169.519265 10.2994859,186.493185 21.6506862,197.780789 C33.0018866,209.068393 50.0754784,212.446471 64.9091795,206.339654 C79.7428806,200.232837 89.4150418,185.843925 89.4150418,169.883198 C89.4150418,148.095153 71.6510145,130.43065 49.7337437,130.424217 L49.7337437,130.424217 Z M49.7337437,203.328604 C31.1533092,203.326459 16.0924377,188.351492 16.0938755,169.88061 C16.0953133,151.409728 31.1585159,136.437078 49.7389506,136.437793 C68.3193852,136.438507 83.3814225,151.412316 83.3814225,169.883198 C83.3814225,178.754144 79.8362848,187.261702 73.5260087,193.534044 C67.2157326,199.806386 58.6573038,203.329633 49.7337437,203.328604 Z" id="Shape" fill="#A9C2DC" fill-rule="nonzero"></path>
                <polygon id="Path" fill="#D6F5FF" points="104.456825 171.129865 47.632312 171.129865 84.2620204 116.30185 86.3412997 117.665288 52.271606 168.658634 104.456825 168.658634"></polygon>
                <rect id="Rectangle" fill="#D6F5FF" x="86.0724234" y="114.640395" width="132.869081" height="4.15363749"></rect>
                <polygon id="Rectangle" fill="#D6F5FF" transform="translate(168.536176, 144.636435) rotate(-20.980000) translate(-168.536176, -144.636435) " points="166.231095 114.246694 170.745991 114.253747 170.841256 175.026175 166.32636 175.019122"></polygon>
                <path d="M242.762145,130.424217 C226.707465,130.422647 212.232753,140.035523 206.087798,154.780209 C199.942844,169.524894 203.337845,186.497542 214.68966,197.783536 C226.041475,209.06953 243.114455,212.446184 257.947197,206.338911 C272.779939,200.231639 282.451253,185.843217 282.451253,169.883197 C282.449098,148.093008 264.681573,130.428504 242.762145,130.424217 L242.762145,130.424217 Z M242.762145,203.328603 C224.181202,203.328603 209.118372,188.354584 209.118372,169.883197 C209.118372,151.411809 224.181202,136.437791 242.762145,136.437791 C261.343088,136.437791 276.405918,151.411809 276.405918,169.883197 C276.403762,188.353696 261.342195,203.326459 242.762145,203.328603 Z" id="Shape" fill="#A9C2DC" fill-rule="nonzero"></path>
                <ellipse id="Oval" fill="#303D72" cx="49.7214485" cy="169.883773" rx="7.93871866" ry="7.89191124"></ellipse>
                <polygon id="Path" fill="#D6F5FF" points="181.399995 171.960592 102.559304 171.960592 81.8941504 115.388443 86.2933232 113.809667 105.839114 167.321242 179.196495 167.321242 218.675548 119.926938 222.284123 122.8789"></polygon>
                <path d="M192.200557,169.883773 C192.200557,176.077548 187.14973,181.098595 180.91922,181.098595 C174.68871,181.098595 169.637883,176.077548 169.637883,169.883773 C169.637883,163.689999 174.68871,158.668952 180.91922,158.668952 C187.14973,158.668952 192.200557,163.689999 192.200557,169.883773 Z" id="Path" fill="#303D72"></path>
                <path d="M116.155989,169.883773 C116.155989,176.077548 111.105162,181.098595 104.874652,181.098595 C98.6441414,181.098595 93.5933148,176.077548 93.5933148,169.883773 C93.5933148,163.689999 98.6441414,158.668952 104.874652,158.668952 C111.105162,158.668952 116.155989,163.689999 116.155989,169.883773 L116.155989,169.883773 Z" id="Path" fill="#303D72"></path>
                <polygon id="Rectangle" fill="#D6F5FF" transform="translate(227.787498, 137.180920) rotate(-24.420000) translate(-227.787498, -137.180920) " points="225.389016 101.296714 230.05934 101.304931 230.18598 173.065126 225.515656 173.05691"></polygon>
                <rect id="Rectangle" fill="#303D72" x="13.3704735" y="208.974619" width="267.409471" height="1.00478469"></rect>
                <path d="M75.7349289,103.01334 C73.5376257,102.933374 71.5960464,104.393322 71.1225734,106.481546 C70.9772772,107.11967 71.0045823,107.783528 71.2018235,108.408327 C72.061687,110.955532 78.8771951,110.982507 82.3602367,109.456496 C85.8432784,107.930486 90.7448967,109.683856 93.0827744,108.485399 C95.4206522,107.286941 95.0917643,106.119311 89.0529072,104.500815 C84.9913398,103.40255 79.1347579,103.094265 75.7349289,103.01334 Z" id="Path" fill="#19192B"></path>
                <path d="M149.271623,103.01334 C147.074745,102.933374 145.133541,104.393322 144.66016,106.481546 C144.514892,107.11967 144.542192,107.783528 144.739395,108.408327 C145.599092,110.955532 152.413282,110.982507 155.89565,109.456496 C159.378018,107.930486 164.278688,109.683856 166.620076,108.485399 C168.961463,107.286941 168.624715,106.119311 162.587026,104.500815 C158.526244,103.40255 152.670795,103.094265 149.271623,103.01334 Z" id="Path" fill="#19192B"></path>
                <path d="M246.518106,169.46841 C246.518106,171.7624 244.647429,173.622047 242.339833,173.622047 C240.032236,173.622047 238.16156,171.7624 238.16156,169.46841 C238.16156,167.174419 240.032236,165.314772 242.339833,165.314772 C244.647429,165.314772 246.518106,167.174419 246.518106,169.46841 L246.518106,169.46841 Z" id="Path" fill="#303D72"></path>
                <ellipse id="Oval" fill="#19192B" cx="104.874652" cy="169.883773" rx="6.26740947" ry="6.23045624"></ellipse>
                <ellipse id="Oval" fill="#19192B" cx="180.91922" cy="169.883773" rx="6.26740947" ry="6.23045624"></ellipse>
                <path d="M104.620652,171.129865 C104.242238,171.132843 103.895084,170.92395 103.725846,170.591401 C103.556609,170.258853 103.594809,169.860655 103.824309,169.565031 L113.440156,157.007497 L121.355809,159.894556 C121.871484,160.082523 122.134429,160.645619 121.943112,161.152266 C121.751796,161.658912 121.178666,161.917253 120.66299,161.729286 L114.136956,159.350788 L105.416996,170.738632 C105.227787,170.983461 104.933531,171.128013 104.620652,171.129865 Z" id="Path" fill="#A9C2DC"></path>
                <path d="M106.697988,41.6572146 C106.697988,41.6572146 101.305831,40.5974665 96.0977193,44.7546401 C79.9134149,57.611878 71.8662953,91.8978458 71.8662953,91.8978458 C71.8662953,91.8978458 77.2819481,90.8069286 90.3139744,92.5134347 C103.592701,94.2511099 104.524679,93.8264314 104.524679,93.8264314 C104.524679,93.8264314 120.49361,50.9611795 120.333059,46.8390711 C120.172508,42.7169627 116.334953,42.0273472 116.334953,42.0273472 L106.697988,41.6572146 Z" id="Path" fill="#60D6E6"></path>
                <path d="M72.7019499,91.8476961 C72.7019499,91.8476961 77.516717,90.8782588 88.9968912,92.2107524 L102.785515,65.1283034 L98.296647,44.0285574 C97.7437625,44.3671019 97.2136939,44.7412549 96.7098301,45.1486245 C80.6748319,57.8942151 72.7019499,91.8476961 72.7019499,91.8476961 Z" id="Path" fill="#50CAD3"></path>
                <path d="M130.362117,87.2539207 C130.362117,87.2539207 131.906414,87.7421761 132.23325,88.8736885 C132.560085,90.0052009 130.599073,92.3341014 130.811516,93.5702399 C131.023959,94.8063785 132.445693,96.038642 135.305502,95.3217591 C138.165312,94.6048763 139.922052,91.4079662 139.488995,89.1449414 C139.055938,86.8819166 132.9768,83.0727499 132.9768,83.0727499 L130.362117,87.2539207 Z" id="Path" fill="#FBAD83"></path>
                <path d="M102.578128,42.3758329 C102.578128,42.3758329 96.7735319,43.209533 93.9588284,47.1745007 C91.1441249,51.1394685 105.509624,78.7415934 105.509624,78.7415934 L130.670659,88.0571149 C130.670659,88.0571149 133.851313,85.3172556 134.197798,83.7516218 L134.54039,82.1859879 L110.932697,71.324403 C110.932697,71.324403 105.427869,45.8828528 104.481848,44.1567414 C103.380104,42.1370738 102.578128,42.3758329 102.578128,42.3758329 Z" id="Path" fill="#60D6E6"></path>
                <path d="M113.458534,142.054402 L111.142061,150.235528 L114.832974,157.551793 L119.909909,159.49968 C120.569712,157.93738 120.455082,156.151747 119.601046,154.688398 L117.330903,150.792624 L118.686039,142.517999 L113.458534,142.054402 Z" id="Path" fill="#303D72"></path>
                <path d="M72.9867732,91.9734984 C72.9867732,91.9734984 72.8530953,92.0201747 72.7076223,95.9798818 C72.4874469,101.977788 78.6838112,106.435376 90.0778872,108.15073 C101.471963,109.866085 118.083409,111.803152 118.083409,111.803152 L112.119016,142.341129 L119.16856,144.546585 C119.16856,144.546585 133.01995,116.820855 129.906041,108.722515 C121.342791,86.5123698 72.9867732,91.9734984 72.9867732,91.9734984 Z" id="Path" fill="#303D72"></path>
                <path d="M174.595948,38.2134649 L170.873526,39.5010142 C165.648102,41.3093455 161.264982,44.9506767 158.545462,49.7427053 C154.295763,57.2253623 149.015118,70.6565751 147.075209,92.9401781 C147.075209,92.9401781 167.410808,103.440162 181.753543,98.2430025 C181.753543,98.2430025 183.040258,60.6105602 188.730133,50.8384919 C194.420008,41.0664236 184.795226,38.3543518 184.795226,38.3543518 L174.595948,38.2134649 Z" id="Path" fill="#60D6E6"></path>
                <path d="M169.637883,66.4415015 L160.73937,47.3514674 C159.942077,48.3143328 159.227746,49.3403258 158.603727,50.4188862 C154.332441,57.8240688 149.024972,71.1162167 147.075209,93.1690985 C151.283203,95.1987771 155.681737,96.82526 160.209414,98.0258449 L169.637883,66.4415015 Z" id="Path" fill="#50CAD3"></path>
                <path d="M174.651811,38.2134649 C174.651811,38.2134649 176.710791,42.2140647 180.395283,42.363178 C184.079775,42.5122912 184.679666,38.3625782 184.679666,38.3625782 L174.651811,38.2134649 Z" id="Path" fill="#FFFFFF"></path>
                <path d="M174.651811,24.921825 L174.651811,38.1899107 C174.651811,38.1899107 176.848356,40.0836393 180.710025,39.8559124 C184.284333,39.6441664 184.855119,38.3337382 184.855119,38.3337382 L186.350975,31.4659757 L174.651811,24.921825" id="Path" fill="#FBAD83"></path>
                <path d="M185.08405,37.3676562 C183.631752,36.8069934 182.276553,36.0444875 181.063461,35.1054633 C179.243591,33.7765231 177.884297,31.9665592 177.158774,29.90619 L185.112026,31.3313715 L186.350975,31.9836371 L185.104033,37.3827374" id="Path" fill="#E68D5C"></path>
                <rect id="Rectangle" fill="#1A2249" x="188.022284" y="18.0813511" width="6.68523677" height="1"></rect>
                <path d="M192.80808,8.94302135 C192.80808,8.94302135 193.871866,11.756199 193.871866,14.2157427 C193.871866,16.2024501 193.12796,19.93746 193.12796,19.93746 L188.857939,8.30727499 L192.80808,8.94302135 Z" id="Path" fill="#1A2249"></path>
                <path d="M192.272082,30.8836505 C188.68643,38.2540649 179.787529,33.896713 175.976538,30.1806025 C172.165548,26.4644921 172.695291,12.2644694 173.750825,9.57202762 C174.806359,6.87958587 183.61038,4.70090991 188.271332,6.4353523 C192.932284,8.16979468 195.857734,23.5093731 192.272082,30.8836505" id="Path" fill="#FBAD83"></path>
                <path d="M193.867836,25.7525525 C193.684089,27.5342824 193.201,29.2763791 192.437012,30.9123398 C191.018281,33.7511818 188.781359,34.8406834 186.350975,34.8905549 C188.769268,34.8406834 191.022311,33.739673 192.441043,30.9085035 C193.205058,29.2752376 193.688166,27.5356597 193.871866,25.7563887 L193.871866,25.7563887" id="Path" fill="#DCDDE3"></path>
                <path d="M177.725711,19.9451678 L173.816156,19.9451678 C174.054731,24.1536161 174.862809,28.4006034 176.655971,30.1926625 C178.891651,32.4279189 182.920494,34.8905549 186.537602,34.8905549 L186.69537,34.8905549 C189.004162,34.8404544 191.151339,33.7343878 192.505831,30.8940705 C193.235225,29.250597 193.696439,27.5005001 193.871866,25.7105879 C193.236948,25.2673905 192.628966,25.0785498 191.312955,25.0785498 C191.074379,25.0785498 190.816564,25.0785498 190.543357,25.0785498 C187.430335,25.213436 184.967623,27.464108 183.116742,27.464108 C182.93083,27.4651749 182.745662,27.4405344 182.566479,27.3908841 C180.342343,26.7395766 177.756495,19.93746 177.756495,19.93746" id="Path" fill="#D8987A"></path>
                <path d="M174.84765,20.6155083 C176.139671,20.5001156 177.328318,19.8797311 178.141713,18.8962536 C178.955108,17.9127761 179.323668,16.6503392 179.163094,15.3976968 C178.959092,13.8174671 178.48047,13.3136258 178.904168,11.8173697 C179.743718,8.8363084 183.415768,9.11494793 185.895187,10.2256891 C188.374606,11.3364302 191.07372,11.3364302 193.207904,9.76765149 C194.779183,8.57494228 195.171895,6.42076739 194.11807,4.77504182 C192.737128,2.60318027 187.84106,0 187.84106,0 C187.84106,0 188.433453,1.30159014 188.233373,1.97719557 C188.033294,2.65280101 174.98496,-1.14127698 172.305461,4.48876833 C169.625963,10.1188136 173.199935,20.7681875 173.199935,20.7681875 L174.84765,20.6155083 Z" id="Path" fill="#1A2249"></path>
                <path d="M172.144847,20.2747719 C172.144847,22.2959045 174.772338,24.0910975 176.387401,24.0910975 C178.002464,24.0910975 177.994429,22.2959045 177.994429,20.2747719 C177.994429,18.2536392 176.676666,16.61455 175.069638,16.61455 C173.46261,16.61455 172.144847,18.2536392 172.144847,20.2747719 Z" id="Path" fill="#FBAD83"></path>
                <path d="M173.836727,20.4120438 C173.670955,21.2668387 174.542139,22.2692799 175.191118,22.4169263 C175.840098,22.5645727 174.464544,21.3950579 174.640897,20.540263 C174.81725,19.6854682 175.928274,19.2774979 175.293403,19.1298515 C174.658532,18.9822051 174.002499,19.5572489 173.836727,20.4120438 Z" id="Path" fill="#E68D5C"></path>
                <path d="M192.202413,22.4296425 C190.818109,22.4296425 189.693593,20.9388131 189.693593,19.1086389 C189.693593,17.2784647 190.806975,15.7838225 192.202413,15.7838225 C193.597851,15.7838225 194.707521,17.2746519 194.707521,19.1086389 C194.707521,20.9426259 193.583006,22.4296425 192.202413,22.4296425 Z M192.202413,16.1651088 C191.022228,16.1651088 190.06472,17.4843593 190.06472,19.1086389 C190.06472,20.7329185 191.022228,22.0483562 192.202413,22.0483562 C193.382597,22.0483562 194.336394,20.7291056 194.336394,19.1086389 C194.336394,17.4881722 193.378886,16.1651088 192.202413,16.1651088 Z" id="Shape" fill="#1A2249" fill-rule="nonzero"></path>
                <path d="M186.352831,22.4296425 C184.968526,22.4296425 183.844011,20.9388131 183.844011,19.1086389 C183.844011,17.2784647 184.957393,15.7838225 186.352831,15.7838225 C187.748269,15.7838225 188.857939,17.2746519 188.857939,19.1086389 C188.857939,20.9426259 187.714867,22.4296425 186.352831,22.4296425 Z M186.352831,16.1651088 C185.176358,16.1651088 184.215138,17.4843593 184.215138,19.1086389 C184.215138,20.7329185 185.176358,22.0483562 186.352831,22.0483562 C187.529304,22.0483562 188.486812,20.7291056 188.486812,19.1086389 C188.486812,17.4881722 187.510747,16.1651088 186.352831,16.1651088 Z" id="Shape" fill="#1A2249" fill-rule="nonzero"></path>
                <rect id="Rectangle" fill="#1A2249" x="177.994429" y="18.0813511" width="5.84958217" height="1"></rect>
                <rect id="Rectangle" fill="#1A2249" x="188.857939" y="18.0813511" width="1" height="1"></rect>
                <path d="M191.364903,27.4140075 L185.51532,27.4140075 C185.51532,27.4140075 186.700381,29.8360407 188.672959,29.9048279 C190.645536,29.9736151 191.364903,27.4140075 191.364903,27.4140075 Z" id="Path" fill="#FFFFFF"></path>
                <path d="M193.868153,27.4140075 L184.679666,27.4140075 C184.679666,27.4140075 184.819297,25.4123781 186.405659,24.6303651 C187.99202,23.848352 189.706377,24.8289072 190.249386,24.7964922 C190.792395,24.7640771 192.270155,23.7592106 193.119577,24.2049175 C193.968998,24.6506245 193.868153,27.4140075 193.868153,27.4140075 Z" id="Path" fill="#1A2249"></path>
                <path d="M106.963788,41.5363749 C106.963788,41.5363749 109.779942,46.6798478 113.474923,46.5169508 C117.169903,46.3540538 116.990232,42.0006314 116.990232,42.0006314 L106.963788,41.5363749 Z" id="Path" fill="#FFFFFF"></path>
                <polygon id="Path" fill="#1A2249" points="114.48468 37.2142509 126.183844 39.0441924 126.183844 20.7681875"></polygon>
                <path d="M107.401512,28.244735 L106.963788,42.1745918 C108.761941,43.4867379 110.988809,44.1388067 113.243136,44.0133023 C115.980899,43.8374589 117.194588,42.6103777 117.194588,42.6103777 L118.662953,35.1370324 L107.401512,28.244735 Z" id="Path" fill="#FBAD83"></path>
                <path d="M106.963788,29.8854947 C107.06446,30.1406009 107.182477,30.3879737 107.316948,30.625747 C109.174877,33.8335066 112.921445,38.5456498 116.863785,39.8749199 L117.827298,34.5777387 L106.963788,27.4140075 L106.963788,29.8854947 Z" id="Path" fill="#E68D5C"></path>
                <path d="M126.973134,33.4981136 C123.111732,41.6395406 113.377139,35.0908334 109.268608,30.9853275 C105.160077,26.8798216 105.874436,12.9396574 107.009688,9.97070396 C108.144941,7.00175052 117.636265,4.58947586 122.644503,6.49146165 C127.652741,8.39344745 130.838397,25.3605524 126.973134,33.4981136 Z" id="Path" fill="#FBAD83"></path>
                <path d="M112.13801,40.7056474 L102.280989,37.3512844 C102.280989,37.3512844 100.834514,14.581446 103.987984,8.87239031 C107.141453,3.16333463 115.478121,1.24599787 120.859628,3.28048351 C128.690808,6.24044535 128.578045,16.686221 128.690808,17.6077922 C126.874276,17.2739782 125.013702,17.2607638 123.192651,17.5687426 C121.172192,17.9406793 119.107095,18.0012507 117.068465,17.7483709 L113.226754,17.2836803 L112.13801,40.7056474 Z" id="Path" fill="#1A2249"></path>
                <path d="M107.799443,26.1063072 C107.799443,27.6962163 109.681096,29.0754625 110.832983,29.0754625 C111.98487,29.0754625 111.977716,27.6803172 111.977716,26.1063072 C111.977716,24.5322972 111.044043,23.26037 109.888579,23.26037 C108.733115,23.26037 107.799443,24.536272 107.799443,26.1063072 Z" id="Path" fill="#FBAD83"></path>
                <path d="M113.649025,29.4908262 C113.649025,30.6378215 112.713687,31.567645 111.559889,31.567645 C110.40609,31.567645 109.470752,30.6378215 109.470752,29.4908262 C109.470752,28.3438309 110.40609,27.4140075 111.559889,27.4140075 C112.713687,27.4140075 113.649025,28.3438309 113.649025,29.4908262 L113.649025,29.4908262 Z" id="Path" fill="#FFFFFF"></path>
                <path d="M127.857032,28.244735 C126.011922,28.244735 124.512535,26.4651387 124.512535,24.2780298 L124.512535,24.0910975 L124.700428,24.0910975 L131.197772,24.0910975 L131.197772,24.2780298 C131.197772,26.4539228 129.698385,28.244735 127.857032,28.244735 Z M124.892079,24.4500076 C124.963478,26.3492406 126.267456,27.8708702 127.857032,27.8708702 C129.446608,27.8708702 130.746828,26.3492406 130.818228,24.4500076 L124.892079,24.4500076 Z" id="Shape" fill="#1A2249" fill-rule="nonzero"></path>
                <path d="M119.509843,28.244735 C117.658275,28.244735 116.155989,26.4587454 116.155989,24.2775264 L116.155989,24.0910975 L116.343775,24.0910975 L122.841226,24.0910975 L122.841226,24.2775264 C122.85243,26.4587454 121.353899,28.244735 119.509843,28.244735 Z M116.53156,24.4490411 C116.606675,26.3431594 117.906152,27.8606913 119.49482,27.8606913 C121.083488,27.8606913 122.382965,26.3431594 122.45808,24.4490411 L116.53156,24.4490411 Z" id="Shape" fill="#1A2249" fill-rule="nonzero"></path>
                <rect id="Rectangle" fill="#1A2249" x="111.142061" y="23.8964436" width="13.3704735" height="1"></rect>
                <path d="M195.896913,85.5649324 C195.896913,85.5649324 198.631951,86.1367919 199.419611,88.1147993 C200.20727,90.0928067 199.3167,92.9011855 198.315304,93.9900688 C197.313908,95.0789521 194.479917,94.6637664 193.636845,94.4052545 C192.793772,94.1467427 195.528811,91.4754535 194.84802,90.6254978 C194.167229,89.7755422 193.533934,89.7755422 193.533934,89.7755422 L192.014029,89.7755422 L191.364903,88.3302259 L195.896913,85.5649324 Z" id="Path" fill="#FBAD83"></path>
                <path d="M168.863601,47.5924571 C167.349148,44.2248568 162.327126,43.8476545 160.659657,47.1413698 C160.62827,47.1997 159.200132,49.2762572 159.168745,49.3345875 C156.155531,55.3776023 171.398153,73.798298 171.398153,73.798298 L191.976673,89.7185699 C191.976673,89.7185699 195.025197,88.3614192 195.962903,87.2259235 C196.414391,86.7013787 196.832398,86.1494082 197.214485,85.5732328 L178.126878,69.664627 L168.863601,47.5924571 Z" id="Path" fill="#60D6E6"></path>
                <path d="M148.903047,93.8722074 C148.903047,93.8722074 147.644176,97.9043809 152.266533,105.006284 C156.888891,112.108188 195.528056,115.965724 195.528056,115.965724 L189.510417,147.672036 L196.46344,149.53095 C196.46344,149.53095 208.861179,120.29284 208.03882,112.02669 C207.438615,106.046345 190.527647,100.21347 181.228369,97.4348015 C177.567112,96.3495991 173.798249,95.6638416 169.988168,95.3896086 L148.903047,93.8722074 Z" id="Path" fill="#303D72"></path>
                <path d="M190.944137,147.038767 L189.693593,152.766105 L193.505857,158.613429 L200.376269,161.161135 C200.861145,159.651654 200.347726,157.985357 199.114357,157.065608 L196.677691,155.265816 L196.298739,148.734571 L190.944137,147.038767 Z" id="Path" fill="#303D72"></path>
                <path d="M180.660264,171.129865 C180.283567,171.129865 179.939202,170.92057 179.770738,170.589238 C179.602274,170.257906 179.63863,169.861412 179.864648,169.565059 L189.471708,157.007497 L197.380128,159.894563 C197.720687,160.010178 197.971031,160.297878 198.034542,160.646628 C198.098052,160.995377 197.964796,161.350633 197.686202,161.575287 C197.407608,161.799941 197.027249,161.858857 196.69192,161.729297 L190.171849,159.350793 L181.455879,170.738663 C181.26806,170.98493 180.973296,171.129865 180.660264,171.129865 Z" id="Path" fill="#A9C2DC"></path>
                <path d="M83.7976441,91.3800249 C77.4076107,91.4615275 72.984041,91.9621868 72.984041,91.9621868 C72.984041,91.9621868 72.8516454,92.0087598 72.7075679,95.9596991 C72.4895046,101.944324 78.6264288,106.392042 89.9112043,108.103598 C93.3651712,108.627544 97.3097804,109.170895 101.114206,109.65603 L83.7976441,91.3800249 Z" id="Path" fill="#27345E"></path>
                <path d="M165.60707,99.1091553 L178.830084,96.8327256 C175.886133,96.0940139 172.883485,95.6116673 169.855941,95.3911155 L148.902073,93.8722074 C148.902073,93.8722074 147.651038,97.887845 152.244622,104.960623 C152.953412,106.050527 154.46395,107.063132 156.505112,107.994575 L165.60707,99.1091553 Z" id="Path" fill="#27345E"></path>
            </g>
        </g>
    </g>
</svg>