<?xml version="1.0" encoding="UTF-8"?>
<svg width="328px" height="210px" viewBox="0 0 328 210" version="1.1" xmlns="http://www.w3.org/2000/svg" xmlns:xlink="http://www.w3.org/1999/xlink">
    <title>编组 2</title>
    <g id="页面-1" stroke="none" stroke-width="1" fill="none" fill-rule="evenodd">
        <g id="画图红包_开始" transform="translate(-24.000000, -322.000000)">
            <rect fill="#F9F9F9" x="0" y="0" width="375" height="812"></rect>
            <rect id="矩形" fill="#FFFFFF" x="-1" y="0" width="375" height="812"></rect>
            <g id="编组-2" transform="translate(24.000000, 322.000000)">
                <path d="M273.007014,141.34166 C273.007014,141.34166 273.493302,126.395793 273.007014,104.372432 C272.520726,82.3490718 297.416845,62.2894348 318,72.3192533 C318,72.3192533 304.792968,72.4810246 295.398978,80.556107 C286.004988,88.6311893 280.669456,93.3674925 279.905938,107.194442 C279.142421,121.021392 276.338313,141.346154 276.338313,141.346154 L273.007014,141.34166 Z" id="Path" fill="#00B98F"></path>
                <path d="M263.987931,141.300781 C263.987931,141.300781 262.341203,97.1715302 256.983603,79.970832 C251.626002,62.7701337 258.818397,24.2307692 258.818397,24.2307692 C258.818397,24.2307692 259.075268,53.9996379 263.432905,68.6504041 C267.790543,83.3011703 275.244396,102.226022 273.82243,119.390422 C272.400464,136.554822 268.721701,141.346154 268.721701,141.346154 L263.987931,141.300781 Z" id="Path" fill="#00B98F"></path>
                <path d="M269.351714,84.3229111 L259,80.7692308 C259.047073,80.9335885 259.089866,81.0979462 259.136939,81.2578618 C264.135203,98.0978644 265.667206,141.301733 265.667206,141.301733 L270.074922,141.346154 C270.074922,141.346154 273.49839,136.646412 274.833543,119.85083 C275.75788,108.185874 272.681037,95.6813618 269.351714,84.3229111 Z" id="Path" fill="#068E6A"></path>
                <path d="M264.08761,142.355769 C264.08761,142.355769 270.784072,120.163353 259.115334,84.8183516 C247.446595,49.4733498 233,41.3942308 233,41.3942308 C233,41.3942308 246.005419,71.1854102 251.447927,94.4620565 C256.890436,117.738703 256.955746,142.342045 256.955746,142.342045 L264.08761,142.355769 Z" id="Path" fill="#00C99C"></path>
                <path d="M281.699868,83.7980769 C276.841946,89.7840297 273.838867,97.2962461 274.006686,105.055488 C274.470397,126.670203 274.006686,141.346154 274.006686,141.346154 L277.239412,141.346154 C277.239412,141.346154 279.964265,121.394448 280.706202,107.821289 C281.240574,98.0682002 284.062585,92.920369 289,87.85635 L281.699868,83.7980769 Z" id="Path" fill="#068E6A"></path>
                <path d="M268.66365,141.346154 C268.66365,141.346154 272.253105,120.265787 268.291869,90.4297941 C264.330632,60.5938011 302,34.3269231 302,34.3269231 C302,34.3269231 282.233651,57.986992 278.639769,77.1743726 C275.045888,96.3617533 277.909485,120.094108 275.643393,132.012241 C274.249214,139.353775 274.129713,141.346154 274.129713,141.346154 L268.66365,141.346154 Z" id="Path" fill="#00C99C"></path>
                <path d="M278.435565,142.346771 C278.435565,142.346771 280.416464,129.223416 280.169952,109.774576 C279.92344,90.3257359 292.015727,74.0351391 280.169952,45.2285413 C268.324177,16.4219435 260,17.1822613 260,17.1822613 C260,17.1822613 274.020362,15.9225632 283.858826,34.0262255 C293.69729,52.1298877 295.744219,75.4163082 289.268881,97.7714518 C282.793543,120.126595 283.185321,142.355769 283.185321,142.355769 L278.435565,142.346771 Z" id="Path" fill="#00C99C"></path>
                <path d="M266.079911,141.346154 C266.079911,141.346154 271.40033,123.807212 264.328333,95.0755368 L253,91.875 C253.131368,92.4099469 253.262737,92.9448937 253.385347,93.4752684 C258.859029,116.752315 258.924714,141.327865 258.924714,141.327865 L266.079911,141.346154 Z" id="Path" fill="#00B98F"></path>
                <path d="M268.697368,101.71726 C270.789474,125.980591 268,142.355769 268,142.355769 L273.412281,142.355769 C273.412281,142.355769 273.535088,140.384848 274.916667,133.122385 C276.368421,125.493447 275.692982,112.979665 276,99.9519231 L268.697368,101.71726 Z" id="Path" fill="#00B98F"></path>
                <path d="M278.75,109.038462 C278.8725,127.793693 277,140.336538 277,140.336538 L281.725,140.336538 C281.751622,131.044625 282.512506,121.770635 284,112.607859 L278.75,109.038462 Z" id="Path" fill="#00B98F"></path>
                <path d="M256.756416,140.336538 C250.25484,147.993696 246,160.799166 246,175.275698 C246,188.427992 249.511932,200.183981 255.027465,207.980769 L286.972535,207.980769 C292.488068,200.183981 296,188.427992 296,175.275698 C296,160.799166 291.74516,148.011713 285.243584,140.336538 L256.756416,140.336538 Z" id="Path" fill="#FF9398"></path>
                <path d="M275,140.336538 L255.839383,140.336538 C249.287659,147.993696 245,160.799166 245,175.275698 C245,188.427992 248.53902,200.183981 254.097096,207.980769 L275,207.980769 L275,140.336538 Z" id="Path" fill="#F4828B"></path>
                <path d="M34.633044,164.567308 L39.6704579,164.567308 C44.8212689,164.567308 48.9975213,168.737907 49,173.884222 L49,197.658726 C48.9950465,202.801538 44.8222537,206.968681 39.6749476,206.971154 L34,206.971154 L34,203.831125 L39.6704579,203.831125 C43.0788607,203.836089 45.8473238,201.082086 45.8572284,197.676669 L45.8572284,173.902165 C45.8572284,170.493243 43.0913371,167.729765 39.6794373,167.729765 L34.633044,167.729765 L34.633044,164.567308 Z" id="Path" fill="#19192B"></path>
                <rect id="Rectangle" fill="#19192B" x="14" y="155.480769" width="11" height="11.1057692" rx="5.5"></rect>
                <rect id="Rectangle" fill="#E57A87" x="12" y="155.480769" width="11" height="11.1057692" rx="5.5"></rect>
                <rect id="Rectangle" fill="#303D72" x="8" y="159.519231" width="33" height="49.4711538" rx="12"></rect>
                <rect id="Rectangle" fill="#FF9398" x="1" y="159.519231" width="33" height="49.4711538" rx="12"></rect>
                <path d="M1,186.778846 L1,203.928887 C1,206.724275 3.43336864,208.990385 6.43508098,208.990385 L28.564919,208.990385 C31.5666314,208.990385 34,206.724275 34,203.928887 L34,192.329622 L1,186.778846 Z" id="Path" fill="#F4828B"></path>
                <path d="M9.53940845,206.971154 L25.4605916,206.971154 C28.5199224,206.971154 31,204.569581 31,201.60709 L31,177.692308 L9.53940845,177.692308 C6.48007764,177.692308 4,180.093881 4,183.056371 L4,201.60709 C4,204.569581 6.48007764,206.971154 9.53940845,206.971154 L9.53940845,206.971154 Z" id="Path" fill="#19192B"></path>
                <path d="M7.53940845,206.971154 L23.4605916,206.971154 C26.5199224,206.971154 29,204.569581 29,201.60709 L29,177.692308 L2,177.692308 L2,201.60709 C2,204.569581 4.48007764,206.971154 7.53940845,206.971154 Z" id="Path" fill="#F9C200"></path>
                <rect id="Rectangle" fill="#19192B" x="4" y="163.557692" width="27" height="11.1057692" rx="5.55288462"></rect>
                <rect id="Rectangle" fill="#F9C200" x="2" y="163.557692" width="27" height="11.1057692" rx="5.55288462"></rect>
                <path d="M7.53940845,205.961538 L23.4605916,205.961538 C26.5199224,205.961538 29,203.56913 29,200.617945 L29,188.44791 L2,183.75 L2,200.617945 C2,203.56913 4.48007764,205.961538 7.53940845,205.961538 Z" id="Path" fill="#EDB607"></path>
                <path d="M243.002597,152.451923 C237.48686,152.437117 233.01972,148.571865 233.002608,143.799299 L233.002608,8.84982314 C232.919947,5.71233296 234.807153,2.78207327 237.934354,1.19231712 C241.061554,-0.397439039 244.938446,-0.397439039 248.065646,1.19231712 C251.192847,2.78207327 253.080053,5.71233296 252.997392,8.84982314 L252.997392,143.799299 C252.983131,148.571138 248.517487,152.437104 243.002597,152.451923 Z" id="Path" fill="#303D72"></path>
                <rect id="Rectangle" fill="#F1E9FF" x="38" y="1.13686838e-13" width="214" height="152.451923" rx="8"></rect>
                <polygon id="Path" fill="#6A1AF6" points="88.6059028 112.067308 93.3888889 142.357669 105 171.647107 98.5582837 174.663462 88.624752 154.323448 86 115.33729"></polygon>
                <path d="M48,9.59132779 C48,10.20416 47.6341654,10.7565829 47.0732421,10.9907794 C46.5123188,11.2249758 45.8668844,11.0947751 45.4381649,10.6609424 C45.0094453,10.2271096 44.8819604,9.57517253 45.1152077,9.00939195 C45.3484549,8.44361137 45.8964509,8.07552789 46.5034444,8.07692308 C46.9009486,8.07692308 47.2821223,8.23658874 47.5628789,8.52069379 C47.8436354,8.80479885 48.0009057,9.19000201 48,9.59132779 Z" id="Path" fill="#8294FF"></path>
                <path d="M103.127199,198.894231 L102,208.990385 L116,208.990385 C115.993885,207.30192 114.876885,205.84519 113.314614,205.48825 L107.801759,204.227482 L108.512179,198.90924 L103.127199,198.894231 Z" id="Path" fill="#19192B"></path>
                <path d="M90.6228304,163.603613 C90.6228304,163.603613 114.033521,162.815456 116.622203,167.769588 C119.210885,172.723721 117.522614,177.790447 116.622203,181.168265 C115.721792,184.546082 111.332287,201.322576 111.332287,201.322576 C111.332287,201.322576 106.380026,202.673703 103.341138,201.322576 L106.58712,177.186944 C106.58712,177.186944 90.6363366,182.631986 79.3181683,181.168265 L68,179.704544 L77.6163912,164.166583 L90.6228304,163.603613 Z" id="Path" fill="#19192B"></path>
                <path d="M79.483278,181.730769 C79.483278,181.730769 81.4363033,177.752103 87.0288486,173.382469 C92.6213939,169.012835 94,163.557692 94,163.557692 L81.2065356,163.557692 L76,163.557692 L79.483278,181.730769 Z" id="Path" fill="#303D72"></path>
                <path d="M76.8966348,163.909981 C76.8966348,163.909981 85.0254589,205.539359 69.3225572,209.181648 C53.6196555,212.823936 29.0273904,203.127695 29.0273904,203.127695 C29.0273904,203.127695 28.6918583,197.943744 30.3695187,195.915242 L63.2516633,197.970791 C63.2516633,197.970791 57.525249,171.96539 57.543144,163.77024 C57.5610391,155.57509 58.7779021,159.402198 58.7779021,159.402198 L76.8966348,163.909981 Z" id="Path" fill="#303D72"></path>
                <path d="M55,9.59134615 C55,10.4277389 54.3284271,11.1057692 53.5,11.1057692 C52.6715729,11.1057692 52,10.4277389 52,9.59134615 C52,8.75495338 52.6715729,8.07692308 53.5,8.07692308 C54.3284271,8.07692308 55,8.75495338 55,9.59134615 L55,9.59134615 Z" id="Path" fill="#8294FF"></path>
                <path d="M62,9.59134615 C62,10.4277389 61.3284271,11.1057692 60.5,11.1057692 C59.6715729,11.1057692 59,10.4277389 59,9.59134615 C59,8.75495338 59.6715729,8.07692308 60.5,8.07692308 C61.3284271,8.07692308 62,8.75495338 62,9.59134615 L62,9.59134615 Z" id="Path" fill="#8294FF"></path>
                <path d="M58.3228322,158.509615 C58.1403618,159.18936 58.0046787,160.594469 58,163.272389 C58,171.566185 63.9700561,197.884615 63.9700561,197.884615 L65.0461634,177.355418 L73,163.847207 L58.3228322,158.509615 Z" id="Path" fill="#27345E"></path>
                <path d="M129.305692,136.298077 C116.52436,133.208607 105.127676,125.929096 96.9106992,115.606121 C88.5055141,105.109403 83.9468394,92.0221577 84,78.5428553 C84,45.8093048 110.469822,19.1826923 143,19.1826923 L143,20.5428121 C111.177509,20.5802867 85.3895714,46.5258513 85.3523245,78.5428553 C85.3032439,91.7136728 89.758204,104.500723 97.9696536,114.758313 C106.000447,124.841424 117.134608,131.952855 129.621125,134.974227 L129.305692,136.298077 Z" id="Path" fill="#FE6B88"></path>
                <path d="M143,136.298077 L143,134.934843 C171.971329,134.847707 196.382527,113.099634 200.041441,84.1163043 C203.700355,55.1329742 185.471339,27.9101798 157.445851,20.5050287 L157.783792,19.1826923 C183.826794,25.9706491 202.015144,49.6705134 202,76.7974815 C202,109.605966 175.532452,136.298077 143,136.298077 Z" id="Path" fill="#8294FF"></path>
                <path d="M78.5169382,108.132027 L89.0677528,112.618156 L92,163.463942 C92,163.463942 74.7054564,175.423962 58,162.862801 L58.3692785,115.933405 C58.3920002,113.190235 60.1810899,110.789441 62.7654513,110.034146 L69.6102922,108.028846 L78.5169382,108.132027 Z" id="Path" fill="#975BFF"></path>
                <path d="M64.7825,123.7591 L57.3529167,118.125 L57,162.456353 C60.2727935,164.908272 64.0178161,166.658151 68,167.596154 L64.7825,123.7591 Z" id="Path" fill="#782EF8"></path>
                <path d="M69,94.9038462 L69,108.335002 C69,108.335002 71.0713672,110.25669 74.7128117,110.029394 C78.0799656,109.812429 78.6143594,108.479645 78.6143594,108.479645 L80,101.526439 L69,94.9038462 Z" id="Path" fill="#FBAD83"></path>
                <path d="M78.8108108,105.93425 C76.9441737,106.299716 74.785113,105.276411 73.1767833,104.149915 C70.2038104,102.064609 69,97.9326923 69,97.9326923 L78.8303057,100.555449 L80,101.122996 L78.8108108,105.93425 Z" id="Path" fill="#E68D5C"></path>
                <path d="M85.7832418,80.8122492 C85.7832418,80.8122492 87.0861161,81.4303094 86.9954814,85.4090719 C86.8832935,87.2416287 86.6840327,89.0637641 86.3988027,90.8653846 L83,79.7596154 L85.7832418,80.8122492 Z" id="Path" fill="#1A2249"></path>
                <path d="M86.5461888,101.233376 C83.2816601,108.164165 75.1891134,104.061138 71.7228441,100.577262 C68.2565748,97.0933854 68.7334161,83.7631684 69.7191938,81.263464 C70.7049714,78.7637595 78.6874778,76.6891434 82.9148591,78.320189 C87.1422404,79.9512347 89.8061326,94.3164494 86.5461888,101.233376 Z" id="Path" fill="#FBAD83"></path>
                <path d="M73.5110024,89.8557692 C73.5110024,89.8557692 74.4889976,97.4228756 76.6894866,98.0256867 C78.5867971,98.5462963 81.2224939,96.0163163 84.6405868,95.8793137 C86.5378973,95.8062457 87.2273839,95.9752155 88,96.4638579 C87.823504,98.1255591 87.3646131,99.7503814 86.6405868,101.277213 C83.1589242,108.12734 74.5281174,104.072065 70.8312958,100.628735 C69.0366748,98.9573039 68.2347188,95.0116311 68,91.1024922 L73.5110024,89.8557692 Z" id="Path" fill="#1A2249"></path>
                <path d="M72.3961804,92.7877689 C72.3961804,92.7877689 73.4416778,92.8906349 73.8685093,92.2827907 C74.2953408,91.6749466 73.0676007,88.2523167 74.3049325,84.6192792 C75.1921666,82.0289282 79.211097,80.5280208 82.496261,81.1545678 C85.7814249,81.7811148 86.6111086,82.066334 86.9468188,81.1545678 C87.282529,80.2428016 85.9636676,78.0358599 84.8222529,77.1661753 C83.6808383,76.2964906 78.3382506,74.7675289 73.878101,76.5396283 C69.4179515,78.3117276 68.5307174,79.4946858 67.5331786,82.3094716 C66.5356397,85.1242574 67.178285,92.1799248 67.5331786,92.63347 C67.8880722,93.0870153 72.3961804,92.7877689 72.3961804,92.7877689 Z" id="Path" fill="#1A2249"></path>
                <path d="M68,91.2984806 C68,93.2074945 70.249999,94.9038462 71.6315773,94.9038462 C73.0131556,94.9038462 73,93.2074945 73,91.2984806 C73,89.3894668 71.8815771,87.8365385 70.5,87.8365385 C69.1184205,87.8365385 68,89.3894668 68,91.2984806 Z" id="Path" fill="#FBAD83"></path>
                <path d="M88,95.9134615 C88,95.9134615 88,104.070937 87.0289933,105.542252 C86.0579866,107.013567 82.8577672,107.342026 81.4080952,106.721104 C79.9584232,106.100182 77.6152426,103.895459 77.0271681,102.019195 C76.4390936,100.14293 85.5929974,97.4747654 85.5929974,97.4747654 L88,95.9134615 Z" id="Path" fill="#1A2249"></path>
                <path d="M68.0352698,91.0589036 C67.741124,91.844865 69.3507549,92.7625771 70.4864843,92.8761554 C71.6222137,92.9897336 69.1628284,91.9357276 69.4651449,91.1543093 C69.7674614,90.372891 71.8019694,89.9958112 70.6498986,89.8595174 C69.3415444,89.8058521 68.1891438,90.3344829 68.0352698,91.0589036 L68.0352698,91.0589036 Z" id="Path" fill="#E68D5C"></path>
                <path d="M87,98.2691321 C87,98.2691321 84.000997,98.3812787 83.4985045,98.1569855 L83,97.9326923 C83.0234131,99.1795755 83.576829,100.284865 84.4037886,100.736357 C84.8377481,101.018836 85.3354906,101.036281 85.7789206,100.784552 C86.2223506,100.532824 86.5719477,100.034357 86.7447657,99.40742 C86.9282154,98.6504305 87,98.2691321 87,98.2691321 Z" id="Path" fill="#FFFFFF"></path>
                <path d="M87.6328486,87.823333 C87.5986432,87.8288394 87.5639275,87.8288394 87.5297221,87.823333 C86.8533143,87.6031015 86.1362339,87.6031015 85.4598261,87.823333 C85.2747599,87.877339 85.0841476,87.7612684 85.0208639,87.5560332 C84.9575801,87.3507979 85.0426371,87.1245428 85.2167422,87.034989 C86.037557,86.7575678 86.9114772,86.7575678 87.732292,87.034989 C87.9271935,87.0980579 88.0407472,87.3285219 87.9864251,87.5507672 C87.9315681,87.7180736 87.789661,87.8274672 87.6328486,87.823333 L87.6328486,87.823333 Z" id="Path" fill="#1A2249"></path>
                <path d="M78.3828284,88.8459922 C78.2901145,88.8446618 78.2008668,88.8018802 78.1313329,88.7254361 C77.9726046,88.5513703 77.955375,88.2507385 78.0926413,88.0503222 C78.1468096,87.9731664 79.4352401,86.1696478 81.7064375,87.0858738 C81.8465896,87.1293077 81.9556672,87.2664085 81.9893304,87.441445 C82.0229936,87.6164815 81.9756383,87.8003148 81.8665145,87.918217 C81.7573906,88.0361191 81.6046643,88.0684626 81.4704187,88.0020998 C79.6944739,87.2980525 78.7155762,88.6386358 78.6730154,88.6965027 C78.5975864,88.7952097 78.4921622,88.8495188 78.3828284,88.8459922 L78.3828284,88.8459922 Z" id="Path" fill="#1A2249"></path>
                <polygon id="Path" fill="#FE6B88" points="128.30349 127.087123 130 134.278846 124.21083 129.08158 111 102.960487 115.092659 100.961538"></polygon>
                <path d="M119.496688,130.030467 C119.496688,130.030467 124.38953,128.030381 127.378329,129.363771 C130.367128,130.697162 131.360343,130.324732 131.859239,129.469523 C132.358135,128.614314 131.525116,126.113057 129.451723,124.112971 C127.378329,122.112885 121.97286,124.112971 121.97286,124.112971 L121.007107,122.163462 C120.321408,122.611409 119.793075,123.264383 119.496688,124.030208 C119.16163,124.856108 118.650796,125.59839 118,126.205015 L119.496688,130.030467 Z" id="Path" fill="#FBAD83"></path>
                <path d="M57.7778339,111.72201 C56.6127131,115.022706 56.7611431,118.649715 58.1920026,121.842565 C60.622399,127.03812 84.3938606,140.336538 84.3938606,140.336538 L121,129.762003 C121,129.762003 119.78025,125.286397 119.097555,123.342076 L86.3281649,129.564819 C86.3281649,129.564819 67.8862804,112.735441 61.8967641,110.30504 C59.3434825,109.264095 57.7778339,111.72201 57.7778339,111.72201 Z" id="Path" fill="#975BFF"></path>
                <polygon id="Path" fill="#E68D5C" points="235 154.299173 233.020293 203.942308 226.535513 202.947985 223 152.451923"></polygon>
                <path d="M226.50885,197.884615 L234,198.603955 L233.159292,208.990385 L219,208.990385 C219,207.282577 219.953419,205.774951 221.349558,205.274661 L226.486726,203.4375 L226.50885,197.884615 Z" id="Path" fill="#1A2249"></path>
                <polygon id="Path" fill="#FBAD82" points="239.442332 154.471154 245 203.942308 238.27254 203.942308 227 154.471154"></polygon>
                <polygon id="Path" fill="#F7A379" points="240.372414 154.471154 242 168.605769 230.965517 167.782263 228 154.471154"></polygon>
                <path d="M240.491363,60.5769231 C240.491363,60.5769231 246.640012,61.3427885 253.912105,87.4493927 C255.469079,93.0433451 235.825103,120.144231 235.825103,120.144231 L235,113.784413 L246.08062,88.1794281 L238.155902,75.1910678 L240.491363,60.5769231 Z" id="Path" fill="#6A1AF6"></path>
                <path d="M219.725137,100.961538 L212,157.79575 C212,157.79575 229.750906,162.522475 242.375453,159.543866 L255,156.565258 L245.579427,101.529109 L219.725137,100.961538 Z" id="Path" fill="#303D72"></path>
                <polygon id="Path" fill="#27345E" points="242.557624 158.509615 255 155.591064 245.616135 101.082957 240 100.961538"></polygon>
                <path d="M229.717023,58.5576923 L218,62.4315259 L218.535004,74.3537761 L219.936625,104.509528 C219.989683,105.636217 229.314665,108.046702 234.156227,108.028846 C238.820929,108.006302 246.616065,106.529488 247.3014,105.9235 C247.726356,105.560803 247.980174,105.032395 248,104.469129 L246.134119,64.9991189 C246.006296,62.3123055 244.00697,60.1012948 241.380987,59.7427353 L237.63154,59.235501 L229.717023,58.5576923 Z" id="Path" fill="#975BFF"></path>
                <path d="M221.5,46.4423077 C219.570783,46.4423077 218,45.164344 218,43.5939649 L218,43.4134615 L218.263554,43.4134615 L225,43.4134615 L225,43.5939649 C225,45.1679541 223.429217,46.4423077 221.5,46.4423077 Z M218.548193,43.763638 C218.653614,45.0596521 219.94503,46.081301 221.510542,46.081301 C223.076054,46.081301 224.372741,45.056042 224.478163,43.763638 L218.548193,43.763638 Z" id="Shape" fill="#1A2249" fill-rule="nonzero"></path>
                <path d="M238,48.4615385 L236.375339,60.523543 C234.750692,61.4857567 232.771142,61.8125909 230.880307,61.4308017 C228.420958,61.0043901 227.46206,59.8249538 227.46206,59.8249538 L227,53.2382556 L238,48.4615385 Z" id="Path" fill="#FBAD83"></path>
                <path d="M237.721771,50.6941517 C237.599418,50.9142664 237.461618,51.1255376 237.309395,51.3263962 C235.207769,53.998617 231.163505,57.8167808 227.313008,58.5576923 L227,53.6775553 L238,48.4615385 L237.721771,50.6941517 Z" id="Path" fill="#E68D5C"></path>
                <path d="M220.516826,51.1672619 C223.944526,58.1947823 232.574651,52.5371489 236.21307,48.9982741 C239.85149,45.4593994 239.228697,33.4135262 238.221927,30.8472712 C237.215158,28.2810162 228.819165,26.198788 224.3566,27.8472187 C219.894034,29.4956494 217.11254,44.1397415 220.516826,51.1672619 Z" id="Path" fill="#FBAD83"></path>
                <path d="M225.288994,55.2404504 C228.433391,56.5206358 231.830535,56.8616876 235.134018,56.2288288 C237.077207,55.8450646 238.951588,55.1204605 240.685379,54.0827664 C242.392849,45.3886966 242.896761,35.7108242 239.34439,28.686931 C236.874805,23.7999486 230.348936,22.1526512 226.1344,23.896041 C220,26.4356245 220.09162,35.3813647 220,36.1729826 C221.422403,35.8843103 222.879859,35.8719204 224.306157,36.136376 L225.288994,55.2404504 Z" id="Path" fill="#1A2249"></path>
                <path d="M228,45.3911754 C228,46.4819375 226.651054,47.4519231 225.822015,47.4519231 C224.992975,47.4519231 225,46.4819375 225,45.3911754 C225,44.3004134 225.674474,43.4134615 226.5,43.4134615 C227.325527,43.4134615 228,44.3004134 228,45.3911754 Z" id="Path" fill="#FBAD83"></path>
                <ellipse id="Oval" fill="#FFFFFF" cx="224.5" cy="48.9663462" rx="1.5" ry="1.51442308"></ellipse>
                <rect id="Rectangle" fill="#1A2249" x="218" y="42.4038462" width="16" height="1.00961538"></rect>
                <path d="M245.926688,197.884615 L247,208.990385 L232,208.990385 C231.995437,207.390138 232.827213,205.951075 234.093858,205.367813 L239.249277,202.987266 L238.633442,198.919636 L245.926688,197.884615 Z" id="Path" fill="#303D72"></path>
                <path d="M218,74.7115385 L219.482694,104.594806 C219.529467,105.609004 227.672591,107.672987 233,108.028846 L218,74.7115385 Z" id="Path" fill="#782EF8"></path>
                <path d="M32,196.230731 L21.3932482,193.846154 L17,208.990385 L22.7618613,208.990385 C24.3501444,207.813203 24.8345583,205.729717 23.9160584,204.026129 L24.2399635,202.443637 L30.8594891,202.010078 L32,196.230731 Z" id="Path" fill="#303D72"></path>
                <path d="M183.915241,23.2211538 C183.915241,23.2211538 185.080744,21.3663748 184.995547,20.2434134 C184.910349,19.120452 184.313966,18.2204005 183.574451,18.1741361 C182.834936,18.1278718 182,19.6125362 182,19.6125362 L183.915241,23.2211538 Z" id="Path" fill="#FBAD83"></path>
                <polygon id="Path" fill="#8294FF" points="164.973213 22.2115385 158 20.9840545 164.787434 18.2685917 192.81422 17.1634615 193 21.1064083"></polygon>
                <path d="M186,25.366995 C186,25.366995 184.346749,19.5581411 182.549536,16.9021488 C180.752322,14.2461565 176.628483,15.2669971 175.351393,15.7186964 C174.074303,16.1703958 174,17.1234815 174,17.1234815 C174,17.1234815 176.916409,18.0901181 177.845201,20.0640444 C178.773994,22.0379706 178.834365,22.6613158 178.894737,23.2846609 C178.955108,23.908006 181.890093,27.2596154 181.890093,27.2596154 L186,25.366995 Z" id="Path" fill="#FBAD83"></path>
                <path d="M216.095411,61.7831449 L195.362484,51.2455835 L185.760377,24.2307692 C185.760377,24.2307692 181.595181,24.1502787 180,26.8508372 C180,26.8508372 187.718906,54.0179176 189.380553,57.9117462 C191.0422,61.8055748 214.885732,72.8007059 216.644863,73.5857519 C218.403993,74.370798 219.932709,70.9973429 219.999175,68.8665035 C220.065641,66.7356641 216.095411,61.7831449 216.095411,61.7831449 Z" id="Path" fill="#975BFF"></path>
                <polygon id="Path" fill="#19192B" points="289 170.625 283.58683 208.990385 282 208.990385 284.072261 170.625"></polygon>
                <polygon id="Path" fill="#19192B" points="287 170.625 281.89492 208.990385 280 208.990385 282.479471 170.625"></polygon>
                <polygon id="Path" fill="#19192B" points="260 170.625 254.58683 208.990385 253 208.990385 255.07634 170.625"></polygon>
                <polygon id="Path" fill="#A9C2DC" points="258 170.625 252.89624 208.990385 251 208.990385 253.476323 170.625"></polygon>
                <polygon id="Path" fill="#19192B" points="288 170.625 293.41317 208.990385 295 208.990385 292.92366 170.625"></polygon>
                <path d="M316.518727,130.240385 L291.105879,130.240385 C285.636025,130.242805 281.202441,134.637883 281.2,140.060232 C281.201174,142.664974 280.157899,145.163367 278.299932,147.005198 C276.441965,148.847029 273.921683,149.881243 271.294121,149.880079 L261.905879,149.880079 C256.435013,149.880079 252,154.276575 252,159.699926 L252,170.625 L325,170.625 L325,138.674313 C325,134.02664 321.207096,130.254886 316.518727,130.240385 Z" id="Path" fill="#60D6E6"></path>
                <polygon id="Path" fill="#A9C2DC" points="291 170.625 296.10376 208.990385 298 208.990385 295.523677 170.625"></polygon>
                <polygon id="Path" fill="#19192B" points="316 170.625 321.41317 208.990385 323 208.990385 320.92366 170.625"></polygon>
                <polygon id="Path" fill="#A9C2DC" points="317 170.625 322.10508 208.990385 324 208.990385 321.520529 170.625"></polygon>
                <polygon id="Path" fill="#0CBFD1" points="325 169.615385 325 147.403846 252 163.548853 252 169.615385"></polygon>
                <rect id="Rectangle" fill="#303D72" x="0" y="208.990385" width="328" height="1"></rect>
            </g>
        </g>
    </g>
</svg>