<?xml version="1.0" encoding="UTF-8"?>
<svg width="296px" height="210px" viewBox="0 0 296 210" version="1.1" xmlns="http://www.w3.org/2000/svg" xmlns:xlink="http://www.w3.org/1999/xlink">
    <title>teamwork_white_5</title>
    <g id="页面-1" stroke="none" stroke-width="1" fill="none" fill-rule="evenodd">
        <g id="表情红包_开始" transform="translate(-53.000000, -322.000000)">
            <rect fill="#F9F9F9" x="0" y="0" width="375" height="812"></rect>
            <rect id="矩形" fill="#FFFFFF" x="-1" y="0" width="375" height="812"></rect>
            <g id="teamwork_white_5" transform="translate(53.000000, 322.000000)">
                <polygon id="Path" fill="#222747" points="120.859375 162.695312 120.859375 205.761719 69.7359619 205.761719 68.2226562 166.523833"></polygon>
                <path d="M60.9323736,63.1640625 L51.832971,112.793416 L20.4336858,115.077245 C20.4336858,115.077245 18.8405244,119.315504 19.6371051,122.771991 L20.4336858,126.228477 C20.4336858,126.228477 55.1374678,126.847746 60.7748081,124.998724 C66.4121484,123.149701 66.3858875,78.1494921 66.2852207,73.2041247 C66.184554,68.2587572 60.9323736,63.1640625 60.9323736,63.1640625 Z" id="Path" fill="#EDB607"></path>
                <path d="M111.863041,60.2929688 L136.486475,80.4937851 L181.579246,72.4055847 C181.579246,72.4055847 184.537601,78.2059923 184.759035,80.3625542 L184.980469,82.5234903 C184.980469,82.5234903 140.507712,95.9702875 134.73272,95.6990769 C128.957727,95.4278663 107.460938,78.0791358 107.460938,78.0791358 L111.863041,60.2929688 Z" id="Path" fill="#F9C200"></path>
                <path d="M78.6018696,55.5078125 L60.5664062,63.1948319 L61.7380013,169.872646 C61.7380013,169.872646 96.3932507,176.689853 110.06186,173.170868 L123.730469,169.638636 L114.011555,63.4906563 C113.8488,61.7520688 112.605341,60.3028533 110.905053,59.8701187 L94.8044968,55.7197464 L78.6018696,55.5078125 Z" id="Path" fill="#F9C200"></path>
                <path d="M60.5664062,80.390625 L61.5401803,169.885331 C61.5401803,169.885331 88.960771,175.280027 104.589844,173.976492 L60.5664062,80.390625 Z" id="Path" fill="#EDB607"></path>
                <polygon id="Path" fill="#E68D5C" points="144.634874 102.531636 142.317562 127.809715 122.773438 164.376688 128.964596 167.480469 155.364468 130.332645 156.269531 101.445312"></polygon>
                <path d="M194.544526,183.719798 C194.544526,183.719798 195.507812,192.775415 195.507812,197.03455 C195.507812,201.293685 193.655676,207.675781 193.655676,207.675781 L162.011719,207.675781 L164.306092,180.878906 L194.544526,183.719798 Z" id="Path" fill="#303D72"></path>
                <path d="M142.871094,102.737065 C142.871094,102.737065 145.601282,85.4474176 150.732983,80.6206311 C154.414135,77.1492814 158.003258,77.2476959 160.509948,77.8292365 C163.016637,78.410777 165.330504,87.2009861 162.88955,99.0554664 C161.21112,107.273082 160.992003,108.136446 160.992003,108.136446 C160.992003,108.136446 147.783679,108.588258 142.871094,102.737065 Z" id="Path" fill="#D8A502"></path>
                <path d="M178.458642,72.734375 L199.335938,82.059523 L195.501061,184.707031 L144.785156,184.707031 L149.354276,83.9644226 C149.445997,81.9929507 150.539314,80.2058292 152.251443,79.2287536 L163.309333,72.942585 L178.458642,72.734375 Z" id="Path" fill="#F9C200"></path>
                <path d="M70.6674094,126.328125 L75.0689535,170.27112 L122.165475,190.398561 C122.165475,190.398561 125.686711,194.569272 122.165475,200.019531 L69.1796875,184.496696 L70.6674094,126.328125 Z" id="Path" fill="#D8A502"></path>
                <path d="M40.0959371,115.795533 L24.0459203,122.01975 C21.1808905,123.122503 19.3236095,125.929214 19.4174615,129.014247 L21.8944789,207.675781 L72.0507812,207.675781 L70.8276714,126.933606 C70.772556,123.108023 68.3332385,119.73033 64.7341207,118.49594 L54.0781063,114.84375 L40.0959371,115.795533 Z" id="Path" fill="#F9C200"></path>
                <rect id="Rectangle" fill="#303D72" x="243.13883" y="26.25" width="1" height="182.65625"></rect>
                <rect id="Rectangle" fill="#303D72" x="249.838049" y="50.4492188" width="1" height="155.3125"></rect>
                <rect id="Rectangle" fill="#303D72" x="246.966955" y="64.3945312" width="1" height="145.195312"></rect>
                <rect id="Rectangle" fill="#303D72" x="236.439611" y="86.40625" width="1" height="123.189063"></rect>
                <rect id="Rectangle" fill="#303D72" x="253.666174" y="152.167969" width="1" height="56.4648438"></rect>
                <path d="M233.697499,64.9330519 C241.277343,61.0962616 249.820274,62.82237 252.834377,68.7922011 C255.848479,74.7620321 252.165567,82.6905043 244.625851,86.5451817 C237.086135,90.3998591 221.039159,104.736397 218.025056,98.7889251 C215.010953,92.841453 226.144407,68.7698421 233.697499,64.9330519 Z" id="Path" fill="#303D72"></path>
                <path d="M224.324188,140.974958 C230.760071,134.033586 241.812616,133.816529 249.014254,140.500978 C256.215893,147.185426 256.826726,158.21986 250.390843,165.170092 C243.954959,172.120324 234.155066,194.676461 226.957854,187.996443 C219.760642,181.316424 217.888304,147.92076 224.324188,140.974958 Z" id="Path" fill="#303D72"></path>
                <path d="M219.194632,99.4203642 C227.834593,93.478426 238.576522,94.2611963 243.183334,101.172702 C247.790145,108.084208 244.527717,118.51818 235.892135,124.446776 C227.256552,130.375371 209.906564,150.687371 205.295373,143.780312 C200.684182,136.873254 210.55905,105.362302 219.194632,99.4203642 Z" id="Path" fill="#00C99C"></path>
                <path d="M219.237531,99.4141332 C211.085987,105.007618 201.836443,133.233137 204.629752,142.324219 C212.153242,119.278348 217.041533,112.461149 224.832935,104.086495 C227.948027,100.741694 231.629639,97.9896919 235.703125,95.9610349 C230.700641,94.6483236 224.569415,95.7563409 219.237531,99.4141332 Z" id="Path" fill="#00B98F"></path>
                <path d="M269.426644,70.7872757 C259.508212,67.4932056 249.388258,71.2300271 246.825412,79.1198563 C244.262566,87.0096854 250.216254,96.0860883 260.134686,99.3757308 C270.053118,102.665373 292.2294,117.285023 294.792245,109.390767 C297.355091,101.49651 279.340695,74.0769183 269.426644,70.7872757 Z" id="Path" fill="#00C99C"></path>
                <path d="M268.98878,70.7861466 C278.479313,73.891717 295.277111,98.399104 295.036506,107.871094 C281.362118,87.8667838 274.718745,82.6849178 264.813837,76.8153897 C260.855416,74.4678774 256.506128,72.8465229 251.972656,72.0283748 C256.512963,69.397513 262.782061,68.7586528 268.98878,70.7861466 Z" id="Path" fill="#00B98F"></path>
                <polygon id="Path" fill="#EDB607" points="19.4140625 147.364592 21.3316033 207.675781 72.0507812 207.675781 71.5702838 192.940233 29.5979395 170.07045 33.3974288 139.726562"></polygon>
                <path d="M256.593244,40.6038032 C250.134267,43.2879479 246.634917,49.5349232 248.771688,54.5578586 C250.908459,59.580794 257.876191,61.4867991 264.330745,58.8026543 C270.785298,56.1185096 288.383799,53.7228885 286.247028,48.6955816 C284.110256,43.6682746 263.047797,37.92403 256.593244,40.6038032 Z" id="Path" fill="#00C99C"></path>
                <path d="M242.87352,25.300696 C246.871769,28.1283721 248.357961,33.0519613 246.192242,36.2952064 C244.026524,39.5384514 239.037479,39.8727135 235.043614,37.0450374 C231.049748,34.2173614 219.462715,29.9713303 221.610898,26.7326023 C223.75908,23.4938743 238.879654,22.477537 242.87352,25.300696 Z" id="Path" fill="#303D72"></path>
                <path d="M257.103433,40.6075239 C263.227495,38.071912 282.389163,43.0376684 286.425781,47.8408292 C270.814552,43.7759402 265.190049,44.0571865 257.647595,45.3975013 C254.632472,45.9353385 251.738632,46.9978045 249.101562,48.5351562 C250.221111,45.283245 253.098037,42.2686353 257.103433,40.6075239 Z" id="Path" fill="#00B98F"></path>
                <rect id="Rectangle" fill="#A9C2DC" x="0" y="203.984375" width="285.46875" height="4.78515625"></rect>
                <rect id="Rectangle" fill="#303D72" x="0" y="208.632812" width="285.46875" height="1.09375"></rect>
                <path d="M220.477185,152.112915 C229.671097,146.85848 240.473611,148.467706 244.615093,155.713671 C248.756575,162.959635 244.659529,173.090649 235.470061,178.345084 C226.280592,183.599519 207.181784,202.492371 203.031415,195.237516 C198.881045,187.982661 211.287717,157.371796 220.477185,152.112915 Z" id="Path" fill="#00C99C"></path>
                <path d="M221.068146,152.063996 C212.586599,156.936239 201.333076,183.937137 203.416416,193.046875 C212.569165,171.014528 217.921344,164.693306 226.254704,157.071944 C229.587144,154.023861 233.435133,151.598492 237.617188,149.910228 C232.761872,148.259881 226.616455,148.877119 221.068146,152.063996 Z" id="Path" fill="#00B98F"></path>
                <path d="M276.973229,123.374985 C265.330895,115.457692 249.89051,115.457692 242.484975,123.410173 C235.07944,131.362655 238.496357,144.223859 250.156418,152.14995 C261.816479,160.076041 284.188197,186.101945 291.593732,178.15826 C298.999267,170.214575 288.615563,131.301076 276.973229,123.374985 Z" id="Path" fill="#00C99C"></path>
                <path d="M276.960824,123.407732 C287.925682,130.928941 297.772763,166.004318 292.720589,176.777344 C284.73647,148.14366 278.553213,139.436755 268.426688,128.592942 C264.253408,124.162389 259.331881,120.497937 253.886719,117.766826 C261.178881,116.620947 269.770681,118.50125 276.960824,123.407732 Z" id="Path" fill="#00B98F"></path>
                <path d="M62.0369227,190.449219 C62.0369227,190.449219 70.891378,193.040052 75.4292864,194.504436 C79.9671948,195.96882 82.7873388,198.275788 82.5659774,199.064302 C82.344616,199.852817 82.0125739,200.019531 82.0125739,200.019531 L63.5288984,200.019531 L55.78125,195.4867 L62.0369227,190.449219 Z" id="Path" fill="#FBAD83"></path>
                <path d="M20.7024405,125.371094 C20.7024405,125.371094 3.93004479,166.886257 7.46107546,179.795785 C10.9921061,192.705313 62.3421197,200.019531 62.3421197,200.019531 C62.3421197,200.019531 63.8383939,196.253883 64.107635,193.37427 L64.3945312,190.494656 L19.5283728,174.980186 C19.5283728,174.980186 33.9526331,145.803058 34.7427012,136.437669 C35.5327693,127.072281 20.7024405,125.371094 20.7024405,125.371094 Z" id="Path" fill="#F9C200"></path>
                <path d="M95.0195312,200.019531 L164.054383,200.019531 C165.569019,200.019531 166.796875,198.790706 166.796875,197.274874 L166.796875,149.170439 C166.796875,147.654606 165.569019,146.425781 164.054383,146.425781 L95.0195312,146.425781 L95.0195312,200.019531 Z" id="Path" fill="#A9C2DC"></path>
                <path d="M93.1054688,200.019531 L94.3008684,200.019531 C95.7537996,200.017099 96.9309829,198.920297 96.9335938,197.566576 L96.9335938,148.878736 C96.9309829,147.525015 95.7537996,146.428214 94.3008684,146.425781 L93.1054688,146.425781 L93.1054688,200.019531 Z" id="Path" fill="#19192B"></path>
                <path d="M126.601562,173.222656 C126.601562,176.407705 128.530792,178.964844 130.910478,178.964844 C133.290164,178.964844 135.214844,176.394055 135.214844,173.222656 C135.214844,170.051258 133.285614,167.480469 130.910478,167.480469 C128.535342,167.480469 126.601562,170.051258 126.601562,173.222656 Z" id="Path" fill="#FFFFFF"></path>
                <rect id="Rectangle" fill="#19192B" x="54.8242188" y="200.019531" width="39.2382812" height="3.828125"></rect>
                <rect id="Rectangle" fill="#303D72" x="94.0625" y="200.019531" width="69.8632812" height="3.828125"></rect>
                <polygon id="Path" fill="#EDB607" points="195.106753 183.75 198.378906 96.7037222 189.853619 94.7460938 169.667969 183.75"></polygon>
                <path d="M40.46875,116.740173 C40.46875,116.740173 44.3064109,123.564966 50.1902286,123.455734 C56.0740463,123.346502 54.6801578,115.800781 54.6801578,115.800781 L40.46875,116.740173 Z" id="Path" fill="#FFFFFF"></path>
                <path d="M64.3034864,80.390625 C64.3034864,80.390625 67.1718573,103.808116 66.0471769,108.386169 C64.9224966,112.964223 53.405421,112.032795 47.6904755,111.567082 C41.9755299,111.101368 38.93279,111.879022 36.4305942,110.473094 C33.9283984,109.067166 38.5143043,94.4191518 38.5143043,94.4191518 L64.3034864,80.390625 Z" id="Path" fill="#E56107"></path>
                <path d="M58.2455405,112.927771 C54.6325274,113.011608 51.5359162,110.335969 51.0587275,106.717976 C50.5815388,103.099983 52.8766814,99.698976 56.3854412,98.8247014 C56.5027557,98.7932981 56.6232396,98.8631166 56.6555985,98.9812531 C56.6869348,99.1008508 56.6181689,99.2238775 56.5005902,99.2585732 C53.1264727,100.189305 51.0448758,103.602921 51.7403406,107.064917 C52.4358054,110.526914 55.6700788,112.851277 59.1365605,112.38033 C62.6030423,111.909384 65.114181,108.804466 64.8790976,105.279923 C64.6440141,101.755381 61.7432435,99.0186553 58.2455405,99.0215092 C58.1232423,99.0215092 58.0241001,98.9213799 58.0241001,98.797864 C58.0264563,98.6753474 58.1242317,98.5765984 58.2455405,98.5742188 C62.1700881,98.5742188 65.3515625,101.787371 65.3515625,105.750995 C65.3515625,109.714619 62.1700881,112.927771 58.2455405,112.927771 L58.2455405,112.927771 Z" id="Path" fill="#FFFFFF"></path>
                <path d="M55.78125,105.911802 L54.65625,115.500328 C54.65625,115.500328 53.3169643,117.712725 46.3169643,117.712725 C44.29512,117.749077 42.292614,117.317271 40.46875,116.451659 L40.46875,99.53125 L55.78125,105.911802 Z" id="Path" fill="#FBAD83"></path>
                <path d="M54.8242188,105.342398 L54.0834295,111.936327 C52.8547972,112.032626 51.6191286,111.937209 50.4180212,111.653288 C48.8336741,111.277376 44.30758,106.44802 41.4257812,99.53125 L54.8242188,105.342398 Z" id="Path" fill="#E68D5C"></path>
                <path d="M63.836345,75.4644418 C63.836345,75.4644418 65.4458755,91.4489219 63.1986895,99.1881734 C60.9515035,106.927425 53.9636785,110.187678 47.7674258,108.784141 C45.4718659,108.256165 37.160356,98.9065861 36.1093238,87.3571062 C35.0582915,75.8076263 36.0609499,72.3273831 37.9387355,69.885493 C39.8165211,67.443603 56.8793034,64.4033399 59.9796285,67.0740197 C63.0799536,69.7446994 63.836345,75.4644418 63.836345,75.4644418 Z" id="Path" fill="#FBAD83"></path>
                <path d="M58.6523438,74.7049356 C58.6523438,74.7049356 63.7622609,82.0826627 65.0515588,82.2978464 C66.3408566,82.5130301 66.4826794,77.6121114 66.1646526,73.2030412 C65.6446358,66.2381155 60.908615,63.1640625 60.908615,63.1640625 L58.6523438,74.7049356 Z" id="Path" fill="#E56107"></path>
                <path d="M63.4375,68.9310693 C63.4375,68.9310693 61.886596,77.6173443 58.6318819,82.8122513 C55.3771678,88.0071584 43.1577916,86.1128584 40.9734198,86.2681289 C38.7890479,86.4233994 41.2836006,103.893548 42.8345046,109.718409 C44.3854086,115.543271 33.2232684,113.808678 29.6583735,113.023453 C26.0934787,112.238228 24.2323938,81.5523422 28.8851059,69.6674951 C33.537818,57.782648 52.7515529,58.2440232 58.0202578,60.8481311 C61.1097359,62.3763496 63.1709966,65.4519077 63.4375,68.9310693 L63.4375,68.9310693 Z" id="Path" fill="#F76A00"></path>
                <path d="M35.6835938,96.0914492 C35.6835938,98.418388 38.6995586,100.488281 40.54777,100.488281 C42.3959813,100.488281 42.3828125,98.418388 42.3828125,96.0914492 C42.3828125,93.7645104 40.8814138,91.875 39.0332025,91.875 C37.1849911,91.875 35.6835938,93.7464721 35.6835938,96.0914492 Z" id="Path" fill="#FBAD83"></path>
                <path d="M37.6410223,94.4194115 C37.8443103,93.3559667 39.4208301,92.690267 40.2754698,92.8577386 C41.1301095,93.0252103 38.8856431,93.6322949 38.6823551,94.6915529 C38.479067,95.750811 39.6780518,96.810069 38.8234121,96.6425974 C37.9687724,96.4751257 37.4377342,95.4786696 37.6410223,94.4194115 Z" id="Path" fill="#E68D5C"></path>
                <path d="M50.4824176,90.9179688 C50.2855769,90.9173983 50.1125161,90.7715236 50.0570852,90.5594519 C50.0016544,90.3473803 50.0770583,90.1196312 50.2424056,89.9997122 L54.1314885,87.1700846 C54.2353777,87.0944992 54.3626349,87.0709863 54.4826171,87.1052078 L57.3627608,87.9486065 C57.6008688,88.0188893 57.7431498,88.2925953 57.6805544,88.5599458 C57.617959,88.8272963 57.3741908,88.9870512 57.1360828,88.9167683 L54.4470598,88.1282654 L50.7224296,90.8381204 C50.6508911,90.8900054 50.5675826,90.9177209 50.4824176,90.9179688 Z" id="Path" fill="#F76A00"></path>
                <path d="M65.8674544,89.0039062 C65.7867629,89.0037182 65.7078304,88.9838149 65.6400497,88.9465547 L63.6228857,87.8355643 L61.0961668,88.4018111 C60.9502288,88.4344608 60.7949089,88.3983721 60.6887146,88.3071391 C60.5825204,88.2159061 60.5415852,88.0833893 60.5813291,87.9595066 C60.6210729,87.8356238 60.7354577,87.7391958 60.8813957,87.7065461 L63.6102522,87.1008771 C63.723932,87.0763017 63.8445047,87.0931869 63.9429368,87.147467 L66.1159151,88.3444696 C66.273242,88.4309439 66.3445572,88.59545 66.2909194,88.7481606 C66.2372816,88.9008711 66.0715818,89.0050847 65.8842992,89.0039062 L65.8674544,89.0039062 Z" id="Path" fill="#F76A00"></path>
                <path d="M40.0590178,113.864351 C36.448587,113.93795 33.3581115,111.269525 32.8765312,107.662739 C32.3949509,104.055953 34.6755945,100.659159 38.1769103,99.7683456 C38.2994881,99.7349919 38.4256866,99.8080961 38.4587826,99.9316285 C38.4918785,100.055161 38.4193393,100.182342 38.2967615,100.215696 C34.9149302,101.146552 32.8285743,104.560623 33.5256291,108.023082 C34.2226839,111.485541 37.4643514,113.810215 40.9387581,113.339205 C44.4131649,112.868196 46.9300446,109.762863 46.6944237,106.23785 C46.4588027,102.712837 43.5514005,99.9757459 40.045701,99.9786002 C39.9231233,99.9786002 39.8237544,99.8784575 39.8237544,99.7549251 C39.8237544,99.6313928 39.9231233,99.53125 40.045701,99.53125 C43.9792209,99.53125 47.1679688,102.744831 47.1679688,106.708984 C47.1679688,110.673138 43.9792209,113.886719 40.045701,113.886719 L40.0590178,113.864351 Z" id="Path" fill="#FFFFFF"></path>
                <path d="M178.28125,53.59375 L178.28125,73.125148 C178.28125,73.125148 175.044957,75.9115324 169.354,75.5777004 C164.084595,75.270575 163.250273,73.3521537 163.250273,73.3521537 L161.054688,63.2214651 L178.263685,53.6115544" id="Path" fill="#FBAD83"></path>
                <path d="M162.836724,70.8027389 C164.957225,69.9398632 166.935255,68.7654379 168.70462,67.3187643 C171.3738,65.2817783 173.374442,62.5035299 174.453125,59.3359375 L162.823458,61.5326427 L161.054688,62.5079799 L162.876521,70.8203125" id="Path" fill="#E68D5C"></path>
                <rect id="Rectangle" fill="#1A2249" x="148.613281" y="41.8885216" width="9.5703125" height="1"></rect>
                <path d="M151.195277,28.7114323 C151.195277,28.7114323 149.570312,32.8755575 149.570312,36.5186102 C149.570312,39.4535391 150.713806,44.9804688 150.713806,44.9804688 L157.226562,27.7539062 L151.195277,28.7114323 Z" id="Path" fill="#7A4029"></path>
                <path d="M151.900944,60.9254008 C157.165753,72.0827403 170.20493,65.4901694 175.794402,59.862797 C181.383875,54.2354246 180.620477,32.7309809 179.062971,28.6576665 C177.505465,24.584352 164.584746,21.2814253 157.793143,23.9069421 C151.001539,26.5324589 146.64491,49.7636337 151.900944,60.9254008" id="Path" fill="#FBAD83"></path>
                <path d="M149.570312,52.6367188 L149.570312,52.6367188 C149.845131,55.4351107 150.565894,58.1712052 151.705141,60.7407596 C153.876384,65.3038457 157.322152,66.9921875 161.054688,66.9921875 L161.054688,66.9921875 C157.326704,66.9921875 153.876384,65.3129718 151.709693,60.7407596 C150.570446,58.1712052 149.849683,55.4351107 149.574864,52.6367188" id="Path" fill="#D7C5BE"></path>
                <path d="M180.195312,44.0234375 L174.225882,44.0234375 C174.225882,44.0234375 170.274413,54.4743757 166.882994,55.47867 C166.610781,55.5540969 166.329658,55.591805 166.047363,55.5907565 C163.220439,55.5907565 159.460098,52.1295277 154.713001,51.9277721 C154.268516,51.9277721 153.87737,51.8963879 153.517337,51.8963879 C151.486042,51.8963879 150.574848,52.201263 149.570312,52.8872319 C149.83867,55.6367899 150.542486,58.3251376 151.654946,60.8498515 C153.770693,65.3333084 157.139888,66.9921875 160.780218,66.9921875 C166.296274,66.9921875 172.447943,63.2081498 175.857141,59.7738218 C178.595167,57.0164958 179.82639,50.4930659 180.186423,44.0234375" id="Path" fill="#D48C68"></path>
                <path d="M177.858916,45.7133269 C175.957721,45.5365742 174.209146,44.5915421 173.013205,43.0944211 C171.817265,41.5973 171.276285,39.6761875 171.514025,37.7705669 C171.811169,35.3705963 172.5147,34.6013749 171.894194,32.3288753 C170.679401,27.792667 165.252159,28.2190354 161.607779,29.915718 C157.963399,31.6124005 153.982548,31.6036094 150.84506,29.2168254 C149.350602,28.0827734 147.471605,24.9223725 149.503544,21.6213139 C151.535482,18.3202554 158.763065,14.3554688 158.763065,14.3554688 C158.763065,14.3554688 157.889113,16.3378621 158.177517,17.3664209 C158.465922,18.3949798 177.671017,12.5884574 181.603801,21.1729678 C185.536585,29.7574781 180.292873,45.9375 180.292873,45.9375 L177.858916,45.7133269 Z" id="Path" fill="#7A4029"></path>
                <path d="M182.109375,46.3065383 C182.109375,49.1529498 178.223298,51.6796875 175.839478,51.6796875 C173.455657,51.6796875 173.496094,49.1529498 173.496094,46.3065383 C173.496094,43.4601267 175.43018,41.1523438 177.814001,41.1523438 C180.197821,41.1523438 182.109375,43.4601267 182.109375,46.3065383 Z" id="Path" fill="#FBAD83"></path>
                <path d="M180.161353,45.9043287 C180.443289,47.1375771 178.908819,48.5784858 177.81343,48.7903842 C176.71804,49.0022825 179.075207,47.3198097 178.78865,46.0865613 C178.502092,44.8533129 176.560896,44.2684735 177.656285,44.0565751 C178.751675,43.8446768 179.874795,44.6710803 180.161353,45.9043287 Z" id="Path" fill="#E68D5C"></path>
                <path d="M152.441406,47.8515625 C150.330693,47.8515625 148.613281,45.7056202 148.613281,43.0664062 C148.613281,40.4271923 150.330693,38.28125 152.441406,38.28125 C154.552119,38.28125 156.269531,40.4271923 156.269531,43.0664062 C156.269531,45.7056202 154.530269,47.8515625 152.441406,47.8515625 Z M152.441406,38.7028497 C150.571044,38.7028497 149.050282,40.6590721 149.050282,43.0664062 C149.050282,45.4737404 150.571044,47.4299628 152.441406,47.4299628 C154.311769,47.4299628 155.832531,45.4695244 155.832531,43.0664062 C155.832531,40.6632881 154.289919,38.7028497 152.441406,38.7028497 L152.441406,38.7028497 Z" id="Shape" fill="#1A2249" fill-rule="nonzero"></path>
                <path d="M161.054688,47.8515625 C158.943975,47.8515625 157.226562,45.7056202 157.226562,43.0664062 C157.226562,40.4271923 158.943975,38.28125 161.054688,38.28125 C163.1654,38.28125 164.882812,40.4271923 164.882812,43.0664062 C164.882812,45.7056202 163.1654,47.8515625 161.054688,47.8515625 Z M161.054688,38.7028497 C159.184325,38.7028497 157.663563,40.6590721 157.663563,43.0664062 C157.663563,45.4737404 159.184325,47.4299628 161.054688,47.4299628 C162.92505,47.4299628 164.445812,45.4695244 164.445812,43.0664062 C164.445812,40.6632881 162.92505,38.7028497 161.054688,38.7028497 L161.054688,38.7028497 Z" id="Shape" fill="#1A2249" fill-rule="nonzero"></path>
                <rect id="Rectangle" fill="#1A2249" x="164.882812" y="41.8885216" width="8.61328125" height="1"></rect>
                <rect id="Rectangle" fill="#1A2249" x="155.3125" y="41.8885216" width="1.9140625" height="1"></rect>
                <path d="M152.441406,55.5078125 L161.054688,55.5078125 C161.054688,55.5078125 159.328339,59.2327686 156.401854,59.3340131 C153.475369,59.4352577 152.441406,55.5078125 152.441406,55.5078125 Z" id="Path" fill="#FFFFFF"></path>
                <path d="M207.346896,102.402344 L194.52684,106.841049 L200.715832,131.897538 L186.967428,185.805609 L183.068362,188.118174 C183.068362,188.118174 182.847327,193.88849 187.10447,194.998166 C191.361612,196.107843 192.90444,192.947485 192.90444,192.947485 L192.90444,188.717399 C196.312806,180.070802 213.416529,136.580371 213.681771,133.77511 C213.977959,130.659139 207.346896,102.402344 207.346896,102.402344 Z" id="Path" fill="#FBAD83"></path>
                <path d="M193.165011,108.478336 C193.165011,108.478336 188.188186,93.7019112 190.278191,87.7405694 C191.784737,83.4424506 194.693327,81.9936958 196.935728,81.3896832 C199.17813,80.7856705 204.655685,86.7251279 207.625234,97.0896341 C209.680406,104.267755 209.863281,105.03809 209.863281,105.03809 C209.863281,105.03809 199.513401,111.003809 193.165011,108.478336 Z" id="Path" fill="#F9C200"></path>
                <path d="M181.315094,72.3386562 C181.315094,72.3386562 182.605256,71.0757032 185.925275,72.3386562 C189.245293,73.6016093 189.916178,75.6728523 189.739856,77.7483052 C189.563533,79.823758 185.503822,80.8762189 182.940699,80.173175 C180.377576,79.4701312 178.10689,76.7337329 178.291813,75.6223342 C178.476736,74.5109355 181.315094,72.3386562 181.315094,72.3386562 Z" id="Path" fill="#A55B3A"></path>
                <path d="M19.4561563,128.846215 C17.9443866,127.839951 16.9145895,126.206238 16.6254304,124.355435 C16.3362714,122.504632 16.8152267,120.612604 17.9419919,119.154594 C18.0761036,118.97797 18.2188677,118.805876 18.3746103,118.629253 C21.3380463,115.187369 24.1024778,115.391165 26.4732266,116.600353 C28.8439754,117.809541 28.2729191,123.22598 26.3001793,125.993074 C24.3274394,128.760168 20.8448613,129.702158 19.6118989,128.950378 L19.4561563,128.846215 Z" id="Path" fill="#A55B3A"></path>
                <polygon id="Path" fill="#FFFFFF" points="78.75 55.5078125 84.2313834 63.1640625 89.9286046 59.0698817 95.9765625 61.9459228 95.1671704 55.7276933"></polygon>
                <path d="M78.75,35.4101562 L78.75,55.7937817 C78.75,55.7937817 82.1692116,58.6982633 88.1854581,58.3498997 C93.7492898,58.0276634 94.6323686,56.011509 94.6323686,56.011509 L96.9335938,45.4386736 L78.75,35.4101562 Z" id="Path" fill="#A55B3A"></path>
                <path d="M95.921558,54.4076903 C92.8356398,55.1011231 89.2697895,53.1613242 86.6054938,51.0221066 C81.6940396,47.0790574 79.7070312,39.2382812 79.7070312,39.2382812 L95.9574408,44.1738912 L97.890625,45.2480322 L95.921558,54.4076903 Z" id="Path" fill="#8E4A2F"></path>
                <path d="M106.751163,10.3140002 C106.751163,10.3140002 109.560131,11.331788 109.365315,17.8526794 C109.270173,20.9368848 108.083158,26.796875 108.083158,26.796875 L100.761719,8.61328125 L106.751163,10.3140002 Z" id="Path" fill="#1A2249"></path>
                <path d="M106.893594,44.257744 C101.308109,56.1470413 87.4449168,49.1213465 81.5054219,43.1302726 C75.5659269,37.1391986 76.3919494,14.2360526 78.0352534,9.88976054 C79.6785573,5.54346854 93.3975232,2.0284104 100.635053,4.831614 C107.872584,7.63481759 112.479079,32.3640253 106.893594,44.257744 Z" id="Path" fill="#A55B3A"></path>
                <path d="M85.8032213,24.8828125 C85.8032213,24.8828125 87.3664071,37.7980302 90.9754621,38.8309005 C94.0752639,39.6988587 98.3485621,35.3981259 103.906064,35.1681169 C107.005866,35.0379232 108.117366,35.3243494 109.375,36.1575893 C109.091613,38.9960988 108.344009,41.7714272 107.160856,44.3771533 C101.501503,56.046851 87.4549729,49.1509233 81.4369291,43.2705066 C78.5408285,40.4149242 77.212342,33.6752289 76.8359375,27.0006305 L85.8032213,24.8828125 Z" id="Path" fill="#1A2249"></path>
                <path d="M83.973559,28.5710581 C83.973559,28.5710581 85.7243874,28.7407895 86.4390113,27.7267529 C87.1536351,26.7127163 85.0990916,20.9853678 87.1759671,14.9098522 C88.6543452,10.5577637 95.3762759,8.06401703 100.87888,9.11722245 C106.381483,10.1704279 107.766067,10.6448055 108.328833,9.08675783 C108.8916,7.52871014 106.680732,3.86425162 104.755714,2.41500615 C102.830696,0.965760672 93.8978978,-1.59761946 86.4434777,1.3705049 C78.9890576,4.33862927 77.5106795,6.31012536 75.8223806,11.0190851 C74.1340818,15.7280449 75.2283496,27.5265568 75.8223806,28.2794681 C76.4164117,29.0323795 83.973559,28.5710581 83.973559,28.5710581 Z" id="Path" fill="#1A2249"></path>
                <path d="M75.8789062,27.6329709 C75.8789062,30.7369771 79.7542509,33.4960938 82.1316339,33.4960938 C84.5090169,33.4960938 84.4921875,30.7369771 84.4921875,27.6329709 C84.4921875,24.5289648 82.5650329,22.0117188 80.1834422,22.0117188 C77.8018514,22.0117188 75.8789062,24.5289648 75.8789062,27.6329709 Z" id="Path" fill="#A55B3A"></path>
                <path d="M109.375,36.3671875 C109.375,36.3671875 109.375,50.4323727 107.679223,52.9700618 C105.983445,55.5078125 100.423592,56.0558573 97.9064229,54.9984868 C95.3892535,53.9411163 91.2822929,50.125951 90.2798412,46.8977342 C89.2773895,43.6695175 105.184134,39.0429822 105.184134,39.0429822 L109.375,36.3671875 Z" id="Path" fill="#1A2249"></path>
                <path d="M76.870869,26.1817988 C76.5845376,27.6588122 78.1203153,29.3883471 79.2179192,29.6456333 C80.3155231,29.9029195 77.9554578,27.8827464 78.2417893,26.4009685 C78.5281207,24.9191907 80.4717039,24.223565 79.3741,23.9662788 C78.2764961,23.7089926 77.1528621,24.7047855 76.870869,26.1817988 Z" id="Path" fill="#8E4A2F"></path>
                <path d="M106.503906,40.6243929 C106.503906,40.6243929 100.753212,40.7687564 99.7961806,40.4800294 L98.8476562,40.1953125 C98.8476562,40.1953125 98.8731771,42.8459867 101.540104,43.7602889 C104.207031,44.674591 105.665972,42.9863401 106.023264,42.0519875 C106.380556,41.1176348 106.503906,40.6243929 106.503906,40.6243929 Z" id="Path" fill="#FFFFFF"></path>
                <path d="M105.019303,22.0000385 C104.809415,21.9982384 104.631231,21.8797212 104.596031,21.7185043 C104.560832,21.5572874 104.678698,21.3995359 104.876017,21.3437701 C106.546564,20.9583266 108.324688,20.9583266 109.995235,21.3437701 C110.15173,21.3718403 110.275559,21.464913 110.317181,21.5857508 C110.358803,21.7065886 110.311421,21.8354574 110.193991,21.9207982 C110.07656,22.006139 109.90826,22.0340148 109.756425,21.9932728 C108.255464,21.6575412 106.663551,21.6575412 105.162589,21.9932728 C105.11564,22.0017061 105.067216,22.0039926 105.019303,22.0000385 L105.019303,22.0000385 Z" id="Path" fill="#1A2249"></path>
                <path d="M95.4751962,23.9257812 C95.3655021,23.9269232 95.2591247,23.8858778 95.1757585,23.8102198 C94.9866948,23.6360121 94.9663893,23.3322156 95.1303891,23.1314385 C95.2392756,23.0014591 97.7981067,19.9445362 102.357726,21.4898468 C102.512521,21.5414437 102.629615,21.6767475 102.664901,21.8447905 C102.700187,22.0128336 102.648302,22.1880863 102.528793,22.3045325 C102.409283,22.4209787 102.240305,22.4609276 102.08551,22.4093307 C98.1066182,21.0613962 95.9062049,23.6513561 95.8154663,23.7620793 C95.7294597,23.865959 95.6055092,23.925582 95.4751962,23.9257812 Z" id="Path" fill="#1A2249"></path>
            </g>
        </g>
    </g>
</svg>