<?xml version="1.0" encoding="UTF-8"?>
<svg width="311px" height="210px" viewBox="0 0 311 210" version="1.1" xmlns="http://www.w3.org/2000/svg" xmlns:xlink="http://www.w3.org/1999/xlink">
    <title>teamwork_white_7</title>
    <g id="页面-1" stroke="none" stroke-width="1" fill="none" fill-rule="evenodd">
        <g id="扫物红包_开始" transform="translate(-32.000000, -322.000000)">
            <rect fill="#F9F9F9" x="0" y="0" width="375" height="812"></rect>
            <rect id="矩形" fill="#FFFFFF" x="-1" y="0" width="375" height="812"></rect>
            <g id="teamwork_white_7" transform="translate(32.000000, 322.000000)">
                <path d="M271.14311,157.279069 L271.14311,157.279069 C266.784372,157.266698 263.25399,153.736317 263.241619,149.377579 L263.241619,26.1293461 C263.241619,21.7665101 266.778397,18.2297327 271.141233,18.2297327 C275.504069,18.2297327 279.040846,21.7665101 279.040846,26.1293461 L279.040846,149.370072 C279.032608,153.730281 275.503303,157.264619 271.14311,157.279069 L271.14311,157.279069 Z" id="Path" fill="#303D72"></path>
                <path d="M270.05079,157.279069 L90.3547608,157.279069 C86.0033125,157.26676 82.4759278,153.747754 82.4532706,149.396347 L82.4532706,26.1293461 C82.4759278,21.7779394 86.0033125,18.2589332 90.3547608,18.2466242 L270.05079,18.2466242 C274.402238,18.2589332 277.929623,21.7779394 277.95228,26.1293461 L277.95228,149.373825 C277.929623,153.725232 274.402238,157.244238 270.05079,157.256547" id="Path" fill="#E1F5EA"></path>
                <polygon id="Path" fill="#42D57E" points="211.275714 63.6360874 182.725246 63.6360874 182.725246 38.8880945 182.725246 35.0893733 211.275714 35.0893733"></polygon>
                <path d="M59.991267,95.0393498 C59.991267,95.0393498 63.1818925,97.4417031 64.8710471,99.4949645 C66.5602018,101.548226 64.9348597,109.491006 63.4934477,110.755996 C62.0520357,112.020985 59.991267,109.629893 59.5520867,107.662966 C59.1129065,105.696039 59.5520867,104.750112 59.5520867,104.750112 C59.5520867,104.750112 59.1016455,105.249351 58.2645755,104.374745 C57.4275055,103.500138 58.2645755,100.808751 58.2645755,100.808751 L55.7383508,99.5062255 L59.991267,95.0393498 Z" id="Path" fill="#FBAD83"></path>
                <path d="M45.6747426,42.195084 L41.2904478,75.8242768 L61.072326,95.1406991 C61.072326,95.1406991 59.9987743,98.233729 58.2833439,99.5174865 L56.5679135,100.801244 L31.3995087,83.7069987 L45.6747426,42.195084 Z" id="Path" fill="#19192B"></path>
                <path d="M78.2378912,51.7481921 C78.2378912,51.7481921 80.2686305,50.622089 82.2092815,49.6348719 C84.1499326,48.6476548 94.8366512,50.4306515 94.8366512,50.4306515 C94.8366512,50.4306515 94.4275004,51.7819752 93.9170003,52.0409789 C93.4065002,52.2999826 88.1400913,51.7331774 88.1400913,51.7331774 C88.3590924,52.2132172 88.4644229,52.7373007 88.4478928,53.2646776 C88.4478928,54.23688 88.4478928,55.3629831 87.0402639,56.0761818 C85.632635,56.7893804 80.9330313,56.0761818 80.9330313,56.0761818 L78.2378912,51.7481921 Z" id="Path" fill="#FBAD83"></path>
                <path d="M47.9081805,198.569517 L47.9081805,208.3516 L70.2500664,208.3516 C70.2496607,206.493247 69.0757671,204.837756 67.3221983,204.222555 L57.5025791,200.769172 L56.3539539,196.542531 L47.9081805,198.569517 Z" id="Path" fill="#19192B"></path>
                <path d="M15.0147083,197.019248 L14.2151751,208.28028 L35.1531858,208.28028 C35.1522093,206.346944 33.8922482,204.639605 32.0451412,204.068654 L22.5220624,201.14454 L21.8238785,196.546285 L15.0147083,197.019248 Z" id="Path" fill="#19192B"></path>
                <path d="M48.5350445,105.358208 L55.2090824,155.619944 L58.2645755,198.486936 C58.2645755,198.486936 54.3682587,200.213628 50.7196846,199.920841 L47.0748642,199.6243 L40.6035249,156.243054 L24.2750296,108.124668 L48.5350445,105.358208 Z" id="Path" fill="#19192B"></path>
                <path d="M40.997661,107.730532 C40.997661,107.730532 40.0780101,154.944282 40.0967785,157.883411 C40.1155469,160.82254 23.1001287,200.228642 23.1001287,200.228642 C23.1001287,200.228642 19.492845,200.878028 16.5349475,199.203889 L13.5732963,197.525995 L25.1496364,153.405275 C25.1496364,153.405275 15.0147083,118.66124 15.5664988,109.982738 L16.1182893,101.289222 L40.997661,107.730532 Z" id="Path" fill="#303D72"></path>
                <path d="M26.5872947,125.034983 L39.2559548,114.400816 L15.5664988,110.451948 C15.4426275,117.039651 20.1835216,135.4139 23.0513309,145.871645 L26.5872947,125.034983 Z" id="Path" fill="#27345E"></path>
                <path d="M26.5685263,37.161403 C26.5685263,37.161403 17.8750102,39.2709695 15.2136532,41.5081611 C12.8150535,43.5276393 14.4891935,92.0626839 15.0710134,102.952101 C15.1592317,104.534925 15.1592317,106.121433 15.0710134,107.704256 L14.6018038,115.748386 C14.6018038,115.748386 36.2905499,118.484817 44.2558527,116.322699 C52.2211554,114.160581 51.8945855,114.070493 51.8945855,114.070493 C51.8945855,114.070493 47.5891179,45.0028344 45.1905183,40.6072786 C43.2085768,36.9887339 32.6870199,36.5533073 32.6870199,36.5533073 L26.5685263,37.161403 Z" id="Path" fill="#42D57E"></path>
                <path d="M26.5685263,37.161403 C26.5685263,37.161403 32.3416816,46.9810222 34.882921,54.9951228 C37.2927817,62.5963188 37.0938368,59.176719 37.0938368,59.176719 L37.3490869,36.8536015 L26.5685263,37.161403 Z" id="Path" fill="#FFFFFF"></path>
                <path d="M26.5685263,23.4417133 L26.5685263,37.161403 C26.5685263,37.161403 28.8695304,39.1170688 32.9197479,38.8843408 C36.673425,38.6666275 37.2589986,37.3077964 37.2589986,37.3077964 L38.8092672,30.2020857 L26.5685263,23.4417133 Z" id="Path" fill="#FBAD83"></path>
                <path d="M37.5367707,36.0953587 C35.5097851,36.5420463 33.1787516,35.2845645 31.4407992,33.906965 C28.2351589,31.3582183 26.9363867,26.3020152 26.9363867,26.3020152 L37.5367707,29.4926408 L38.7980062,30.187071 L37.5367707,36.0953587 Z" id="Path" fill="#E68D5C"></path>
                <path d="M45.2618381,6.95556361 C45.2618381,6.95556361 47.0748642,7.63122549 46.9509928,11.9629688 C46.890934,14.0199839 46.1214302,17.9087933 46.1214302,17.9087933 L41.3917971,5.82570681 L45.2618381,6.95556361 Z" id="Path" fill="#491F15"></path>
                <path d="M45.4833051,29.6277731 C41.729628,37.510495 32.454292,32.8484281 28.4753943,28.8770377 C24.4964966,24.9056474 25.0482871,9.73328465 26.1481145,6.86172169 C27.2479419,3.99015873 36.440697,1.66287894 41.2904478,3.51719542 C46.1401986,5.37151189 49.2257211,21.771327 45.4833051,29.6277731 Z" id="Path" fill="#FBAD83"></path>
                <path d="M31.3657256,16.4748887 C31.3657256,16.4748887 32.3979868,25.1871731 34.7853254,25.9003718 C36.8235721,26.4972064 39.6651056,23.584353 43.3362018,23.4266986 C45.3819558,23.340364 46.1176765,23.5355552 46.9509928,24.0986068 C46.7625531,26.0130468 46.2682989,27.8848761 45.4870588,29.6427878 C41.7333817,37.5255097 32.4580456,32.8634428 28.4791479,28.8920524 C26.5535116,26.9701698 25.6901659,22.4244668 25.4349158,17.9200543 L31.3657256,16.4748887 Z" id="Path" fill="#7A4029"></path>
                <path d="M29.8041959,19.597948 C29.8041959,19.597948 30.9528211,19.7105583 31.4220308,19.0273891 C31.8912404,18.3442198 30.5436703,14.4929472 31.9025014,10.3939318 C32.8747038,7.50735414 37.2815207,5.80318475 40.8850507,6.50887604 C44.4885807,7.21456733 45.3894631,7.53738356 45.7648309,6.49010766 C46.1401986,5.44283175 44.6875255,2.97666592 43.4375511,1.98569517 C42.1875766,0.994724424 36.3055646,-0.713198644 31.4257844,1.28000388 C26.5460042,3.27320641 25.5700482,4.62077647 24.4739745,7.78887992 C23.3779008,10.9569834 24.0986068,18.8922567 24.4739745,19.4027568 C24.8493422,19.9132569 29.8041959,19.597948 29.8041959,19.597948 Z" id="Path" fill="#7A4029"></path>
                <path d="M24.2750296,18.9523155 C24.2750296,20.9793012 26.9739234,22.7810661 28.629295,22.7810661 C30.2846666,22.7810661 30.2696543,20.9793012 30.2696543,18.9523155 C30.2696543,16.9253299 28.9295892,15.273712 27.2667102,15.273712 C25.6038313,15.273712 24.2750296,16.9215762 24.2750296,18.9523155 Z" id="Path" fill="#FBAD83"></path>
                <path d="M46.9509928,24.0835921 C46.9509928,24.0835921 46.9509928,33.6216855 45.8248897,35.3446233 C44.6987866,37.0675611 41.0126757,37.4391751 39.3422894,36.7184691 C37.6719031,35.9977631 34.9655019,33.4077259 34.28984,31.2230859 C33.6141782,29.0384458 44.1732718,25.9003718 44.1732718,25.9003718 L46.9509928,24.0835921 Z" id="Path" fill="#7A4029"></path>
                <path d="M25.3711033,18.0176499 C25.1796658,18.9260398 26.2156807,19.9883304 26.955155,20.1459848 C27.6946294,20.3036393 26.1030704,19.0611722 26.2982616,18.1527823 C26.4934528,17.2443925 27.7997324,16.8127196 27.048997,16.6513115 C26.2982616,16.4899034 25.5625409,17.0942454 25.3711033,18.0176499 Z" id="Path" fill="#E68D5C"></path>
                <path d="M22.4544962,99.4949645 L22.1129116,115.474368 L25.8027762,115.770908 C28.7345754,116.00717 31.6363602,115.040729 33.8410342,113.093762 C36.0457082,111.146796 37.3635962,108.386808 37.4917266,105.448296 L37.743223,99.6263432 C37.743223,99.6263432 24.8193128,100.35831 22.4544962,99.4949645 Z" id="Path" fill="#40A569"></path>
                <path d="M50.6746405,97.66317 L45.0854153,98.5602989 C45.0854153,98.5602989 47.6041326,107.944492 49.0905887,110.628371 C49.6173113,111.656362 50.391238,112.537348 51.342795,113.192132 C51.5247288,113.308152 51.7563417,113.312402 51.9424101,113.203137 C52.1284785,113.093871 52.2375992,112.88953 52.2249091,112.674125 L51.3240266,98.1961922 C51.3139829,98.0372133 51.2383608,97.8895474 51.1152314,97.7884817 C50.9921019,97.6874159 50.8325273,97.6420301 50.6746405,97.66317 Z" id="Path" fill="#40A569"></path>
                <path d="M44.0381394,15.1535943 C43.8777491,15.1545587 43.7344669,15.0535071 43.6815401,14.902098 C43.6139638,14.7072736 43.7162023,14.4944165 43.9105144,14.425381 C45.0549825,14.0892026 46.2719807,14.0892026 47.4164488,14.425381 C47.5517386,14.4565285 47.6587898,14.5598045 47.6947723,14.6938894 C47.7307548,14.8279743 47.6897923,14.9709707 47.5882734,15.0656672 C47.4867546,15.1603637 47.3412585,15.1912955 47.2099965,15.146087 C46.2140109,14.8609222 45.1579963,14.8609222 44.1620107,15.146087 C44.1214228,15.1554448 44.0795604,15.1579819 44.0381394,15.1535943 Z" id="Path" fill="#7A4029"></path>
                <path d="M37.3565942,16.1408256 C37.2107472,16.1393686 37.0789402,16.053571 37.0185853,15.9207903 C36.9582304,15.7880096 36.9802561,15.6322881 37.0750684,15.5214547 C37.1426346,15.4388738 38.8280356,13.5432669 41.8272236,14.4967008 C42.0252045,14.5599304 42.1344421,14.7716832 42.0712126,14.9696642 C42.0079831,15.1676451 41.7962302,15.2768827 41.5982493,15.2136532 C39.090793,14.41412 37.6981788,15.9643886 37.6418737,16.0131864 C37.5698533,16.0951742 37.4657182,16.1417609 37.3565942,16.1408256 L37.3565942,16.1408256 Z" id="Path" fill="#7A4029"></path>
                <path d="M14.7594582,115.733371 C14.7594582,115.733371 17.0529549,116.022405 20.4200033,116.337713 L24.2750296,65.6030142 L45.6709889,66.8342203 L18.2691463,39.8790652 C17.2411449,40.2849769 16.2726958,40.8279145 15.390076,41.4931463 C12.9914763,43.5126246 14.6656163,92.0476691 15.2436826,102.937086 C15.331893,104.51991 15.331893,106.106418 15.2436826,107.689242 L14.7594582,115.733371 Z" id="Path" fill="#40A569"></path>
                <path d="M20.0070988,40.288216 C18.3182959,39.8738164 16.5341135,40.3305471 15.252149,41.5054298 C13.9701846,42.6803125 13.3599535,44.4179914 13.6258478,46.1364449 C13.770118,47.0693634 13.9834119,47.9902913 14.2639729,48.8916439 C15.8743003,53.9666153 36.5983514,63.3808374 43.3136797,66.3162128 C44.6498801,66.9011417 46.1502957,66.9929225 47.5478275,66.5752165 L81.7062888,56.4402884 C81.7062888,56.4402884 81.1432373,52.2361701 79.8294503,50.5958132 L46.6094082,57.5926673 C46.6094082,57.5926673 24.5565554,41.4518559 20.1459848,40.3257528 L20.0070988,40.288216 Z" id="Path" fill="#42D57E"></path>
                <path d="M177.173558,92.3742391 L153.990848,92.3742391 L153.990848,69.1765147 L177.173558,69.1765147 L177.173558,92.3742391 Z M154.354955,91.9988713 L176.79819,91.9988713 L176.79819,69.5518825 L154.366216,69.5518825 L154.354955,91.9988713 Z" id="Shape" fill="#42D57E" fill-rule="nonzero"></path>
                <path d="M127.283436,92.5281398 L127.283436,69.0376287 L146.502262,80.2611231 L127.283436,92.5281398 Z M127.658804,69.6907685 L127.658804,91.8374632 L145.78531,80.2686305 L127.658804,69.6907685 Z" id="Shape" fill="#42D57E" fill-rule="nonzero"></path>
                <polygon id="Path" fill="#FE6B88" points="239.822428 120.733269 211.275714 120.733269 211.275714 94.5213423 211.275714 92.1865552 239.822428 92.1865552"></polygon>
                <path d="M91.2143528,92.1865552 L93.4365297,116.029912 L110.857345,130.200043 C110.857345,130.200043 109.825084,132.076881 108.792823,132.733775 L107.760561,133.390668 L88.3465436,121.754269 L83.9735098,111.150132 L91.2143528,92.1865552 Z" id="Path" fill="#40A569"></path>
                <rect id="Rectangle" fill="#303D72" x="41.4556096" y="149.813006" width="58.5911454" height="58.5911454"></rect>
                <rect id="Rectangle" fill="#A9C2DC" x="59.0528477" y="149.813006" width="58.5911454" height="58.5911454"></rect>
                <polygon id="Path" fill="#96B2CC" points="88.2864847 149.813006 117.643993 149.813006 117.643993 208.404151 109.05558 208.404151"></polygon>
                <rect id="Rectangle" fill="#303D72" x="30.9528211" y="172.338822" width="36.0615756" height="36.0615756"></rect>
                <rect id="Rectangle" fill="#F0F1F4" x="41.7859332" y="172.338822" width="36.0615756" height="36.0615756"></rect>
                <polygon id="Path" fill="#E5E5E5" points="62.187168 172.338822 77.8512625 172.338822 77.8512625 208.404151 59.0528477 208.404151"></polygon>
                <path d="M74.9684385,136.949154 L74.9684385,136.949154 C74.7204548,139.725727 75.5856658,142.487084 77.3737196,144.625709 C79.1617734,146.764334 81.7261888,148.105026 84.5027782,148.352825 L109.772532,150.605031 L116.363989,197.244469 L124.944895,196.546285 C124.944895,196.546285 123.694921,149.771715 122.369873,144.921964 C121.044825,140.072214 116.863228,138.045228 110.973709,137.148099 C105.08419,136.25097 74.9684385,136.949154 74.9684385,136.949154 Z" id="Path" fill="#19192B"></path>
                <path d="M77.0855123,89.0484812 L68.174283,91.7361139 L62.1683997,140.552684 L97.4529641,142.320666 L92.1490184,94.7615777 C91.8787302,92.344173 90.1148433,90.3592364 87.7459552,89.8067239 L85.9441902,89.3863121 L77.0855123,89.0484812 Z" id="Path" fill="#42D57E"></path>
                <polygon id="Path" fill="#40A569" points="96.1767139 130.67676 73.1403977 112.677878 73.1403977 101.277961 66.3124591 106.930999 62.187168 140.552684 97.4754862 142.320666"></polygon>
                <path d="M123.935156,195.983234 L123.935156,201.238381 L128.469598,203.254106 C130.506304,204.157161 131.818986,206.17622 131.817878,208.404151 L127.846487,208.404151 L117.993085,205.55511 L117.114725,195.292557 L123.935156,195.983234 Z" id="Path" fill="#19192B"></path>
                <path d="M63.3958521,140.612743 L63.3958521,140.612743 C63.3958521,146.419682 68.0203822,149.813006 73.823567,149.813006 L99.1909166,149.813006 L110.485731,198.145352 L118.74382,198.145352 C118.74382,198.145352 112.98568,147.755991 111.236466,143.015096 C109.487253,138.274202 105.136741,136.633845 99.1909166,136.284753 C91.9650882,135.849327 91.9951177,137.384581 63.3958521,140.612743 Z" id="Path" fill="#303D72"></path>
                <path d="M63.4709256,140.612743 C63.4709256,146.419682 68.0917021,149.813006 73.8986405,149.813006 L78.7784207,149.813006 L92.2315993,136.633845 C87.9561611,137.256956 81.2445865,138.612033 63.4709256,140.612743 Z" id="Path" fill="#27345E"></path>
                <path d="M110.954941,195.607866 L111.968433,204.113698 L122.966707,208.404151 L127.47112,208.404151 C127.468483,206.664845 126.464706,205.082471 124.892344,204.338919 L124.291755,204.053639 L118.086927,198.704649 L117.24235,196.077076 L110.954941,195.607866 Z" id="Path" fill="#303D72"></path>
                <path d="M91.154294,129.40051 C91.154294,129.40051 95.9590007,130.151245 97.4754862,131.37119 C98.9919717,132.591135 100.185641,135.808036 100.185641,135.808036 L95.9402323,135.808036 C94.8591733,135.808036 89.6528232,132.60615 89.6528232,132.60615 L91.154294,129.40051 Z" id="Path" fill="#FBAD83"></path>
                <path d="M73.0390485,92.4493126 C71.754419,91.4729549 70.0734539,91.1866741 68.5380563,91.6827601 C67.0026588,92.1788462 65.8069892,93.394566 65.3365031,94.9380005 C63.2794881,101.660836 59.9161934,112.719169 59.0340793,116.086217 C57.7390607,121.033563 63.3357932,123.330814 66.9806137,124.918619 C70.6254341,126.506425 89.5026761,133.927444 89.5026761,133.927444 C89.5026761,133.927444 92.4830957,132.497293 92.2879045,130.804385 L92.0927133,129.111477 L67.359735,115.571963 C67.359735,115.571963 75.2424569,102.036204 75.5352437,96.9574788 C75.6516077,95.0768865 74.5142435,93.5866767 73.0390485,92.4493126 Z" id="Path" fill="#42D57E"></path>
                <path d="M100.31702,135.808036 L129.246609,135.808036 C129.901708,135.808036 130.432771,135.276974 130.432771,134.621874 L130.432771,114.243162 C130.432771,113.587453 129.902315,113.055315 129.246609,113.053246 L100.31702,113.053246 L100.31702,135.808036 Z" id="Path" fill="#A9C2DC"></path>
                <path d="M99.5512696,135.808036 L100.185641,135.808036 C100.670746,135.808036 101.064001,135.414781 101.064001,134.929676 L101.064001,113.93536 C101.064001,113.449644 100.671353,113.055313 100.185641,113.053246 L99.5512696,113.053246 L99.5512696,135.808036 Z" id="Path" fill="#19192B"></path>
                <ellipse id="Oval" fill="#FFFFFF" cx="115.373018" cy="124.430641" rx="1.77548925" ry="2.36857023"></ellipse>
                <rect id="Rectangle" fill="#19192B" x="82.7610721" y="135.808036" width="16.7864439" height="1.54276128"></rect>
                <rect id="Rectangle" fill="#A9C2DC" x="99.5512696" y="135.808036" width="29.9055452" height="1.54276128"></rect>
                <polygon id="Path" fill="#FFFFFF" points="77.3257477 89.0897716 85.1484107 97.3553685 85.7152159 89.4088342"></polygon>
                <polygon id="Path" fill="#E56107" points="83.8346237 85.0883519 94.0709011 86.6874183 94.0709011 70.719276"></polygon>
                <path d="M77.3257477,76.5975343 L77.3257477,89.0897716 C78.7158383,90.2624308 80.518614,90.8277423 82.3293992,90.6588086 C84.6716937,90.5011542 85.7077086,89.4088342 85.7077086,89.4088342 L86.9614367,82.7460574 L77.3257477,76.5975343 Z" id="Path" fill="#FBAD83"></path>
                <path d="M77.3257477,78.7221155 C77.4136665,78.94224 77.5178044,79.1555344 77.6373029,79.3602406 C79.2851671,82.1041786 82.6146787,86.1431351 86.1168594,87.2804993 L86.9689441,82.7460574 L77.3257477,76.5975343 L77.3257477,78.7221155 Z" id="Path" fill="#E68D5C"></path>
                <path d="M94.5663865,81.6649984 C91.154294,88.8420289 82.5546198,83.0651199 78.9360751,79.4465752 C75.3175304,75.8280305 75.9331335,63.5347381 76.9428726,60.9146715 C77.9526117,58.2946049 86.3270653,56.1700237 90.7451432,57.8591784 C95.1632211,59.5483331 97.9709716,74.4879678 94.5663865,81.6649984 Z" id="Path" fill="#FBAD83"></path>
                <path d="M82.0741492,88.0199736 L73.4406919,85.0883519 C73.4406919,85.0883519 72.1719491,65.1938634 74.9421627,60.2239949 C77.7123764,55.2541265 85.017032,53.5687255 89.7354041,55.3442147 C96.6008794,57.9304982 96.4920228,67.0481798 96.6008794,67.8514667 C95.008553,67.5593921 93.3774224,67.547959 91.7811581,67.8176836 C90.0102472,68.1420813 88.2002971,68.1952406 86.4133999,67.9753381 L83.0350905,67.569941 L82.0741492,88.0199736 Z" id="Path" fill="#F76A00"></path>
                <path d="M82.0741492,88.0199736 L82.8248846,72.0555851 L73.3731257,68.046658 C72.8288425,75.5540121 73.4369382,85.0883519 73.4369382,85.0883519 L82.0741492,88.0199736 Z" id="Path" fill="#E56107"></path>
                <path d="M77.7273911,74.8408134 C77.7273911,76.1883835 79.5178951,77.3858065 80.6177225,77.3858065 C81.7175498,77.3858065 81.7100432,76.1883835 81.7100432,74.8408134 C81.7100432,73.4932434 80.8166673,72.4009234 79.71684,72.4009234 C78.6170126,72.4009234 77.7273911,73.4932434 77.7273911,74.8408134 Z" id="Path" fill="#FBAD83"></path>
                <path d="M82.8474066,78.3317331 C82.8474066,79.3993789 81.9819087,80.2648768 80.914263,80.2648768 C79.8466172,80.2648768 78.9811193,79.3993789 78.9811193,78.3317331 C78.9811193,77.2640873 79.8466172,76.3985894 80.914263,76.3985894 C81.9819087,76.3985894 82.8474066,77.2640873 82.8474066,78.3317331 L82.8474066,78.3317331 Z" id="Path" fill="#FFFFFF"></path>
                <path d="M95.3433976,76.8077402 C93.6617503,76.8077402 92.2916582,75.1786444 92.2916582,73.1741808 L92.2916582,72.986497 L92.479342,72.986497 L98.3914141,72.986497 L98.3914141,73.1741808 C98.3988908,75.1786444 97.0287986,76.8077402 95.3433976,76.8077402 Z M92.6707795,73.34685 C92.7458531,75.0622804 93.9170003,76.4323725 95.3433976,76.4323725 C96.7697949,76.4323725 97.9409421,75.0622804 98.0160157,73.34685 L92.6707795,73.34685 Z" id="Shape" fill="#1A2249" fill-rule="nonzero"></path>
                <path d="M88.2864847,76.8077402 C86.6048374,76.8077402 85.2347453,75.1786444 85.2347453,73.1741808 L85.2347453,72.986497 L85.4261828,72.986497 L91.3382242,72.986497 L91.3382242,73.1741808 C91.3382242,75.1786444 89.968132,76.8077402 88.2864847,76.8077402 Z M85.6138666,73.34685 C85.6889402,75.0622804 86.8600874,76.4323725 88.2864847,76.4323725 C89.712882,76.4323725 90.8840293,75.0622804 90.9591028,73.34685 L85.6138666,73.34685 Z" id="Shape" fill="#1A2249" fill-rule="nonzero"></path>
                <rect id="Rectangle" fill="#1A2249" x="81.2370792" y="72.9714823" width="11.5388033" height="1"></rect>
                <rect id="Rectangle" fill="#19192B" x="77.427097" y="173.318531" width="9.88343173" height="30.3109424" rx="4.94171586"></rect>
                <path d="M83.2940942,173.318531 L83.3991972,173.318531 C86.0942254,173.318531 88.2789774,175.503283 88.2789774,178.198312 L88.2789774,198.730925 C88.2789774,201.425953 86.0942254,203.610705 83.3991972,203.610705 L83.2940942,203.610705 C80.599066,203.610705 78.414314,201.425953 78.414314,198.730925 L78.414314,178.198312 C78.414314,176.904113 78.9284322,175.662922 79.8435685,174.747786 C80.7587049,173.83265 81.999896,173.318531 83.2940942,173.318531 L83.2940942,173.318531 Z" id="Path" fill="#303D72"></path>
                <rect id="Rectangle" fill="#303D72" x="66.3087055" y="178.018135" width="33.9257334" height="30.3109424" rx="13.02"></rect>
                <rect id="Rectangle" fill="#FF9398" x="63.838786" y="178.018135" width="9.88343173" height="30.3109424" rx="4.94171586"></rect>
                <path d="M66.3087055,204.308889 L66.3087055,182.053338 C66.3081192,179.954902 67.9216124,178.208994 70.0135847,178.044411 C69.9122355,178.044411 69.8071325,178.044411 69.6982759,178.044411 L67.8589741,178.044411 C65.6439277,178.046462 63.8470501,179.838306 63.838786,182.053338 L63.838786,204.32015 C63.8470501,206.535182 65.6439277,208.327027 67.8589741,208.329077 L69.6982759,208.329077 C69.8071325,208.329077 69.9122355,208.329077 70.0135847,208.329077 C67.9172881,208.164164 66.3022287,206.411653 66.3087055,204.308889 L66.3087055,204.308889 Z" id="Path" fill="#FFB0B2"></path>
                <path d="M92.6557648,202.495865 L81.9690462,202.495865 C80.785698,202.496859 79.6504756,202.027474 78.8133698,201.191072 C77.9762639,200.354671 77.5059242,199.219844 77.5059242,198.036495 L77.5059242,186.523967 L97.1188869,186.523967 L97.1188869,198.036495 C97.1188869,199.219844 96.6485471,200.354671 95.8114413,201.191072 C94.9743354,202.027474 93.8391131,202.496859 92.6557648,202.495865 L92.6557648,202.495865 Z" id="Path" fill="#19192B"></path>
                <path d="M93.6354745,202.495878 L82.9562633,202.495878 C80.4928142,202.495878 78.4952131,200.499943 78.4931412,198.036495 L78.4931412,186.523967 L98.1098576,186.523967 L98.1098576,198.036495 C98.1088648,199.221492 97.6366591,200.357449 96.7973325,201.193959 C95.958006,202.030469 94.8204679,202.498854 93.6354745,202.495878 L93.6354745,202.495878 Z" id="Path" fill="#FFB0B2"></path>
                <rect id="Rectangle" fill="#303D72" x="0" y="208.216467" width="295.592417" height="1"></rect>
                <path d="M90.9928859,25.1909268 C90.9928859,25.9181545 90.5548145,26.5737747 89.8829437,26.8520727 C89.2110729,27.1303707 88.4377162,26.9765405 87.9234886,26.4623128 C87.4092609,25.9480852 87.2554307,25.1747285 87.5337287,24.5028577 C87.8120267,23.8309869 88.4676469,23.3929155 89.1948746,23.3929155 C90.1870323,23.3949804 90.990821,24.1987691 90.9928859,25.1909268 L90.9928859,25.1909268 Z" id="Path" fill="#42D57E"></path>
                <polygon id="Path" fill="#FF9398" points="211.275714 94.5213423 232.934431 120.733269 211.275714 120.733269"></polygon>
                <path d="M98.383876,25.1909268 C98.383876,25.9181545 97.9458046,26.5737747 97.2739339,26.8520727 C96.6020631,27.1303707 95.8287064,26.9765405 95.3144787,26.4623128 C94.8002511,25.9480852 94.6464209,25.1747285 94.9247189,24.5028577 C95.2030169,23.8309869 95.858637,23.3929155 96.5858647,23.3929155 C97.578879,23.3929155 98.383876,24.1979126 98.383876,25.1909268 Z" id="Path" fill="#42D57E"></path>
                <path d="M105.572168,25.1909268 C105.572168,25.9184958 105.133687,26.5743522 104.461356,26.8524288 C103.789024,27.1305054 103.015374,26.9759859 102.501443,26.4609797 C101.987511,25.9459735 101.834609,25.1720019 102.11409,24.5002527 C102.393571,23.8285036 103.050343,23.3913966 103.77791,23.3929116 C104.769458,23.3949856 105.572168,24.1993767 105.572168,25.1909268 L105.572168,25.1909268 Z" id="Path" fill="#42D57E"></path>
                <path d="M271.015485,83.1289324 C271.015485,87.704261 267.306448,91.4132977 262.731119,91.4132977 C258.155791,91.4132977 254.446754,87.704261 254.446754,83.1289324 C254.446754,78.5536038 258.155791,74.8445671 262.731119,74.8445671 C267.306448,74.8445671 271.015485,78.5536038 271.015485,83.1289324 L271.015485,83.1289324 Z" id="Path" fill="#FFFFFF"></path>
                <polygon id="Path" fill="#48BF79" points="182.725246 38.8880945 211.275714 51.3615634 211.275714 63.6360874 182.725246 63.6360874"></polygon>
                <path d="M267.223198,208.404151 C267.223198,208.404151 267.692408,193.731027 267.223198,172.109847 C266.753989,150.488667 290.920162,130.78937 310.889724,140.639019 C310.889724,140.639019 298.070916,140.796673 288.949481,148.720686 C279.828046,156.644698 274.647971,161.303011 273.908497,174.876307 C273.169023,188.449604 270.436346,208.404151 270.436346,208.404151 L267.223198,208.404151 Z" id="Path" fill="#00B98F"></path>
                <path d="M258.424579,208.362861 C258.424579,208.362861 256.844281,165.450824 251.694236,148.720686 C246.544191,131.990547 253.44345,94.525096 253.44345,94.525096 C253.44345,94.525096 253.691192,123.4697 257.880296,137.714904 C262.0694,151.960109 269.242676,170.371895 267.876338,187.056989 C266.51,203.742084 262.966528,208.404151 262.966528,208.404151 L258.424579,208.362861 Z" id="Path" fill="#00B98F"></path>
                <path d="M261.979311,151.761164 L251.292593,148.236461 C251.337637,148.401623 251.382681,148.563031 251.435232,148.720686 C256.585277,165.450824 258.165575,208.362861 258.165575,208.362861 L262.707525,208.404151 C262.707525,208.404151 266.250996,203.734577 267.617334,187.056989 C268.582029,175.465635 265.410172,163.044717 261.979311,151.761164 Z" id="Path" fill="#068E6A"></path>
                <path d="M258.923818,208.404151 C258.923818,208.404151 265.706713,187.008192 253.88263,152.913543 C242.058547,118.818894 227.437975,111.037521 227.437975,111.037521 C227.437975,111.037521 240.620889,139.768166 246.13504,162.230169 C251.649192,184.692173 251.716758,208.400397 251.716758,208.400397 L258.923818,208.404151 Z" id="Path" fill="#00C99C"></path>
                <path d="M274.914483,150.845267 C270.068485,156.832382 267.06179,164.358504 267.226952,172.109847 C267.692408,193.731027 267.226952,208.404151 267.226952,208.404151 L270.436346,208.404151 C270.436346,208.404151 273.161515,188.449604 273.90099,174.876307 C274.434012,165.116747 277.256777,159.974209 282.185355,154.910499 L274.914483,150.845267 Z" id="Path" fill="#068E6A"></path>
                <path d="M262.118197,208.404151 C262.118197,208.404151 265.695452,187.818986 261.74283,158.682945 C257.790208,129.546903 295.345747,103.879259 295.345747,103.879259 C295.345747,103.879259 275.642696,126.986895 272.072949,145.729005 C268.503202,164.471115 271.348489,187.638809 269.070007,199.278962 C267.677393,206.452239 267.568537,208.39289 267.568537,208.39289 L262.118197,208.404151 Z" id="Path" fill="#00C99C"></path>
                <path d="M270.436346,208.404151 C270.436346,208.404151 272.422041,195.532792 272.178052,176.460359 C271.934063,157.387926 284.047179,141.412276 272.19682,113.162103 C260.346462,84.911929 251.960747,85.6476497 251.960747,85.6476497 C251.960747,85.6476497 266.014514,84.4164437 275.875424,102.163829 C285.736334,119.911214 287.785841,142.767354 281.322009,164.68132 C274.858177,186.595287 275.211023,208.404151 275.211023,208.404151 L270.436346,208.404151 Z" id="Path" fill="#00C99C"></path>
                <path d="M258.923818,208.404151 C258.923818,208.404151 264.287823,191.478821 257.15959,163.757916 L245.744658,160.683654 C245.87979,161.201662 246.011169,161.719669 246.120026,162.230169 C251.637931,184.692173 251.701744,208.400397 251.701744,208.400397 L258.923818,208.404151 Z" id="Path" fill="#00B98F"></path>
                <path d="M262.872687,168.288604 C264.978499,192.240818 262.178256,208.404151 262.178256,208.404151 L267.624842,208.404151 C267.624842,208.404151 267.744959,206.4635 269.126313,199.290223 C270.586493,191.760347 269.910831,179.395735 270.218633,166.543144 L262.872687,168.288604 Z" id="Path" fill="#00B98F"></path>
                <path d="M272.204328,177.999367 C272.328199,196.219715 270.451361,208.404151 270.451361,208.404151 L275.211023,208.404151 C275.24089,199.376486 276.009202,190.366393 277.508273,181.464011 L272.204328,177.999367 Z" id="Path" fill="#00B98F"></path>
                <path d="M227.36022,196.640127 L226.984853,208.276526 L207.841099,208.276526 C207.841505,206.084886 209.212454,204.127458 211.27196,203.377977 L218.914447,200.592749 L219.590109,195.607866 L227.36022,196.640127 Z" id="Path" fill="#19192B"></path>
                <path d="M255.325114,195.607866 L257.295795,208.404151 L238.655034,208.404151 C238.654592,206.653 239.740605,205.085313 241.380204,204.470297 L247.975415,202.004132 L247.412363,197.244469 L255.325114,195.607866 Z" id="Path" fill="#303D72"></path>
                <path d="M226.023911,100.324527 C226.023911,100.324527 218.448991,142.36571 217.7433,146.554814 C217.037608,150.743918 218.925708,197.942653 218.925708,197.942653 L228.486323,197.942653 C228.486323,197.942653 231.023809,152.008907 231.827096,148.127605 C232.630383,144.246303 243.838863,121.333858 246.395117,113.458643 C248.951371,105.583429 248.17436,96.9049273 248.17436,96.9049273 L226.023911,100.324527 Z" id="Path" fill="#19192B"></path>
                <path d="M243.373407,118.180769 L243.373407,97.6556627 L226.050187,100.324527 C226.050187,100.324527 225.82872,101.544472 224.59376,108.406194 L243.373407,118.180769 Z" id="Path" fill="#303D72"></path>
                <path d="M237.296203,101.784707 C237.296203,101.784707 236.954619,144.50906 236.969634,148.750715 C236.984648,152.99237 246.991951,197.953914 246.991951,197.953914 L256.751512,197.109337 C256.751512,197.109337 251.000878,151.881282 251.120996,147.936167 C251.241114,143.991052 258.410637,119.494556 259.604306,111.296525 C260.797976,103.098494 258.553277,94.6827504 258.553277,94.6827504 L237.296203,101.784707 Z" id="Path" fill="#303D72"></path>
                <path d="M237.258667,106.40173 L257.449696,121.322597 C258.448174,117.227335 259.262722,113.605037 259.600553,111.285264 C260.351288,106.030116 259.709409,100.654851 259.146358,97.5017619 L237.26242,106.071407 C237.26242,106.180263 237.258667,106.28912 237.258667,106.40173 Z" id="Path" fill="#27345E"></path>
                <path d="M224.845257,97.8245782 L224.469889,101.525704 C224.469889,101.525704 239.296913,111.243974 258.346824,104.675039 L261.162082,103.73662 L260.553987,98.7629974 L224.845257,97.8245782 Z" id="Path" fill="#F0F1F4"></path>
                <path d="M227.097463,52.9531224 L223.629065,73.5720706 L192.984046,77.1192954 L194.110149,83.1552082 C194.110149,83.1552082 217.882186,84.8931606 223.764198,83.1326861 C229.64621,81.3722116 233.482468,78.9510898 234.815023,68.2756323 C236.147578,57.6001747 227.097463,52.9531224 227.097463,52.9531224 Z" id="Path" fill="#40A569"></path>
                <path d="M245.895878,46.5906398 L261.800207,50.5282471 L261.800207,100.598546 C256.980486,102.520428 246.849312,105.726068 234.773732,103.12477 C230.943918,102.297206 227.24148,100.962915 223.764198,99.1571335 C224.890301,83.5268222 225.873764,69.2027905 226.977345,53.7826851 C227.164659,51.3193004 228.809039,49.2076323 231.151434,48.4224342 L236.218898,46.7295259 L245.895878,46.5906398 Z" id="Path" fill="#42D57E"></path>
                <path d="M245.895878,46.5906398 C245.895878,46.5906398 242.656454,52.0897767 238.467351,51.2789825 C234.278247,50.4681882 236.215144,46.7220185 236.215144,46.7220185 L245.895878,46.5906398 Z" id="Path" fill="#FFFFFF"></path>
                <path d="M249.919819,103.725359 C253.994598,103.181338 257.985563,102.130951 261.800207,100.598546 L261.800207,62.3110394 L256.751512,61.7029437 L249.919819,103.725359 Z" id="Path" fill="#40A569"></path>
                <path d="M261.800207,50.5282471 C261.800207,50.5282471 283.477692,66.3875327 285.073005,73.707203 C286.668318,81.0268733 269.138646,97.1676847 269.138646,97.1676847 C269.138646,97.1676847 265.846671,97.3553685 265.009601,93.9770592 L277.021368,75.3513135 C277.021368,75.3513135 257.502247,65.5429553 255.625409,59.7247559 C253.74857,53.9065564 261.800207,50.5282471 261.800207,50.5282471 Z" id="Path" fill="#42D57E"></path>
                <rect id="Rectangle" fill="#FE6B88" x="189.459343" y="57.0821672" width="28.5467141" height="28.5467141"></rect>
                <polygon id="Path" fill="#A8B4FE" points="277.006353 97.4041663 269.262517 97.4041663 248.459639 97.4041663 248.459639 68.8536985 277.006353 68.8536985"></polygon>
                <polygon id="Path" fill="#8294FF" points="248.459639 87.7497089 277.006353 76.7476814 277.006353 97.4041663 248.459639 97.4041663"></polygon>
                <path d="M268.061341,98.383876 C268.061341,98.383876 266.41723,99.8853469 264.570421,99.8853469 C262.723612,99.8853469 258.891108,97.1151332 259.379086,94.9079711 C259.867064,92.700809 263.534406,92.4943567 264.48784,92.8434487 C265.441274,93.1925407 266.402215,96.0791183 267.197995,96.4056882 C267.993775,96.7322581 268.830845,93.9282614 269.881874,93.5829231 C270.417303,93.3521644 271.037004,93.4421445 271.484694,93.815651 C271.484694,93.815651 269.277532,97.0212913 268.883396,97.5468061 C268.646119,97.8596779 268.369867,98.1409754 268.061341,98.383876 L268.061341,98.383876 Z" id="Path" fill="#FBAD83"></path>
                <path d="M187.762681,80.704057 C187.762681,80.704057 188.228137,82.8849434 189.737115,83.9547414 C191.246093,85.0245393 195.971973,84.9907563 196.869101,82.9187265 C197.76623,80.8466968 194.88716,78.541939 193.90745,78.275428 C192.92774,78.0089169 190.472836,79.7994209 189.632012,79.600476 C188.791188,79.4015311 189.737115,76.6350711 189.080221,75.7492033 C188.781809,75.2469286 188.225275,74.95631 187.642563,74.9984679 C187.642563,74.9984679 187.578751,78.891031 187.597519,79.5441708 C187.6035,79.9362127 187.658994,80.3259279 187.762681,80.704057 Z" id="Path" fill="#FBAD83"></path>
                <path d="M245.895878,34.1847371 L245.895878,46.5906398 C245.895878,46.5906398 243.812587,48.3586217 240.148998,48.1446621 C236.770689,47.9494709 236.218898,46.7220185 236.218898,46.7220185 L234.815023,40.288216 L245.895878,34.1847371" id="Path" fill="#FBAD83"></path>
                <path d="M235.982416,45.6372058 C237.33851,45.0769753 238.603611,44.3179144 239.736094,43.3849996 C241.437507,42.069458 242.709978,40.2783322 243.392175,38.2387083 L235.959894,39.6500909 L234.815023,40.2807087 L235.982416,45.6296985" id="Path" fill="#E68D5C"></path>
                <rect id="Rectangle" fill="#1A2249" x="226.639514" y="26.9514014" width="6.29491645" height="1"></rect>
                <path d="M228.516353,18.2729 C228.516353,18.2729 227.446555,20.9004739 227.446555,23.2277537 C227.446555,25.1045923 228.19729,28.606773 228.19729,28.606773 L232.480236,17.6723117 L228.516353,18.2729 Z" id="Path" fill="#7A4029"></path>
                <path d="M228.775356,39.2146644 C232.153666,46.3466508 240.56941,42.1312714 244.165432,38.5390025 C247.761455,34.9467335 247.269723,21.2157828 246.271245,18.6144846 C245.272767,16.0131864 236.958372,13.8886052 232.570324,15.5815135 C228.182275,17.2744219 225.385786,32.0976926 228.775356,39.2296791" id="Path" fill="#FBAD83"></path>
                <rect id="Rectangle" fill="#CCBCB7" x="227.446555" y="34.1959981" width="7.13198644" height="8.89621466"></rect>
                <path d="M246.920631,28.606773 L243.129418,28.606773 C243.129418,28.606773 240.6107,35.1982299 238.459843,35.8288476 C238.28633,35.8771948 238.106941,35.9011976 237.926821,35.9001675 C236.132564,35.9001675 233.737718,33.7192811 230.719761,33.5916561 C230.438235,33.5916561 230.186739,33.5916561 229.969026,33.5916561 C228.677761,33.5916561 228.092187,33.7830936 227.461569,34.2147665 C227.630649,35.9479983 228.078073,37.6426326 228.786618,39.2334328 C230.134188,42.0674589 232.273784,43.1072275 234.589802,43.1109812 C238.09949,43.1109812 242.010822,40.7198889 244.176693,38.5577709 C245.9184,36.8198184 246.702918,32.7057883 246.931892,28.6255413" id="Path" fill="#D48C68"></path>
                <path d="M245.790775,29.477626 C244.560508,29.3641813 243.428905,28.7564621 242.654861,27.7935068 C241.880818,26.8305516 241.530571,25.5947622 241.684252,24.3688715 C241.879443,22.8261103 242.333638,22.3306249 241.931995,20.8666908 C241.132461,17.9538374 237.637788,18.2391169 235.276725,19.3126685 C232.915662,20.3862202 230.344393,20.3974812 228.317408,18.8622273 C226.819913,17.698901 226.443904,15.5919533 227.446555,13.9824471 C228.764095,11.8578659 233.452438,9.30911914 233.452438,9.30911914 C233.452438,9.30911914 232.885633,10.5853693 233.07707,11.2460165 C233.268508,11.9066637 245.678164,8.17550866 248.226911,13.6971676 C250.775658,19.2188266 247.367319,29.6240194 247.367319,29.6240194 L245.790775,29.477626 Z" id="Path" fill="#7A4029"></path>
                <path d="M247.971661,29.5526996 C247.971661,31.3882477 245.528017,33.0210972 244.0303,33.0210972 C242.532583,33.0210972 242.528829,31.3882477 242.528829,29.5526996 C242.528829,27.7171515 243.745021,26.223188 245.242738,26.223188 C246.740455,26.223188 247.971661,27.7133978 247.971661,29.5526996 Z" id="Path" fill="#FBAD83"></path>
                <path d="M246.853065,29.3875378 C247.025734,30.2095931 246.10233,31.1705344 245.415407,31.3131741 C244.728484,31.4558139 246.188664,30.3334644 246.012242,29.5114091 C245.835819,28.6893539 244.649657,28.2989714 245.321565,28.1563317 C245.993473,28.013692 246.676642,28.5654825 246.853065,29.3875378 Z" id="Path" fill="#E68D5C"></path>
                <path d="M228.974301,31.0616778 C227.585441,31.0616778 226.45183,29.6014974 226.45183,27.8072397 C226.45183,26.0129821 227.577933,24.549048 228.974301,24.549048 C230.370669,24.549048 231.500526,26.0092284 231.500526,27.8072397 C231.500526,29.6052511 230.366916,31.0616778 228.974301,31.0616778 Z M228.974301,24.9244158 C227.791893,24.9244158 226.827198,26.2194343 226.827198,27.8072397 C226.827198,29.3950451 227.791893,30.6863101 228.974301,30.6863101 C230.15671,30.6863101 231.125158,29.3950451 231.125158,27.8072397 C231.125158,26.2194343 230.160463,24.9244158 228.974301,24.9244158 Z" id="Shape" fill="#1A2249" fill-rule="nonzero"></path>
                <path d="M234.815023,31.0616778 C233.426162,31.0616778 232.292552,29.6014974 232.292552,27.8072397 C232.292552,26.0129821 233.418655,24.549048 234.815023,24.549048 C236.211391,24.549048 237.341248,26.0092284 237.341248,27.8072397 C237.341248,29.6052511 236.207637,31.0616778 234.815023,31.0616778 Z M234.815023,24.9244158 C233.632615,24.9244158 232.66792,26.2194343 232.66792,27.8072397 C232.66792,29.3950451 233.632615,30.6863101 234.815023,30.6863101 C235.997431,30.6863101 236.96588,29.3950451 236.96588,27.8072397 C236.96588,26.2194343 236.001185,24.9244158 234.815023,24.9244158 Z" id="Shape" fill="#1A2249" fill-rule="nonzero"></path>
                <rect id="Rectangle" fill="#1A2249" x="237.097259" y="26.9514014" width="5.81444578" height="1"></rect>
                <rect id="Rectangle" fill="#1A2249" x="231.312842" y="26.9514014" width="1.16739357" height="1"></rect>
                <path d="M229.011838,35.4121895 L234.289508,35.4121895 C234.289508,35.4121895 233.21971,37.9083847 231.440467,37.9797046 C229.661224,38.0510245 229.011838,35.4121895 229.011838,35.4121895 Z" id="Path" fill="#FFFFFF"></path>
                <path d="M45.5358566,26.5084675 C45.5358566,26.5084675 41.5757272,26.6135704 40.9150801,26.4033645 L40.2581866,26.1931586 C40.2581866,26.1931586 40.2581866,28.1263023 42.1087494,28.7944568 C43.9593122,29.4626113 44.9502829,28.2314053 45.1942719,27.548236 C45.4382609,26.8650668 45.5358566,26.5084675 45.5358566,26.5084675 Z" id="Path" fill="#FFFFFF"></path>
                <polygon id="Path" fill="#FFFFFF" points="212.03771 76.4361262 195.431443 76.4361262 203.734577 63.2719807"></polygon>
            </g>
        </g>
    </g>
</svg>